<svg width="125" height="49" viewBox="0 0 145 58" fill="none" xmlns="http://www.w3.org/2000/svg">
<path d="M79.0541 24.2191C79.2174 24.2204 79.2174 24.2204 79.384 24.2216C81.3782 24.263 83.03 24.9827 84.4563 26.3929C85.3088 27.3008 85.8133 28.2677 86.2093 29.4439C86.2341 29.5172 86.2589 29.5906 86.2845 29.6661C86.759 31.3818 86.3606 33.3434 85.5224 34.868C85.2598 35.3224 84.9683 35.7309 84.6151 36.1197C84.5175 36.231 84.5175 36.231 84.4178 36.3446C83.4813 37.351 82.334 37.925 81.0282 38.3117C80.9045 38.3485 80.9045 38.3485 80.7783 38.386C78.8781 38.853 76.7525 38.3856 75.0935 37.4087C73.5792 36.3897 72.4488 34.8601 72.0494 33.0663C71.6934 31.1747 71.8689 29.0739 72.9575 27.4511C74.3905 25.4127 76.5496 24.1944 79.0541 24.2191Z" fill="#AD080F"/>
<path d="M56.6172 19.481C57.768 19.481 58.9188 19.481 60.1045 19.481C60.1374 22.1443 60.1703 24.8077 60.2042 27.5517C60.9611 26.6783 61.7163 25.8052 62.4608 24.9214C62.5988 24.7579 62.7372 24.5948 62.8757 24.4318C63.3081 23.9227 63.7375 23.4121 64.1586 22.8936C64.4895 22.4868 64.8322 22.0939 65.183 21.7042C65.4775 21.3688 65.7568 21.0216 66.0361 20.6735C66.1173 20.5759 66.1985 20.4783 66.2821 20.3777C66.3245 20.3012 66.3669 20.2246 66.4105 20.1458C66.6459 19.7847 66.8585 19.5282 67.2964 19.4345C67.9538 19.3674 68.6123 19.3996 69.2713 19.4249C69.474 19.4294 69.6768 19.4335 69.8796 19.4372C70.3745 19.447 70.869 19.4625 71.3637 19.481C71.2702 19.6068 71.1765 19.7324 71.0828 19.858C71.0306 19.928 70.9785 19.998 70.9248 20.0701C70.6907 20.3764 70.4401 20.6666 70.1867 20.9569C69.8277 21.3716 69.473 21.7883 69.128 22.2148C68.7193 22.7181 68.2962 23.2076 67.8706 23.6965C67.4716 24.1549 67.076 24.616 66.6852 25.0815C66.4511 25.3604 66.2146 25.6367 65.9738 25.91C65.9233 25.968 65.8728 26.0259 65.8207 26.0857C65.7242 26.1964 65.6269 26.3065 65.5287 26.4158C65.2602 26.7256 65.1242 26.9439 65.0864 27.3524C65.159 27.5652 65.159 27.5652 65.2927 27.7634C65.3403 27.8409 65.3879 27.9184 65.4369 27.9983C65.4898 28.0811 65.5426 28.1639 65.5971 28.2492C65.6512 28.3366 65.7054 28.424 65.7611 28.514C65.9335 28.7919 66.1078 29.0685 66.2821 29.3452C66.4448 29.607 66.6069 29.8692 66.769 30.1315C66.8768 30.3057 66.9847 30.4798 67.0928 30.6538C67.5144 31.3326 67.9269 32.0165 68.337 32.7024C68.9531 33.7325 69.5789 34.7565 70.2116 35.7765C70.2696 35.87 70.3276 35.9635 70.3873 36.0599C70.4996 36.2407 70.612 36.4215 70.7245 36.6022C71.5629 37.9517 71.5629 37.9517 71.5629 38.213C71.0118 38.2502 70.4615 38.2771 69.9094 38.2951C69.7221 38.3026 69.5349 38.3127 69.3479 38.3257C67.8432 38.4276 67.8432 38.4276 67.4116 38.0791C67.1195 37.7281 66.9385 37.3293 66.764 36.9103C66.6469 36.6407 66.4947 36.3992 66.337 36.1517C66.2841 36.0649 66.2312 35.9782 66.1768 35.8887C66.1232 35.8008 66.0696 35.7129 66.0143 35.6224C65.9556 35.526 65.8968 35.4295 65.8363 35.3302C65.593 34.9307 65.3495 34.5313 65.106 34.132C64.2969 32.8053 63.4925 31.476 62.6951 30.1423C62.2691 30.3332 62.0229 30.6293 61.7299 30.983C61.6822 31.0394 61.6344 31.0959 61.5853 31.154C61.4815 31.2774 61.3799 31.4026 61.2802 31.5293C61.1009 31.7365 61.1009 31.7365 60.8654 31.9311C60.26 32.4934 60.1497 32.9556 60.1043 33.7622C60.0879 34.3722 60.0913 34.9811 60.0983 35.5913C60.098 35.8455 60.0973 36.0997 60.0962 36.3539C60.0935 36.9738 60.0992 37.5929 60.1045 38.213C58.9537 38.213 57.8029 38.213 56.6172 38.213C56.6172 32.0314 56.6172 25.8499 56.6172 19.481Z" fill="#AE070E"/>
<path d="M99.9922 24.2193C100.111 24.22 100.229 24.2208 100.352 24.2216C102.019 24.2528 103.395 24.7562 104.621 25.9143C105.438 26.8036 105.788 27.7946 105.774 28.9821C105.774 29.1324 105.774 29.1324 105.774 29.2858C105.774 29.6146 105.772 29.9435 105.769 30.2723C105.769 30.5013 105.768 30.7302 105.768 30.9592C105.767 31.56 105.764 32.1608 105.761 32.7616C105.758 33.3755 105.756 33.9893 105.755 34.6031C105.751 35.8061 105.746 37.0092 105.74 38.2122C104.721 38.2122 103.701 38.2122 102.651 38.2122C102.618 37.7848 102.585 37.3573 102.552 36.9169C102.447 37.0197 102.342 37.1224 102.234 37.2283C100.953 38.3427 99.2337 38.6312 97.5873 38.5322C96.2935 38.4065 95.1798 37.849 94.3505 36.8539C93.6599 35.8874 93.5848 34.788 93.6838 33.6289C93.9453 32.5537 94.6226 31.7035 95.5458 31.1068C97.6008 29.9913 100.16 29.788 102.452 29.5437C102.449 28.8574 102.389 28.3494 101.936 27.8156C101.249 27.191 100.436 27.1074 99.5426 27.1248C99.0392 27.1615 98.6906 27.2839 98.2672 27.5509C98.1614 27.6143 98.1614 27.6143 98.0535 27.679C97.514 28.0383 97.2413 28.4625 96.9719 29.0455C96.403 28.9497 95.9221 28.7152 95.4026 28.4726C95.3059 28.4297 95.2091 28.3868 95.1095 28.3426C95.0177 28.2997 94.9258 28.2568 94.8312 28.2126C94.7472 28.1741 94.6633 28.1356 94.5768 28.0959C94.3813 27.9495 94.3813 27.9495 94.2959 27.7005C94.2626 27.1202 94.7935 26.5842 95.1426 26.1537C95.6112 25.651 96.1822 25.304 96.7726 24.9603C96.8761 24.9 96.8761 24.9 96.9816 24.8385C97.9358 24.3232 98.9218 24.2098 99.9922 24.2193Z" fill="#AD080F"/>
<path d="M115.29 24.2192C115.396 24.2202 115.502 24.2212 115.611 24.2222C117.068 24.2553 118.091 24.7816 119.179 25.7224C120.558 27.1671 120.513 29.0681 120.503 30.9242C120.503 31.1348 120.503 31.3455 120.503 31.5562C120.502 32.1073 120.5 32.6585 120.498 33.2097C120.496 33.7735 120.495 34.3372 120.494 34.901C120.492 36.0047 120.488 37.1084 120.484 38.2122C119.366 38.2122 118.248 38.2122 117.096 38.2122C117.095 37.9442 117.093 37.6762 117.092 37.4001C117.087 36.5136 117.08 35.6271 117.073 34.7407C117.068 34.2033 117.064 33.666 117.062 33.1287C117.059 32.6099 117.055 32.0911 117.05 31.5723C117.048 31.3746 117.047 31.1769 117.047 30.9792C117.046 30.7018 117.043 30.4245 117.04 30.1471C117.04 30.0658 117.04 29.9844 117.04 29.9006C117.027 29.0939 116.752 28.5202 116.199 27.9296C115.537 27.3318 114.83 27.2879 113.961 27.3131C113.498 27.3637 113.186 27.4792 112.812 27.7502C112.707 27.82 112.602 27.8899 112.494 27.9619C111.908 28.5018 111.695 29.1436 111.657 29.9242C111.645 30.3841 111.644 30.8436 111.645 31.3037C111.644 31.5033 111.643 31.7029 111.641 31.9026C111.637 32.4251 111.636 32.9476 111.635 33.4701C111.634 34.0045 111.631 34.5388 111.627 35.0732C111.621 36.1195 111.618 37.1658 111.616 38.2122C110.531 38.2122 109.446 38.2122 108.328 38.2122C108.328 33.7075 108.328 29.2029 108.328 24.5617C109.347 24.5617 110.367 24.5617 111.417 24.5617C111.466 25.2522 111.466 25.2522 111.517 25.9567C111.613 25.8375 111.71 25.7183 111.809 25.5955C112.763 24.5129 113.881 24.2048 115.29 24.2192Z" fill="#AE0A11"/>
<path d="M131.348 24.4629C132.433 24.4629 133.519 24.4629 134.636 24.4629C134.636 29.0004 134.636 33.5379 134.636 38.213C133.584 38.213 132.532 38.213 131.448 38.213C131.415 37.7526 131.382 37.2923 131.348 36.818C131.262 36.9352 131.176 37.0523 131.087 37.173C130.403 37.9543 129.287 38.4335 128.26 38.5119C126.699 38.6086 125.396 38.3623 124.156 37.3349C123.137 36.3783 122.533 35.0284 122.472 33.6269C122.468 33.388 122.468 33.1493 122.469 32.9104C122.469 32.8199 122.469 32.7295 122.469 32.6363C122.469 32.3387 122.47 32.0411 122.471 31.7435C122.471 31.5366 122.471 31.3297 122.471 31.1228C122.472 30.5793 122.473 30.0358 122.474 29.4923C122.475 28.9373 122.475 28.3823 122.476 27.8272C122.477 26.739 122.479 25.6508 122.481 24.5625C123.566 24.5625 124.651 24.5625 125.769 24.5625C125.77 24.8194 125.771 25.0762 125.772 25.3409C125.775 26.1928 125.78 27.0446 125.787 27.8965C125.791 28.4126 125.794 28.9287 125.796 29.4448C125.797 29.9436 125.801 30.4423 125.805 30.941C125.807 31.1306 125.808 31.3202 125.808 31.5098C125.788 33.1657 125.788 33.1657 126.504 34.6198C127.342 35.2786 127.987 35.5458 129.057 35.4231C129.946 35.1829 130.494 34.8269 130.96 34.0432C131.388 33.1517 131.309 32.1815 131.31 31.2157C131.311 31.0206 131.313 30.8254 131.315 30.6302C131.319 30.1195 131.321 29.6088 131.322 29.0981C131.324 28.5757 131.328 28.0534 131.332 27.531C131.34 26.5083 131.345 25.4856 131.348 24.4629Z" fill="#AD0910"/>
<path d="M138.518 21.373C139.603 21.373 140.688 21.373 141.806 21.373C141.806 22.4252 141.806 23.4774 141.806 24.5615C142.858 24.5615 143.911 24.5615 144.995 24.5615C144.995 25.515 144.995 26.4685 144.995 27.451C143.943 27.451 142.89 27.451 141.806 27.451C141.812 28.5826 141.812 28.5826 141.822 29.7143C141.827 30.1763 141.831 30.6383 141.833 31.1003C141.835 31.4731 141.838 31.8458 141.843 32.2186C141.844 32.3603 141.845 32.502 141.845 32.6438C141.846 33.5779 141.893 34.2203 142.498 34.9612C142.997 35.355 143.518 35.3615 144.129 35.3847C144.415 35.397 144.7 35.4093 144.995 35.422C144.995 36.3427 144.995 37.2634 144.995 38.2119C143.44 38.471 141.812 38.4831 140.43 37.6452C139.555 37.0016 139.053 36.2515 138.718 35.2228C138.683 35.118 138.648 35.0132 138.613 34.9052C138.446 34.226 138.494 33.5168 138.499 32.8221C138.499 32.6669 138.499 32.5116 138.5 32.3564C138.5 31.9502 138.502 31.544 138.505 31.1377C138.507 30.7223 138.508 30.3068 138.509 29.8913C138.511 29.0779 138.514 28.2644 138.518 27.451C137.762 27.451 137.006 27.451 136.227 27.451C136.227 26.4974 136.227 25.5439 136.227 24.5615C136.555 24.4957 136.884 24.4299 137.223 24.3622C137.747 24.1643 137.996 23.9088 138.319 23.4655C138.407 23.2005 138.437 23.019 138.45 22.745C138.454 22.6729 138.458 22.6009 138.462 22.5266C138.468 22.3902 138.468 22.3902 138.475 22.2511C138.489 21.9613 138.503 21.6716 138.518 21.373Z" fill="#AD070D"/>
<path d="M88.4062 19.1816C89.4913 19.1816 90.5764 19.1816 91.6943 19.1816C91.6943 25.4618 91.6943 31.742 91.6943 38.2126C90.6093 38.2126 89.5242 38.2126 88.4062 38.2126C88.4062 31.9324 88.4062 25.6522 88.4062 19.1816Z" fill="#AD080F"/>
<path d="M80.7192 27.5248C81.756 28.1371 82.5666 28.982 82.8875 30.1734C83.0798 31.5478 82.9466 32.9432 82.109 34.0834C81.5338 34.7928 80.8303 35.3333 79.9 35.4524C79.6495 35.4659 79.4018 35.469 79.151 35.4659C79.0629 35.4649 78.9747 35.464 78.8839 35.463C77.8293 35.4343 77.1523 35.1346 76.3822 34.4034C75.3938 33.2299 75.2606 31.9148 75.3523 30.4404C75.5054 29.4157 76.1369 28.4855 76.9465 27.8498C78.0765 27.1849 79.4941 26.932 80.7192 27.5248Z" fill="#FDFBFB"/>
<path d="M102.452 32.1341C102.515 33.242 102.404 34.0316 101.693 34.9053C100.985 35.6496 100.032 36.0094 99.0149 36.0512C98.4059 36.0344 97.9477 35.8723 97.4829 35.4782C97.1182 35.0384 97.0265 34.716 97.0404 34.1514C97.1049 33.6938 97.3749 33.4227 97.6947 33.1118C98.415 32.637 99.2271 32.5308 100.065 32.3969C100.267 32.3645 100.468 32.3307 100.67 32.2966C101.273 32.1979 101.84 32.1218 102.452 32.1341Z" fill="#FCF8F7"/>
<path d="M122.477 41.7004C122.861 41.6922 123.245 41.684 123.641 41.6755C123.822 41.6701 123.822 41.6701 124.006 41.6645C124.788 41.6564 124.788 41.6564 125.187 41.8771C125.455 42.2096 125.507 42.4742 125.466 42.8961C125.304 43.2386 125.304 43.2386 125.067 43.4939C124.803 43.5597 124.803 43.5597 124.569 43.5935C124.631 43.6764 124.694 43.7592 124.758 43.8446C124.84 43.954 124.923 44.0633 125.005 44.1727C125.046 44.2272 125.087 44.2817 125.129 44.3379C125.665 45.0506 125.665 45.0506 125.665 45.387C125.392 45.4228 125.392 45.4228 125.067 45.387C124.848 45.1395 124.848 45.1395 124.656 44.8141C124.28 44.1201 124.28 44.1201 123.636 43.7321C123.558 43.7275 123.479 43.7229 123.398 43.7181C123.258 43.7099 123.119 43.7017 122.975 43.6932C122.975 44.2522 122.975 44.8111 122.975 45.387C122.81 45.387 122.646 45.387 122.477 45.387C122.477 44.1705 122.477 42.9539 122.477 41.7004Z" fill="#252525"/>
<path d="M142.903 41.6992C143.133 41.6992 143.363 41.6992 143.6 41.6992C143.741 42.0438 143.883 42.3884 144.024 42.733C144.063 42.8292 144.103 42.9254 144.143 43.0245C144.222 43.2181 144.301 43.4117 144.38 43.6055C144.457 43.7934 144.534 43.981 144.612 44.1685C144.647 44.255 144.683 44.3416 144.72 44.4307C144.767 44.5451 144.767 44.5451 144.815 44.6618C144.9 44.9012 144.951 45.1358 144.995 45.3858C144.798 45.3858 144.601 45.3858 144.397 45.3858C144.266 45.057 144.134 44.7282 143.999 44.3895C143.473 44.3566 142.947 44.3237 142.405 44.2898C142.374 44.4522 142.343 44.6145 142.311 44.7818C142.218 45.2737 142.218 45.2737 142.106 45.3858C141.906 45.3899 141.707 45.3901 141.508 45.3858C141.567 45.0546 141.648 44.7567 141.774 44.4451C141.807 44.3628 141.84 44.2805 141.874 44.1957C141.927 44.0666 141.927 44.0666 141.981 43.9349C142.017 43.8466 142.053 43.7583 142.089 43.6674C142.356 43.0095 142.626 42.3531 142.903 41.6992Z" fill="#323232"/>
<path d="M109.725 41.6992C109.955 41.6992 110.185 41.6992 110.422 41.6992C110.518 41.9139 110.613 42.1286 110.709 42.3434C110.776 42.4943 110.843 42.6452 110.912 42.7956C111.149 43.3206 111.372 43.8513 111.593 44.3832C111.625 44.4588 111.657 44.5344 111.689 44.6123C111.917 45.1633 111.917 45.1633 111.917 45.3858C111.637 45.417 111.637 45.417 111.319 45.3858C111.011 45.0247 111.002 44.7788 110.921 44.2898C110.395 44.2898 109.868 44.2898 109.326 44.2898C109.228 44.6515 109.129 45.0132 109.028 45.3858C108.83 45.3858 108.633 45.3858 108.43 45.3858C108.501 44.9107 108.675 44.4899 108.853 44.0469C109.161 43.2698 109.45 42.4884 109.725 41.6992Z" fill="#2D2D2D"/>
<path d="M137.159 41.7618C137.448 42.0237 137.621 42.2617 137.819 42.5962C137.786 42.662 137.753 42.7278 137.719 42.7955C137.489 42.8266 137.489 42.8266 137.221 42.7955C137.053 42.5526 137.053 42.5526 136.922 42.2973C136.576 42.124 136.204 42.1389 135.826 42.1977C135.47 42.4651 135.309 42.6626 135.228 43.0944C135.175 43.6603 135.194 44.1069 135.527 44.589C135.832 44.8515 135.975 44.8888 136.381 44.8817C136.752 44.7804 136.89 44.6921 137.122 44.3897C137.154 44.2911 137.187 44.1924 137.221 44.0908C137.418 44.0908 137.616 44.0908 137.819 44.0908C137.792 44.4852 137.745 44.6587 137.483 44.9626C136.954 45.416 136.623 45.4301 135.943 45.4165C135.526 45.3764 135.323 45.2887 135.029 44.9875C134.583 44.4269 134.57 43.819 134.592 43.1228C134.66 42.5488 134.858 42.2564 135.284 41.8614C135.852 41.4832 136.553 41.4701 137.159 41.7618Z" fill="#2B2B2B"/>
<path d="M115.805 41.6992C116.627 41.6992 117.449 41.6992 118.296 41.6992C118.296 41.8307 118.296 41.9623 118.296 42.0978C117.638 42.0978 116.98 42.0978 116.303 42.0978C116.303 42.4595 116.303 42.8211 116.303 43.1938C116.895 43.1938 117.487 43.1938 118.096 43.1938C118.096 43.3582 118.096 43.5226 118.096 43.692C117.537 43.692 116.978 43.692 116.403 43.692C116.403 44.251 116.403 44.8099 116.403 45.3858C116.205 45.3858 116.008 45.3858 115.805 45.3858C115.805 44.1693 115.805 42.9527 115.805 41.6992Z" fill="#2C2C2C"/>
<path d="M122.977 42.0974C123.217 42.0893 123.458 42.0834 123.699 42.0787C123.767 42.0762 123.835 42.0737 123.905 42.0712C124.231 42.0664 124.437 42.0764 124.719 42.248C124.769 42.297 124.818 42.3459 124.87 42.3963C124.845 42.7326 124.845 42.7326 124.77 43.0938C124.428 43.355 124.064 43.3132 123.649 43.3055C123.523 43.3037 123.397 43.3019 123.268 43.3001C123.172 43.2978 123.076 43.2955 122.977 43.2931C122.977 42.8985 122.977 42.5039 122.977 42.0974Z" fill="#F0F0F0"/>
<path d="M129.852 41.6992C130.016 41.6992 130.18 41.6992 130.35 41.6992C130.35 42.9158 130.35 44.1324 130.35 45.3858C130.185 45.3858 130.021 45.3858 129.852 45.3858C129.852 44.1693 129.852 42.9527 129.852 41.6992Z" fill="#252525"/>
<path d="M143.209 42.2969C143.389 42.5659 143.501 42.8017 143.62 43.1002C143.655 43.1877 143.691 43.2751 143.727 43.3653C143.807 43.5922 143.807 43.5922 143.807 43.7914C143.445 43.7914 143.084 43.7914 142.711 43.7914C142.819 43.2424 142.932 42.789 143.209 42.2969Z" fill="#EDEDED"/>
<path d="M110.024 42.1973C110.313 42.3418 110.327 42.5266 110.435 42.8262C110.47 42.9224 110.505 43.0186 110.541 43.1178C110.621 43.3929 110.621 43.3929 110.621 43.7915C110.293 43.7915 109.964 43.7915 109.625 43.7915C109.741 43.2533 109.866 42.7248 110.024 42.1973Z" fill="#EBEBEB"/>
<path d="M24.6904 13.7582C25.141 14.0228 25.4792 14.4002 25.835 14.7782C25.9854 14.9347 26.136 15.0911 26.2869 15.2472C26.3603 15.3232 26.4336 15.3991 26.5092 15.4774C26.7705 15.7385 27.0462 15.978 27.3267 16.2181C27.745 16.5873 28.1286 16.9932 28.5191 17.3913C28.8419 17.718 29.1674 18.0342 29.5154 18.334C30.0071 18.7575 30.4563 19.2201 30.9104 19.683C31.2322 20.0086 31.5565 20.3239 31.9036 20.6226C32.4192 21.0667 32.8894 21.5538 33.3659 22.0389C33.7646 22.4419 34.1722 22.8239 34.6019 23.1935C34.9965 23.5432 35.3597 23.9253 35.7284 24.3018C36.0384 24.6157 36.352 24.918 36.6863 25.2059C37.1788 25.6307 37.6292 26.094 38.0843 26.5581C38.9049 27.3891 38.9049 27.3891 39.8405 28.0818C40.2618 28.3729 40.5691 28.6683 40.7746 29.1448C41.0679 30.8312 40.8704 32.7728 40.4756 34.4256C40.446 34.554 40.446 34.554 40.4157 34.685C39.6644 37.8612 38.1376 40.7201 35.8923 43.0941C35.7755 43.2286 35.6592 43.3635 35.5436 43.4989C34.8813 44.2554 34.1642 44.9202 33.3764 45.5441C33.2373 45.6563 33.0997 45.7704 32.9627 45.8851C32.3235 46.4178 31.667 46.9017 30.9726 47.3599C30.8687 47.4286 30.7648 47.4973 30.6577 47.5681C25.3323 51.0536 25.3323 51.0536 23.4858 51.0679C22.9951 50.9233 22.5343 50.7316 22.0675 50.5234C21.9664 50.4788 21.8654 50.4341 21.7612 50.3881C18.3904 48.8789 15.2406 46.8546 12.5769 44.2898C12.5247 44.2398 12.4726 44.1898 12.4188 44.1383C11.7198 43.4652 11.077 42.7687 10.4845 41.9981C10.442 41.9433 10.3996 41.8885 10.3558 41.8321C9.29862 40.461 8.42817 39.0288 7.79428 37.4147C7.74772 37.3034 7.74772 37.3034 7.70021 37.1898C6.99537 35.4872 6.64885 33.6653 6.49898 31.835C6.48829 31.7217 6.4776 31.6085 6.46658 31.4918C6.28274 29.3507 6.28274 29.3507 6.73952 28.7579C7.00057 28.4943 7.29605 28.2903 7.60459 28.0861C7.94847 27.8377 8.23051 27.5261 8.52289 27.2205C8.86401 26.8704 9.20914 26.5328 9.5796 26.2136C10.0019 25.8488 10.3928 25.4578 10.7834 25.0596C11.2338 24.6005 11.6911 24.1618 12.1784 23.7421C12.5261 23.4331 12.8492 23.0999 13.1748 22.7679C13.5616 22.3735 13.9483 21.9857 14.3673 21.6252C14.806 21.2473 15.2103 20.8393 15.6159 20.4264C16.0845 19.9492 16.5585 19.4905 17.0655 19.0543C17.3945 18.7628 17.6996 18.4484 18.0072 18.1347C18.4356 17.7017 18.8644 17.2818 19.3305 16.8893C19.7359 16.5239 20.1137 16.1297 20.4976 15.7421C20.8773 15.36 21.2616 14.992 21.6748 14.6458C21.8615 14.482 22.0281 14.3053 22.1982 14.1243C22.9403 13.3772 23.7797 13.3382 24.6904 13.7582Z" fill="#AE070D"/>
<path d="M31.4741 2.14885C31.5654 2.17786 31.6566 2.20687 31.7506 2.23676C33.7149 2.86316 35.6531 3.54961 37.5806 4.28103C37.8711 4.39126 38.1618 4.50106 38.4525 4.61081C41.4431 5.74164 41.4431 5.74164 42.8758 6.4332C43.0084 6.49721 43.1412 6.56083 43.2742 6.62411C44.86 7.38044 46.285 8.17879 46.9582 9.89923C47.2703 10.9108 47.2819 11.8567 47.2773 12.9047C47.2772 13.088 47.2772 13.2712 47.2773 13.4544C47.2772 13.9532 47.2758 14.4519 47.2741 14.9506C47.273 15.2644 47.2724 15.5782 47.2718 15.892C47.269 17.4865 47.2624 19.0809 47.2544 20.6754C47.2538 20.7969 47.2532 20.9184 47.2526 21.0435C47.244 22.7789 47.233 24.5143 47.2197 26.2496C47.217 26.6076 47.2147 26.9657 47.2124 27.3237C47.2087 27.8927 47.2041 28.4618 47.1988 29.0308C47.197 29.2388 47.1954 29.4467 47.1942 29.6547C47.1498 37.1232 44.393 43.2391 39.1117 48.4632C38.7728 48.7776 38.4148 49.0659 38.0538 49.3544C37.8215 49.5437 37.6028 49.7398 37.3839 49.9441C36.236 50.975 34.8977 51.8231 33.6039 52.6592C33.506 52.7229 33.4082 52.7867 33.3073 52.8523C32.2124 53.5457 31.062 54.1454 29.9173 54.7516C29.8429 54.7913 29.7685 54.8309 29.6918 54.8717C24.508 57.6137 24.508 57.6137 22.9597 57.16C22.6354 57.0428 22.3157 56.9175 21.9961 56.788C21.8806 56.7423 21.7651 56.6966 21.6461 56.6494C20.774 56.3019 19.9089 55.9427 19.0567 55.5488C18.9773 55.5123 18.8979 55.4759 18.8161 55.4384C16.3105 54.284 13.8905 52.9263 11.6835 51.2643C11.6281 51.2226 11.5726 51.1809 11.5155 51.1379C11.1369 50.8515 10.7622 50.5603 10.3882 50.2679C10.3057 50.205 10.2233 50.1421 10.1383 50.0772C8.47919 48.7904 6.88893 47.246 5.60555 45.5849C5.5031 45.4554 5.4006 45.3259 5.29807 45.1965C3.71012 43.1753 2.39565 40.9336 1.52038 38.5106C1.4897 38.4311 1.45902 38.3515 1.42741 38.2696C1.16353 37.5739 0.973922 36.8758 0.810457 36.1504C0.784617 36.0368 0.758776 35.9231 0.732153 35.8061C0.541971 34.9492 0.396482 34.1047 0.324721 33.2298C0.316812 33.1401 0.308905 33.0505 0.300757 32.9581C0.215173 31.9014 0.204746 30.848 0.197059 29.7884C0.195282 29.59 0.193459 29.3917 0.191595 29.1933C0.187725 28.7748 0.184093 28.3562 0.180661 27.9377C0.171709 26.8498 0.161274 25.762 0.150743 24.6741C0.149723 24.5675 0.148704 24.4609 0.147654 24.3511C0.131744 22.7021 0.106411 21.0536 0.0693976 19.405C0.0346789 17.8056 0.0129668 16.2064 0.00824568 14.6066C0.00751198 14.3807 0.00646089 14.1548 0.00505292 13.9289C-0.0180498 9.90464 -0.0180498 9.90464 1.3211 8.3202C1.95415 7.7442 2.63337 7.31574 3.39483 6.93149C3.54319 6.85546 3.54319 6.85546 3.69454 6.7779C4.99292 6.12145 6.32919 5.55558 7.69518 5.05595C8.23458 4.85856 8.76627 4.6442 9.2984 4.42808C9.99125 4.14814 10.6847 3.89394 11.3959 3.66406C11.8494 3.51745 12.2987 3.35935 12.7484 3.20128C12.8323 3.17188 12.9162 3.14247 13.0027 3.11218C13.431 2.96191 13.859 2.81059 14.2865 2.65794C15.2581 2.31226 16.2315 1.99447 17.2234 1.71294C17.4938 1.63548 17.7634 1.55601 18.0331 1.4763C23.0734 -0.0119744 26.5123 0.569473 31.4741 2.14885ZM15.0531 5.13616C14.727 5.24602 14.4007 5.35534 14.074 5.46353C13.4084 5.68396 12.745 5.90738 12.0883 6.15307C12.01 6.18221 11.9318 6.21135 11.8511 6.24137C11.6831 6.30399 11.5151 6.3667 11.3471 6.42951C11.0791 6.52916 10.8106 6.62728 10.5419 6.72521C8.46239 7.48771 6.378 8.29559 4.40366 9.30413C4.3208 9.34554 4.23793 9.38694 4.15255 9.4296C3.54719 9.75028 3.11758 10.1463 2.78454 10.7489C2.58249 11.5204 2.6017 12.323 2.60317 13.1145C2.60307 13.231 2.60298 13.3476 2.60288 13.4676C2.60281 13.715 2.60299 13.9624 2.60341 14.2098C2.60393 14.5748 2.60342 14.9399 2.60278 15.305C2.60244 16.5204 2.61747 17.7338 2.65745 18.9485C2.711 20.5777 2.73001 22.2062 2.74056 23.8361C2.74139 23.9583 2.74222 24.0805 2.74307 24.2063C2.75081 25.3495 2.75786 26.4927 2.76355 27.6359C2.76674 28.2686 2.77085 28.9012 2.77553 29.5338C2.7771 29.7712 2.77834 30.0086 2.7792 30.246C2.78598 32.0754 2.86589 33.8291 3.32632 35.6086C3.35671 35.7276 3.38709 35.8466 3.4184 35.9691C3.85026 37.602 4.51313 39.1162 5.30664 40.603C5.36777 40.7194 5.42891 40.8357 5.4919 40.9556C6.00912 41.9025 6.63457 42.7451 7.2994 43.5922C7.37313 43.6873 7.44685 43.7825 7.52281 43.8806C9.6426 46.5483 12.2909 48.742 15.1715 50.5423C15.2958 50.62 15.4198 50.6982 15.5435 50.7771C17.5111 52.0318 19.6549 53.0701 21.8105 53.9564C22.0219 54.0442 22.2311 54.1356 22.4401 54.2289C22.5505 54.2761 22.6608 54.3232 22.7745 54.3718C22.8625 54.4102 22.9504 54.4486 23.0411 54.4881C24.0306 54.6999 24.8942 54.2551 25.7761 53.8549C25.9101 53.7952 26.0441 53.7356 26.1782 53.6761C26.5619 53.5051 26.9443 53.3313 27.3267 53.1574C27.4211 53.1152 27.5155 53.0729 27.6128 53.0294C29.7306 52.0811 31.6984 50.8897 33.6039 49.5705C33.6716 49.5241 33.7393 49.4777 33.809 49.43C34.6835 48.8298 35.495 48.1749 36.2942 47.4781C36.3689 47.4145 36.4437 47.3509 36.5207 47.2854C37.0363 46.8442 37.5125 46.3676 37.988 45.8838C38.4862 45.3857 38.4862 45.3857 38.6547 45.2276C39.6759 44.2498 40.4975 43.0726 41.2761 41.8983C41.3402 41.8031 41.4042 41.708 41.4703 41.6099C42.5451 39.9465 43.3144 38.1155 43.8667 36.2189C43.8873 36.149 43.9079 36.0792 43.9292 36.0071C44.4928 34.0589 44.6087 32.094 44.6116 30.0768C44.613 29.8433 44.6146 29.6097 44.6163 29.3762C44.6205 28.7643 44.623 28.1524 44.625 27.5405C44.6286 26.5748 44.6347 25.6091 44.6406 24.6434C44.642 24.4047 44.6434 24.1659 44.6447 23.9272C44.6556 21.9464 44.6899 19.9667 44.7349 17.9863C44.738 17.8475 44.738 17.8475 44.7412 17.7058C44.7443 17.5711 44.7443 17.5711 44.7474 17.4336C44.769 16.4685 44.782 15.5034 44.7819 14.538C44.7821 14.2793 44.784 14.0207 44.7858 13.762C44.8594 11.8391 44.8594 11.8391 44.1866 10.116C41.7965 7.92863 37.2593 6.83593 34.2443 5.81251C33.9615 5.71557 33.6804 5.61456 33.3993 5.51298C26.451 3.01095 22.0762 2.77007 15.0531 5.13616Z" fill="#AD080F"/>
<path d="M26.1338 23.0673C26.2795 23.113 26.2795 23.113 26.428 23.1597C27.6448 23.5455 28.8495 23.9563 30.0322 24.4373C30.1187 24.4724 30.2053 24.5075 30.2945 24.5436C31.3995 25.0043 32.4023 25.468 32.9031 26.6109C33.114 27.2937 33.08 28.0006 33.075 28.7085C33.0753 28.8784 33.0758 29.0483 33.0765 29.2182C33.0772 29.5735 33.0761 29.9287 33.0738 30.284C33.071 30.733 33.0726 31.1818 33.0755 31.6308C33.095 35.196 32.5635 38.038 30.0446 40.722C28.5734 42.1242 25.8899 44.0834 23.788 44.0489C22.6313 43.8555 21.4461 43.2012 20.4544 42.5964C20.3145 42.5112 20.3145 42.5112 20.1719 42.4244C18.2125 41.1747 16.6366 39.5353 15.6842 37.4027C15.6569 37.3422 15.6296 37.2816 15.6015 37.2192C15.0698 35.9668 15.0266 34.7574 15.0272 33.4192C15.0265 33.2264 15.0258 33.0337 15.0249 32.841C15.0236 32.4391 15.0234 32.0372 15.024 31.6353C15.0246 31.1221 15.0216 30.6089 15.0175 30.0957C15.015 29.6984 15.0147 29.3012 15.015 28.904C15.0149 28.7148 15.0139 28.5256 15.0121 28.3364C14.9959 26.4012 14.9959 26.4012 15.5721 25.7575C17.8887 23.5632 23.1735 22.1299 26.1338 23.0673Z" fill="#FDFAFA"/>
<path d="M28.8224 7.92064C29.0546 7.99722 29.2869 8.07376 29.5191 8.15028C30.1845 8.37013 30.8489 8.59271 31.5127 8.81739C31.5954 8.84537 31.6781 8.87335 31.7633 8.90218C32.7679 9.24415 33.753 9.62746 34.7365 10.0259C35.107 10.1759 35.4792 10.3203 35.8532 10.4614C37.0077 10.904 38.1507 11.3769 39.2595 11.9249C39.3224 11.9556 39.3852 11.9863 39.45 12.018C39.7613 12.1752 40.0636 12.3456 40.3571 12.534C40.4119 12.5687 40.4666 12.6034 40.523 12.6392C41.0988 13.2421 41.0189 14.0159 41.011 14.7945C41.0108 14.9217 41.0107 15.0489 41.0105 15.1799C41.01 15.5229 41.0076 15.8658 41.0048 16.2087C41.0027 16.4921 41.0017 16.7754 41.0007 17.0588C40.9923 19.3606 40.9526 21.6617 40.8787 23.9624C40.4377 23.588 40.0024 23.2088 39.5771 22.8166C39.5225 22.7662 39.4678 22.7158 39.4114 22.6639C38.9251 22.2123 38.4554 21.745 37.9913 21.2706C37.7049 20.9798 37.4131 20.7028 37.1037 20.4365C36.5858 19.9892 36.1124 19.4999 35.6332 19.012C35.2346 18.609 34.8269 18.2271 34.3973 17.8574C34.0026 17.5078 33.6395 17.1257 33.2707 16.7491C32.9618 16.4363 32.6494 16.1349 32.316 15.8481C31.7995 15.4028 31.3281 14.9149 30.8506 14.4287C30.4516 14.0252 30.0434 13.6432 29.6133 13.2732C29.2904 12.9866 28.9929 12.676 28.6916 12.367C27.2701 10.9338 25.7983 9.79814 23.6973 9.7764C21.7522 9.80072 20.3924 10.6751 19.0579 12.0058C18.9768 12.0866 18.8958 12.1674 18.8123 12.2506C18.6716 12.3918 18.5317 12.5337 18.3931 12.6768C18.1967 12.8679 17.9966 13.0463 17.789 13.2248C17.3435 13.6116 16.9303 14.0262 16.5171 14.4469C16.1136 14.8578 15.7117 15.264 15.2747 15.6395C14.8181 16.0324 14.3984 16.4588 13.9763 16.8881C13.4894 17.3833 12.9988 17.8622 12.472 18.3149C12.1618 18.5888 11.8741 18.884 11.585 19.1798C11.2335 19.5393 10.8797 19.8885 10.4983 20.2166C10.0578 20.5969 9.65109 21.0066 9.2435 21.4216C8.77084 21.9029 8.29285 22.3664 7.78137 22.8063C7.52759 23.0291 7.29354 23.2661 7.05768 23.5078C6.90799 23.6612 6.75699 23.8133 6.60308 23.9624C6.5702 23.9624 6.53732 23.9624 6.50344 23.9624C6.41174 21.8447 6.38216 19.7294 6.37987 17.6099C6.37931 17.1736 6.37688 16.7374 6.37409 16.3011C6.37224 15.9606 6.37172 15.6202 6.37156 15.2797C6.37126 15.1187 6.37047 14.9576 6.36915 14.7965C6.36745 14.5733 6.36764 14.3502 6.36829 14.127C6.36792 14.0008 6.36756 13.8745 6.36719 13.7445C6.41454 13.3 6.54468 12.9533 6.87203 12.6418C9.02188 11.2818 11.4766 10.4483 13.8406 9.54366C14.1018 9.44352 14.3626 9.34261 14.6232 9.24085C15.8649 8.76265 17.1322 8.3546 18.3962 7.94C18.6231 7.86558 18.8499 7.79095 19.0766 7.71601C22.8054 6.48503 25.1052 6.68375 28.8224 7.92064Z" fill="#AE070E"/>
<path d="M25.2344 33.1309C26.9442 33.1309 28.654 33.1309 30.4156 33.1309C30.4156 35.4693 30.0629 36.8711 28.5224 38.611C28.4685 38.6733 28.4145 38.7356 28.359 38.7997C27.5737 39.6465 26.4576 40.3822 25.4337 40.9026C25.3679 40.9026 25.3021 40.9026 25.2344 40.9026C25.2344 38.338 25.2344 35.7733 25.2344 33.1309Z" fill="#AE0B12"/>
<path d="M17.5625 33.1309C19.2723 33.1309 20.9821 33.1309 22.7437 33.1309C22.7437 35.6627 22.7437 38.1945 22.7437 40.803C21.083 40.4709 19.5425 38.9277 18.6212 37.571C17.6855 36.1419 17.5625 34.8485 17.5625 33.1309Z" fill="#AD0B11"/>
<path d="M22.7437 25.5586C22.7437 27.2355 22.7437 28.9124 22.7437 30.6401C21.0339 30.6401 19.3241 30.6401 17.5625 30.6401C17.5625 29.5551 17.5625 28.47 17.5625 27.3521C19.7329 26.406 19.7329 26.406 20.5672 26.1471C21.0288 26 21.4806 25.8247 21.9337 25.6536C22.2455 25.5586 22.2455 25.5586 22.7437 25.5586Z" fill="#AD0A11"/>
<path d="M25.2344 25.5586C26.0204 25.6709 26.0204 25.6709 26.3981 25.796C26.4817 25.8236 26.5652 25.8512 26.6513 25.8796C26.7385 25.9093 26.8258 25.939 26.9158 25.9696C27.007 26.0003 27.0983 26.0311 27.1924 26.0627C28.0503 26.3562 28.8857 26.6946 29.7181 27.0532C29.9483 27.1518 30.1784 27.2505 30.4156 27.3521C30.4156 28.4371 30.4156 29.5222 30.4156 30.6401C28.7058 30.6401 26.996 30.6401 25.2344 30.6401C25.2344 28.9632 25.2344 27.2863 25.2344 25.5586Z" fill="#AD0910"/>
<path d="M28.7191 38.3105C28.752 38.4092 28.7849 38.5078 28.8187 38.6095C28.4534 38.9748 28.0881 39.3401 27.7227 39.7055C27.657 39.6068 27.5912 39.5082 27.5234 39.4066C27.5931 39.3441 27.6627 39.2817 27.7344 39.2174C27.8251 39.136 27.9157 39.0545 28.0092 38.9707C28.1444 38.8493 28.1444 38.8493 28.2824 38.7254C28.431 38.5905 28.5771 38.4525 28.7191 38.3105Z" fill="#FCE7E5"/>
<path d="M39.1838 38.1113C39.2166 38.1113 39.2495 38.1113 39.2834 38.1113C39.2834 38.2757 39.2834 38.4401 39.2834 38.6095C39.1848 38.6424 39.0861 38.6753 38.9845 38.7092C38.9845 38.9064 38.9845 39.1037 38.9845 39.307C38.853 39.3399 38.7214 39.3727 38.5859 39.4066C38.754 38.9585 38.9662 38.5369 39.1838 38.1113Z" fill="#F9D7D9"/>
</svg>
