<svg width="124" height="50" viewBox="0 0 124 50" fill="none" xmlns="http://www.w3.org/2000/svg">
<path d="M47.8145 32.0864V16.241H50.7068V24.4936L49.9199 24.2171L56.662 16.241H60.299L53.9824 23.7278L54.1522 21.6863L60.4904 32.0866H57.0875L52.8338 25.1106L50.7068 27.6412V32.0866H47.8145V32.0864ZM66.8323 32.3417C65.6981 32.3417 64.6628 32.0791 63.7271 31.5544C62.8054 31.0297 62.0682 30.3138 61.5152 29.4062C60.9764 28.4989 60.707 27.4637 60.707 26.301C60.707 25.1383 60.9764 24.1036 61.5152 23.196C62.0682 22.2884 62.8054 21.5723 63.7271 21.0479C64.6487 20.5232 65.6839 20.2607 66.8323 20.2607C67.9665 20.2607 68.9947 20.5232 69.9163 21.0479C70.8378 21.5721 71.5681 22.2882 72.107 23.196C72.6597 24.0889 72.936 25.1242 72.936 26.301C72.936 27.4637 72.6596 28.4989 72.107 29.4062C71.5538 30.3138 70.8166 31.0297 69.8947 31.5544C68.9731 32.0791 67.9524 32.3417 66.8323 32.3417ZM66.8323 29.7891C67.4562 29.7891 68.0021 29.6404 68.47 29.3423C68.9519 29.0448 69.3276 28.6335 69.5974 28.1089C69.8809 27.5703 70.0225 26.9675 70.0225 26.301C70.0225 25.6204 69.8807 25.025 69.5974 24.5148C69.3276 23.9901 68.9521 23.5791 68.47 23.281C68.0021 22.9688 67.4562 22.8131 66.8323 22.8131C66.1943 22.8131 65.6343 22.9688 65.1522 23.281C64.6699 23.5791 64.2872 23.9901 64.0036 24.5148C63.7342 25.025 63.5993 25.6206 63.5993 26.301C63.5993 26.9675 63.7342 27.5703 64.0036 28.1089C64.2872 28.6336 64.6699 29.0448 65.1522 29.3423C65.6343 29.6402 66.1943 29.7891 66.8323 29.7891ZM74.624 32.0864V15.9863H77.4099V32.0864H74.624ZM83.0665 32.3417C82.2583 32.3417 81.5563 32.2066 80.9609 31.9377C80.3655 31.6679 79.9048 31.285 79.5784 30.789C79.2524 30.2784 79.0893 29.6897 79.0893 29.0238C79.0893 28.3858 79.2312 27.8183 79.5148 27.3223C79.7983 26.8117 80.238 26.3862 80.8334 26.0457C81.4288 25.7054 82.1805 25.4645 83.0879 25.3229L86.8735 24.7061V26.8328L83.6197 27.3855C83.0667 27.4849 82.6553 27.662 82.3859 27.9175C82.1165 28.1728 81.982 28.5058 81.982 28.917C81.982 29.3141 82.131 29.633 82.4285 29.8741C82.7407 30.1007 83.1234 30.2142 83.5771 30.2142C84.1587 30.2142 84.6689 30.094 85.1085 29.8527C85.5623 29.5974 85.9097 29.2502 86.1508 28.8108C86.4057 28.3713 86.5336 27.889 86.5336 27.3643V24.3868C86.5336 23.8908 86.3349 23.4794 85.938 23.1534C85.5551 22.8129 85.0447 22.6427 84.4065 22.6427C83.8111 22.6427 83.2794 22.806 82.8116 23.1322C82.3578 23.4442 82.0246 23.8623 81.8119 24.3868L79.5362 23.2809C79.763 22.6715 80.1174 22.1468 80.5997 21.707C81.0957 21.2533 81.6774 20.8987 82.3437 20.6434C83.0099 20.3882 83.7332 20.2607 84.5131 20.2607C85.4632 20.2607 86.2997 20.438 87.0229 20.7927C87.7459 21.1326 88.306 21.6149 88.7032 22.2385C89.1142 22.8484 89.32 23.5646 89.32 24.3868V32.0862H86.6826V30.1082L87.2784 30.0654C86.9807 30.562 86.6262 30.9801 86.2148 31.32C85.8035 31.6462 85.3359 31.9014 84.8112 32.086C84.2865 32.2561 83.7053 32.3413 83.0672 32.3413L83.0665 32.3417ZM91.4692 32.0864V20.5164H94.0852V22.7919L93.8727 22.3876C94.1422 21.693 94.5816 21.1681 95.1915 20.8141C95.8154 20.4455 96.5382 20.2609 97.3608 20.2609C98.2115 20.2609 98.9632 20.4457 99.6153 20.8141C100.282 21.1826 100.799 21.7003 101.168 22.3664C101.537 23.0191 101.721 23.7774 101.721 24.6424V32.0866H98.9347V25.302C98.9347 24.7913 98.8356 24.3518 98.637 23.9832C98.4385 23.6145 98.162 23.3311 97.8076 23.1326C97.4673 22.9197 97.0631 22.8133 96.595 22.8133C96.1414 22.8133 95.7371 22.9197 95.3828 23.1326C95.0284 23.3311 94.7519 23.6145 94.5534 23.9832C94.355 24.3518 94.2557 24.7913 94.2557 25.302V32.0866H91.4694L91.4692 32.0864ZM107.778 32.3417C106.884 32.3417 106.104 32.1429 105.438 31.7459C104.786 31.349 104.282 30.7957 103.928 30.0871C103.588 29.3779 103.417 28.5482 103.417 27.5984V20.5164H106.204V27.3645C106.204 27.847 106.296 28.2721 106.48 28.6409C106.679 28.9952 106.955 29.2789 107.31 29.4918C107.678 29.6897 108.089 29.7893 108.543 29.7893C108.997 29.7893 109.401 29.6899 109.756 29.4918C110.11 29.2789 110.387 28.9883 110.585 28.6197C110.783 28.2509 110.883 27.8113 110.883 27.3009V20.5164H113.669V32.0864H111.032V29.8105L111.266 30.2144C110.996 30.9237 110.55 31.4553 109.926 31.8095C109.316 32.1641 108.6 32.3415 107.778 32.3415L107.778 32.3417ZM121.108 32.2138C119.804 32.2138 118.79 31.8592 118.067 31.1503C117.358 30.4271 117.003 29.4134 117.003 28.1089V23.0047H115.004V20.5164H115.217C115.784 20.5164 116.223 20.3673 116.535 20.0696C116.847 19.7717 117.003 19.3397 117.003 18.7722V17.8789H119.789V20.5164H122.448V23.0047H119.789V27.9601C119.789 28.3428 119.853 28.669 119.981 28.9384C120.123 29.2078 120.335 29.4134 120.619 29.5552C120.916 29.697 121.292 29.7681 121.746 29.7681C121.845 29.7681 121.958 29.7612 122.086 29.747C122.228 29.7327 122.363 29.7186 122.49 29.7046V32.0866C122.292 32.1147 122.065 32.1431 121.809 32.1714C121.555 32.2001 121.32 32.2142 121.108 32.2142L121.108 32.2138Z" fill="white"/>
<path fill-rule="evenodd" clip-rule="evenodd" d="M25.6797 25.6893L25.7091 23.5766C25.7067 23.2246 25.6881 23.0547 25.6773 22.9836C25.6518 22.9683 25.6135 22.9466 25.5593 22.9181C24.6021 22.4165 22.3822 21.6546 21.293 21.3379V25.6895H25.6797V25.6893Z" fill="white"/>
<path fill-rule="evenodd" clip-rule="evenodd" d="M19.1659 25.6893V21.3389C18.0756 21.6561 15.8575 22.419 14.898 22.9202C14.8444 22.9483 14.8061 22.9701 14.7806 22.9848C14.7187 23.3753 14.768 24.9911 14.7795 25.6895H19.1657L19.1659 25.6893Z" fill="white"/>
<path fill-rule="evenodd" clip-rule="evenodd" d="M19.1662 27.8161H14.8018C14.8029 28.0602 14.8032 28.3164 14.8032 28.5845C14.8032 31.4398 17.0014 33.3047 19.1662 34.3779V27.8159V27.8161Z" fill="white"/>
<path fill-rule="evenodd" clip-rule="evenodd" d="M21.293 27.8159V34.3779C23.458 33.3051 25.6565 31.4395 25.6565 28.5845C25.6565 28.3164 25.6572 28.0602 25.6581 27.8161H21.293V27.8159Z" fill="white"/>
<path d="M96.4717 38.0307L97.5774 34.8252H98.3347L99.4405 38.0307H98.8038L98.5758 37.3422H97.3367L97.1043 38.0307H96.4719H96.4717ZM97.5043 36.8259H98.4078L97.8744 35.2297H98.0378L97.5043 36.8259Z" fill="white"/>
<path d="M101.722 38.0305V34.8252H103.86V35.3415H102.307V36.2277H103.666V36.744H102.307V38.0305H101.722Z" fill="white"/>
<path d="M106.168 38.0307V34.8252H107.36C107.578 34.8252 107.771 34.8646 107.938 34.9435C108.106 35.0224 108.237 35.137 108.332 35.2877C108.427 35.4383 108.474 35.6212 108.474 35.8363C108.474 36.0571 108.422 36.245 108.317 36.3998C108.212 36.5548 108.071 36.6694 107.893 36.744L108.629 38.0305H107.966L107.179 36.6235L107.558 36.8473H106.753V38.0305H106.168V38.0307ZM106.753 36.3312H107.368C107.474 36.3312 107.566 36.3103 107.644 36.2688C107.721 36.2272 107.781 36.1691 107.824 36.0945C107.867 36.0199 107.889 35.9339 107.889 35.8364C107.889 35.736 107.867 35.6493 107.824 35.5761C107.781 35.503 107.721 35.4457 107.644 35.404C107.566 35.3625 107.475 35.3415 107.368 35.3415H106.753V36.3312Z" fill="white"/>
<path d="M110.937 38.0305V34.8252H111.522V38.0305H110.937Z" fill="white"/>
<path d="M115.567 38.0823C115.338 38.0823 115.126 38.0408 114.932 37.9576C114.739 37.8744 114.57 37.7582 114.425 37.6091C114.28 37.4599 114.168 37.285 114.087 37.0842C114.007 36.8835 113.967 36.6641 113.967 36.426C113.967 36.1878 114.006 35.9679 114.085 35.7656C114.164 35.5634 114.276 35.3885 114.421 35.2408C114.566 35.093 114.736 34.9782 114.931 34.8965C115.126 34.8149 115.338 34.7739 115.567 34.7739C115.797 34.7739 116.002 34.8126 116.185 34.89C116.367 34.9674 116.521 35.0699 116.647 35.1976C116.774 35.3252 116.864 35.4651 116.918 35.6172L116.393 35.8624C116.333 35.7018 116.231 35.5692 116.088 35.4644C115.944 35.3596 115.771 35.3074 115.567 35.3074C115.367 35.3074 115.189 35.3548 115.036 35.4493C114.883 35.544 114.763 35.6745 114.679 35.8408C114.594 36.0071 114.552 36.2021 114.552 36.426C114.552 36.6498 114.594 36.8455 114.679 37.0132C114.764 37.181 114.883 37.3122 115.036 37.4069C115.189 37.5016 115.367 37.5488 115.567 37.5488C115.771 37.5488 115.944 37.4966 116.088 37.3918C116.231 37.2871 116.333 37.1544 116.393 36.9938L116.918 37.239C116.864 37.3911 116.774 37.5308 116.647 37.6584C116.521 37.7861 116.367 37.8886 116.185 37.966C116.002 38.0434 115.797 38.0821 115.567 38.0821L115.567 38.0823Z" fill="white"/>
<path d="M119.054 38.0307L120.159 34.8252H120.917L122.023 38.0307H121.386L121.158 37.3422H119.919L119.686 38.0307H119.054H119.054ZM120.086 36.8259H120.99L120.456 35.2297H120.62L120.086 36.8259Z" fill="white"/>
<path d="M46.9355 48.4219L47.0784 47.4224H48.0279L47.8779 48.4219H46.9355Z" fill="white"/>
<path d="M50.1182 48.4219L50.2611 47.4224H51.2105L51.0606 48.4219H50.1182Z" fill="white"/>
<path d="M53.3018 48.4219L53.4447 47.4224H54.3941L54.2442 48.4219H53.3018Z" fill="white"/>
<path d="M58.2988 48.5075C57.9942 48.5075 57.7194 48.4493 57.4741 48.3326C57.2291 48.2159 57.0423 48.0529 56.9137 47.8436L57.0352 47.6723L56.9353 48.4219H56.043L56.7997 43.0176H57.7421L57.428 45.3093L57.1711 45.1022C57.3234 44.8929 57.5173 44.7323 57.7529 44.6203C57.9884 44.5085 58.2491 44.4525 58.5345 44.4525C58.8962 44.4525 59.2151 44.537 59.4912 44.7059C59.7672 44.8748 59.985 45.102 60.1445 45.3876C60.304 45.6732 60.3836 45.9944 60.3836 46.3514C60.3836 46.6465 60.33 46.9249 60.223 47.1866C60.116 47.4484 59.9672 47.678 59.7768 47.8756C59.5865 48.0732 59.3653 48.2278 59.113 48.3397C58.8607 48.4515 58.5894 48.5075 58.2991 48.5075H58.2988ZM58.2059 47.6509C58.4392 47.6509 58.6461 47.5924 58.827 47.476C59.0078 47.3593 59.1494 47.2034 59.2518 47.0084C59.3541 46.8132 59.4053 46.5966 59.4053 46.3587C59.4053 46.154 59.3636 45.9732 59.2804 45.8161C59.1971 45.6591 59.0817 45.5354 58.9342 45.4447C58.7866 45.3543 58.6106 45.3091 58.4059 45.3091C58.1775 45.3091 57.9739 45.3675 57.7955 45.484C57.617 45.6007 57.4777 45.7566 57.3778 45.9516C57.2779 46.1468 57.2278 46.3633 57.2278 46.6013C57.2278 46.806 57.2695 46.9881 57.3527 47.1474C57.436 47.3068 57.5514 47.4306 57.6989 47.5186C57.8465 47.6066 58.0154 47.6507 58.2057 47.6507L58.2059 47.6509Z" fill="white"/>
<path d="M63.3242 48.5074C62.9436 48.5074 62.6116 48.4242 62.3283 48.2575C62.0451 48.0909 61.8261 47.8636 61.6715 47.5756C61.5167 47.2875 61.4395 46.9653 61.4395 46.6082C61.4395 46.3131 61.4906 46.0359 61.593 45.7765C61.6953 45.5172 61.8404 45.2876 62.0285 45.0875C62.2164 44.8877 62.4341 44.7318 62.6818 44.62C62.9292 44.5082 63.2005 44.4521 63.4956 44.4521C63.8765 44.4521 64.2 44.5307 64.4665 44.6877C64.7331 44.8447 64.9353 45.0554 65.0732 45.3196C65.2113 45.5838 65.2803 45.88 65.2803 46.2084C65.2803 46.2942 65.2731 46.3822 65.2589 46.4726C65.2446 46.563 65.2256 46.6534 65.2018 46.7439H62.2034L62.2533 46.0299H64.7164L64.2523 46.3511C64.3141 46.1369 64.32 45.9455 64.2702 45.7763C64.2201 45.6074 64.1275 45.4729 63.9918 45.373C63.8562 45.273 63.6884 45.223 63.4885 45.223C63.2268 45.223 63.0161 45.2872 62.8567 45.4158C62.6972 45.5443 62.5806 45.7192 62.5069 45.9405C62.433 46.1617 62.3962 46.408 62.3962 46.6793C62.3962 46.8886 62.4354 47.0695 62.514 47.2219C62.5925 47.3742 62.703 47.4896 62.8459 47.5681C62.9886 47.6466 63.1553 47.6859 63.3456 47.6859C63.5598 47.6859 63.7479 47.6383 63.9096 47.5432C64.0715 47.4481 64.1999 47.3266 64.2951 47.1791L65.0375 47.5646C64.9471 47.7503 64.8174 47.9144 64.6484 48.0571C64.4795 48.1998 64.2819 48.3105 64.0558 48.389C63.8298 48.4675 63.5858 48.5068 63.3241 48.5068L63.3242 48.5074Z" fill="white"/>
<path d="M66.3432 49.9997C66.2241 49.9997 66.116 49.9889 66.0183 49.9675C65.9208 49.9461 65.8339 49.9164 65.7578 49.8782L65.8149 49.1143C65.8767 49.1286 65.9495 49.1416 66.0326 49.1535C66.116 49.1654 66.1885 49.1714 66.2503 49.1714C66.393 49.1714 66.5132 49.1463 66.6109 49.0964C66.7084 49.0463 66.7942 48.9773 66.8679 48.8893C66.9417 48.8013 67.0094 48.7049 67.0714 48.6002L67.4212 48.029L67.3284 48.8143L66.2432 44.5381H67.207L67.9494 47.6935H67.5782L69.2132 44.5381H70.2698L67.971 48.843C67.8378 49.0904 67.6891 49.3011 67.5248 49.4748C67.3607 49.6486 67.181 49.7794 66.9858 49.8674C66.7906 49.9554 66.5765 49.9995 66.3433 49.9995L66.3432 49.9997Z" fill="white"/>
<path d="M72.7252 48.5077C72.3586 48.5077 72.028 48.4256 71.7329 48.2613C71.4378 48.0972 71.2047 47.8711 71.0333 47.5831C70.862 47.2951 70.7764 46.9656 70.7764 46.5944C70.7764 46.2945 70.8324 46.0148 70.9442 45.7554C71.056 45.4961 71.2119 45.2687 71.4118 45.0737C71.6116 44.8785 71.8425 44.7263 72.1043 44.6169C72.3661 44.5075 72.6468 44.4526 72.9468 44.4526C73.3133 44.4526 73.6441 44.5347 73.939 44.699C74.2341 44.8633 74.4673 45.088 74.6386 45.3736C74.81 45.6592 74.8958 45.9901 74.8958 46.3659C74.8958 46.661 74.8386 46.9382 74.7244 47.1976C74.6102 47.457 74.4531 47.6854 74.2533 47.8829C74.0535 48.0803 73.8226 48.2338 73.5608 48.3434C73.299 48.4528 73.0206 48.5075 72.7254 48.5075L72.7252 48.5077ZM72.7324 47.651C72.9609 47.651 73.1643 47.5926 73.3429 47.4761C73.5213 47.3595 73.6618 47.2024 73.7641 47.005C73.8665 46.8074 73.9176 46.5897 73.9176 46.3518C73.9176 46.1471 73.8771 45.9674 73.7961 45.8127C73.7152 45.6579 73.601 45.5355 73.4536 45.4451C73.3061 45.3547 73.1347 45.3094 72.9395 45.3094C72.711 45.3094 72.5064 45.3679 72.3255 45.4843C72.1447 45.601 72.0044 45.7569 71.9043 45.9519C71.8044 46.1471 71.7543 46.3659 71.7543 46.6087C71.7543 46.8134 71.7947 46.9931 71.8756 47.1477C71.9566 47.3023 72.0708 47.425 72.2183 47.5154C72.3659 47.6058 72.5373 47.651 72.7324 47.651Z" fill="white"/>
<path d="M75.8232 48.4219L76.3658 44.5382H77.2438L77.1439 45.3022L77.0868 45.1452C77.2105 44.9072 77.3795 44.7323 77.5936 44.6205C77.8078 44.5086 78.0457 44.4526 78.3075 44.4526C78.6026 44.4526 78.8536 44.5217 79.0607 44.6597C79.2678 44.7978 79.42 44.9846 79.5177 45.2201C79.6152 45.4557 79.6425 45.721 79.5997 46.0161L79.2641 48.4219H78.3289L78.6503 46.1231C78.6836 45.8756 78.6383 45.678 78.5146 45.5305C78.3909 45.3829 78.2149 45.3091 77.9864 45.3091C77.834 45.3091 77.6926 45.3437 77.5616 45.4125C77.4306 45.4816 77.3236 45.5779 77.2403 45.7017C77.1569 45.8254 77.1011 45.9729 77.0725 46.1443L76.7584 48.4217H75.8232V48.4219Z" fill="white"/>
<path d="M82.4983 48.5077C82.1317 48.5077 81.8106 48.4292 81.5345 48.2721C81.2583 48.1151 81.0431 47.8974 80.8883 47.6189C80.7337 47.3405 80.6562 47.0203 80.6562 46.6586C80.6562 46.3302 80.7123 46.0316 80.8241 45.7627C80.9359 45.4939 81.0907 45.2618 81.2881 45.0667C81.4857 44.8715 81.714 44.7204 81.9734 44.6132C82.2327 44.5063 82.5077 44.4527 82.798 44.4527C83.1074 44.4527 83.3774 44.5133 83.6083 44.6346C83.8392 44.7561 84.0163 44.9214 84.1402 45.1309L83.9404 45.3093L84.2545 43.0176H85.204L84.4543 48.4219H83.562L83.6619 47.6723L83.869 47.815C83.7263 48.0435 83.5322 48.2159 83.2872 48.3326C83.0421 48.4493 82.779 48.5075 82.4983 48.5075V48.5077ZM82.6266 47.6511C82.86 47.6511 83.0657 47.5926 83.2442 47.4762C83.4226 47.3595 83.5618 47.2025 83.6619 47.0051C83.7618 46.8075 83.8118 46.5898 83.8118 46.3518C83.8118 46.152 83.7702 45.9733 83.687 45.8165C83.6036 45.6595 83.4896 45.5357 83.3443 45.4451C83.1992 45.3547 83.0289 45.3095 82.8339 45.3095C82.6008 45.3095 82.3937 45.3679 82.2128 45.4844C82.032 45.601 81.8904 45.757 81.7881 45.9519C81.6857 46.1471 81.6346 46.3659 81.6346 46.6087C81.6346 46.8134 81.6762 46.9931 81.7594 47.1478C81.8428 47.3024 81.9592 47.425 82.1092 47.5154C82.2592 47.6058 82.4316 47.6511 82.6268 47.6511H82.6266Z" fill="white"/>
<path d="M89.1013 48.5077C88.7348 48.5077 88.4064 48.4245 88.1161 48.2578C87.8259 48.0912 87.5998 47.8639 87.4379 47.5759C87.2761 47.2878 87.1953 46.9632 87.1953 46.6015C87.1953 46.3015 87.25 46.0208 87.3594 45.759C87.4688 45.4972 87.6223 45.2687 87.8199 45.0737C88.0175 44.8785 88.2458 44.7263 88.5052 44.6169C88.7645 44.5075 89.0418 44.4526 89.3369 44.4526C89.6225 44.4526 89.8818 44.5014 90.115 44.5991C90.3481 44.6966 90.5468 44.8322 90.7111 45.006C90.8752 45.1796 90.9883 45.3807 91.0501 45.6092L90.2147 45.9519C90.1576 45.7521 90.0506 45.5951 89.8936 45.4808C89.7365 45.3666 89.5486 45.3094 89.3296 45.3094C89.1011 45.3094 88.8989 45.3701 88.7229 45.4914C88.5469 45.6129 88.4112 45.7711 88.316 45.9662C88.2207 46.1614 88.1733 46.3732 88.1733 46.6016C88.1733 46.8063 88.2125 46.9872 88.291 47.1442C88.3695 47.3012 88.4814 47.425 88.6267 47.5154C88.7718 47.6058 88.9372 47.651 89.1229 47.651C89.356 47.651 89.5607 47.5904 89.7369 47.4689C89.9129 47.3476 90.0463 47.1868 90.1367 46.987L90.9292 47.3796C90.8388 47.5986 90.7031 47.7935 90.5223 47.9649C90.3414 48.1363 90.1297 48.2695 89.8869 48.3648C89.6441 48.4598 89.3825 48.5075 89.1015 48.5075L89.1013 48.5077Z" fill="white"/>
<path d="M94.0552 48.5077C93.6887 48.5077 93.3581 48.4256 93.063 48.2613C92.7679 48.0972 92.5348 47.8711 92.3634 47.5831C92.192 47.2951 92.1064 46.9656 92.1064 46.5944C92.1064 46.2945 92.1625 46.0148 92.2743 45.7554C92.3861 45.4961 92.542 45.2687 92.7418 45.0737C92.9417 44.8785 93.1726 44.7263 93.4344 44.6169C93.6962 44.5075 93.9769 44.4526 94.2768 44.4526C94.6434 44.4526 94.9742 44.5347 95.2691 44.699C95.5642 44.8633 95.7973 45.088 95.9687 45.3736C96.1401 45.6592 96.2258 45.9901 96.2258 46.3659C96.2258 46.661 96.1687 46.9382 96.0545 47.1976C95.9402 47.457 95.7832 47.6854 95.5834 47.8829C95.3835 48.0803 95.1526 48.2338 94.8908 48.3434C94.6291 48.4528 94.3507 48.5075 94.0554 48.5075L94.0552 48.5077ZM94.0625 47.651C94.291 47.651 94.4944 47.5926 94.673 47.4761C94.8514 47.3595 94.9919 47.2024 95.0942 47.005C95.1965 46.8074 95.2477 46.5897 95.2477 46.3518C95.2477 46.1471 95.2071 45.9674 95.1262 45.8127C95.0453 45.6579 94.931 45.5355 94.7837 45.4451C94.6361 45.3547 94.4648 45.3094 94.2696 45.3094C94.0411 45.3094 93.8364 45.3679 93.6556 45.4843C93.4747 45.601 93.3345 45.7569 93.2343 45.9519C93.1344 46.1471 93.0844 46.3659 93.0844 46.6087C93.0844 46.8134 93.1248 46.9931 93.2057 47.1477C93.2866 47.3023 93.4009 47.425 93.5484 47.5154C93.696 47.6058 93.8673 47.651 94.0625 47.651Z" fill="white"/>
<path d="M98.1022 48.4217L97.124 44.5381H98.1022L98.7874 47.5936H98.3948L99.9369 44.5381H101.008L98.9301 48.4217H98.1022Z" fill="white"/>
<path d="M103.399 48.5074C103.019 48.5074 102.687 48.4242 102.403 48.2575C102.12 48.0909 101.901 47.8636 101.747 47.5756C101.592 47.2875 101.515 46.9653 101.515 46.6082C101.515 46.3131 101.566 46.0359 101.668 45.7765C101.77 45.5172 101.916 45.2876 102.104 45.0875C102.292 44.8877 102.509 44.7318 102.757 44.62C103.004 44.5082 103.276 44.4521 103.571 44.4521C103.952 44.4521 104.275 44.5307 104.542 44.6877C104.808 44.8447 105.011 45.0554 105.148 45.3196C105.286 45.5838 105.356 45.88 105.356 46.2084C105.356 46.2942 105.348 46.3822 105.334 46.4726C105.32 46.563 105.301 46.6534 105.277 46.7439H102.279L102.328 46.0299H104.792L104.328 46.3511C104.389 46.1369 104.395 45.9455 104.345 45.7763C104.295 45.6074 104.203 45.4729 104.067 45.373C103.931 45.273 103.764 45.223 103.564 45.223C103.302 45.223 103.091 45.2872 102.932 45.4158C102.772 45.5443 102.656 45.7192 102.582 45.9405C102.508 46.1617 102.471 46.408 102.471 46.6793C102.471 46.8886 102.511 47.0695 102.589 47.2219C102.668 47.3742 102.778 47.4896 102.921 47.5681C103.064 47.6466 103.23 47.6859 103.421 47.6859C103.635 47.6859 103.823 47.6383 103.985 47.5432C104.147 47.4481 104.275 47.3266 104.37 47.1791L105.113 47.5646C105.022 47.7503 104.893 47.9144 104.724 48.0571C104.555 48.1998 104.357 48.3105 104.131 48.389C103.905 48.4675 103.661 48.5068 103.399 48.5068L103.399 48.5074Z" fill="white"/>
<path d="M106.254 48.4221L106.797 44.5384H107.682L107.568 45.4023L107.504 45.2737C107.637 44.9835 107.807 44.7812 108.014 44.667C108.221 44.5527 108.46 44.4956 108.731 44.4956H108.96L108.846 45.3238H108.51C108.244 45.3238 108.019 45.4082 107.835 45.5772C107.652 45.7461 107.534 45.9973 107.482 46.3304L107.196 48.4221H106.254H106.254Z" fill="white"/>
<path d="M110.68 48.5075C110.433 48.5075 110.213 48.4671 110.02 48.3862C109.827 48.3052 109.676 48.1863 109.566 48.0293C109.457 47.8723 109.402 47.6795 109.402 47.451C109.402 47.2036 109.464 46.9918 109.588 46.8156C109.712 46.6396 109.883 46.4956 110.102 46.3838C110.321 46.2719 110.573 46.1945 110.859 46.1517L112.165 45.9447L112.094 46.6586L110.994 46.8513C110.818 46.8846 110.671 46.9453 110.552 47.0333C110.433 47.1213 110.373 47.2415 110.373 47.3939C110.373 47.5271 110.422 47.627 110.52 47.6938C110.617 47.7604 110.742 47.7937 110.895 47.7937C111.085 47.7937 111.256 47.7498 111.409 47.6616C111.561 47.5736 111.687 47.4557 111.787 47.3083C111.887 47.1608 111.947 46.9989 111.966 46.8229L112.101 45.852C112.12 45.7236 112.1 45.6151 112.041 45.5271C111.981 45.4391 111.899 45.3712 111.794 45.3236C111.689 45.276 111.575 45.2521 111.451 45.2521C111.237 45.2521 111.046 45.3093 110.877 45.4235C110.708 45.5377 110.578 45.6829 110.488 45.8591L109.752 45.4449C109.852 45.2402 109.989 45.0653 110.163 44.9202C110.337 44.7751 110.539 44.6608 110.77 44.5775C111 44.4941 111.247 44.4526 111.508 44.4526C111.822 44.4526 112.102 44.5146 112.347 44.6383C112.592 44.7621 112.779 44.931 112.908 45.1452C113.036 45.3593 113.079 45.6092 113.036 45.8946L112.686 48.4219H111.794L111.887 47.758L112.122 47.7651C112.003 47.9316 111.87 48.0697 111.723 48.1793C111.575 48.2887 111.414 48.3707 111.241 48.4256C111.067 48.4803 110.88 48.5077 110.68 48.5077V48.5075Z" fill="white"/>
<path d="M115.777 49.9924C115.482 49.9924 115.213 49.9424 114.97 49.8425C114.728 49.7425 114.527 49.6056 114.367 49.432C114.208 49.2584 114.104 49.0573 114.057 48.8288L114.942 48.5575C114.975 48.7384 115.07 48.88 115.228 48.9823C115.385 49.0846 115.592 49.1358 115.849 49.1358C116.034 49.1358 116.203 49.1001 116.355 49.0288C116.508 48.9574 116.634 48.8574 116.734 48.7289C116.834 48.6005 116.893 48.4505 116.912 48.2792L117.048 47.344L117.283 47.5725C117.136 47.8056 116.949 47.9794 116.723 48.0937C116.497 48.2079 116.241 48.265 115.955 48.265C115.613 48.265 115.307 48.1889 115.038 48.0365C114.769 47.8842 114.559 47.6735 114.406 47.4047C114.254 47.1358 114.178 46.8277 114.178 46.4801C114.178 46.1899 114.229 45.9208 114.331 45.6734C114.434 45.4259 114.575 45.2118 114.756 45.0309C114.937 44.8501 115.149 44.7085 115.391 44.6061C115.634 44.5038 115.896 44.4526 116.177 44.4526C116.481 44.4526 116.755 44.5146 116.998 44.6383C117.24 44.7621 117.428 44.9407 117.561 45.1738L117.376 45.3952L117.49 44.5386H118.382L117.861 48.308C117.818 48.6364 117.701 48.9268 117.508 49.179C117.315 49.4313 117.07 49.63 116.773 49.7751C116.475 49.9202 116.143 49.9928 115.777 49.9928L115.777 49.9924ZM116.084 47.401C116.298 47.401 116.49 47.3485 116.659 47.2439C116.828 47.1392 116.959 47.0011 117.051 46.8298C117.144 46.6584 117.191 46.4705 117.191 46.2658C117.191 46.0801 117.153 45.916 117.076 45.7731C117 45.6304 116.894 45.5173 116.759 45.4341C116.623 45.3508 116.46 45.3093 116.27 45.3093C116.061 45.3093 115.871 45.3604 115.702 45.4628C115.533 45.5651 115.399 45.702 115.299 45.8732C115.199 46.0446 115.149 46.2398 115.149 46.4586C115.149 46.6394 115.188 46.8013 115.267 46.944C115.345 47.0867 115.455 47.1987 115.595 47.2795C115.735 47.3604 115.899 47.401 116.084 47.401Z" fill="white"/>
<path d="M121.202 48.5074C120.822 48.5074 120.49 48.4242 120.206 48.2575C119.923 48.0909 119.704 47.8636 119.549 47.5756C119.395 47.2875 119.317 46.9653 119.317 46.6082C119.317 46.3131 119.369 46.0359 119.471 45.7765C119.573 45.5172 119.718 45.2876 119.906 45.0875C120.094 44.8877 120.312 44.7318 120.56 44.62C120.807 44.5082 121.078 44.4521 121.374 44.4521C121.754 44.4521 122.078 44.5307 122.344 44.6877C122.611 44.8447 122.813 45.0554 122.951 45.3196C123.089 45.5838 123.158 45.88 123.158 46.2084C123.158 46.2942 123.151 46.3822 123.137 46.4726C123.123 46.563 123.104 46.6534 123.08 46.7439H120.081L120.131 46.0299H122.594L122.13 46.3511C122.192 46.1369 122.198 45.9455 122.148 45.7763C122.098 45.6074 122.005 45.4729 121.87 45.373C121.734 45.273 121.566 45.223 121.366 45.223C121.105 45.223 120.894 45.2872 120.735 45.4158C120.575 45.5443 120.458 45.7192 120.385 45.9405C120.311 46.1617 120.274 46.408 120.274 46.6793C120.274 46.8886 120.313 47.0695 120.392 47.2219C120.47 47.3742 120.581 47.4896 120.724 47.5681C120.867 47.6466 121.033 47.6859 121.224 47.6859C121.438 47.6859 121.626 47.6383 121.788 47.5432C121.949 47.4481 122.078 47.3266 122.173 47.1791L122.915 47.5646C122.825 47.7503 122.695 47.9144 122.526 48.0571C122.357 48.1998 122.16 48.3105 121.934 48.389C121.708 48.4675 121.464 48.5068 121.202 48.5068L121.202 48.5074Z" fill="white"/>
<path fill-rule="evenodd" clip-rule="evenodd" d="M25.4407 20.5299C26.2493 20.8637 26.9173 21.1989 27.1893 21.4732C27.7747 22.0632 27.8294 22.6988 27.8359 23.5608C27.8389 24.0021 27.8255 24.6007 27.8115 25.3968C27.7977 26.2027 27.7832 27.2385 27.7832 28.5848C27.7832 32.9496 24.1078 35.6981 20.8709 36.872C20.522 36.9985 20.2582 37.0995 19.8855 36.9739L18.7859 36.5482C15.8854 35.267 12.6762 32.7027 12.6762 28.5848C12.6762 27.2383 12.6615 26.2027 12.6475 25.3965C12.6336 24.5996 12.62 24.0008 12.623 23.5591C12.6317 22.292 12.8228 21.6049 13.9131 21.035C15.1261 20.4015 18.16 19.3473 19.5121 19.0505C20.1039 18.9208 20.3544 18.9208 20.9464 19.0503C21.6555 19.2055 23.828 19.8645 25.4405 20.53L25.4407 20.5299ZM27.0526 39.1494C30.859 36.3104 34.4541 31.9918 34.4541 25.7392C34.4541 25.3092 34.4546 24.8909 34.4556 24.4844L21.1397 11.7009C20.4307 11.0197 19.4968 11.0197 18.7881 11.7003L5.47266 24.4833C5.47377 24.89 5.47433 25.3086 5.47433 25.739C5.47433 34.0954 11.987 39.4281 18.1135 42.232C18.825 42.5576 19.4183 42.8012 19.9586 42.9984L20.0937 42.95C22.1934 42.1621 24.77 40.8509 27.0524 39.1492L27.0526 39.1494Z" fill="white"/>
<path fill-rule="evenodd" clip-rule="evenodd" d="M5.44015 20.0919L16.5776 9.39913C18.521 7.53275 21.4053 7.53275 23.3485 9.39913L34.4867 20.0922L34.584 12.8764C34.5762 11.7893 34.5248 11.2648 34.4489 10.9604C34.4002 10.765 34.3535 10.6837 34.1897 10.5131C34.2178 10.5425 34.0934 10.4292 33.6345 10.1798C32.1018 9.34778 29.3434 8.27402 27.4115 7.56922C25.9041 7.01941 21.2782 5.41501 19.9622 5.34096C19.5972 5.3203 17.8214 5.81857 17.3047 5.97152C14.4574 6.81456 8.78702 8.83202 6.28822 10.1841C5.82623 10.434 5.70157 10.5471 5.73059 10.517C5.56946 10.6837 5.52425 10.7618 5.47587 10.9552C5.24479 11.8808 5.36852 15.501 5.40182 17.4816C5.41503 18.2636 5.42843 19.1298 5.43996 20.0915L5.44015 20.0919Z" fill="white"/>
<path fill-rule="evenodd" clip-rule="evenodd" d="M19.6357 48.1124L19.6475 48.1437C19.8529 48.2056 20.0722 48.2056 20.2777 48.1437L20.278 48.1422L20.2786 48.1435L21.1374 47.8514C23.7944 46.8877 27.0458 45.2956 29.9595 43.1978C34.782 39.7251 39.7731 34.1147 39.7731 25.8065C39.7731 21.9079 39.8157 18.9086 39.8559 16.5773C39.8959 14.256 39.9345 12.5697 39.9253 11.3294C39.9164 10.1059 39.8628 9.20332 39.6782 8.48959C39.4741 7.69939 39.1203 7.176 38.6348 6.68647C37.3999 5.44173 31.4049 3.29998 29.6308 2.67519C27.7514 2.01318 21.8328 0 19.9628 0C18.0937 0 12.1749 2.01746 10.2957 2.68002C8.52753 3.30333 2.52818 5.44991 1.29404 6.6835C0.806559 7.17098 0.451927 7.69362 0.247445 8.4842C0.063059 9.19737 0.0100316 10.1001 0.00128675 11.324C-0.00764418 12.5649 0.0314286 14.2521 0.0716178 16.5752C0.112179 18.9073 0.154601 21.9076 0.154601 25.8067C0.154601 36.6953 8.77313 43.5113 16.5983 46.9681L19.6279 48.1379L19.6361 48.1126L19.6357 48.1124ZM3.06943 8.04993C4.5836 7.08111 9.06748 5.41903 11.0185 4.73135C13.4101 3.8883 16.6037 2.83966 18.7836 2.36186C19.3983 2.22696 19.7839 2.17524 19.9625 2.17524C20.5858 2.17524 22.398 2.6616 23.2857 2.91465C26.5857 3.85574 33.301 6.15713 36.257 7.70721L37.0749 8.20473C37.0862 8.21459 37.0907 8.21943 37.0905 8.21906C37.3564 8.48699 37.4814 8.68272 37.5724 9.03438C37.6829 9.46195 37.7413 10.1228 37.7503 11.3453C37.7592 12.5506 37.7214 14.1922 37.6809 16.5403C37.6407 18.8787 37.5979 21.8916 37.5979 25.8067C37.5979 35.6061 29.6723 41.7869 22.4484 44.9784L19.9625 45.9589L17.4771 44.9788C10.2531 41.7874 2.32965 35.6078 2.32965 25.8069C2.32965 21.8906 2.28686 18.8772 2.24649 16.5377C2.20574 14.1881 2.16778 12.5454 2.17615 11.3393C2.18471 10.1165 2.24295 9.45543 2.35328 9.02898C2.4439 8.67882 2.56763 8.48587 2.83165 8.22222L3.06962 8.05012L3.06943 8.04993Z" fill="white"/>
</svg>
