<svg viewBox="0 0 23 25.3333" fill="none" xmlns="http://www.w3.org/2000/svg" xmlns:xlink="http://www.w3.org/1999/xlink" x="0" y="0"><path id="Vector_15" d="M11.5,0.9967c2.729,2.68 6.291,4.08 9.931,3.89c0.53,2 0.692,4.1 0.477,6.17c-0.216,2.07 -0.804,4.07 -1.73,5.89c-0.927,1.81 -2.172,3.4 -3.663,4.67c-1.491,1.27 -3.196,2.19 -5.015,2.72c-1.819,-0.53 -3.524,-1.45 -5.015,-2.72c-1.491,-1.27 -2.736,-2.86 -3.663,-4.67c-0.926,-1.82 -1.514,-3.82 -1.73,-5.89c-0.215,-2.07 -0.053,-4.17 0.477,-6.17c3.64,0.19 7.202,-1.21 9.931,-3.89z" stroke="#AF060D" stroke-width="2" stroke-linecap="round" stroke-linejoin="round"/></svg>