<svg viewBox="0 0 25.3333 25.3333" fill="none" xmlns="http://www.w3.org/2000/svg" xmlns:xlink="http://www.w3.org/1999/xlink" x="0" y="0"><path id="Vector_14" d="M12.667,11.6667c-0.553,0 -1,0.45 -1,1c0,0.55 0.447,1 1,1v-1zM12.678,13.6667c0.553,0 1,-0.45 1,-1c0,-0.55 -0.447,-1 -1,-1v1zM24.333,12.6667h-1c0,5.89 -4.775,10.67 -10.666,10.67v1v1c6.995,0 12.666,-5.67 12.666,-12.67zM12.667,24.3367v-1c-5.891,0 -10.667,-4.78 -10.667,-10.67h-1h-1c0,7 5.671,12.67 12.667,12.67zM1,12.6667h1c0,-5.89 4.776,-10.67 10.667,-10.67v-1v-1c-6.996,0 -12.667,5.67 -12.667,12.67zM12.667,0.9967v1c5.891,0 10.666,4.78 10.666,10.67h1h1c0,-7 -5.671,-12.67 -12.666,-12.67zM18.5,12.6667h-1c0,2.67 -2.164,4.83 -4.833,4.83v1v1c3.774,0 6.833,-3.06 6.833,-6.83zM12.667,18.4967v-1c-2.67,0 -4.834,-2.16 -4.834,-4.83h-1h-1c0,3.77 3.06,6.83 6.834,6.83zM6.833,12.6667h1c0,-2.67 2.164,-4.83 4.834,-4.83v-1v-1c-3.774,0 -6.834,3.06 -6.834,6.83zM12.667,6.8367v1c2.669,0 4.833,2.16 4.833,4.83h1h1c0,-3.77 -3.059,-6.83 -6.833,-6.83zM12.667,12.6667v1h0.011v-1v-1h-0.011z" fill="currentColor"/></svg>