<svg viewBox="0 0 25.3333 25.3333" fill="none" xmlns="http://www.w3.org/2000/svg" xmlns:xlink="http://www.w3.org/1999/xlink" x="0" y="0"><g id="Vector_12">
<path d="M12.667,24.3367c6.443,0 11.666,-5.23 11.666,-11.67c0,-6.44 -5.223,-11.67 -11.666,-11.67c-6.444,0 -11.667,5.23 -11.667,11.67c0,6.44 5.223,11.67 11.667,11.67z" stroke="#AF060D" stroke-width="2" stroke-linecap="round" stroke-linejoin="round"/>
<path d="M12.667,19.6667c3.866,0 7,-3.13 7,-7c0,-3.87 -3.134,-7 -7,-7c-3.866,0 -7,3.13 -7,7c0,3.87 3.134,7 7,7z" stroke="#AF060D" stroke-width="2" stroke-linecap="round" stroke-linejoin="round"/>
<path d="M12.667,14.9967c1.288,0 2.333,-1.04 2.333,-2.33c0,-1.29 -1.045,-2.33 -2.333,-2.33c-1.289,0 -2.334,1.04 -2.334,2.33c0,1.29 1.045,2.33 2.334,2.33z" stroke="#AF060D" stroke-width="2" stroke-linecap="round" stroke-linejoin="round"/>
</g></svg>