<svg viewBox="0 0 25.3333 25.3333" fill="none" xmlns="http://www.w3.org/2000/svg" xmlns:xlink="http://www.w3.org/1999/xlink" x="0" y="0"><path id="Vector_19" d="M1,12.6666h1.296M12.667,0.9966v1.3M23.034,12.6666h1.3M4.37,4.3666l0.908,0.91M20.964,4.3666l-0.91,0.91M9.685,19.1466h5.963M8.778,17.8566c-1.088,-0.82 -1.892,-1.96 -2.298,-3.26c-0.406,-1.3 -0.392,-2.69 0.038,-3.98c0.43,-1.29 1.255,-2.41 2.359,-3.21c1.103,-0.79 2.429,-1.22 3.79,-1.22c1.36,0 2.686,0.43 3.789,1.22c1.104,0.8 1.929,1.92 2.36,3.21c0.43,1.29 0.443,2.68 0.037,3.98c-0.405,1.3 -1.209,2.44 -2.297,3.26c-0.507,0.5 -0.888,1.11 -1.113,1.78c-0.225,0.68 -0.288,1.4 -0.184,2.1c0,0.69 -0.273,1.35 -0.759,1.84c-0.486,0.48 -1.146,0.76 -1.833,0.76c-0.688,0 -1.347,-0.28 -1.834,-0.76c-0.486,-0.49 -0.759,-1.15 -0.759,-1.84c0.104,-0.7 0.041,-1.42 -0.184,-2.1c-0.225,-0.67 -0.606,-1.28 -1.112,-1.78z" stroke="#AF060D" stroke-width="2" stroke-linecap="round" stroke-linejoin="round"/></svg>