<svg viewBox="0 0 25.3333 23" fill="none" xmlns="http://www.w3.org/2000/svg" xmlns:xlink="http://www.w3.org/1999/xlink" x="0" y="0"><path id="Vector_17" d="M18.5,22v-2.33c0,-1.24 -0.492,-2.43 -1.367,-3.3c-0.875,-0.88 -2.062,-1.37 -3.3,-1.37h-8.166c-1.238,0 -2.425,0.49 -3.3,1.37c-0.875,0.87 -1.367,2.06 -1.367,3.3v2.33M17.362,1.35c1.695,0.7 2.888,2.37 2.888,4.32c0,1.96 -1.211,3.64 -2.927,4.33M24.333,22v-2.33c0,-1.04 -0.345,-2.04 -0.978,-2.86c-0.634,-0.82 -1.521,-1.4 -2.522,-1.66M14.417,5.67c0,2.57 -2.09,4.66 -4.667,4.66c-2.577,0 -4.667,-2.09 -4.667,-4.66c0,-2.58 2.09,-4.67 4.667,-4.67c2.577,0 4.667,2.09 4.667,4.67z" stroke="#AF060D" stroke-width="2" stroke-linecap="round" stroke-linejoin="round"/></svg>