<svg viewBox="0 0 210.9797 175" fill="none" xmlns="http://www.w3.org/2000/svg" xmlns:xlink="http://www.w3.org/1999/xlink" x="0" y="0"><g id="Group 15">
<g id="Ballon">
<path id="Vector_15" d="M48.783,86.764l0.412,9.928l7.64,-3.34z" fill="#FEF2F2"/>
<path id="Vector_16" d="M39.725,93.093c14.553,0 26.351,-11.798 26.351,-26.352c0,-14.553 -11.798,-26.351 -26.351,-26.351c-14.554,0 -26.352,11.798 -26.352,26.351c0,14.554 11.798,26.352 26.352,26.352z" fill="#FEF2F2"/>
<path id="Vector_17" d="M32.084,134.359c13.147,0 23.805,-10.658 23.805,-23.805c0,-13.147 -10.658,-23.805 -23.805,-23.805c-13.147,0 -23.805,10.658 -23.805,23.805c0,13.147 10.658,23.805 23.805,23.805z" fill="#FEF2F2"/>
<path id="Vector_18" d="M72.955,175c-0.229,0 -0.458,-0.107 -0.61,-0.32l-29.661,-43.203c-0.229,-0.336 -0.138,-0.793 0.183,-1.022c0.335,-0.229 0.793,-0.137 1.021,0.183l29.661,43.203c0.229,0.336 0.138,0.793 -0.183,1.022c-0.122,0.091 -0.274,0.137 -0.411,0.137z" fill="#FEF2F2"/>
<path id="Vector_19" d="M78.81,173.536c-0.305,0 -0.595,-0.198 -0.687,-0.503l-28.197,-83.478c-0.122,-0.381 0.077,-0.793 0.458,-0.93c0.381,-0.137 0.793,0.076 0.93,0.457l28.197,83.478c0.122,0.381 -0.076,0.793 -0.457,0.93c-0.092,0.031 -0.168,0.046 -0.244,0.046z" fill="#FEF2F2"/>
<path id="Vector_20" d="M42.043,128.656l0.671,8.463l7.564,-4.376z" fill="#FEF2F2"/>
<path id="Vector_21" d="M17.658,120.085c-0.168,0 -0.321,-0.061 -0.458,-0.167c-4.285,-3.508 -3.599,-10.95 -3.553,-11.255c0.046,-0.396 0.397,-0.686 0.808,-0.656c0.397,0.046 0.702,0.397 0.656,0.809c0,0.076 -0.64,6.969 3.035,9.973c0.32,0.259 0.366,0.717 0.106,1.037c-0.167,0.168 -0.381,0.259 -0.594,0.259z" fill="white"/>
</g>
<g id="Woman">
<g id="Hand_1">
<path id="Vector_22" d="M108.47,112.399c-0.076,0 -0.137,-0.015 -0.213,-0.03c-1.068,-0.32 -2.059,-0.625 -2.974,-0.885c-10.736,-3.202 -11.27,-3.705 -19.078,-17.964c-5.139,-9.409 -15.692,-31.872 -24.171,-49.928c-5.551,-11.803 -10.324,-22.005 -11.666,-24.384c-1.494,-2.654 -2.501,-2.959 -2.729,-2.837c-0.412,0.183 -0.793,1.678 -0.046,3.721c1.479,4.041 2.958,7.778 2.974,7.823c0.137,0.336 0.015,0.702 -0.29,0.885c-0.305,0.183 -0.686,0.137 -0.93,-0.122c-2.135,-2.349 -4.27,-4.88 -6.146,-7.122c-3.264,-3.904 -7.351,-8.753 -8.464,-8.509c-0.03,0 -0.122,0.106 -0.198,0.396c-0.183,0.686 1.235,2.654 2.897,4.941c1.464,2.013 3.279,4.529 5.231,7.732c0.183,0.305 0.122,0.717 -0.152,0.945c-0.275,0.229 -0.687,0.229 -0.961,-0.03c-0.183,-0.168 -0.519,-0.58 -1.281,-1.51c-6.985,-8.54 -9.409,-9.989 -10.217,-9.729c-0.153,0.045 -0.321,0.442 -0.351,1.189c-0.015,0.397 -0.366,0.732 -0.763,0.702c-0.411,-0.016 -0.716,-0.351 -0.701,-0.763c0.046,-1.403 0.503,-2.242 1.342,-2.531c1.22,-0.412 2.958,0.625 5.154,2.714c-1.281,-1.845 -1.906,-3.065 -1.616,-4.087c0.274,-1.006 0.854,-1.342 1.296,-1.433c1.906,-0.412 4.712,2.806 9.897,8.997c1.113,1.327 2.227,2.669 3.386,4.011c-0.458,-1.205 -0.976,-2.593 -1.51,-4.026c-0.915,-2.532 -0.58,-4.926 0.808,-5.566c0.793,-0.366 2.455,-0.397 4.621,3.461c1.372,2.425 5.932,12.155 11.712,24.476c8.463,18.041 19.001,40.473 24.125,49.837c7.747,14.152 7.945,14.213 18.208,17.263c0.915,0.274 1.906,0.564 2.974,0.899c0.381,0.122 0.61,0.534 0.488,0.915c-0.061,0.336 -0.351,0.549 -0.656,0.549z" fill="#AF060D"/>
<path id="Vector_23" d="M39.678,29.852c-0.213,0 -0.412,-0.091 -0.564,-0.259c-0.046,-0.046 -3.996,-4.819 -6.573,-7.625c-3.889,-4.255 -5.048,-3.95 -5.063,-3.95c0,0 -0.305,0.29 -0.03,1.815c0.076,0.396 -0.183,0.778 -0.58,0.854c-0.396,0.076 -0.777,-0.183 -0.854,-0.58c-0.122,-0.671 -0.518,-2.745 0.808,-3.4c0.488,-0.244 1.998,-0.992 6.802,4.27c2.592,2.836 6.573,7.625 6.618,7.686c0.26,0.305 0.214,0.777 -0.091,1.037c-0.137,0.091 -0.305,0.152 -0.473,0.152z" fill="#AF060D"/>
<path id="Vector_24" d="M85.352,173.414c-0.381,0 -0.702,-0.305 -0.732,-0.686l-2.974,-45.765c-2.577,-4.956 -12.078,-24.461 -21.258,-43.34c-7.427,-15.25 -14.442,-29.646 -16.379,-33.443c-4.285,-8.372 -12.764,-19.291 -15.402,-22.448l-0.701,-0.838c-2.151,-2.562 -3.462,-4.118 -3.249,-5.46c0.061,-0.351 0.244,-0.823 0.824,-1.205c2.287,-1.433 6.451,3.279 10.858,8.662c0.686,0.824 1.388,1.678 1.647,1.937c0.137,0.061 0.259,0.168 0.335,0.305c0.214,0.351 0.092,0.793 -0.259,1.007c-0.64,0.381 -0.808,0.183 -2.852,-2.303c-5.017,-6.115 -8.036,-8.921 -8.951,-8.342c-0.153,0.092 -0.153,0.153 -0.168,0.183c-0.107,0.671 1.433,2.516 2.928,4.285l0.701,0.854c2.669,3.203 11.24,14.244 15.586,22.723c1.936,3.797 8.967,18.208 16.393,33.473c8.845,18.163 18.864,38.75 21.32,43.447c0.045,0.091 0.076,0.183 0.076,0.29l2.989,45.917c0.03,0.396 -0.275,0.747 -0.686,0.778c-0.016,-0.031 -0.031,-0.031 -0.046,-0.031zM37.361,30.828c-0.016,0 -0.031,0.015 -0.046,0.015c0.03,0 0.046,-0.015 0.046,-0.015z" fill="#AF060D"/>
<path id="Vector_25" d="M47.761,36.638c-0.336,0 -0.641,-0.244 -0.717,-0.579c-0.93,-4.529 2.15,-8.189 2.272,-8.342c0.259,-0.305 0.717,-0.335 1.037,-0.076c0.305,0.259 0.351,0.732 0.076,1.037c-0.03,0.03 -2.745,3.279 -1.952,7.091c0.077,0.396 -0.167,0.778 -0.564,0.869c-0.046,-0.015 -0.091,0 -0.152,0z" fill="#AF060D"/>
<path id="Vector_26" d="M69.294,100.306c-0.351,0 -0.671,-0.259 -0.717,-0.61c-0.061,-0.396 0.213,-0.777 0.61,-0.838c9.028,-1.449 13.862,-9.089 14.441,-10.538c0.153,-0.381 0.58,-0.564 0.946,-0.412c0.381,0.153 0.564,0.58 0.412,0.946c-1.022,2.546 -6.604,10.004 -15.57,11.437c-0.046,0.015 -0.092,0.015 -0.122,0.015z" fill="#AF060D"/>
</g>
<g id="Hand_2">
<path id="Vector_27" d="M123.109,113.131c-0.32,0 -0.61,-0.198 -0.701,-0.518c-0.122,-0.381 0.107,-0.793 0.488,-0.915l2.028,-0.61c11.3,-3.416 12.231,-3.691 20.206,-18.285c5.124,-9.348 15.662,-31.796 24.125,-49.821c5.78,-12.322 10.355,-22.051 11.728,-24.476c2.165,-3.858 3.827,-3.828 4.62,-3.462c1.388,0.641 1.739,3.02 0.809,5.567c-0.519,1.433 -1.037,2.821 -1.51,4.026c1.159,-1.342 2.287,-2.684 3.385,-4.011c5.2,-6.207 7.991,-9.409 9.897,-8.998c0.443,0.092 1.022,0.427 1.297,1.434c0.274,1.022 -0.351,2.242 -1.617,4.087c2.196,-2.089 3.935,-3.126 5.155,-2.715c0.838,0.29 1.296,1.144 1.342,2.532c0.015,0.412 -0.305,0.747 -0.702,0.762c-0.396,0.016 -0.747,-0.305 -0.762,-0.701c-0.031,-0.747 -0.199,-1.144 -0.351,-1.19c-0.808,-0.274 -3.233,1.19 -10.218,9.73c-0.762,0.93 -1.098,1.342 -1.281,1.51c-0.274,0.244 -0.671,0.259 -0.96,0.03c-0.275,-0.229 -0.351,-0.64 -0.153,-0.945c1.952,-3.203 3.767,-5.719 5.231,-7.732c1.662,-2.288 3.096,-4.27 2.897,-4.941c-0.076,-0.275 -0.167,-0.381 -0.198,-0.397c-1.128,-0.228 -5.2,4.606 -8.464,8.51c-1.875,2.242 -3.995,4.773 -6.145,7.122c-0.244,0.259 -0.625,0.32 -0.93,0.122c-0.305,-0.183 -0.427,-0.565 -0.29,-0.885c0.015,-0.03 1.51,-3.767 2.974,-7.823c0.747,-2.059 0.366,-3.538 -0.046,-3.721c-0.229,-0.107 -1.235,0.183 -2.73,2.836c-1.342,2.379 -6.13,12.582 -11.666,24.385c-8.479,18.056 -19.017,40.519 -24.171,49.913c-8.281,15.112 -9.485,15.478 -21.075,18.986l-2.029,0.61c-0.045,-0.031 -0.122,-0.016 -0.183,-0.016z" fill="#AF060D"/>
<path id="Vector_28" d="M192.938,29.852c-0.167,0 -0.335,-0.061 -0.472,-0.168c-0.305,-0.259 -0.351,-0.716 -0.092,-1.037c0.046,-0.045 4.026,-4.834 6.618,-7.686c4.804,-5.261 6.299,-4.514 6.802,-4.27c1.327,0.656 0.945,2.73 0.808,3.401c-0.076,0.397 -0.457,0.656 -0.854,0.58c-0.396,-0.077 -0.656,-0.458 -0.579,-0.854c0.289,-1.525 -0.016,-1.815 -0.031,-1.815c-0.015,0 -1.174,-0.32 -5.063,3.95c-2.577,2.821 -6.527,7.579 -6.572,7.625c-0.138,0.183 -0.351,0.274 -0.565,0.274z" fill="#AF060D"/>
<path id="Vector_29" d="M148.729,173.536c-0.016,0 -0.016,0 -0.031,0c-0.412,-0.015 -0.717,-0.351 -0.701,-0.762l1.509,-46.055c0,-0.107 0.031,-0.213 0.077,-0.32c2.455,-4.697 12.474,-25.284 21.319,-43.447c7.427,-15.25 14.442,-29.661 16.393,-33.473c4.347,-8.495 12.917,-19.52 15.586,-22.723l0.717,-0.854c1.494,-1.769 3.034,-3.614 2.928,-4.285c0,-0.03 -0.016,-0.091 -0.168,-0.183c-0.915,-0.579 -3.935,2.227 -8.952,8.342c-2.043,2.486 -2.211,2.684 -2.852,2.303c-0.35,-0.214 -0.457,-0.656 -0.259,-1.007c0.076,-0.137 0.198,-0.244 0.336,-0.305c0.259,-0.244 0.96,-1.098 1.647,-1.937c4.422,-5.383 8.57,-10.095 10.858,-8.662c0.594,0.366 0.777,0.854 0.823,1.205c0.214,1.342 -1.098,2.882 -3.248,5.46l-0.702,0.838c-2.638,3.157 -11.132,14.076 -15.402,22.448c-1.937,3.782 -8.952,18.193 -16.378,33.443c-9.181,18.864 -18.681,38.369 -21.259,43.325l-1.509,45.887c0,0.457 -0.336,0.762 -0.732,0.762zM195.256,30.828c0.015,0 0.03,0.015 0.046,0.015c-0.031,0 -0.031,-0.015 -0.046,-0.015z" fill="#AF060D"/>
<path id="Vector_30" d="M184.856,36.638c-0.046,0 -0.092,0 -0.153,-0.015c-0.396,-0.076 -0.655,-0.473 -0.564,-0.869c0.793,-3.813 -1.921,-7.061 -1.952,-7.091c-0.259,-0.305 -0.229,-0.763 0.076,-1.037c0.305,-0.26 0.763,-0.229 1.037,0.076c0.138,0.152 3.203,3.812 2.273,8.341c-0.077,0.351 -0.382,0.595 -0.717,0.595z" fill="#AF060D"/>
<path id="Vector_31" d="M163.628,98.858c-4.819,0.793 -10.858,-2.181 -16.561,-8.205c-0.092,-0.091 -0.214,-0.168 -0.336,-0.198c-0.229,0.427 -0.457,0.839 -0.686,1.25c5.353,5.643 11.087,8.739 15.997,8.739c0.549,0 1.083,-0.046 1.601,-0.122l0.534,-1.342c-0.137,-0.107 -0.336,-0.153 -0.549,-0.122z" fill="#AF060D"/>
</g>
<path id="Pcket" d="M106.625,153.04c-0.122,0 -0.244,-0.03 -0.351,-0.091l-9.15,-5.124c-0.213,-0.122 -0.351,-0.351 -0.366,-0.595l-1.098,-17.934c-0.015,-0.198 0.061,-0.396 0.198,-0.549c0.138,-0.152 0.336,-0.228 0.534,-0.228h17.202c0.412,0 0.732,0.32 0.732,0.731v16.104c0,0.199 -0.076,0.382 -0.214,0.519l-6.954,6.954c-0.152,0.137 -0.335,0.213 -0.533,0.213zM98.192,146.727l8.326,4.666l6.344,-6.344v-15.067h-15.707z" fill="#AF060D"/>
<g id="Head">
<path id="Vector_32" d="M105.405,66.513c-0.046,0.03 -0.092,0.061 -0.153,0.091c-0.046,-0.015 -0.091,-0.03 -0.137,-0.046c-0.305,-0.076 -0.564,0.031 -0.732,0.229c-0.092,-0.076 -0.183,-0.137 -0.305,-0.168c-1.967,-7.182 -11.3,-4.117 -13.618,1.175c-2.135,4.834 -0.686,10.202 -1.754,15.219c-0.534,2.501 -1.571,4.804 -2.867,7.03c-0.137,0.229 -0.29,0.473 -0.427,0.717c1.312,2.135 2.577,4.285 3.721,6.527c0.153,0.29 0.137,0.579 0.031,0.808c0.259,0.015 0.518,0.015 0.777,0c3.828,-0.244 7.473,-2.638 9.699,-5.444c2.44,-3.081 -0.366,-9.394 -0.564,-13.145c-0.214,-4.164 2.15,-6.527 4.971,-9.989c0.366,0.091 0.732,-0.168 0.87,-0.488c0.106,-0.229 0.198,-0.458 0.305,-0.686c0.274,-0.229 0.579,-0.427 0.915,-0.626c0.793,-0.503 0.061,-1.677 -0.732,-1.204z" fill="#AF060D"/>
<path id="Vector_33" d="M128.372,67.58c1.83,-5.124 4.758,-20.13 -13.908,-9.882c-18.666,10.248 -17.202,34.419 -5.856,37.347c11.331,2.928 19.764,-27.465 19.764,-27.465z" fill="#AF060D"/>
<path id="Vector_34" d="M134.792,92.117c-1.266,3.98 -5.124,5.673 -9.333,6.405l-2.349,13.862c-2.928,6.954 -11.345,6.954 -14.639,-0.732c0.137,-2.364 1.281,-13.206 1.433,-16.241c-3.843,-1.83 -6.222,-8.418 -6.222,-8.418c-7.137,0.366 -14.274,-2.928 -12.81,-10.248c1.037,-5.185 6.131,-5.779 9.852,-4.91c1.525,0.366 2.821,0.976 3.507,1.616c0,0 -0.732,-5.566 7.686,-9.15c7.244,-3.095 12.413,-2.653 15.814,1.632c1.251,1.556 2.242,3.645 3.035,6.237c2.379,7.869 5.307,15.921 4.026,19.947z" fill="white"/>
<path id="Vector_35" d="M116.141,118.255c-3.538,0 -6.649,-2.348 -8.342,-6.298c-0.046,-0.107 -0.061,-0.213 -0.061,-0.335c0.061,-1.053 0.32,-3.813 0.61,-6.741c0.32,-3.37 0.686,-7.137 0.808,-9.028c-3.218,-1.845 -5.322,-6.542 -5.963,-8.097c-4.849,0.122 -9.073,-1.342 -11.361,-3.981c-1.647,-1.921 -2.241,-4.391 -1.677,-7.167c0.412,-2.028 1.403,-3.568 2.974,-4.575c2.806,-1.799 6.359,-1.235 7.762,-0.9c1.006,0.244 1.921,0.58 2.668,0.992c0.321,-2.044 1.785,-5.811 8.068,-8.495c7.655,-3.263 13.114,-2.653 16.683,1.846c1.296,1.631 2.333,3.751 3.172,6.481c0.335,1.128 0.686,2.242 1.037,3.37c2.135,6.862 4.163,13.359 2.989,17.019c-1.144,3.584 -4.209,5.81 -9.394,6.817l-2.272,13.358c-0.016,0.061 -0.031,0.107 -0.046,0.168c-1.464,3.477 -4.316,5.566 -7.625,5.582c-0.015,-0.016 -0.03,-0.016 -0.03,-0.016zM109.202,111.53c1.464,3.294 4.041,5.261 6.939,5.261h0.015c2.669,-0.015 5.002,-1.723 6.237,-4.605l2.333,-13.771c0.046,-0.305 0.29,-0.549 0.595,-0.594c4.895,-0.854 7.762,-2.791 8.769,-5.902c1.021,-3.233 -1.022,-9.791 -2.989,-16.15c-0.351,-1.113 -0.702,-2.257 -1.037,-3.37c-0.763,-2.516 -1.739,-4.529 -2.913,-5.993c-3.142,-3.98 -7.899,-4.423 -14.96,-1.418c-7.823,3.324 -7.259,8.326 -7.244,8.387c0.046,0.305 -0.122,0.61 -0.381,0.747c-0.275,0.138 -0.61,0.092 -0.839,-0.106c-0.61,-0.565 -1.83,-1.114 -3.187,-1.434c-2.531,-0.595 -5.002,-0.335 -6.634,0.702c-1.22,0.777 -1.997,1.997 -2.333,3.629c-0.473,2.349 -0.015,4.346 1.357,5.917c2.044,2.364 6.146,3.69 10.706,3.462c0.32,-0.016 0.61,0.183 0.732,0.488c0.03,0.061 2.318,6.328 5.856,8.006c0.274,0.122 0.427,0.396 0.411,0.701c-0.091,1.708 -0.488,5.887 -0.838,9.562c-0.26,2.73 -0.519,5.337 -0.595,6.481z" fill="#AF060D"/>
<path id="Vector_36" d="M126.922,83.516c-0.107,0 -0.214,-0.03 -0.32,-0.076c-0.366,-0.168 -0.519,-0.61 -0.351,-0.976c1.449,-3.05 0.183,-6.1 -4.819,-11.651c-0.275,-0.305 -0.244,-0.762 0.046,-1.037c0.305,-0.274 0.762,-0.244 1.037,0.046c4.712,5.215 7.045,9.058 5.063,13.252c-0.107,0.29 -0.382,0.442 -0.656,0.442z" fill="#AF060D"/>
<path id="Vector_37" d="M113.503,74.915c0.505,0 0.915,-0.409 0.915,-0.915c0,-0.505 -0.41,-0.915 -0.915,-0.915c-0.505,0 -0.915,0.41 -0.915,0.915c0,0.506 0.41,0.915 0.915,0.915z" fill="#AF060D"/>
<path id="Vector_38" d="M127.104,71.987c0.506,0 0.915,-0.409 0.915,-0.915c0,-0.505 -0.409,-0.915 -0.915,-0.915c-0.505,0 -0.915,0.41 -0.915,0.915c0,0.506 0.41,0.915 0.915,0.915z" fill="#AF060D"/>
<path id="Vector_39" d="M113.793,69.105c-0.214,-0.366 -0.641,-0.442 -1.007,-0.259c-0.366,0.183 -0.732,0.366 -1.098,0.534c-0.351,0.167 -0.457,0.686 -0.259,1.006c0.213,0.366 0.64,0.442 1.006,0.259c0.366,-0.183 0.732,-0.366 1.098,-0.533c0.351,-0.168 0.458,-0.687 0.26,-1.007z" fill="#AF060D"/>
<path id="Vector_40" d="M125.642,65.582h-0.915c-0.946,0 -0.946,1.464 0,1.464h0.915c0.945,0 0.945,-1.464 0,-1.464z" fill="#AF060D"/>
<path id="Vector_41" d="M103.131,81.503c-0.274,0 -0.533,-0.152 -0.655,-0.411c-0.58,-1.175 -3.599,-3.752 -5.978,-3.264c-0.397,0.076 -0.778,-0.183 -0.869,-0.579c-0.077,-0.397 0.183,-0.778 0.579,-0.87c3.08,-0.61 6.71,2.318 7.579,4.057c0.183,0.366 0.031,0.808 -0.32,0.976c-0.122,0.076 -0.229,0.091 -0.336,0.091z" fill="#AF060D"/>
<path id="Vector_42" d="M111.489,65.445c-0.488,-1.921 -2.303,-1.525 -3.401,-0.412c-1.86,1.876 -3.049,4.53 -3.751,7.046c-0.091,0.351 0.046,0.61 0.275,0.762c-0.153,0.031 -0.29,0.092 -0.427,0.122c-0.931,0.183 -0.534,1.586 0.396,1.419c3.645,-0.732 7.96,-4.819 6.908,-8.937z" fill="#AF060D"/>
<path id="Vector_43" d="M130.079,88.762c-0.671,0 -1.266,-0.457 -1.434,-1.144c-0.183,-0.793 0.32,-1.57 1.098,-1.753c0.29,-0.061 29.676,-6.71 36.798,-8.388c0.701,-0.167 1.571,-0.488 1.738,-1.113c0.183,-0.686 -0.366,-1.86 -1.281,-2.714c-0.777,-0.732 -1.464,-0.915 -1.601,-0.854c0,0 -0.03,0.045 -0.076,0.122c-0.198,0.427 -0.32,0.762 -0.397,0.991c0.031,-0.015 0.077,-0.031 0.092,-0.031c0.747,-0.289 1.601,0.061 1.906,0.824c0.305,0.747 -0.061,1.601 -0.823,1.906c-0.382,0.153 -2.379,0.869 -3.584,-0.412c-1.19,-1.265 -0.488,-3.187 0.152,-4.529c0.671,-1.403 2.044,-2.059 3.584,-1.708c2.288,0.503 4.972,3.279 4.987,6.1c0,1.007 -0.381,3.431 -4.041,4.285c-7.137,1.678 -36.524,8.327 -36.829,8.388c-0.076,0.015 -0.183,0.03 -0.289,0.03z" fill="#AF060D"/>
<path id="Vector_44" d="M127.502,84.934c3.233,2.639 1.464,4.758 1.464,4.758z" fill="white"/>
<path id="Vector_45" d="M128.965,90.424c-0.168,0 -0.335,-0.061 -0.473,-0.167c-0.305,-0.26 -0.35,-0.717 -0.091,-1.037c0.122,-0.153 1.174,-1.647 -1.373,-3.721c-0.32,-0.26 -0.366,-0.717 -0.106,-1.037c0.259,-0.305 0.716,-0.366 1.037,-0.107c1.342,1.098 2.089,2.272 2.196,3.492c0.122,1.342 -0.565,2.211 -0.641,2.303c-0.137,0.183 -0.335,0.274 -0.549,0.274z" fill="#AF060D"/>
</g>
</g>
<g id="Confetti">
<path id="Vector_46" d="M204.392,107.641c-3.812,0 -6.634,-2.806 -7.991,-5.444c-0.625,-1.204 -1.006,-2.424 -1.144,-3.599c-0.457,-0.167 -0.915,-0.366 -1.342,-0.625c-1.814,-1.037 -5.734,-4.3 -3.019,-12.185c0.137,-0.381 0.549,-0.579 0.93,-0.457c0.381,0.137 0.58,0.549 0.458,0.93c-1.663,4.819 -0.793,8.632 2.363,10.431c0.199,0.107 0.397,0.214 0.595,0.305c0.092,-0.991 0.381,-1.891 0.885,-2.608c1.265,-1.799 2.653,-1.921 3.37,-1.845c1.083,0.137 2.028,0.885 2.44,1.952c0.442,1.129 0.198,2.379 -0.641,3.34c-0.884,1.037 -2.638,1.418 -4.483,1.128c0.168,0.824 0.457,1.693 0.9,2.532c1.174,2.257 3.553,4.651 6.694,4.651c0.412,0 0.732,0.32 0.732,0.732c0,0.412 -0.35,0.762 -0.747,0.762zM196.66,97.485c1.617,0.336 3.02,0 3.508,-0.579c0.488,-0.565 0.625,-1.236 0.381,-1.861c-0.213,-0.564 -0.717,-0.961 -1.25,-1.037c-0.671,-0.076 -1.388,0.351 -1.998,1.22c-0.412,0.595 -0.625,1.373 -0.641,2.257z" fill="#AF060D"/>
<path id="Vector_47" d="M83.155,33.253c-2.73,0 -4.895,-0.702 -4.941,-0.717c-0.381,-0.122 -0.595,-0.534 -0.457,-0.93c0.122,-0.381 0.549,-0.595 0.93,-0.458c0.381,0.122 9.317,2.989 12.657,-4.01c0.885,-1.846 1.083,-3.31 1.007,-4.423c-1.525,0.366 -3.203,-0.107 -4.209,-0.945c-0.885,-0.732 -1.205,-1.724 -0.854,-2.623c0.32,-0.839 0.991,-1.388 1.875,-1.51c1.236,-0.168 2.623,0.534 3.538,1.784c0.183,0.244 0.412,0.61 0.61,1.083c0.763,-0.915 0.961,-2.516 0.534,-4.621c-0.076,-0.396 0.183,-0.778 0.58,-0.869c0.396,-0.076 0.777,0.183 0.869,0.579c0.793,3.981 -0.503,5.734 -1.54,6.482c0.213,1.403 0.045,3.309 -1.083,5.688c-2.15,4.468 -6.237,5.49 -9.516,5.49zM89.514,19.07c-0.061,0 -0.122,0 -0.168,0.016c-0.35,0.045 -0.579,0.228 -0.701,0.579c-0.152,0.397 0.152,0.763 0.427,0.991c0.686,0.58 1.921,0.885 2.958,0.626c-0.167,-0.443 -0.366,-0.778 -0.533,-0.992c-0.61,-0.854 -1.403,-1.22 -1.983,-1.22z" fill="#AF060D"/>
<path id="Vector_48" d="M129.698,14.267c-0.031,0 -0.076,0 -0.107,0c-0.396,-0.061 -0.671,-0.427 -0.625,-0.824l1.83,-12.81c0.061,-0.396 0.427,-0.686 0.823,-0.625c0.397,0.061 0.671,0.427 0.626,0.824l-1.83,12.809c-0.046,0.366 -0.351,0.626 -0.717,0.626z" fill="#AF060D"/>
<path id="Vector_49" d="M142.509,21.968c-0.153,0 -0.305,-0.046 -0.427,-0.137c-0.321,-0.244 -0.397,-0.702 -0.153,-1.022l4.026,-5.49c0.244,-0.32 0.702,-0.397 1.022,-0.153c0.32,0.244 0.396,0.702 0.152,1.022l-4.026,5.49c-0.137,0.183 -0.366,0.29 -0.594,0.29z" fill="#AF060D"/>
<path id="Vector_50" d="M3.384,79.079c-0.382,0 -0.702,-0.305 -0.732,-0.687c-0.031,-0.396 0.274,-0.747 0.686,-0.777c2.165,-0.138 3.797,-1.114 4.621,-2.761c0.976,-1.967 0.671,-4.529 -0.778,-6.725c-0.458,-0.671 -0.976,-1.174 -1.525,-1.51c-0.061,0.305 -0.137,0.61 -0.229,0.885c-0.534,1.586 -1.571,2.669 -2.699,2.821c-0.488,0.061 -1.388,0 -2.12,-1.098c-0.518,-0.762 -0.701,-1.571 -0.564,-2.303c0.137,-0.686 0.564,-1.311 1.205,-1.738c0.838,-0.564 1.952,-0.793 3.095,-0.61c-0.122,-1.967 -1.021,-4.316 -3.294,-6.588c-0.289,-0.29 -0.289,-0.747 0,-1.037c0.29,-0.29 0.748,-0.29 1.037,0c2.761,2.76 3.737,5.688 3.737,8.067c0.945,0.442 1.86,1.19 2.592,2.288c1.739,2.623 2.089,5.749 0.885,8.189c-1.053,2.135 -3.127,3.401 -5.841,3.568c-0.046,0.016 -0.061,0.016 -0.076,0.016zM3.551,65.994c-0.594,0 -1.128,0.153 -1.509,0.412c-0.229,0.152 -0.504,0.412 -0.58,0.793c-0.076,0.351 0.046,0.778 0.336,1.205c0.228,0.335 0.472,0.488 0.716,0.457c0.443,-0.061 1.114,-0.656 1.51,-1.845c0.107,-0.305 0.183,-0.625 0.229,-0.961c-0.229,-0.03 -0.473,-0.061 -0.702,-0.061z" fill="#AF060D"/>
<path id="Vector_51" d="M51.711,155.602l-3.66,6.588l4.392,1.464l3.66,-6.222z" fill="#FEF2F2"/>
<path id="Vector_52" d="M135.555,117.889l4.026,5.124l4.392,-3.66l-6.588,-5.856z" fill="#FEF2F2"/>
<path id="Vector_53" d="M38.901,63.691l-2.928,6.604l6.588,0.732l1.464,-6.97z" fill="white"/>
<path id="Vector_54" d="M182.051,111.301l7.686,10.248l3.294,-4.392l-6.222,-8.784z" fill="#FEF2F2"/>
<path id="Vector_55" d="M208.052,62.593l-5.49,4.042l4.026,3.66l4.392,-5.124z" fill="#FEF2F2"/>
<path id="Vector_56" d="M61.227,14.267l4.407,3.294l2.928,-2.562l-5.505,-4.758z" fill="#FEF2F2"/>
<path id="Vector_57" d="M162.287,161.092l8.784,7.686l5.124,-4.392l-10.248,-8.052z" fill="#FEF2F2"/>
<path id="Vector_58" d="M177.293,151.21c-0.381,0 -0.702,-0.289 -0.732,-0.671c-0.031,-0.396 0.259,-0.762 0.656,-0.793l8.051,-0.732c0.397,-0.03 0.763,0.26 0.793,0.656c0.031,0.397 -0.259,0.763 -0.655,0.793l-8.052,0.732c-0.015,0 -0.031,0.015 -0.061,0.015z" fill="#AF060D"/>
<path id="Vector_59" d="M139.215,40.634l7.686,6.588l4.026,-2.196l-7.32,-6.954z" fill="#FEF2F2"/>
</g>
</g></svg>