<svg viewBox="0 0 20 20" fill="none" xmlns="http://www.w3.org/2000/svg" xmlns:xlink="http://www.w3.org/1999/xlink" x="0" y="0"><g id="Component 4">
<path id="Vector_70" d="M10,18.3305c4.518,0 8.334,-3.81 8.334,-8.33c0,-4.52 -3.816,-8.33 -8.334,-8.33c-4.517,0 -8.333,3.81 -8.333,8.33c0,4.52 3.816,8.33 8.333,8.33zM10,3.3305c3.614,0 6.667,3.06 6.667,6.67c0,3.61 -3.053,6.67 -6.667,6.67c-3.614,0 -6.666,-3.06 -6.666,-6.67c0,-3.61 3.052,-6.67 6.666,-6.67z" fill="currentColor"/>
<path id="Vector_71" d="M10,14.1705c0.751,0 2.151,-0.14 3.089,-1.08l-1.178,-1.18c-0.37,0.37 -1.085,0.59 -1.911,0.59c-1.355,0 -2.5,-1.15 -2.5,-2.5c0,-1.36 1.145,-2.5 2.5,-2.5c0.827,0 1.542,0.22 1.911,0.59l1.178,-1.18c-0.938,-0.94 -2.338,-1.08 -3.089,-1.08c-2.298,0 -4.167,1.87 -4.167,4.17c0,2.3 1.869,4.17 4.167,4.17z" fill="currentColor"/>
</g></svg>