<svg viewBox="0 0 26 20" fill="none" xmlns="http://www.w3.org/2000/svg" x="0" y="0"><g id="Group">
<path id="Vector_31" d="M8.04,15l10,-10M0,18c0,0.53 0.21,1.038 0.584,1.413c0.375,0.375 0.882,0.586 1.412,0.587h22.008c0.53,-0.001 1.037,-0.212 1.412,-0.587c0.374,-0.375 0.584,-0.883 0.584,-1.413v-4.068c-0.864,-0.234 -1.626,-0.746 -2.17,-1.457c-0.543,-0.71 -0.838,-1.58 -0.838,-2.475c0,-0.895 0.295,-1.765 0.838,-2.475c0.544,-0.711 1.306,-1.223 2.17,-1.457v-4.068c0,-0.53 -0.21,-1.038 -0.584,-1.413c-0.375,-0.375 -0.882,-0.586 -1.412,-0.587h-22.008c-0.53,0.001 -1.037,0.212 -1.412,0.587c-0.374,0.375 -0.584,0.883 -0.584,1.413v4.06c0.87,0.229 1.641,0.74 2.19,1.452c0.55,0.713 0.848,1.588 0.848,2.488c0,0.9 -0.298,1.775 -0.848,2.488c-0.549,0.712 -1.32,1.223 -2.19,1.452z" stroke="#AF060D" stroke-width="2" stroke-linecap="round" stroke-linejoin="round"/>
<path id="Vector_32" d="M9.047,7c0.265,0 0.519,-0.105 0.707,-0.293c0.188,-0.187 0.293,-0.442 0.293,-0.707c0,-0.265 -0.105,-0.52 -0.293,-0.707c-0.188,-0.188 -0.442,-0.293 -0.707,-0.293c-0.265,0 -0.52,0.105 -0.707,0.293c-0.188,0.187 -0.293,0.442 -0.293,0.707c0,0.265 0.105,0.52 0.293,0.707c0.187,0.188 0.442,0.293 0.707,0.293zM17.047,15c0.265,0 0.519,-0.105 0.707,-0.293c0.188,-0.187 0.293,-0.442 0.293,-0.707c0,-0.265 -0.105,-0.52 -0.293,-0.707c-0.188,-0.188 -0.442,-0.293 -0.707,-0.293c-0.265,0 -0.52,0.105 -0.707,0.293c-0.188,0.187 -0.293,0.442 -0.293,0.707c0,0.265 0.105,0.52 0.293,0.707c0.187,0.188 0.442,0.293 0.707,0.293z" stroke="#AF060D" stroke-width="2" stroke-linecap="round" stroke-linejoin="round"/>
</g></svg>