<svg viewBox="0 0 25.3333 23" fill="none" xmlns="http://www.w3.org/2000/svg" xmlns:xlink="http://www.w3.org/1999/xlink" x="0" y="0"><path id="Vector_29" d="M12.667,5.67c0,-1.24 -0.492,-2.43 -1.367,-3.3c-0.875,-0.88 -2.062,-1.37 -3.3,-1.37h-7v17.5h8.167c0.928,0 1.818,0.37 2.475,1.03c0.656,0.65 1.025,1.54 1.025,2.47M12.667,5.67v16.33M12.667,5.67c0,-1.24 0.491,-2.43 1.367,-3.3c0.875,-0.88 2.062,-1.37 3.299,-1.37h7v17.5h-8.166c-0.929,0 -1.819,0.37 -2.475,1.03c-0.657,0.65 -1.025,1.54 -1.025,2.47" stroke="#AF060D" stroke-width="2" stroke-linecap="round" stroke-linejoin="round"/></svg>