<svg viewBox="0 0 39.2772 39.2188" fill="none" xmlns="http://www.w3.org/2000/svg" xmlns:xlink="http://www.w3.org/1999/xlink" x="0" y="0"><path id="Vector_13" d="M18.9318,-0.0006c0.438,0 0.876,0 1.328,0c0,0.49 0,0.98 0,1.49c0.249,-0.01 0.249,-0.01 0.503,-0.02c4.547,-0.03 9.396,1.82 12.934,4.62c0.042,0.04 0.085,0.07 0.128,0.1c0.411,0.33 0.8,0.66 1.163,1.04c0.123,0.13 0.123,0.13 0.311,0.27c0.282,0.23 0.506,0.5 0.742,0.78c0.06,0.07 0.12,0.14 0.181,0.21c1.754,2.04 2.993,4.62 3.047,7.35c0.002,0.09 0.005,0.19 0.008,0.29c-0.038,0.32 -0.118,0.45 -0.345,0.67c-0.284,0.09 -0.41,0.1 -0.684,-0.02c-0.261,-0.21 -0.343,-0.38 -0.391,-0.7c-0.139,-0.65 -0.532,-1.11 -1.066,-1.5c-1.972,-1.23 -4.531,-1.38 -6.763,-0.91c-1.116,0.26 -2.449,0.7 -3.121,1.7c-0.155,0.33 -0.226,0.68 -0.304,1.03c-0.093,0.24 -0.093,0.24 -0.281,0.39c-0.28,0.12 -0.46,0.08 -0.75,0.01c-0.253,-0.19 -0.286,-0.39 -0.346,-0.69c-0.17,-0.72 -0.543,-1.15 -1.138,-1.58c-1.216,-0.72 -2.431,-0.92 -3.828,-1.09c0.026,1.03 0.051,2.06 0.078,3.12c0.258,0.13 0.516,0.26 0.781,0.39c0.189,0.16 0.353,0.3 0.522,0.48c0.047,0.04 0.093,0.09 0.142,0.14c0.154,0.15 0.307,0.3 0.46,0.46c0.111,0.11 0.222,0.22 0.333,0.33c0.301,0.3 0.6,0.6 0.9,0.9c0.313,0.32 0.628,0.63 0.943,0.94c0.528,0.53 1.055,1.06 1.582,1.59c0.608,0.61 1.218,1.22 1.828,1.83c0.588,0.59 1.176,1.17 1.762,1.76c0.25,0.25 0.499,0.5 0.749,0.75c0.294,0.29 0.588,0.59 0.881,0.88c0.107,0.11 0.215,0.22 0.323,0.33c0.148,0.14 0.294,0.29 0.441,0.44c0.043,0.04 0.085,0.08 0.129,0.13c0.591,0.6 0.754,1.23 0.746,2.06c-0.052,0.64 -0.331,1.17 -0.803,1.59c-0.619,0.48 -1.259,0.62 -2.032,0.55c-0.18,-0.05 -0.361,-0.1 -0.546,-0.16c-0.026,1.96 -0.052,3.92 -0.079,5.94c0.645,0 1.289,0 1.954,0c0,0.44 0,0.88 0,1.33c-7.735,0 -15.469,0 -23.438,0c0,-0.44 0,-0.88 0,-1.33c0.645,0 1.289,0 1.953,0c-0.026,-1.96 -0.051,-3.92 -0.078,-5.94c-0.129,0.06 -0.258,0.11 -0.391,0.16c-0.85,0.09 -1.539,-0.02 -2.212,-0.56c-0.444,-0.42 -0.725,-0.93 -0.775,-1.54c-0.019,-0.82 0.14,-1.4 0.683,-2.02c0.199,-0.18 0.398,-0.31 0.629,-0.44c0.88,-0.53 1.747,-1.22 2.066,-2.24c0.319,-1.47 0.192,-3.07 0.143,-4.57c-0.002,-0.08 -0.005,-0.15 -0.007,-0.23c-0.013,-0.37 -0.028,-0.74 -0.05,-1.11c-0.005,-0.1 -0.005,-0.1 -0.01,-0.2c-0.006,-0.13 -0.014,-0.25 -0.024,-0.38c-0.013,-0.3 0.013,-0.44 0.196,-0.69c0.242,-0.18 0.347,-0.21 0.64,-0.21c0.082,0 0.164,0 0.248,0c0.088,0 0.175,0 0.266,0c0.136,0 0.136,0 0.274,0c0.192,0 0.383,0 0.574,0c0.293,0.01 0.586,0 0.879,0c0.186,0 0.372,0 0.558,0.01c0.088,-0.01 0.175,-0.01 0.266,-0.01c0.081,0.01 0.163,0.01 0.247,0.01c0.108,0 0.108,0 0.217,0c0.259,0.05 0.35,0.14 0.505,0.35c0.043,0.22 0.043,0.22 0.048,0.48c0.002,0.09 0.005,0.18 0.007,0.27c0.001,0.1 0.002,0.19 0.003,0.29c0.003,0.09 0.005,0.19 0.008,0.29c0.005,0.23 0.009,0.47 0.012,0.7c0.042,-0.04 0.084,-0.08 0.127,-0.13c0.397,-0.4 0.795,-0.8 1.193,-1.2c0.205,-0.21 0.41,-0.41 0.614,-0.62c0.197,-0.2 0.394,-0.4 0.592,-0.6c0.075,-0.07 0.151,-0.15 0.225,-0.22c0.106,-0.11 0.212,-0.22 0.318,-0.32c0.09,-0.09 0.09,-0.09 0.182,-0.19c0.275,-0.23 0.524,-0.39 0.89,-0.39c0,-1.06 0,-2.11 0,-3.2c-2.606,0.38 -2.606,0.38 -4.644,1.94c-0.155,0.24 -0.223,0.49 -0.278,0.77c-0.046,0.23 -0.077,0.33 -0.215,0.53c-0.225,0.15 -0.375,0.19 -0.645,0.2c-0.272,-0.12 -0.37,-0.19 -0.486,-0.47c-0.021,-0.08 -0.043,-0.17 -0.065,-0.26c-0.232,-0.83 -0.682,-1.32 -1.404,-1.77c-1.189,-0.63 -2.492,-0.86 -3.826,-0.94c-0.071,-0.01 -0.141,-0.01 -0.214,-0.02c-1.732,-0.05 -3.629,0.36 -5.02,1.42c-0.372,0.36 -0.635,0.68 -0.738,1.19c-0.013,0.06 -0.026,0.13 -0.039,0.19c-0.01,0.06 -0.02,0.12 -0.031,0.18c-0.061,0.19 -0.129,0.27 -0.286,0.4c-0.338,0.09 -0.551,0.09 -0.859,-0.08c-0.19,-0.28 -0.184,-0.5 -0.181,-0.83c0,-0.05 0.001,-0.11 0.001,-0.17c0.059,-2.83 1.443,-5.46 3.305,-7.52c0.039,-0.04 0.078,-0.08 0.118,-0.13c0.455,-0.51 0.913,-1 1.444,-1.43c0.086,-0.07 0.172,-0.14 0.258,-0.21c0.667,-0.55 1.355,-1.05 2.086,-1.51c0.05,-0.03 0.1,-0.06 0.152,-0.09c3.393,-2.12 7.55,-3.42 11.567,-3.34c0,-0.49 0,-0.98 0,-1.49zM17.1348,4.2994c-1.997,2.58 -2.706,6.13 -3.047,9.29c0.272,-0.1 0.516,-0.22 0.767,-0.37c2.423,-1.33 5.492,-1.41 8.113,-0.66c0.668,0.21 1.365,0.51 1.926,0.94c0.125,0.11 0.125,0.11 0.288,0.09c-0.354,-3.44 -1.181,-7.87 -3.985,-10.23c-1.568,-1.09 -2.95,-0.4 -4.062,0.94zM4.3998,9.0594c-0.3,0.36 -0.581,0.72 -0.859,1.1c-0.05,0.06 -0.099,0.13 -0.151,0.2c-1.009,1.36 -1.009,1.36 -1.49,2.92c0.227,-0.09 0.45,-0.18 0.673,-0.28c2.588,-1.13 5.731,-1.23 8.375,-0.2c0.648,0.27 1.252,0.6 1.812,1.03c0.011,-0.08 0.022,-0.16 0.034,-0.25c0.393,-2.77 0.92,-5.49 2.153,-8.03c0.025,-0.05 0.05,-0.11 0.076,-0.16c0.373,-0.76 0.827,-1.43 1.331,-2.11c0.051,-0.08 0.103,-0.15 0.156,-0.23c-4.256,-0.19 -9.327,2.96 -12.11,6.01zM22.7598,3.0494c0.029,0.04 0.058,0.07 0.088,0.11c2.356,3.09 3.164,6.89 3.662,10.67c0.049,-0.03 0.098,-0.07 0.149,-0.1c2.395,-1.57 5.279,-1.95 8.073,-1.39c0.758,0.17 1.46,0.42 2.161,0.75c0.237,0.12 0.237,0.12 0.476,0.19c-0.4,-1.87 -1.851,-3.49 -3.125,-4.84c-0.048,-0.05 -0.096,-0.1 -0.146,-0.16c-0.388,-0.4 -0.823,-0.74 -1.26,-1.09c-0.075,-0.06 -0.149,-0.12 -0.226,-0.19c-0.737,-0.59 -1.533,-1.06 -2.352,-1.53c-0.062,-0.04 -0.123,-0.07 -0.186,-0.11c-1.837,-1.03 -3.849,-1.71 -5.908,-2.15c-0.117,-0.03 -0.117,-0.03 -0.236,-0.05c-0.398,-0.08 -0.765,-0.13 -1.17,-0.11zM18.4578,18.4894c-0.068,0.07 -0.068,0.07 -0.137,0.14c-0.151,0.15 -0.301,0.3 -0.451,0.45c-0.109,0.11 -0.217,0.22 -0.325,0.32c-0.294,0.3 -0.587,0.59 -0.88,0.88c-0.307,0.31 -0.614,0.62 -0.921,0.92c-0.516,0.52 -1.031,1.03 -1.546,1.55c-0.595,0.6 -1.191,1.19 -1.788,1.79c-0.512,0.51 -1.023,1.02 -1.535,1.53c-0.305,0.31 -0.611,0.61 -0.917,0.92c-0.287,0.29 -0.574,0.57 -0.861,0.86c-0.105,0.11 -0.211,0.21 -0.316,0.32c-0.144,0.14 -0.288,0.29 -0.431,0.43c-0.042,0.04 -0.084,0.08 -0.128,0.13c-0.311,0.31 -0.444,0.55 -0.492,0.99c0.046,0.44 0.233,0.66 0.562,0.93c0.301,0.16 0.462,0.18 0.796,0.13c0.386,-0.19 0.669,-0.4 0.976,-0.71c0.04,-0.04 0.079,-0.08 0.12,-0.12c0.132,-0.13 0.262,-0.27 0.392,-0.4c0.095,-0.09 0.189,-0.19 0.284,-0.28c0.256,-0.26 0.511,-0.51 0.765,-0.77c0.267,-0.27 0.535,-0.54 0.803,-0.8c0.506,-0.51 1.012,-1.02 1.517,-1.53c0.907,-0.91 1.814,-1.82 2.721,-2.73c0.319,-0.32 0.637,-0.64 0.955,-0.96c0.198,-0.2 0.395,-0.4 0.593,-0.59c0.092,-0.1 0.184,-0.19 0.275,-0.28c0.125,-0.13 0.25,-0.25 0.375,-0.38c0.105,-0.1 0.105,-0.1 0.212,-0.21c0.189,-0.18 0.277,-0.23 0.529,-0.28c0.705,0.11 1.31,1 1.799,1.49c0.09,0.09 0.18,0.18 0.27,0.27c0.193,0.2 0.386,0.39 0.579,0.59c0.305,0.3 0.611,0.61 0.916,0.92c0.869,0.87 1.737,1.74 2.604,2.61c0.48,0.48 0.96,0.97 1.441,1.45c0.304,0.3 0.607,0.61 0.91,0.91c0.188,0.19 0.377,0.38 0.566,0.57c0.088,0.09 0.175,0.18 0.262,0.26c0.119,0.12 0.239,0.24 0.359,0.36c0.1,0.1 0.1,0.1 0.202,0.21c0.256,0.22 0.512,0.39 0.852,0.42c0.449,-0.05 0.675,-0.16 0.989,-0.49c0.198,-0.27 0.184,-0.53 0.156,-0.86c-0.158,-0.38 -0.386,-0.65 -0.678,-0.94c-0.068,-0.07 -0.068,-0.07 -0.136,-0.14c-0.15,-0.15 -0.301,-0.3 -0.452,-0.45c-0.108,-0.11 -0.216,-0.21 -0.324,-0.32c-0.293,-0.3 -0.586,-0.59 -0.88,-0.88c-0.307,-0.31 -0.614,-0.62 -0.921,-0.92c-0.515,-0.52 -1.03,-1.03 -1.546,-1.55c-0.597,-0.59 -1.192,-1.19 -1.788,-1.79c-0.511,-0.51 -1.022,-1.02 -1.534,-1.53c-0.306,-0.31 -0.612,-0.61 -0.917,-0.92c-0.287,-0.29 -0.574,-0.57 -0.862,-0.86c-0.106,-0.1 -0.211,-0.21 -0.316,-0.32c-0.144,-0.14 -0.288,-0.28 -0.433,-0.43c-0.041,-0.04 -0.083,-0.08 -0.126,-0.12c-0.299,-0.3 -0.539,-0.45 -0.957,-0.49c-0.51,0.05 -0.835,0.35 -1.182,0.7zM11.1968,19.2994c0,1.52 0,3.04 0,4.61c0.181,-0.16 0.361,-0.31 0.547,-0.47c0.137,-0.11 0.275,-0.21 0.412,-0.32c0.918,-0.75 0.918,-0.75 1.324,-1.81c0.045,-0.68 -0.016,-1.34 -0.095,-2.01c-0.722,0 -1.444,0 -2.188,0zM19.2208,22.6094c-0.071,0.06 -0.142,0.12 -0.214,0.18c-0.078,0.07 -0.156,0.14 -0.235,0.21c-0.041,0.03 -0.081,0.07 -0.122,0.1c-1.12,0.97 -2.208,1.96 -3.283,2.97c-0.049,0.05 -0.099,0.1 -0.15,0.15c-3.307,3.01 -3.307,3.01 -4.605,7.15c-0.009,0.48 0.019,0.96 0.063,1.45c0.007,0.08 0.014,0.16 0.021,0.24c0.095,0.97 0.281,1.87 0.501,2.83c1.573,0 3.146,0 4.766,0c0.004,-0.48 0.008,-0.96 0.011,-1.46c0.003,-0.31 0.006,-0.61 0.009,-0.92c0.005,-0.48 0.009,-0.96 0.013,-1.45c0.003,-0.39 0.006,-0.78 0.01,-1.17c0.002,-0.15 0.003,-0.3 0.004,-0.45c0.001,-0.21 0.004,-0.42 0.006,-0.62c0,-0.07 0,-0.13 0.001,-0.19c0.004,-0.3 0.012,-0.44 0.18,-0.69c0.285,-0.1 0.548,-0.09 0.844,-0.09c0.093,0 0.093,0 0.188,0c0.206,0 0.411,0 0.616,0c0.142,0 0.285,0 0.428,0c0.298,0 0.597,0 0.896,0c0.383,0 0.766,-0.01 1.15,-0.01c0.294,0 0.588,0 0.883,0c0.141,0 0.282,0 0.424,0c0.197,0 0.395,0 0.592,0c0.058,0 0.117,0 0.177,0c0.288,0 0.516,0.01 0.755,0.18c0.125,0.24 0.093,0.51 0.095,0.79c0,0.06 0.001,0.13 0.002,0.2c0.002,0.21 0.004,0.43 0.006,0.65c0.002,0.15 0.003,0.3 0.005,0.45c0.004,0.4 0.008,0.79 0.012,1.19c0.005,0.47 0.01,0.95 0.015,1.42c0.008,0.73 0.015,1.45 0.022,2.17c1.572,0 3.145,0 4.765,0c0.239,-1.04 0.427,-2.02 0.523,-3.07c0.01,-0.12 0.01,-0.12 0.021,-0.24c0.167,-2.08 -0.267,-3.74 -1.606,-5.33c-0.965,-1.13 -2.028,-2.16 -3.108,-3.18c-0.049,-0.04 -0.099,-0.09 -0.151,-0.14c-1.064,-1 -2.145,-1.98 -3.253,-2.93c-0.078,-0.07 -0.155,-0.14 -0.235,-0.21c-0.071,-0.05 -0.141,-0.11 -0.214,-0.18c-0.061,-0.05 -0.123,-0.1 -0.186,-0.16c-0.288,-0.21 -0.4,-0.04 -0.642,0.16zM17.2908,32.1094c0,1.91 0,3.82 0,5.78c1.547,0 3.094,0 4.688,0c0,-1.91 0,-3.81 0,-5.78c-1.547,0 -3.094,0 -4.688,0z" fill="currentColor"/></svg>