<svg viewBox="0 0 16.009 16.0142" fill="none" xmlns="http://www.w3.org/2000/svg" xmlns:xlink="http://www.w3.org/1999/xlink" x="0" y="0"><g id="Group 15">
<path id="Vector_66" d="M5.337,8.0068c0,-1.47 1.194,-2.67 2.668,-2.67c1.473,0 2.668,1.2 2.668,2.67c0,1.47 -1.195,2.67 -2.668,2.67c-1.474,0 -2.668,-1.2 -2.668,-2.67zM3.894,8.0068c0,2.27 1.841,4.11 4.111,4.11c2.27,0 4.11,-1.84 4.11,-4.11c0,-2.27 -1.84,-4.11 -4.11,-4.11c-2.27,0 -4.111,1.84 -4.111,4.11zM11.317,3.7368c0,0.19 0.057,0.37 0.162,0.53c0.105,0.16 0.255,0.28 0.431,0.35c0.175,0.08 0.369,0.1 0.555,0.06c0.186,-0.04 0.357,-0.13 0.492,-0.26c0.134,-0.14 0.226,-0.31 0.263,-0.5c0.037,-0.18 0.018,-0.38 -0.055,-0.55c-0.072,-0.18 -0.195,-0.33 -0.353,-0.43c-0.158,-0.11 -0.344,-0.16 -0.534,-0.16v0c-0.255,0 -0.499,0.1 -0.679,0.28c-0.18,0.18 -0.281,0.42 -0.282,0.68zM4.771,14.5268c-0.781,-0.04 -1.205,-0.17 -1.487,-0.28c-0.373,-0.14 -0.64,-0.32 -0.92,-0.6c-0.281,-0.28 -0.454,-0.54 -0.599,-0.92c-0.11,-0.28 -0.24,-0.7 -0.276,-1.48c-0.038,-0.85 -0.046,-1.1 -0.046,-3.24c0,-2.14 0.008,-2.39 0.046,-3.24c0.036,-0.78 0.167,-1.2 0.276,-1.48c0.145,-0.38 0.319,-0.64 0.599,-0.92c0.28,-0.28 0.546,-0.46 0.92,-0.6c0.282,-0.11 0.706,-0.24 1.487,-0.28c0.844,-0.04 1.097,-0.04 3.234,-0.04c2.137,0 2.39,0 3.235,0.04c0.78,0.04 1.204,0.17 1.486,0.28c0.374,0.14 0.641,0.32 0.921,0.6c0.28,0.28 0.453,0.54 0.599,0.92c0.11,0.28 0.24,0.7 0.275,1.48c0.039,0.85 0.047,1.1 0.047,3.24c0,2.14 -0.008,2.39 -0.047,3.24c-0.035,0.78 -0.166,1.2 -0.275,1.48c-0.146,0.38 -0.319,0.64 -0.599,0.92c-0.28,0.28 -0.547,0.46 -0.921,0.6c-0.282,0.11 -0.706,0.24 -1.486,0.28c-0.844,0.04 -1.098,0.04 -3.235,0.04c-2.138,0 -2.391,0 -3.234,-0.04zM4.705,0.0468c-0.853,0.04 -1.435,0.18 -1.943,0.37c-0.527,0.21 -0.973,0.48 -1.418,0.93c-0.446,0.44 -0.719,0.89 -0.924,1.42c-0.198,0.5 -0.333,1.09 -0.372,1.94c-0.039,0.85 -0.048,1.13 -0.048,3.3c0,2.17 0.009,2.45 0.048,3.3c0.039,0.85 0.174,1.44 0.372,1.95c0.205,0.52 0.478,0.97 0.924,1.41c0.445,0.45 0.891,0.72 1.418,0.93c0.509,0.19 1.09,0.33 1.943,0.37c0.854,0.04 1.126,0.05 3.3,0.05c2.174,0 2.447,-0.01 3.3,-0.05c0.852,-0.04 1.434,-0.18 1.943,-0.37c0.526,-0.21 0.972,-0.48 1.418,-0.93c0.446,-0.44 0.718,-0.89 0.923,-1.41c0.198,-0.51 0.334,-1.1 0.372,-1.95c0.039,-0.85 0.048,-1.13 0.048,-3.3c0,-2.17 -0.009,-2.45 -0.048,-3.3c-0.039,-0.85 -0.174,-1.44 -0.372,-1.94c-0.205,-0.53 -0.478,-0.98 -0.923,-1.42c-0.445,-0.45 -0.892,-0.72 -1.417,-0.93c-0.51,-0.19 -1.092,-0.33 -1.943,-0.37c-0.854,-0.04 -1.127,-0.05 -3.301,-0.05c-2.173,0 -2.446,0.01 -3.3,0.05z" fill="currentColor"/>
<path id="Vector_67" d="M5.337,8.0068c0,-1.47 1.194,-2.67 2.668,-2.67c1.473,0 2.668,1.2 2.668,2.67c0,1.47 -1.195,2.67 -2.668,2.67c-1.474,0 -2.668,-1.2 -2.668,-2.67zM3.894,8.0068c0,2.27 1.841,4.11 4.111,4.11c2.27,0 4.11,-1.84 4.11,-4.11c0,-2.27 -1.84,-4.11 -4.11,-4.11c-2.27,0 -4.111,1.84 -4.111,4.11zM11.317,3.7368c0,0.19 0.057,0.37 0.162,0.53c0.105,0.16 0.255,0.28 0.431,0.35c0.175,0.08 0.369,0.1 0.555,0.06c0.186,-0.04 0.357,-0.13 0.492,-0.26c0.134,-0.14 0.226,-0.31 0.263,-0.5c0.037,-0.18 0.018,-0.38 -0.055,-0.55c-0.072,-0.18 -0.195,-0.33 -0.353,-0.43c-0.158,-0.11 -0.344,-0.16 -0.534,-0.16v0c-0.255,0 -0.499,0.1 -0.679,0.28c-0.18,0.18 -0.281,0.42 -0.282,0.68zM4.771,14.5268c-0.781,-0.04 -1.205,-0.17 -1.487,-0.28c-0.373,-0.14 -0.64,-0.32 -0.92,-0.6c-0.281,-0.28 -0.454,-0.54 -0.599,-0.92c-0.11,-0.28 -0.24,-0.7 -0.276,-1.48c-0.038,-0.85 -0.046,-1.1 -0.046,-3.24c0,-2.14 0.008,-2.39 0.046,-3.24c0.036,-0.78 0.167,-1.2 0.276,-1.48c0.145,-0.38 0.319,-0.64 0.599,-0.92c0.28,-0.28 0.546,-0.46 0.92,-0.6c0.282,-0.11 0.706,-0.24 1.487,-0.28c0.844,-0.04 1.097,-0.04 3.234,-0.04c2.137,0 2.39,0 3.235,0.04c0.78,0.04 1.204,0.17 1.486,0.28c0.374,0.14 0.641,0.32 0.921,0.6c0.28,0.28 0.453,0.54 0.599,0.92c0.11,0.28 0.24,0.7 0.275,1.48c0.039,0.85 0.047,1.1 0.047,3.24c0,2.14 -0.008,2.39 -0.047,3.24c-0.035,0.78 -0.166,1.2 -0.275,1.48c-0.146,0.38 -0.319,0.64 -0.599,0.92c-0.28,0.28 -0.547,0.46 -0.921,0.6c-0.282,0.11 -0.706,0.24 -1.486,0.28c-0.844,0.04 -1.098,0.04 -3.235,0.04c-2.138,0 -2.391,0 -3.234,-0.04zM4.705,0.0468c-0.853,0.04 -1.435,0.18 -1.943,0.37c-0.527,0.21 -0.973,0.48 -1.418,0.93c-0.446,0.44 -0.719,0.89 -0.924,1.42c-0.198,0.5 -0.333,1.09 -0.372,1.94c-0.039,0.85 -0.048,1.13 -0.048,3.3c0,2.17 0.009,2.45 0.048,3.3c0.039,0.85 0.174,1.44 0.372,1.95c0.205,0.52 0.478,0.97 0.924,1.41c0.445,0.45 0.891,0.72 1.418,0.93c0.509,0.19 1.09,0.33 1.943,0.37c0.854,0.04 1.126,0.05 3.3,0.05c2.174,0 2.447,-0.01 3.3,-0.05c0.852,-0.04 1.434,-0.18 1.943,-0.37c0.526,-0.21 0.972,-0.48 1.418,-0.93c0.446,-0.44 0.718,-0.89 0.923,-1.41c0.198,-0.51 0.334,-1.1 0.372,-1.95c0.039,-0.85 0.048,-1.13 0.048,-3.3c0,-2.17 -0.009,-2.45 -0.048,-3.3c-0.039,-0.85 -0.174,-1.44 -0.372,-1.94c-0.205,-0.53 -0.478,-0.98 -0.923,-1.42c-0.445,-0.45 -0.892,-0.72 -1.417,-0.93c-0.51,-0.19 -1.092,-0.33 -1.943,-0.37c-0.854,-0.04 -1.127,-0.05 -3.301,-0.05c-2.173,0 -2.446,0.01 -3.3,0.05z" fill="currentColor"/>
</g></svg>