<svg viewBox="0 0 23 25.3333" fill="none" xmlns="http://www.w3.org/2000/svg" xmlns:xlink="http://www.w3.org/1999/xlink" x="0" y="0"><path id="Vector_26" d="M11.5,0.9967c2.73,2.68 6.29,4.08 9.93,3.89c0.53,2 0.69,4.1 0.48,6.17c-0.22,2.07 -0.81,4.07 -1.73,5.89c-0.93,1.81 -2.17,3.4 -3.66,4.67c-1.5,1.27 -3.2,2.19 -5.02,2.72c-1.82,-0.53 -3.52,-1.45 -5.02,-2.72c-1.49,-1.27 -2.73,-2.86 -3.66,-4.67c-0.92,-1.82 -1.51,-3.82 -1.73,-5.89c-0.21,-2.07 -0.05,-4.17 0.48,-6.17c3.64,0.19 7.2,-1.21 9.93,-3.89z" stroke="#AF060D" stroke-width="2" stroke-linecap="round" stroke-linejoin="round"/></svg>