<svg viewBox="0 0 14.8333 18.1667" fill="none" xmlns="http://www.w3.org/2000/svg" x="0" y="0"><path id="Vector_14" d="M2.5657,11.9893l0.559,-0.5l-0.007,-0.007l-0.007,-0.007zM12.2677,11.9893l-0.545,-0.514l-0.007,0.007l-0.007,0.007zM7.4167,17.4163l-0.559,0.5c0.142,0.159 0.345,0.25 0.559,0.25c0.213,0 0.417,-0.091 0.559,-0.25zM0.7497,7.4163h0.75c0,-3.267 2.649,-5.916 5.917,-5.916v-0.75v-0.75c-4.096,0 -7.417,3.32 -7.417,7.416zM7.4167,0.7503v0.75c3.268,0 5.917,2.649 5.917,5.916h0.75h0.75c0,-4.096 -3.321,-7.416 -7.417,-7.416zM2.5657,11.9893l0.545,-0.514c-0.999,-1.061 -1.611,-2.487 -1.611,-4.059h-0.75h-0.75c0,1.969 0.768,3.76 2.02,5.088zM14.0837,7.4163h-0.75c0,1.572 -0.612,2.998 -1.611,4.059l0.545,0.514l0.546,0.515c1.251,-1.328 2.02,-3.119 2.02,-5.088zM7.4167,17.4163l0.559,0.5l4.851,-5.427l-0.559,-0.5l-0.559,-0.5l-4.851,5.428zM7.4167,17.4163l0.559,-0.499l-4.851,-5.428l-0.559,0.5l-0.56,0.5l4.852,5.427zM9.9167,7.4163h-0.75c0,0.967 -0.784,1.75 -1.75,1.75v0.75v0.75c1.795,0 3.25,-1.455 3.25,-3.25zM7.4167,9.9163v-0.75c-0.967,0 -1.75,-0.783 -1.75,-1.75h-0.75h-0.75c0,1.795 1.455,3.25 3.25,3.25zM4.9167,7.4163h0.75c0,-0.966 0.783,-1.75 1.75,-1.75v-0.75v-0.75c-1.795,0 -3.25,1.455 -3.25,3.25zM7.4167,4.9163v0.75c0.966,0 1.75,0.784 1.75,1.75h0.75h0.75c0,-1.795 -1.455,-3.25 -3.25,-3.25z" fill="currentColor"/></svg>