<svg viewBox="0 0 120.548 48.94" fill="none" xmlns="http://www.w3.org/2000/svg" xmlns:xlink="http://www.w3.org/1999/xlink" x="0" y="0"><g id="_1986093715296">
<g id="Group">
<path id="Vector" d="M46.801,31.4063v-15.5096h2.831v8.0777l-0.77,-0.2706l6.599,-7.8071h3.56l-6.183,7.328l0.166,-1.9982l6.204,10.1798h-3.331l-4.163,-6.8282l-2.082,2.4771v4.3511zM65.416,31.6561c-1.111,0 -2.124,-0.2571 -3.04,-0.7706c-0.902,-0.5135 -1.624,-1.2143 -2.165,-2.1028c-0.527,-0.888 -0.791,-1.9013 -0.791,-3.0393c0,-1.138 0.264,-2.1508 0.791,-3.0392c0.542,-0.8883 1.263,-1.5894 2.165,-2.1024c0.902,-0.5135 1.916,-0.7706 3.04,-0.7706c1.11,0 2.116,0.2571 3.018,0.7706c0.902,0.5132 1.617,1.2141 2.144,2.1024c0.541,0.8742 0.812,1.8874 0.812,3.0392c0,1.138 -0.271,2.1513 -0.812,3.0393c-0.541,0.8884 -1.263,1.5891 -2.165,2.1028c-0.902,0.5135 -1.901,0.7706 -2.997,0.7706zM65.416,29.1577c0.61,0 1.144,-0.1455 1.602,-0.4372c0.472,-0.2912 0.84,-0.6938 1.104,-1.2073c0.277,-0.5272 0.416,-1.1173 0.416,-1.7696c0,-0.6662 -0.139,-1.249 -0.416,-1.7483c-0.264,-0.5135 -0.632,-0.9158 -1.104,-1.2077c-0.458,-0.3055 -0.992,-0.458 -1.602,-0.458c-0.625,0 -1.173,0.1525 -1.645,0.458c-0.472,0.2917 -0.847,0.694 -1.124,1.2077c-0.264,0.4993 -0.396,1.0823 -0.396,1.7483c0,0.6523 0.132,1.2424 0.396,1.7696c0.277,0.5135 0.652,0.9161 1.124,1.2073c0.472,0.2917 1.02,0.4372 1.645,0.4372zM73.042,31.4063v-15.7589h2.727v15.7589zM81.306,31.6561c-0.791,0 -1.478,-0.1323 -2.061,-0.3954c-0.583,-0.264 -1.034,-0.6389 -1.354,-1.1244c-0.319,-0.4996 -0.478,-1.0759 -0.478,-1.7277c0,-0.6245 0.139,-1.1798 0.416,-1.6653c0.278,-0.4997 0.708,-0.9162 1.291,-1.2496c0.583,-0.3329 1.318,-0.569 2.207,-0.7074l3.705,-0.6036v2.0816l-3.185,0.541c-0.541,0.0974 -0.944,0.2706 -1.208,0.5208c-0.263,0.2498 -0.395,0.5759 -0.395,0.9782c0,0.3887 0.146,0.7008 0.437,0.937c0.306,0.2218 0.68,0.3328 1.124,0.3328c0.57,0 1.069,-0.1176 1.499,-0.3539c0.445,-0.2499 0.784,-0.5898 1.02,-1.0199c0.25,-0.4302 0.375,-0.9024 0.375,-1.4159v-2.9143c0,-0.4857 -0.194,-0.8882 -0.583,-1.2073c-0.375,-0.3332 -0.874,-0.4999 -1.499,-0.4999c-0.583,0 -1.103,0.16 -1.561,0.4791c-0.444,0.3054 -0.77,0.7146 -0.979,1.2281l-2.227,-1.0825c0.222,-0.5965 0.569,-1.11 1.041,-1.5407c0.485,-0.444 1.054,-0.7912 1.707,-1.0408c0.652,-0.2499 1.36,-0.3747 2.123,-0.3747c0.93,0 1.749,0.1736 2.457,0.5208c0.707,0.3328 1.256,0.8046 1.644,1.4153c0.403,0.597 0.604,1.2979 0.604,2.1028v7.5361h-2.582v-1.936l0.583,-0.0419c-0.291,0.486 -0.638,0.8953 -1.041,1.2281c-0.402,0.3191 -0.86,0.569 -1.374,0.7497c-0.513,0.1665 -1.082,0.2498 -1.707,0.2498zM89.53,31.4063v-11.3249h2.561v2.2273l-0.208,-0.3956c0.264,-0.68 0.694,-1.1935 1.291,-1.5402c0.61,-0.3606 1.318,-0.5415 2.123,-0.5415c0.833,0 1.568,0.1809 2.207,0.5415c0.652,0.3609 1.159,0.8675 1.52,1.5194c0.36,0.6389 0.541,1.3811 0.541,2.2278v7.2863h-2.727v-6.6407c0,-0.4998 -0.097,-0.93 -0.292,-1.2908c-0.194,-0.3611 -0.465,-0.6384 -0.812,-0.8327c-0.333,-0.2082 -0.728,-0.3124 -1.186,-0.3124c-0.444,0 -0.84,0.1042 -1.187,0.3124c-0.347,0.1943 -0.618,0.4716 -0.812,0.8327c-0.194,0.3608 -0.291,0.7908 -0.291,1.2908v6.6407h-2.727zM105.493,31.6561c-0.875,0 -1.638,-0.1945 -2.29,-0.5832c-0.639,-0.3885 -1.131,-0.93 -1.478,-1.6235c-0.333,-0.6942 -0.5,-1.5063 -0.5,-2.4359v-6.9321h2.727v6.703c0,0.4722 0.09,0.8883 0.271,1.2494c0.194,0.3466 0.465,0.6245 0.812,0.8326c0.36,0.1938 0.763,0.2912 1.207,0.2912c0.444,0 0.84,-0.0974 1.187,-0.2912c0.347,-0.2081 0.617,-0.4927 0.812,-0.8536c0.194,-0.361 0.291,-0.7913 0.291,-1.2908v-6.6407h2.727v11.3248h-2.581v-2.2278l0.229,0.3954c-0.264,0.6942 -0.701,1.2144 -1.312,1.5614c-0.597,0.3472 -1.297,0.5208 -2.102,0.5208zM118.541,31.5311c-1.277,0 -2.269,-0.3472 -2.977,-1.0408c-0.694,-0.7081 -1.041,-1.7001 -1.041,-2.977v-4.9959h-1.957v-2.4358h0.208c0.555,0 0.986,-0.1457 1.291,-0.4372c0.305,-0.2917 0.458,-0.7146 0.458,-1.27v-0.8743h2.727v2.5815h2.602v2.4358h-2.602v4.8504c0,0.3746 0.063,0.6938 0.187,0.9575c0.139,0.2636 0.348,0.4651 0.625,0.6035c0.291,0.1387 0.659,0.2082 1.103,0.2082c0.097,0 0.208,-0.0067 0.333,-0.0206c0.139,-0.0142 0.271,-0.028 0.396,-0.0414v2.3314c-0.195,0.0275 -0.417,0.0555 -0.667,0.083c-0.249,0.028 -0.478,0.0419 -0.686,0.0419z" fill="#AF060D"/>
</g>
<path id="Vector_2" fill-rule="evenodd" clip-rule="evenodd" d="M25.135,25.1447l0.029,-2.068c-0.002,-0.3446 -0.02,-0.5107 -0.031,-0.5803c-0.025,-0.0149 -0.062,-0.0362 -0.115,-0.0642c-0.937,-0.4909 -3.11,-1.2368 -4.176,-1.5467v4.2592h4.294z" fill="#AF060D"/>
<path id="Vector_3" fill-rule="evenodd" clip-rule="evenodd" d="M18.7596,25.1447v-4.2583c-1.0672,0.3105 -3.2382,1.0572 -4.1773,1.5478c-0.0526,0.0275 -0.0899,0.0488 -0.1148,0.0632c-0.0606,0.3823 -0.0124,1.9637 -0.0011,2.6473z" fill="#AF060D"/>
<path id="Vector_4" fill-rule="evenodd" clip-rule="evenodd" d="M18.7592,27.2268h-4.2719c0.0011,0.2389 0.0015,0.4896 0.0015,0.7522c0,2.7948 2.1515,4.62 4.2704,5.6707z" fill="#AF060D"/>
<path id="Vector_5" fill-rule="evenodd" clip-rule="evenodd" d="M20.841,27.2268v6.4229c2.119,-1.0501 4.271,-2.8761 4.271,-5.6707c0,-0.2626 0.001,-0.5133 0.001,-0.7522z" fill="#AF060D"/>
<path id="Vector_6" d="M94.427,37.2247l1.082,-3.1374h0.741l1.083,3.1374h-0.624l-0.223,-0.6738h-1.213l-0.227,0.6738h-0.619zM95.437,36.0456h0.885l-0.523,-1.5623h0.16l-0.522,1.5623z" fill="#373435"/>
<path id="_1" d="M99.565,37.2247v-3.1374h2.093v0.5053h-1.52v0.8676h1.331v0.5053h-1.331v1.2592z" fill="#373435"/>
<path id="_2" d="M103.917,37.2247v-3.1374h1.167c0.213,0 0.402,0.0386 0.566,0.1159c0.164,0.0772 0.293,0.1894 0.385,0.337c0.093,0.1474 0.139,0.3263 0.139,0.537c0,0.2162 -0.051,0.3999 -0.153,0.5515c-0.103,0.1516 -0.241,0.2639 -0.415,0.337l0.72,1.2592h-0.649l-0.77,-1.3771l0.371,0.2191h-0.788v1.1582h-0.573zM104.49,35.5612h0.602c0.104,0 0.194,-0.0204 0.269,-0.061c0.076,-0.0407 0.135,-0.0975 0.177,-0.1705c0.042,-0.0729 0.063,-0.1572 0.063,-0.2527c0,-0.0983 -0.021,-0.1832 -0.063,-0.2547c-0.042,-0.0716 -0.101,-0.1278 -0.177,-0.1685c-0.075,-0.0408 -0.165,-0.0612 -0.269,-0.0612h-0.602z" fill="#373435"/>
<path id="_3" d="M108.585,37.2247v-3.1374h0.573v3.1374z" fill="#373435"/>
<path id="_4" d="M113.117,37.2753c-0.224,0 -0.431,-0.0408 -0.621,-0.1221c-0.189,-0.0815 -0.355,-0.1951 -0.497,-0.3412c-0.141,-0.1459 -0.252,-0.3171 -0.33,-0.5138c-0.079,-0.1966 -0.118,-0.4113 -0.118,-0.6444c0,-0.2331 0.038,-0.4485 0.116,-0.6463c0.077,-0.198 0.186,-0.3692 0.328,-0.5139c0.142,-0.1445 0.308,-0.2569 0.499,-0.337c0.191,-0.08 0.399,-0.1199 0.623,-0.1199c0.225,0 0.426,0.0379 0.605,0.1137c0.178,0.0759 0.329,0.1762 0.453,0.3012c0.123,0.125 0.211,0.2618 0.265,0.4107l-0.514,0.24c-0.059,-0.1572 -0.159,-0.2872 -0.299,-0.3896c-0.14,-0.1024 -0.31,-0.1538 -0.51,-0.1538c-0.196,0 -0.369,0.0464 -0.52,0.1391c-0.15,0.0926 -0.266,0.2203 -0.349,0.3832c-0.083,0.1628 -0.124,0.3537 -0.124,0.5728c0,0.2191 0.041,0.4107 0.124,0.5748c0.083,0.1643 0.199,0.2928 0.349,0.3854c0.151,0.0926 0.324,0.139 0.52,0.139c0.2,0 0.37,-0.0511 0.51,-0.1537c0.14,-0.1025 0.24,-0.2324 0.299,-0.3896l0.514,0.24c-0.054,0.1489 -0.142,0.2857 -0.265,0.4105c-0.124,0.125 -0.275,0.2253 -0.453,0.3012c-0.179,0.0758 -0.38,0.1137 -0.605,0.1137z" fill="#373435"/>
<path id="_5" d="M116.53,37.2247l1.083,-3.1374h0.741l1.082,3.1374h-0.623l-0.223,-0.6738h-1.213l-0.228,0.6738h-0.619zM117.541,36.0456h0.884l-0.522,-1.5623h0.16l-0.522,1.5623z" fill="#373435"/>
<path id="Vector_7" d="M45.94,47.3957l0.14,-0.9784h0.93l-0.147,0.9784z" fill="black"/>
<path id="_1_0" d="M49.057,47.3957l0.139,-0.9784h0.93l-0.147,0.9784z" fill="black"/>
<path id="_2_1" d="M52.172,47.3957l0.14,-0.9784h0.929l-0.147,0.9784z" fill="black"/>
<path id="_3_2" d="M57.063,47.4796c-0.298,0 -0.568,-0.057 -0.807,-0.1712c-0.24,-0.1141 -0.423,-0.2737 -0.549,-0.4788l0.119,-0.1678l-0.098,0.7337h-0.874l0.741,-5.2896h0.923l-0.308,2.243l-0.251,-0.2027c0.149,-0.2049 0.339,-0.3621 0.569,-0.4716c0.231,-0.1096 0.486,-0.1642 0.765,-0.1642c0.354,0 0.667,0.0826 0.937,0.248c0.27,0.1655 0.483,0.3878 0.639,0.6673c0.156,0.2795 0.234,0.5939 0.234,0.9433c0,0.2888 -0.052,0.5614 -0.157,0.8176c-0.105,0.2562 -0.25,0.4809 -0.437,0.6743c-0.186,0.1934 -0.403,0.3447 -0.65,0.4542c-0.246,0.1095 -0.512,0.1641 -0.796,0.1641zM56.972,46.6411c0.228,0 0.431,-0.0571 0.608,-0.1712c0.177,-0.1141 0.315,-0.2668 0.416,-0.4577c0.1,-0.191 0.15,-0.403 0.15,-0.6357c0,-0.2004 -0.041,-0.3774 -0.122,-0.5312c-0.082,-0.1537 -0.195,-0.2749 -0.339,-0.3634c-0.145,-0.0884 -0.317,-0.1328 -0.517,-0.1328c-0.224,0 -0.423,0.0571 -0.598,0.1712c-0.174,0.1141 -0.311,0.2668 -0.408,0.4577c-0.098,0.191 -0.147,0.403 -0.147,0.6357c0,0.2004 0.04,0.3785 0.122,0.5346c0.081,0.156 0.194,0.2772 0.339,0.3634c0.144,0.0863 0.31,0.1294 0.496,0.1294z" fill="black"/>
<path id="_4_3" d="M61.982,47.4796c-0.372,0 -0.697,-0.0816 -0.974,-0.2446c-0.277,-0.163 -0.492,-0.3856 -0.643,-0.6674c-0.152,-0.2819 -0.227,-0.5974 -0.227,-0.9468c0,-0.2888 0.05,-0.5603 0.15,-0.8141c0.1,-0.2538 0.242,-0.4787 0.426,-0.6743c0.184,-0.1956 0.397,-0.3481 0.64,-0.4577c0.242,-0.1095 0.508,-0.1641 0.796,-0.1641c0.373,0 0.69,0.0768 0.951,0.2305c0.261,0.1538 0.459,0.36 0.594,0.6184c0.135,0.2585 0.202,0.5486 0.202,0.8699c0,0.0839 -0.007,0.1702 -0.021,0.2586c-0.014,0.0886 -0.032,0.177 -0.055,0.2655h-2.935l0.049,-0.6988h2.411l-0.455,0.3145c0.061,-0.2097 0.067,-0.3971 0.018,-0.5625c-0.049,-0.1654 -0.14,-0.2969 -0.273,-0.3948c-0.133,-0.0979 -0.297,-0.1467 -0.492,-0.1467c-0.257,0 -0.463,0.0628 -0.619,0.1887c-0.156,0.1257 -0.27,0.297 -0.342,0.5137c-0.072,0.2165 -0.108,0.4576 -0.108,0.7231c0,0.2049 0.038,0.3819 0.115,0.5311c0.077,0.1491 0.185,0.2621 0.325,0.339c0.14,0.0768 0.303,0.1152 0.489,0.1152c0.21,0 0.393,-0.0466 0.552,-0.1397c0.158,-0.0932 0.284,-0.212 0.377,-0.3563l0.727,0.3774c-0.088,0.1816 -0.215,0.3424 -0.381,0.4822c-0.165,0.1397 -0.358,0.248 -0.58,0.325c-0.221,0.0768 -0.46,0.1152 -0.716,0.1152z" fill="black"/>
<path id="_5_4" d="M64.937,48.94c-0.116,0 -0.222,-0.0105 -0.318,-0.0314c-0.095,-0.021 -0.18,-0.0501 -0.255,-0.0874l0.056,-0.7477c0.061,0.014 0.132,0.0268 0.213,0.0384c0.082,0.0117 0.153,0.0175 0.213,0.0175c0.14,0 0.258,-0.0246 0.353,-0.0733c0.096,-0.049 0.179,-0.1165 0.252,-0.2027c0.072,-0.0863 0.138,-0.1806 0.199,-0.283l0.342,-0.559l-0.091,0.7686l-1.062,-4.1857h0.943l0.727,3.0887h-0.363l1.6,-3.0887h1.034l-2.25,4.2136c-0.13,0.2422 -0.276,0.4483 -0.437,0.6183c-0.16,0.1701 -0.336,0.2982 -0.527,0.3843c-0.191,0.0862 -0.401,0.1294 -0.629,0.1294z" fill="black"/>
<path id="_6" d="M71.184,47.4796c-0.359,0 -0.682,-0.0803 -0.971,-0.2411c-0.289,-0.1607 -0.518,-0.382 -0.685,-0.6638c-0.168,-0.2819 -0.252,-0.6045 -0.252,-0.9679c0,-0.2935 0.055,-0.5672 0.164,-0.8212c0.11,-0.2538 0.263,-0.4764 0.458,-0.6672c0.196,-0.1911 0.422,-0.3401 0.678,-0.4471c0.256,-0.1072 0.531,-0.1607 0.824,-0.1607c0.359,0 0.683,0.0804 0.972,0.2411c0.289,0.1607 0.517,0.3808 0.684,0.6603c0.168,0.2795 0.252,0.6032 0.252,0.9714c0,0.2887 -0.056,0.5602 -0.168,0.8141c-0.112,0.2538 -0.265,0.4774 -0.461,0.6709c-0.196,0.1932 -0.422,0.3435 -0.678,0.4507c-0.256,0.1072 -0.529,0.1607 -0.817,0.1607zM71.191,46.6411c0.224,0 0.423,-0.0572 0.597,-0.1712c0.175,-0.1141 0.312,-0.2679 0.413,-0.4613c0.1,-0.1934 0.15,-0.4065 0.15,-0.6394c0,-0.2004 -0.04,-0.3762 -0.119,-0.5275c-0.079,-0.1514 -0.191,-0.2714 -0.335,-0.36c-0.145,-0.0884 -0.312,-0.1328 -0.503,-0.1328c-0.224,0 -0.424,0.0571 -0.601,0.1712c-0.177,0.1141 -0.315,0.2668 -0.413,0.4577c-0.097,0.191 -0.146,0.4052 -0.146,0.6428c0,0.2004 0.039,0.3762 0.118,0.5275c0.08,0.1514 0.192,0.2713 0.336,0.36c0.144,0.0886 0.312,0.1328 0.503,0.1328z" fill="black"/>
<path id="_7" d="M74.216,47.3957l0.531,-3.8014h0.859l-0.097,0.7477l-0.056,-0.1538c0.121,-0.2329 0.286,-0.4041 0.496,-0.5137c0.21,-0.1095 0.443,-0.1641 0.699,-0.1641c0.289,0 0.534,0.0675 0.737,0.2027c0.203,0.1352 0.352,0.3179 0.447,0.5486c0.096,0.2306 0.122,0.4902 0.081,0.7792l-0.329,2.3548h-0.915l0.314,-2.25c0.033,-0.2422 -0.012,-0.4356 -0.133,-0.5799c-0.121,-0.1445 -0.293,-0.2167 -0.517,-0.2167c-0.149,0 -0.288,0.0338 -0.416,0.1013c-0.128,0.0675 -0.233,0.162 -0.314,0.2832c-0.082,0.1211 -0.136,0.2654 -0.164,0.4332l-0.308,2.2291h-0.915z" fill="black"/>
<path id="_8" d="M80.749,47.4796c-0.358,0 -0.673,-0.0768 -0.943,-0.2306c-0.27,-0.1537 -0.481,-0.3668 -0.633,-0.6394c-0.151,-0.2726 -0.227,-0.5859 -0.227,-0.9398c0,-0.3215 0.055,-0.6138 0.164,-0.8769c0.11,-0.2631 0.261,-0.4902 0.455,-0.6813c0.193,-0.191 0.416,-0.339 0.67,-0.4438c0.254,-0.1048 0.523,-0.1572 0.808,-0.1572c0.302,0 0.567,0.0593 0.793,0.1782c0.226,0.1188 0.399,0.2807 0.52,0.4856l-0.195,0.1747l0.307,-2.2431h0.929l-0.733,5.2897h-0.874l0.098,-0.7337l0.203,0.1398c-0.14,0.2236 -0.33,0.3925 -0.57,0.5066c-0.24,0.1141 -0.497,0.1712 -0.772,0.1712zM80.875,46.6411c0.228,0 0.43,-0.0571 0.604,-0.1712c0.175,-0.1141 0.311,-0.2679 0.409,-0.4613c0.098,-0.1934 0.147,-0.4065 0.147,-0.6394c0,-0.1956 -0.041,-0.3703 -0.123,-0.5241c-0.081,-0.1537 -0.193,-0.2749 -0.335,-0.3633c-0.142,-0.0885 -0.308,-0.1329 -0.5,-0.1329c-0.228,0 -0.43,0.0572 -0.608,0.1712c-0.177,0.1141 -0.315,0.2668 -0.415,0.4577c-0.1,0.1911 -0.151,0.4052 -0.151,0.6429c0,0.2003 0.041,0.3761 0.123,0.5275c0.081,0.1514 0.195,0.2713 0.342,0.3599c0.147,0.0886 0.316,0.1328 0.507,0.1328z" fill="black"/>
<path id="_9" d="M87.213,47.4796c-0.359,0 -0.681,-0.0816 -0.965,-0.2446c-0.284,-0.163 -0.505,-0.3856 -0.664,-0.6674c-0.158,-0.2819 -0.237,-0.5998 -0.237,-0.9539c0,-0.2935 0.053,-0.5683 0.16,-0.8245c0.108,-0.2562 0.258,-0.4798 0.451,-0.6708c0.194,-0.1911 0.417,-0.3401 0.671,-0.4471c0.254,-0.1072 0.525,-0.1607 0.814,-0.1607c0.28,0 0.533,0.0478 0.762,0.1432c0.228,0.0955 0.422,0.2282 0.583,0.3983c0.161,0.17 0.272,0.3668 0.332,0.5905l-0.817,0.3353c-0.056,-0.1956 -0.161,-0.3493 -0.315,-0.4612c-0.154,-0.1119 -0.337,-0.1678 -0.552,-0.1678c-0.223,0 -0.421,0.0593 -0.594,0.1781c-0.172,0.1189 -0.305,0.2737 -0.398,0.4648c-0.093,0.191 -0.14,0.3983 -0.14,0.6219c0,0.2004 0.039,0.3774 0.115,0.5312c0.077,0.1537 0.187,0.2749 0.329,0.3633c0.142,0.0887 0.304,0.1329 0.485,0.1329c0.229,0 0.429,-0.0595 0.601,-0.1783c0.173,-0.1189 0.303,-0.2761 0.392,-0.4717l0.775,0.3843c-0.088,0.2144 -0.221,0.4052 -0.398,0.573c-0.177,0.1678 -0.384,0.2982 -0.622,0.3914c-0.238,0.0932 -0.494,0.1398 -0.768,0.1398z" fill="black"/>
<path id="_10" d="M92.061,47.4796c-0.359,0 -0.683,-0.0803 -0.971,-0.2411c-0.289,-0.1607 -0.518,-0.382 -0.685,-0.6638c-0.168,-0.2819 -0.252,-0.6045 -0.252,-0.9679c0,-0.2935 0.055,-0.5672 0.164,-0.8212c0.11,-0.2538 0.262,-0.4764 0.458,-0.6672c0.196,-0.1911 0.422,-0.3401 0.678,-0.4471c0.256,-0.1072 0.531,-0.1607 0.824,-0.1607c0.359,0 0.683,0.0804 0.972,0.2411c0.288,0.1607 0.517,0.3808 0.684,0.6603c0.168,0.2795 0.252,0.6032 0.252,0.9714c0,0.2887 -0.056,0.5602 -0.168,0.8141c-0.112,0.2538 -0.265,0.4774 -0.461,0.6709c-0.196,0.1932 -0.422,0.3435 -0.678,0.4507c-0.256,0.1072 -0.529,0.1607 -0.817,0.1607zM92.068,46.6411c0.224,0 0.423,-0.0572 0.597,-0.1712c0.175,-0.1141 0.312,-0.2679 0.413,-0.4613c0.1,-0.1934 0.15,-0.4065 0.15,-0.6394c0,-0.2004 -0.04,-0.3762 -0.119,-0.5275c-0.079,-0.1514 -0.191,-0.2714 -0.335,-0.36c-0.145,-0.0884 -0.312,-0.1328 -0.503,-0.1328c-0.224,0 -0.424,0.0571 -0.601,0.1712c-0.177,0.1141 -0.315,0.2668 -0.413,0.4577c-0.097,0.191 -0.146,0.4052 -0.146,0.6428c0,0.2004 0.039,0.3762 0.118,0.5275c0.08,0.1514 0.192,0.2713 0.336,0.36c0.144,0.0886 0.312,0.1328 0.503,0.1328z" fill="black"/>
<path id="_11" d="M96.023,47.3957l-0.958,-3.8014h0.958l0.67,2.9908h-0.384l1.51,-2.9908h1.048l-2.034,3.8014z" fill="black"/>
<path id="_12" d="M101.207,47.4796c-0.373,0 -0.697,-0.0816 -0.975,-0.2446c-0.277,-0.163 -0.491,-0.3856 -0.643,-0.6674c-0.151,-0.2819 -0.227,-0.5974 -0.227,-0.9468c0,-0.2888 0.05,-0.5603 0.151,-0.8141c0.1,-0.2538 0.242,-0.4787 0.426,-0.6743c0.184,-0.1956 0.397,-0.3481 0.639,-0.4577c0.243,-0.1095 0.508,-0.1641 0.797,-0.1641c0.373,0 0.689,0.0768 0.95,0.2305c0.261,0.1538 0.459,0.36 0.594,0.6184c0.136,0.2585 0.203,0.5486 0.203,0.8699c0,0.0839 -0.007,0.1702 -0.021,0.2586c-0.014,0.0886 -0.032,0.177 -0.056,0.2655h-2.935l0.049,-0.6988h2.411l-0.454,0.3145c0.061,-0.2097 0.066,-0.3971 0.017,-0.5625c-0.049,-0.1654 -0.139,-0.2969 -0.272,-0.3948c-0.133,-0.0979 -0.297,-0.1467 -0.493,-0.1467c-0.256,0 -0.462,0.0628 -0.618,0.1887c-0.156,0.1257 -0.27,0.297 -0.343,0.5137c-0.072,0.2165 -0.108,0.4576 -0.108,0.7231c0,0.2049 0.039,0.3819 0.116,0.5311c0.076,0.1491 0.185,0.2621 0.324,0.339c0.14,0.0768 0.303,0.1152 0.49,0.1152c0.209,0 0.393,-0.0466 0.552,-0.1397c0.158,-0.0932 0.284,-0.212 0.377,-0.3563l0.727,0.3774c-0.089,0.1816 -0.216,0.3424 -0.381,0.4822c-0.166,0.1397 -0.359,0.248 -0.58,0.325c-0.221,0.0768 -0.46,0.1152 -0.716,0.1152z" fill="black"/>
<path id="_13" d="M104.002,47.3957l0.531,-3.8014h0.867l-0.112,0.8454l-0.063,-0.1257c0.13,-0.2841 0.297,-0.4822 0.499,-0.594c0.203,-0.1117 0.437,-0.1677 0.703,-0.1677h0.223l-0.111,0.8106h-0.329c-0.261,0 -0.481,0.0826 -0.66,0.248c-0.18,0.1654 -0.295,0.4111 -0.346,0.7372l-0.28,2.0474h-0.922z" fill="black"/>
<path id="_14" d="M108.334,47.4796c-0.242,0 -0.458,-0.0395 -0.647,-0.1189c-0.188,-0.0791 -0.336,-0.1956 -0.443,-0.3493c-0.107,-0.1538 -0.161,-0.3423 -0.161,-0.5661c0,-0.2422 0.061,-0.4495 0.182,-0.622c0.121,-0.1723 0.288,-0.3133 0.503,-0.4227c0.214,-0.1095 0.461,-0.1852 0.74,-0.2271l1.279,-0.2027l-0.07,0.6988l-1.076,0.1887c-0.172,0.0325 -0.317,0.092 -0.433,0.1781c-0.117,0.0863 -0.175,0.2038 -0.175,0.3528c0,0.1305 0.048,0.2282 0.143,0.2935c0.096,0.0652 0.218,0.0978 0.367,0.0978c0.187,0 0.354,-0.0432 0.503,-0.1292c0.149,-0.0863 0.273,-0.2015 0.371,-0.3459c0.097,-0.1445 0.156,-0.3028 0.174,-0.4751l0.133,-0.9504c0.019,-0.1258 -0.001,-0.2319 -0.059,-0.3179c-0.058,-0.0863 -0.139,-0.1527 -0.241,-0.1991c-0.103,-0.0466 -0.215,-0.0699 -0.336,-0.0699c-0.209,0 -0.397,0.0559 -0.562,0.1678c-0.165,0.1117 -0.292,0.2538 -0.381,0.4263l-0.72,-0.4054c0.098,-0.2003 0.232,-0.3715 0.402,-0.5135c0.17,-0.1421 0.368,-0.2538 0.594,-0.3353c0.226,-0.0815 0.467,-0.1223 0.723,-0.1223c0.308,0 0.581,0.0606 0.821,0.1816c0.24,0.1212 0.423,0.2864 0.549,0.4962c0.126,0.2096 0.168,0.4542 0.126,0.7337l-0.343,2.4736h-0.873l0.091,-0.6498l0.23,0.0069c-0.116,0.163 -0.247,0.2982 -0.391,0.4054c-0.144,0.1072 -0.302,0.1874 -0.472,0.2411c-0.17,0.0535 -0.352,0.0803 -0.548,0.0803z" fill="black"/>
<path id="_15" d="M113.323,48.9329c-0.289,0 -0.553,-0.0489 -0.79,-0.1467c-0.238,-0.0979 -0.434,-0.2318 -0.59,-0.4017c-0.157,-0.17 -0.258,-0.3669 -0.304,-0.5905l0.866,-0.2655c0.033,0.1771 0.126,0.3157 0.28,0.4158c0.153,0.1001 0.356,0.1503 0.608,0.1503c0.181,0 0.347,-0.0349 0.496,-0.1048c0.149,-0.0699 0.272,-0.1678 0.37,-0.2935c0.098,-0.1258 0.156,-0.2726 0.175,-0.4402l0.133,-0.9154l0.23,0.2236c-0.144,0.2282 -0.327,0.3983 -0.548,0.51c-0.222,0.1119 -0.472,0.1678 -0.752,0.1678c-0.335,0 -0.634,-0.0744 -0.898,-0.2236c-0.263,-0.1491 -0.469,-0.3552 -0.618,-0.6185c-0.149,-0.2631 -0.224,-0.5648 -0.224,-0.9049c0,-0.2843 0.051,-0.5474 0.151,-0.7896c0.1,-0.2421 0.239,-0.4518 0.416,-0.6288c0.177,-0.1771 0.384,-0.3157 0.622,-0.4158c0.237,-0.1001 0.493,-0.1503 0.768,-0.1503c0.298,0 0.566,0.0606 0.804,0.1816c0.237,0.1212 0.421,0.2959 0.552,0.524l-0.182,0.2168l0.112,-0.8385h0.873l-0.51,3.6895c-0.041,0.3215 -0.157,0.6055 -0.345,0.8525c-0.189,0.2469 -0.429,0.4414 -0.72,0.5835c-0.291,0.1421 -0.616,0.2131 -0.975,0.2131zM113.623,46.3963c0.21,0 0.397,-0.0513 0.562,-0.1537c0.166,-0.1025 0.294,-0.2377 0.385,-0.4054c0.091,-0.1678 0.136,-0.3518 0.136,-0.5519c0,-0.1816 -0.037,-0.3425 -0.112,-0.4822c-0.074,-0.1398 -0.178,-0.2504 -0.311,-0.3319c-0.133,-0.0815 -0.292,-0.1223 -0.479,-0.1223c-0.204,0 -0.39,0.05 -0.555,0.1503c-0.166,0.1001 -0.297,0.2342 -0.395,0.4018c-0.098,0.1677 -0.147,0.3586 -0.147,0.573c0,0.177 0.039,0.3353 0.116,0.4751c0.076,0.1397 0.183,0.2493 0.321,0.3284c0.137,0.0792 0.297,0.1188 0.479,0.1188z" fill="black"/>
<path id="_16" d="M118.633,47.4796c-0.373,0 -0.698,-0.0816 -0.975,-0.2446c-0.277,-0.163 -0.491,-0.3856 -0.643,-0.6674c-0.151,-0.2819 -0.227,-0.5974 -0.227,-0.9468c0,-0.2888 0.05,-0.5603 0.15,-0.8141c0.1,-0.2538 0.243,-0.4787 0.427,-0.6743c0.184,-0.1956 0.397,-0.3481 0.639,-0.4577c0.242,-0.1095 0.508,-0.1641 0.797,-0.1641c0.372,0 0.689,0.0768 0.95,0.2305c0.261,0.1538 0.459,0.36 0.594,0.6184c0.135,0.2585 0.203,0.5486 0.203,0.8699c0,0.0839 -0.007,0.1702 -0.021,0.2586c-0.014,0.0886 -0.033,0.177 -0.056,0.2655h-2.935l0.049,-0.6988h2.411l-0.454,0.3145c0.06,-0.2097 0.066,-0.3971 0.017,-0.5625c-0.049,-0.1654 -0.14,-0.2969 -0.272,-0.3948c-0.133,-0.0979 -0.297,-0.1467 -0.493,-0.1467c-0.256,0 -0.462,0.0628 -0.618,0.1887c-0.156,0.1257 -0.27,0.297 -0.343,0.5137c-0.072,0.2165 -0.108,0.4576 -0.108,0.7231c0,0.2049 0.038,0.3819 0.115,0.5311c0.077,0.1491 0.185,0.2621 0.325,0.339c0.14,0.0768 0.303,0.1152 0.489,0.1152c0.21,0 0.394,-0.0466 0.552,-0.1397c0.159,-0.0932 0.284,-0.212 0.378,-0.3563l0.727,0.3774c-0.089,0.1816 -0.216,0.3424 -0.381,0.4822c-0.166,0.1397 -0.359,0.248 -0.58,0.325c-0.222,0.0768 -0.46,0.1152 -0.716,0.1152z" fill="black"/>
<path id="Vector_8" fill-rule="evenodd" clip-rule="evenodd" d="M24.901,20.0947c0.792,0.3266 1.445,0.6549 1.712,0.9233c0.573,0.5775 0.626,1.1996 0.632,2.0432c0.003,0.432 -0.01,1.0179 -0.023,1.7971c-0.014,0.7888 -0.028,1.8025 -0.028,3.1203c0,4.2723 -3.597,6.9624 -6.766,8.1115c-0.341,0.1239 -0.5997,0.2227 -0.9643,0.0997l-1.0764,-0.4167c-2.8389,-1.254 -5.9802,-3.764 -5.9802,-7.7945c0,-1.318 -0.0143,-2.3317 -0.028,-3.1209c-0.0136,-0.78 -0.0269,-1.366 -0.024,-1.7983c0.0086,-1.2403 0.1956,-1.9126 1.2628,-2.4707c1.1873,-0.6199 4.1568,-1.652 5.4804,-1.9424c0.5793,-0.127 0.8245,-0.1271 1.4037,-0.0002c0.694,0.1519 2.821,0.797 4.399,1.4484zM26.479,38.3195c3.725,-2.7785 7.244,-7.0057 7.244,-13.1259c0,-0.4208 0.001,-0.8303 0.002,-1.2282l-13.034,-12.5125c-0.6936,-0.6669 -1.6078,-0.6669 -2.3013,-0.0005l-13.0333,12.5119c0.0011,0.3981 0.0017,0.8079 0.0017,1.2292c0,8.1792 6.3747,13.399 12.3711,16.1433c0.6965,0.3188 1.2772,0.5572 1.806,0.7501l0.1323,-0.0473c2.0555,-0.7714 4.5775,-2.0546 6.8115,-3.7203z" fill="#AF060D"/>
<path id="Vector_9" fill-rule="evenodd" clip-rule="evenodd" d="M5.3254,19.6662l10.9012,-10.466c1.9023,-1.8269 4.7254,-1.8269 6.6274,0l10.902,10.4666l0.096,-7.0629c-0.008,-1.0642 -0.058,-1.5775 -0.133,-1.8753c-0.047,-0.1911 -0.093,-0.271 -0.253,-0.4378c0.027,0.0287 -0.094,-0.0823 -0.544,-0.3261c-1.5,-0.8145 -4.2,-1.8655 -6.091,-2.5553c-1.475,-0.5381 -6.003,-2.1086 -7.2912,-2.1812c-0.3572,-0.0202 -2.0953,0.4674 -2.6012,0.6172c-2.7869,0.8252 -8.3371,2.7999 -10.7829,4.1235c-0.4522,0.2445 -0.5743,0.3553 -0.5457,0.3258c-0.1578,0.1631 -0.202,0.2397 -0.2493,0.4289c-0.2262,0.9062 -0.1052,4.4494 -0.0726,6.3882c0.0129,0.7653 0.026,1.6131 0.0375,2.5546z" fill="#AF060D"/>
<path id="Vector_10" fill-rule="evenodd" clip-rule="evenodd" d="M19.22,47.0925l0.0115,0.0308c0.201,0.0606 0.4157,0.0606 0.6166,0l0.0004,-0.0015l0.0005,0.0013l0.841,-0.286c2.6,-0.9433 5.783,-2.5015 8.635,-4.5549c4.72,-3.3991 9.605,-8.8905 9.605,-17.0226c0,-3.8158 0.042,-6.7518 0.081,-9.0336c0.039,-2.272 0.077,-3.9226 0.068,-5.1366c-0.009,-1.1977 -0.061,-2.0811 -0.242,-2.7797c-0.2,-0.7735 -0.546,-1.2857 -1.021,-1.7648c-1.209,-1.2183 -7.077,-3.3149 -8.813,-3.9264c-1.84,-0.648 -7.633,-2.6185 -9.4633,-2.6185c-1.8295,0 -7.623,1.9747 -9.4623,2.6232c-1.7306,0.6101 -7.6029,2.7111 -8.8108,3.9186c-0.4771,0.4771 -0.8243,0.9886 -1.0244,1.7625c-0.1805,0.698 -0.2326,1.5818 -0.2409,2.7796c-0.0088,1.2144 0.0294,2.8659 0.0687,5.1397c0.0397,2.2826 0.0812,5.2193 0.0812,9.0358c0,10.6577 8.4358,17.3294 16.0952,20.713l2.9652,1.1449l0.008,-0.0248zM3.0049,7.8792c1.4821,-0.9482 5.871,-2.5751 7.7806,-3.2484c2.3409,-0.8252 5.4669,-1.8517 7.6004,-2.3193c0.6017,-0.1319 0.9791,-0.1827 1.1538,-0.1827c0.6103,0 2.3843,0.476 3.2523,0.7239c3.23,0.9211 9.804,3.1736 12.697,4.691l0.8,0.4869c0.011,0.0096 0.016,0.0144 0.016,0.0142c0.26,0.2622 0.382,0.4538 0.471,0.7981c0.109,0.4185 0.166,1.0654 0.174,2.2618c0.009,1.1798 -0.028,2.7866 -0.067,5.0847c-0.04,2.289 -0.082,5.2378 -0.082,9.07c0,9.5918 -7.757,15.6413 -14.828,18.7653l-2.4331,0.9596l-2.4327,-0.9595c-7.0709,-3.1237 -14.8263,-9.1723 -14.8263,-18.7656c0,-3.8332 -0.0419,-6.7829 -0.0815,-9.0727c-0.0399,-2.2998 -0.077,-3.9078 -0.0688,-5.088c0.0084,-1.197 0.0653,-1.8438 0.1732,-2.2614c0.0886,-0.3427 0.2098,-0.5317 0.4682,-0.7896l0.2329,-0.1685z" fill="#AF060D"/>
</g></svg>