<svg viewBox="0 0 123.1582 49.9997" fill="none" xmlns="http://www.w3.org/2000/svg" xmlns:xlink="http://www.w3.org/1999/xlink" x="0" y="0"><g id="_1986261487648">
<g id="Group_2">
<path id="Vector_55" d="M47.814,32.09v-15.85h2.893v8.25l-0.787,-0.27l6.742,-7.98h3.637l-6.317,7.49l0.17,-2.04l6.338,10.4h-3.402l-4.254,-6.98l-2.127,2.53v4.45h-2.893zM66.832,32.34c-1.134,0 -2.169,-0.26 -3.105,-0.79c-0.922,-0.52 -1.659,-1.24 -2.212,-2.14c-0.539,-0.91 -0.808,-1.95 -0.808,-3.11c0,-1.16 0.269,-2.2 0.808,-3.1c0.553,-0.91 1.29,-1.63 2.212,-2.15c0.922,-0.53 1.957,-0.79 3.105,-0.79c1.135,0 2.163,0.26 3.084,0.79c0.922,0.52 1.652,1.24 2.191,2.15c0.553,0.89 0.829,1.92 0.829,3.1c0,1.16 -0.276,2.2 -0.829,3.11c-0.553,0.9 -1.29,1.62 -2.212,2.14c-0.922,0.53 -1.943,0.79 -3.063,0.79zM66.832,29.79c0.624,0 1.17,-0.15 1.638,-0.45c0.482,-0.3 0.858,-0.71 1.127,-1.23c0.284,-0.54 0.426,-1.14 0.426,-1.81c0,-0.68 -0.142,-1.28 -0.426,-1.79c-0.269,-0.52 -0.645,-0.93 -1.127,-1.23c-0.468,-0.31 -1.014,-0.47 -1.638,-0.47c-0.638,0 -1.198,0.16 -1.68,0.47c-0.482,0.3 -0.865,0.71 -1.148,1.23c-0.27,0.51 -0.405,1.11 -0.405,1.79c0,0.67 0.135,1.27 0.405,1.81c0.283,0.52 0.666,0.93 1.148,1.23c0.482,0.3 1.042,0.45 1.68,0.45zM74.624,32.09v-16.1h2.786v16.1zM83.067,32.34c-0.809,0 -1.511,-0.13 -2.106,-0.4c-0.596,-0.27 -1.056,-0.65 -1.383,-1.15c-0.326,-0.51 -0.489,-1.1 -0.489,-1.77c0,-0.63 0.142,-1.2 0.426,-1.7c0.283,-0.51 0.723,-0.93 1.318,-1.27c0.596,-0.34 1.347,-0.59 2.255,-0.73l3.785,-0.61v2.12l-3.253,0.56c-0.553,0.09 -0.965,0.27 -1.234,0.53c-0.27,0.25 -0.404,0.59 -0.404,1c0,0.39 0.149,0.71 0.447,0.95c0.312,0.23 0.694,0.34 1.148,0.34c0.582,0 1.092,-0.12 1.532,-0.36c0.453,-0.25 0.801,-0.6 1.042,-1.04c0.255,-0.44 0.383,-0.92 0.383,-1.45v-2.97c0,-0.5 -0.199,-0.91 -0.596,-1.24c-0.383,-0.34 -0.893,-0.51 -1.531,-0.51c-0.596,0 -1.128,0.17 -1.595,0.49c-0.454,0.31 -0.787,0.73 -1,1.26l-2.276,-1.11c0.227,-0.61 0.581,-1.13 1.064,-1.57c0.496,-0.46 1.077,-0.81 1.744,-1.07c0.666,-0.25 1.389,-0.38 2.169,-0.38c0.95,0 1.787,0.18 2.51,0.53c0.723,0.34 1.283,0.82 1.68,1.45c0.411,0.61 0.617,1.32 0.617,2.15v7.7h-2.637v-1.98l0.595,-0.04c-0.297,0.49 -0.652,0.91 -1.063,1.25c-0.412,0.33 -0.879,0.58 -1.404,0.77c-0.524,0.17 -1.106,0.25 -1.744,0.25zM91.469,32.09v-11.57h2.616v2.27l-0.212,-0.4c0.269,-0.7 0.709,-1.22 1.319,-1.58c0.623,-0.36 1.346,-0.55 2.169,-0.55c0.85,0 1.602,0.19 2.254,0.55c0.667,0.37 1.184,0.89 1.553,1.56c0.369,0.65 0.553,1.41 0.553,2.27v7.45h-2.786v-6.79c0,-0.51 -0.099,-0.95 -0.298,-1.32c-0.199,-0.37 -0.475,-0.65 -0.829,-0.85c-0.341,-0.21 -0.745,-0.32 -1.213,-0.32c-0.454,0 -0.858,0.11 -1.212,0.32c-0.355,0.2 -0.631,0.48 -0.83,0.85c-0.198,0.37 -0.297,0.81 -0.297,1.32v6.79h-2.787zM107.778,32.34c-0.894,0 -1.674,-0.2 -2.34,-0.59c-0.652,-0.4 -1.156,-0.95 -1.51,-1.66c-0.34,-0.71 -0.511,-1.54 -0.511,-2.49v-7.08h2.787v6.84c0,0.49 0.092,0.91 0.276,1.28c0.199,0.36 0.475,0.64 0.83,0.85c0.368,0.2 0.779,0.3 1.233,0.3c0.454,0 0.858,-0.1 1.213,-0.3c0.354,-0.21 0.631,-0.5 0.829,-0.87c0.198,-0.37 0.298,-0.81 0.298,-1.32v-6.78h2.786v11.57h-2.637v-2.28l0.234,0.4c-0.27,0.71 -0.716,1.25 -1.34,1.6c-0.61,0.35 -1.326,0.53 -2.148,0.53zM121.108,32.21c-1.304,0 -2.318,-0.35 -3.041,-1.06c-0.709,-0.72 -1.064,-1.74 -1.064,-3.04v-5.11h-1.999v-2.48h0.213c0.567,0 1.006,-0.15 1.318,-0.45c0.312,-0.3 0.468,-0.73 0.468,-1.3v-0.89h2.786v2.64h2.659v2.48h-2.659v4.96c0,0.38 0.064,0.71 0.192,0.98c0.142,0.27 0.354,0.47 0.638,0.62c0.297,0.14 0.673,0.21 1.127,0.21c0.099,0 0.212,-0.01 0.34,-0.02c0.142,-0.02 0.277,-0.03 0.404,-0.05v2.39c-0.198,0.02 -0.425,0.05 -0.681,0.08c-0.254,0.03 -0.489,0.04 -0.701,0.04z" fill="currentColor"/>
</g>
<path id="Vector_56" fill-rule="evenodd" clip-rule="evenodd" d="M25.68,25.69l0.029,-2.11c-0.002,-0.36 -0.021,-0.53 -0.032,-0.6c-0.025,-0.01 -0.064,-0.03 -0.118,-0.06c-0.957,-0.5 -3.177,-1.27 -4.266,-1.58v4.35h4.387z" fill="currentColor"/>
<path id="Vector_57" fill-rule="evenodd" clip-rule="evenodd" d="M19.1659,25.69v-4.35c-1.0903,0.32 -3.3084,1.08 -4.2679,1.58c-0.0536,0.03 -0.0919,0.05 -0.1174,0.06c-0.0619,0.4 -0.0126,2.01 -0.0011,2.71h4.3862z" fill="currentColor"/>
<path id="Vector_58" fill-rule="evenodd" clip-rule="evenodd" d="M19.1662,27.82h-4.3644c0.0011,0.24 0.0014,0.5 0.0014,0.76c0,2.86 2.1982,4.72 4.363,5.8v-6.56z" fill="currentColor"/>
<path id="Vector_59" fill-rule="evenodd" clip-rule="evenodd" d="M21.293,27.82v6.56c2.165,-1.07 4.363,-2.94 4.363,-5.8c0,-0.26 0.001,-0.52 0.002,-0.76h-4.365z" fill="currentColor"/>
<path id="Vector_60" d="M96.472,38.03l1.105,-3.2h0.758l1.105,3.2h-0.636l-0.228,-0.69h-1.239l-0.233,0.69h-0.632zM97.504,36.83h0.904l-0.534,-1.6h0.164z" fill="currentColor"/>
<path id="_1_2" d="M101.722,38.03v-3.2h2.138v0.51h-1.553v0.89h1.359v0.51h-1.359v1.29z" fill="currentColor"/>
<path id="_2_2" d="M106.168,38.03v-3.2h1.192c0.218,0 0.411,0.03 0.578,0.11c0.168,0.08 0.299,0.2 0.394,0.35c0.095,0.15 0.142,0.33 0.142,0.55c0,0.22 -0.052,0.41 -0.157,0.56c-0.105,0.15 -0.246,0.27 -0.424,0.34l0.736,1.29h-0.663l-0.787,-1.41l0.379,0.23h-0.805v1.18h-0.585zM106.753,36.33h0.615c0.106,0 0.198,-0.02 0.276,-0.06c0.077,-0.04 0.137,-0.1 0.18,-0.18c0.043,-0.07 0.065,-0.16 0.065,-0.25c0,-0.1 -0.022,-0.19 -0.065,-0.26c-0.043,-0.08 -0.103,-0.13 -0.18,-0.18c-0.078,-0.04 -0.169,-0.06 -0.276,-0.06h-0.615z" fill="currentColor"/>
<path id="_3_3" d="M110.937,38.03v-3.2h0.585v3.2z" fill="currentColor"/>
<path id="_4_2" d="M115.567,38.08c-0.229,0 -0.441,-0.04 -0.635,-0.12c-0.193,-0.09 -0.362,-0.2 -0.507,-0.35c-0.145,-0.15 -0.257,-0.32 -0.338,-0.53c-0.08,-0.2 -0.12,-0.42 -0.12,-0.65c0,-0.24 0.039,-0.46 0.118,-0.66c0.079,-0.21 0.191,-0.38 0.336,-0.53c0.145,-0.15 0.315,-0.26 0.51,-0.34c0.195,-0.09 0.407,-0.13 0.636,-0.13c0.23,0 0.435,0.04 0.618,0.12c0.182,0.08 0.336,0.18 0.462,0.31c0.127,0.13 0.217,0.27 0.271,0.42l-0.525,0.24c-0.06,-0.16 -0.162,-0.29 -0.305,-0.4c-0.144,-0.1 -0.317,-0.15 -0.521,-0.15c-0.2,0 -0.378,0.04 -0.531,0.14c-0.153,0.09 -0.273,0.22 -0.357,0.39c-0.085,0.17 -0.127,0.36 -0.127,0.59c0,0.22 0.042,0.42 0.127,0.58c0.085,0.17 0.204,0.3 0.357,0.4c0.153,0.09 0.331,0.14 0.531,0.14c0.204,0 0.377,-0.05 0.521,-0.16c0.143,-0.1 0.245,-0.24 0.305,-0.4l0.525,0.25c-0.054,0.15 -0.144,0.29 -0.271,0.42c-0.126,0.13 -0.28,0.23 -0.462,0.31c-0.183,0.07 -0.388,0.11 -0.618,0.11z" fill="currentColor"/>
<path id="_5_2" d="M119.054,38.03l1.105,-3.2h0.758l1.106,3.2h-0.637l-0.228,-0.69h-1.239l-0.233,0.69h-0.632zM120.086,36.83h0.904l-0.534,-1.6h0.164z" fill="currentColor"/>
<path id="Vector_61" d="M46.936,48.42l0.142,-1h0.95l-0.15,1z" fill="currentColor"/>
<path id="_1_5" d="M50.118,48.42l0.143,-1h0.95l-0.15,1z" fill="currentColor"/>
<path id="_2_6" d="M53.302,48.42l0.143,-1h0.949l-0.15,1z" fill="currentColor"/>
<path id="_3_7" d="M58.299,48.51c-0.305,0 -0.58,-0.06 -0.825,-0.18c-0.245,-0.11 -0.432,-0.28 -0.56,-0.49l0.121,-0.17l-0.1,0.75h-0.892l0.757,-5.4h0.942l-0.314,2.29l-0.257,-0.21c0.152,-0.21 0.346,-0.37 0.582,-0.48c0.235,-0.11 0.496,-0.17 0.782,-0.17c0.361,0 0.68,0.09 0.956,0.26c0.276,0.16 0.494,0.39 0.653,0.68c0.16,0.28 0.24,0.6 0.24,0.96c0,0.3 -0.054,0.57 -0.161,0.84c-0.107,0.26 -0.256,0.49 -0.446,0.69c-0.191,0.19 -0.412,0.35 -0.664,0.46c-0.252,0.11 -0.524,0.17 -0.814,0.17zM58.206,47.65c0.233,0 0.44,-0.06 0.621,-0.17c0.181,-0.12 0.322,-0.28 0.425,-0.47c0.102,-0.2 0.153,-0.41 0.153,-0.65c0,-0.21 -0.041,-0.39 -0.125,-0.54c-0.083,-0.16 -0.198,-0.28 -0.346,-0.38c-0.147,-0.09 -0.323,-0.13 -0.528,-0.13c-0.229,0 -0.432,0.06 -0.611,0.17c-0.178,0.12 -0.317,0.28 -0.417,0.47c-0.1,0.2 -0.15,0.41 -0.15,0.65c0,0.21 0.041,0.39 0.125,0.55c0.083,0.16 0.198,0.28 0.346,0.37c0.147,0.09 0.316,0.13 0.507,0.13z" fill="currentColor"/>
<path id="_4_8" d="M63.324,48.51c-0.38,0 -0.712,-0.09 -0.996,-0.25c-0.283,-0.17 -0.502,-0.4 -0.657,-0.68c-0.154,-0.29 -0.232,-0.61 -0.232,-0.97c0,-0.3 0.052,-0.57 0.154,-0.83c0.102,-0.26 0.247,-0.49 0.436,-0.69c0.187,-0.2 0.405,-0.36 0.653,-0.47c0.247,-0.11 0.519,-0.17 0.814,-0.17c0.38,0 0.704,0.08 0.97,0.24c0.267,0.15 0.469,0.37 0.607,0.63c0.138,0.26 0.207,0.56 0.207,0.89c0,0.08 -0.007,0.17 -0.021,0.26c-0.014,0.09 -0.033,0.18 -0.057,0.27h-2.999l0.05,-0.71h2.463l-0.464,0.32c0.062,-0.21 0.068,-0.4 0.018,-0.57c-0.05,-0.17 -0.143,-0.31 -0.278,-0.41c-0.136,-0.1 -0.304,-0.15 -0.503,-0.15c-0.262,0 -0.473,0.07 -0.632,0.2c-0.16,0.12 -0.276,0.3 -0.35,0.52c-0.074,0.22 -0.111,0.47 -0.111,0.74c0,0.21 0.039,0.39 0.118,0.54c0.078,0.15 0.189,0.27 0.332,0.35c0.143,0.08 0.309,0.12 0.5,0.12c0.214,0 0.402,-0.05 0.564,-0.15c0.161,-0.09 0.29,-0.21 0.385,-0.36l0.742,0.38c-0.09,0.19 -0.22,0.35 -0.389,0.5c-0.168,0.14 -0.366,0.25 -0.592,0.33c-0.226,0.08 -0.47,0.12 -0.732,0.12z" fill="currentColor"/>
<path id="_5_9" d="M66.343,50c-0.119,0 -0.227,-0.01 -0.325,-0.03c-0.097,-0.02 -0.184,-0.05 -0.26,-0.09l0.057,-0.77c0.062,0.02 0.134,0.03 0.218,0.04c0.083,0.02 0.156,0.02 0.217,0.02c0.143,0 0.263,-0.02 0.361,-0.07c0.097,-0.05 0.183,-0.12 0.257,-0.21c0.074,-0.09 0.141,-0.19 0.203,-0.29l0.35,-0.57l-0.093,0.78l-1.085,-4.27h0.964l0.742,3.15h-0.371l1.635,-3.15h1.057l-2.299,4.3c-0.133,0.25 -0.282,0.46 -0.446,0.63c-0.164,0.18 -0.344,0.31 -0.539,0.4c-0.195,0.09 -0.41,0.13 -0.643,0.13z" fill="currentColor"/>
<path id="_6_2" d="M72.725,48.51c-0.366,0 -0.697,-0.08 -0.992,-0.25c-0.295,-0.16 -0.528,-0.39 -0.7,-0.68c-0.171,-0.28 -0.257,-0.61 -0.257,-0.99c0,-0.3 0.056,-0.58 0.168,-0.83c0.112,-0.26 0.268,-0.49 0.468,-0.69c0.2,-0.19 0.43,-0.34 0.692,-0.45c0.262,-0.11 0.543,-0.17 0.843,-0.17c0.366,0 0.697,0.08 0.992,0.25c0.295,0.16 0.528,0.39 0.7,0.67c0.171,0.29 0.257,0.62 0.257,1c0,0.29 -0.057,0.57 -0.172,0.83c-0.114,0.26 -0.271,0.49 -0.471,0.68c-0.2,0.2 -0.43,0.35 -0.692,0.46c-0.262,0.11 -0.54,0.17 -0.836,0.17zM72.732,47.65c0.229,0 0.432,-0.06 0.611,-0.17c0.178,-0.12 0.319,-0.28 0.421,-0.47c0.102,-0.2 0.154,-0.42 0.154,-0.66c0,-0.2 -0.041,-0.38 -0.122,-0.54c-0.081,-0.15 -0.195,-0.27 -0.342,-0.36c-0.148,-0.1 -0.319,-0.14 -0.514,-0.14c-0.229,0 -0.434,0.06 -0.614,0.17c-0.181,0.12 -0.322,0.28 -0.422,0.47c-0.1,0.2 -0.15,0.42 -0.15,0.66c0,0.2 0.041,0.38 0.122,0.54c0.081,0.15 0.195,0.27 0.342,0.37c0.148,0.09 0.319,0.13 0.514,0.13z" fill="currentColor"/>
<path id="_7_2" d="M75.823,48.42l0.543,-3.88h0.878l-0.1,0.76l-0.057,-0.15c0.124,-0.24 0.292,-0.42 0.507,-0.53c0.214,-0.11 0.452,-0.17 0.714,-0.17c0.295,0 0.546,0.07 0.753,0.21c0.207,0.14 0.359,0.32 0.457,0.56c0.097,0.24 0.125,0.5 0.082,0.8l-0.336,2.4h-0.935l0.321,-2.3c0.034,-0.24 -0.012,-0.44 -0.135,-0.59c-0.124,-0.15 -0.3,-0.22 -0.529,-0.22c-0.152,0 -0.293,0.03 -0.424,0.1c-0.131,0.07 -0.238,0.17 -0.322,0.29c-0.083,0.13 -0.139,0.27 -0.168,0.44l-0.314,2.28h-0.935z" fill="currentColor"/>
<path id="_8_2" d="M82.498,48.51c-0.366,0 -0.687,-0.08 -0.964,-0.24c-0.276,-0.15 -0.491,-0.37 -0.646,-0.65c-0.154,-0.28 -0.232,-0.6 -0.232,-0.96c0,-0.33 0.056,-0.63 0.168,-0.9c0.112,-0.27 0.267,-0.5 0.464,-0.69c0.198,-0.2 0.426,-0.35 0.685,-0.46c0.26,-0.1 0.535,-0.16 0.825,-0.16c0.309,0 0.579,0.06 0.81,0.18c0.231,0.13 0.408,0.29 0.532,0.5l-0.2,0.18l0.314,-2.29h0.95l-0.75,5.4h-0.892l0.1,-0.75l0.207,0.14c-0.143,0.23 -0.337,0.41 -0.582,0.52c-0.245,0.12 -0.508,0.18 -0.789,0.18zM82.627,47.65c0.233,0 0.439,-0.06 0.617,-0.17c0.179,-0.12 0.318,-0.28 0.418,-0.47c0.1,-0.2 0.15,-0.42 0.15,-0.66c0,-0.2 -0.042,-0.38 -0.125,-0.53c-0.083,-0.16 -0.197,-0.28 -0.343,-0.37c-0.145,-0.1 -0.315,-0.14 -0.51,-0.14c-0.233,0 -0.44,0.06 -0.621,0.17c-0.181,0.12 -0.323,0.28 -0.425,0.47c-0.102,0.2 -0.153,0.42 -0.153,0.66c0,0.2 0.041,0.38 0.124,0.54c0.084,0.15 0.2,0.27 0.35,0.37c0.15,0.09 0.323,0.13 0.518,0.13z" fill="currentColor"/>
<path id="_9_2" d="M89.101,48.51c-0.366,0 -0.695,-0.09 -0.985,-0.25c-0.29,-0.17 -0.516,-0.4 -0.678,-0.68c-0.162,-0.29 -0.243,-0.62 -0.243,-0.98c0,-0.3 0.055,-0.58 0.164,-0.84c0.11,-0.26 0.263,-0.49 0.461,-0.69c0.198,-0.19 0.426,-0.34 0.685,-0.45c0.26,-0.11 0.537,-0.17 0.832,-0.17c0.285,0 0.545,0.05 0.778,0.15c0.233,0.1 0.432,0.23 0.596,0.41c0.164,0.17 0.277,0.37 0.339,0.6l-0.835,0.34c-0.057,-0.2 -0.164,-0.35 -0.321,-0.47c-0.157,-0.11 -0.345,-0.17 -0.564,-0.17c-0.229,0 -0.431,0.06 -0.607,0.18c-0.176,0.12 -0.312,0.28 -0.407,0.48c-0.095,0.19 -0.143,0.4 -0.143,0.63c0,0.21 0.04,0.39 0.118,0.54c0.079,0.16 0.19,0.28 0.336,0.38c0.145,0.09 0.31,0.13 0.496,0.13c0.233,0 0.438,-0.06 0.614,-0.18c0.176,-0.12 0.309,-0.28 0.4,-0.48l0.792,0.39c-0.09,0.22 -0.226,0.41 -0.407,0.58c-0.181,0.18 -0.392,0.31 -0.635,0.4c-0.243,0.1 -0.505,0.15 -0.785,0.15z" fill="currentColor"/>
<path id="_10_2" d="M94.055,48.51c-0.366,0 -0.697,-0.08 -0.992,-0.25c-0.295,-0.16 -0.528,-0.39 -0.7,-0.68c-0.171,-0.28 -0.257,-0.61 -0.257,-0.99c0,-0.3 0.056,-0.58 0.168,-0.83c0.112,-0.26 0.268,-0.49 0.468,-0.69c0.2,-0.19 0.431,-0.34 0.692,-0.45c0.262,-0.11 0.543,-0.17 0.843,-0.17c0.366,0 0.697,0.08 0.992,0.25c0.295,0.16 0.528,0.39 0.7,0.67c0.171,0.29 0.257,0.62 0.257,1c0,0.29 -0.057,0.57 -0.172,0.83c-0.114,0.26 -0.271,0.49 -0.471,0.68c-0.199,0.2 -0.43,0.35 -0.692,0.46c-0.262,0.11 -0.54,0.17 -0.836,0.17zM94.063,47.65c0.228,0 0.431,-0.06 0.61,-0.17c0.178,-0.12 0.319,-0.28 0.421,-0.47c0.103,-0.2 0.154,-0.42 0.154,-0.66c0,-0.2 -0.041,-0.38 -0.122,-0.54c-0.081,-0.15 -0.195,-0.27 -0.342,-0.36c-0.148,-0.1 -0.319,-0.14 -0.514,-0.14c-0.229,0 -0.434,0.06 -0.614,0.17c-0.181,0.12 -0.322,0.28 -0.422,0.47c-0.1,0.2 -0.15,0.42 -0.15,0.66c0,0.2 0.041,0.38 0.122,0.54c0.081,0.15 0.195,0.27 0.342,0.37c0.148,0.09 0.319,0.13 0.515,0.13z" fill="currentColor"/>
<path id="_11_2" d="M98.102,48.42l-0.978,-3.88h0.978l0.685,3.05h-0.392l1.542,-3.05h1.071l-2.078,3.88z" fill="currentColor"/>
<path id="_12_2" d="M103.399,48.51c-0.38,0 -0.712,-0.09 -0.996,-0.25c-0.283,-0.17 -0.502,-0.4 -0.656,-0.68c-0.155,-0.29 -0.232,-0.61 -0.232,-0.97c0,-0.3 0.051,-0.57 0.153,-0.83c0.102,-0.26 0.248,-0.49 0.436,-0.69c0.188,-0.2 0.405,-0.36 0.653,-0.47c0.247,-0.11 0.519,-0.17 0.814,-0.17c0.381,0 0.704,0.08 0.971,0.24c0.266,0.15 0.469,0.37 0.606,0.63c0.138,0.26 0.208,0.56 0.208,0.89c0,0.08 -0.008,0.17 -0.022,0.26c-0.014,0.09 -0.033,0.18 -0.057,0.27h-2.998l0.049,-0.71h2.464l-0.464,0.32c0.061,-0.21 0.067,-0.4 0.017,-0.57c-0.05,-0.17 -0.142,-0.31 -0.278,-0.41c-0.136,-0.1 -0.303,-0.15 -0.503,-0.15c-0.262,0 -0.473,0.07 -0.632,0.2c-0.16,0.12 -0.276,0.3 -0.35,0.52c-0.074,0.22 -0.111,0.47 -0.111,0.74c0,0.21 0.04,0.39 0.118,0.54c0.079,0.15 0.189,0.27 0.332,0.35c0.143,0.08 0.309,0.12 0.5,0.12c0.214,0 0.402,-0.05 0.564,-0.15c0.162,-0.09 0.29,-0.21 0.385,-0.36l0.743,0.38c-0.091,0.19 -0.22,0.35 -0.389,0.5c-0.169,0.14 -0.367,0.25 -0.593,0.33c-0.226,0.08 -0.47,0.12 -0.732,0.12z" fill="currentColor"/>
<path id="_13_2" d="M106.254,48.42l0.543,-3.88h0.885l-0.114,0.86l-0.064,-0.13c0.133,-0.29 0.303,-0.49 0.51,-0.6c0.207,-0.12 0.446,-0.17 0.717,-0.17h0.229l-0.114,0.82h-0.336c-0.266,0 -0.491,0.09 -0.675,0.26c-0.183,0.17 -0.301,0.42 -0.353,0.75l-0.286,2.09h-0.942z" fill="currentColor"/>
<path id="_14_2" d="M110.68,48.51c-0.247,0 -0.467,-0.04 -0.66,-0.12c-0.193,-0.08 -0.344,-0.2 -0.454,-0.36c-0.109,-0.16 -0.164,-0.35 -0.164,-0.58c0,-0.25 0.062,-0.46 0.186,-0.63c0.124,-0.18 0.295,-0.32 0.514,-0.44c0.219,-0.11 0.471,-0.19 0.757,-0.23l1.306,-0.21l-0.071,0.72l-1.1,0.19c-0.176,0.03 -0.323,0.1 -0.442,0.18c-0.119,0.09 -0.179,0.21 -0.179,0.36c0,0.14 0.049,0.24 0.147,0.3c0.097,0.07 0.222,0.1 0.375,0.1c0.19,0 0.361,-0.04 0.514,-0.13c0.152,-0.09 0.278,-0.2 0.378,-0.35c0.1,-0.15 0.16,-0.31 0.179,-0.49l0.135,-0.97c0.019,-0.13 -0.001,-0.23 -0.06,-0.32c-0.06,-0.09 -0.142,-0.16 -0.247,-0.21c-0.105,-0.04 -0.219,-0.07 -0.343,-0.07c-0.214,0 -0.405,0.06 -0.574,0.17c-0.169,0.12 -0.299,0.26 -0.389,0.44l-0.736,-0.42c0.1,-0.2 0.237,-0.37 0.411,-0.52c0.174,-0.14 0.376,-0.26 0.607,-0.34c0.23,-0.09 0.477,-0.13 0.738,-0.13c0.314,0 0.594,0.06 0.839,0.19c0.245,0.12 0.432,0.29 0.561,0.51c0.128,0.21 0.171,0.46 0.128,0.74l-0.35,2.53h-0.892l0.093,-0.66l0.235,0.01c-0.119,0.16 -0.252,0.3 -0.399,0.41c-0.148,0.11 -0.309,0.19 -0.482,0.25c-0.174,0.05 -0.361,0.08 -0.561,0.08z" fill="currentColor"/>
<path id="_15_2" d="M115.777,49.99c-0.295,0 -0.564,-0.05 -0.807,-0.15c-0.242,-0.1 -0.443,-0.23 -0.603,-0.41c-0.159,-0.17 -0.263,-0.37 -0.31,-0.6l0.885,-0.27c0.033,0.18 0.128,0.32 0.286,0.42c0.157,0.1 0.364,0.16 0.621,0.16c0.185,0 0.354,-0.04 0.506,-0.11c0.153,-0.07 0.279,-0.17 0.379,-0.3c0.1,-0.13 0.159,-0.28 0.178,-0.45l0.136,-0.94l0.235,0.23c-0.147,0.24 -0.334,0.41 -0.56,0.52c-0.226,0.12 -0.482,0.18 -0.768,0.18c-0.342,0 -0.648,-0.08 -0.917,-0.23c-0.269,-0.16 -0.479,-0.37 -0.632,-0.64c-0.152,-0.26 -0.228,-0.57 -0.228,-0.92c0,-0.29 0.051,-0.56 0.153,-0.81c0.103,-0.24 0.244,-0.46 0.425,-0.64c0.181,-0.18 0.393,-0.32 0.635,-0.42c0.243,-0.11 0.505,-0.16 0.786,-0.16c0.304,0 0.578,0.06 0.821,0.19c0.242,0.12 0.43,0.3 0.563,0.53l-0.185,0.23l0.114,-0.86h0.892l-0.521,3.77c-0.043,0.33 -0.16,0.62 -0.353,0.87c-0.193,0.25 -0.438,0.45 -0.735,0.6c-0.298,0.14 -0.63,0.21 -0.996,0.21zM116.084,47.4c0.214,0 0.406,-0.05 0.575,-0.16c0.169,-0.1 0.3,-0.24 0.392,-0.41c0.093,-0.17 0.14,-0.36 0.14,-0.56c0,-0.19 -0.038,-0.35 -0.115,-0.5c-0.076,-0.14 -0.182,-0.25 -0.317,-0.34c-0.136,-0.08 -0.299,-0.12 -0.489,-0.12c-0.209,0 -0.399,0.05 -0.568,0.15c-0.169,0.11 -0.303,0.24 -0.403,0.41c-0.1,0.17 -0.15,0.37 -0.15,0.59c0,0.18 0.039,0.34 0.118,0.48c0.078,0.15 0.188,0.26 0.328,0.34c0.14,0.08 0.304,0.12 0.489,0.12z" fill="currentColor"/>
<path id="_16_2" d="M121.202,48.51c-0.38,0 -0.712,-0.09 -0.996,-0.25c-0.283,-0.17 -0.502,-0.4 -0.657,-0.68c-0.154,-0.29 -0.232,-0.61 -0.232,-0.97c0,-0.3 0.052,-0.57 0.154,-0.83c0.102,-0.26 0.247,-0.49 0.435,-0.69c0.188,-0.2 0.406,-0.36 0.654,-0.47c0.247,-0.11 0.518,-0.17 0.814,-0.17c0.38,0 0.704,0.08 0.97,0.24c0.267,0.15 0.469,0.37 0.607,0.63c0.138,0.26 0.207,0.56 0.207,0.89c0,0.08 -0.007,0.17 -0.021,0.26c-0.014,0.09 -0.033,0.18 -0.057,0.27h-2.999l0.05,-0.71h2.463l-0.464,0.32c0.062,-0.21 0.068,-0.4 0.018,-0.57c-0.05,-0.17 -0.143,-0.31 -0.278,-0.41c-0.136,-0.1 -0.304,-0.15 -0.504,-0.15c-0.261,0 -0.472,0.07 -0.631,0.2c-0.16,0.12 -0.277,0.3 -0.35,0.52c-0.074,0.22 -0.111,0.47 -0.111,0.74c0,0.21 0.039,0.39 0.118,0.54c0.078,0.15 0.189,0.27 0.332,0.35c0.143,0.08 0.309,0.12 0.5,0.12c0.214,0 0.402,-0.05 0.564,-0.15c0.161,-0.09 0.29,-0.21 0.385,-0.36l0.742,0.38c-0.09,0.19 -0.22,0.35 -0.389,0.5c-0.169,0.14 -0.366,0.25 -0.592,0.33c-0.226,0.08 -0.47,0.12 -0.732,0.12z" fill="currentColor"/>
<path id="Vector_62" fill-rule="evenodd" clip-rule="evenodd" d="M25.441,20.53c0.808,0.33 1.476,0.67 1.748,0.94c0.586,0.59 0.64,1.23 0.647,2.09c0.003,0.44 -0.011,1.04 -0.024,1.84c-0.014,0.8 -0.029,1.84 -0.029,3.18c0,4.37 -3.675,7.12 -6.912,8.29c-0.349,0.13 -0.613,0.23 -0.9855,0.1l-1.0996,-0.42c-2.9005,-1.28 -6.1097,-3.85 -6.1097,-7.97c0,-1.34 -0.0147,-2.38 -0.0287,-3.18c-0.0139,-0.8 -0.0275,-1.4 -0.0245,-1.84c0.0087,-1.27 0.1998,-1.96 1.2901,-2.52c1.213,-0.64 4.2469,-1.69 5.599,-1.99c0.5919,-0.13 0.8419,-0.13 1.4339,0c0.71,0.16 2.882,0.81 4.495,1.48zM27.053,39.15c3.806,-2.84 7.401,-7.16 7.401,-13.41c0,-0.43 0.001,-0.85 0.002,-1.26l-13.316,-12.78c-0.709,-0.68 -1.6432,-0.68 -2.3519,0l-13.3154,12.78c0.0011,0.41 0.0016,0.83 0.0016,1.26c0,8.36 6.5127,13.69 12.6392,16.49c0.7115,0.33 1.3048,0.57 1.8451,0.77l0.1354,-0.05c2.099,-0.79 4.676,-2.1 6.958,-3.8z" fill="currentColor"/>
<path id="Vector_63" fill-rule="evenodd" clip-rule="evenodd" d="M5.4402,20.09l11.1374,-10.69c1.9434,-1.87 4.8274,-1.87 6.7714,0l11.138,10.69l0.097,-7.21c-0.008,-1.09 -0.059,-1.62 -0.135,-1.92c-0.049,-0.19 -0.096,-0.28 -0.259,-0.45c0.028,0.03 -0.097,-0.08 -0.555,-0.33c-1.533,-0.83 -4.292,-1.91 -6.223,-2.61c-1.508,-0.55 -6.134,-2.15 -7.4498,-2.23c-0.365,-0.02 -2.1408,0.48 -2.6575,0.63c-2.8473,0.84 -8.5177,2.86 -11.0165,4.21c-0.462,0.25 -0.5866,0.37 -0.5576,0.34c-0.1611,0.16 -0.2064,0.24 -0.2547,0.44c-0.2311,0.92 -0.1074,4.54 -0.0741,6.52c0.0132,0.78 0.0266,1.65 0.0382,2.61z" fill="currentColor"/>
<path id="Vector_64" fill-rule="evenodd" clip-rule="evenodd" d="M19.6357,48.11l0.0118,0.03c0.2054,0.07 0.4245,0.07 0.6305,0v0h0.001l0.858,-0.29c2.657,-0.96 5.909,-2.55 8.823,-4.65c4.822,-3.47 9.813,-9.09 9.813,-17.39c0,-3.9 0.043,-6.9 0.083,-9.23c0.04,-2.32 0.078,-4.01 0.069,-5.25c-0.009,-1.22 -0.062,-2.13 -0.247,-2.84c-0.204,-0.79 -0.558,-1.31 -1.043,-1.8c-1.235,-1.25 -7.23,-3.39 -9.004,-4.01c-1.88,-0.67 -7.798,-2.68 -9.6682,-2.68c-1.8691,0 -7.7879,2.02 -9.6671,2.68c-1.7682,0.62 -7.7675,2.77 -9.0017,4c-0.4874,0.49 -0.8421,1.01 -1.0466,1.8c-0.1843,0.72 -0.2374,1.62 -0.2461,2.84c-0.0089,1.24 0.0301,2.93 0.0703,5.26c0.0406,2.33 0.083,5.33 0.083,9.23c0,10.89 8.6185,17.7 16.4437,21.16l3.0296,1.17l0.0082,-0.03zM3.0694,8.05c1.5142,-0.97 5.9981,-2.63 7.9491,-3.32c2.3916,-0.84 5.5852,-1.89 7.7651,-2.37c0.6147,-0.13 1.0003,-0.18 1.1789,-0.18c0.6235,0 2.4355,0.48 3.3235,0.73c3.3,0.95 10.015,3.25 12.971,4.8l0.818,0.49c0.011,0.01 0.016,0.02 0.016,0.02c0.265,0.27 0.39,0.46 0.481,0.81c0.111,0.43 0.169,1.09 0.178,2.32c0.009,1.2 -0.029,2.84 -0.069,5.19c-0.04,2.34 -0.083,5.35 -0.083,9.27c0,9.8 -7.926,15.98 -15.15,19.17l-2.4855,0.98l-2.4854,-0.98c-7.224,-3.19 -15.1474,-9.37 -15.1474,-19.17c0,-3.92 -0.0428,-6.93 -0.0832,-9.27c-0.0408,-2.35 -0.0787,-3.99 -0.0703,-5.2c0.0085,-1.22 0.0668,-1.88 0.1771,-2.31c0.0906,-0.35 0.2143,-0.54 0.4783,-0.81l0.238,-0.17z" fill="currentColor"/>
</g></svg>