<svg viewBox="0 0 40 40" fill="none" xmlns="http://www.w3.org/2000/svg" xmlns:xlink="http://www.w3.org/1999/xlink" x="0" y="0"><g id="Component 86">
<path id="Vector_14" d="M10.708,1.12c0.399,0.09 0.553,0.35 0.776,0.68c0.881,1.07 1.891,1.69 3.281,1.87c0.426,0.04 0.808,0 1.226,-0.08c0.354,-0.07 0.613,-0.1 0.962,0c0.159,0.14 0.226,0.26 0.254,0.47c0.007,0.19 0.007,0.38 0.003,0.58c0,0.07 -0.001,0.14 -0.001,0.21c-0.001,0.23 -0.004,0.45 -0.007,0.68c-0.001,0.15 -0.002,0.3 -0.003,0.46c-0.003,0.37 -0.007,0.74 -0.012,1.12c0.671,0 1.341,0 2.031,0c-0.002,-0.17 -0.004,-0.33 -0.006,-0.5c-0.006,-0.55 -0.011,-1.1 -0.014,-1.65c-0.002,-0.33 -0.005,-0.67 -0.009,-1c-0.004,-0.32 -0.007,-0.64 -0.008,-0.96c0,-0.12 -0.002,-0.25 -0.004,-0.37c-0.003,-0.17 -0.003,-0.34 -0.003,-0.51c-0.001,-0.1 -0.002,-0.2 -0.003,-0.3c0.062,-0.34 0.165,-0.45 0.438,-0.65c0.237,-0.05 0.237,-0.05 0.504,-0.05c0.151,0 0.151,0 0.305,0c0.108,0 0.217,0 0.326,0c0.113,0 0.225,0 0.337,0c0.236,0 0.471,0 0.706,0c0.301,0 0.601,0 0.902,0c0.232,0 0.464,0 0.696,0c0.111,0 0.222,0 0.332,0c0.156,0 0.311,0 0.466,0c0.088,0 0.176,0 0.267,0c0.321,0.07 0.435,0.18 0.628,0.44c0.047,0.26 0.047,0.26 0.044,0.56c0,0.05 0,0.1 0,0.16c0,0.18 -0.003,0.36 -0.006,0.53c-0.001,0.13 -0.001,0.25 -0.002,0.38c-0.001,0.32 -0.005,0.65 -0.009,0.97c-0.004,0.33 -0.006,0.66 -0.008,1c-0.004,0.65 -0.011,1.3 -0.019,1.95c0.063,0 0.126,0 0.191,0c0.593,-0.01 1.186,-0.01 1.779,-0.02c0.305,0 0.61,0 0.915,0c0.294,-0.01 0.588,-0.01 0.883,-0.01c0.112,0 0.224,0 0.336,0c0.158,-0.01 0.315,-0.01 0.472,-0.01c0.09,0 0.179,0 0.272,0c0.23,0.04 0.23,0.04 0.415,0.16c0.184,0.28 0.169,0.55 0.163,0.87c0,0.07 0,0.14 0,0.21c0,0.23 -0.003,0.45 -0.005,0.68c-0.001,0.16 -0.001,0.31 -0.001,0.47c-0.002,0.42 -0.005,0.83 -0.008,1.24c-0.003,0.42 -0.005,0.85 -0.006,1.27c-0.004,0.83 -0.009,1.66 -0.016,2.48c0.06,0 0.12,0 0.182,0c0.271,0 0.543,0 0.815,-0.01c0.094,0 0.188,0 0.285,0c0.091,0 0.181,0 0.275,0c0.083,0 0.167,0 0.253,0c0.226,0.01 0.35,0.04 0.534,0.17c0.203,0.27 0.178,0.57 0.174,0.9c0,0.06 0,0.12 0,0.18c0,0.19 -0.001,0.38 -0.002,0.58c-0.001,0.13 -0.001,0.27 -0.001,0.4c-0.001,0.36 -0.002,0.71 -0.004,1.06c-0.001,0.36 -0.002,0.72 -0.003,1.08c-0.002,0.71 -0.004,1.42 -0.008,2.13c0.051,0.01 0.101,0.03 0.152,0.04c0.595,0.18 1.17,0.39 1.748,0.61c0.098,0.04 0.197,0.08 0.295,0.11c0.094,0.04 0.188,0.08 0.285,0.11c0.085,0.04 0.169,0.07 0.256,0.1c0.269,0.14 0.436,0.28 0.624,0.51c0.029,0.2 0.029,0.2 -0.001,0.4c-0.016,0.11 -0.016,0.11 -0.033,0.23c-0.072,0.37 -0.161,0.74 -0.269,1.1c-0.024,0.08 -0.047,0.16 -0.072,0.24c-0.705,2.29 -1.885,4.28 -3.531,6c-0.096,0.1 -0.096,0.1 -0.193,0.21c-2.119,2.19 -5.435,3.73 -8.502,3.79c-0.156,0 -0.311,0 -0.467,0c-0.084,0 -0.168,0 -0.255,0c-0.177,0 -0.355,0 -0.533,0c-0.266,0 -0.533,0.01 -0.8,0.01c-1.308,0.01 -2.562,-0.09 -3.821,-0.47c-0.067,-0.02 -0.135,-0.04 -0.204,-0.06c-2.073,-0.63 -3.956,-1.69 -5.504,-3.21c-0.106,-0.11 -0.213,-0.21 -0.321,-0.31c-2.029,-1.95 -3.521,-4.97 -3.888,-7.75c0.055,-0.28 0.211,-0.39 0.425,-0.57c0.217,-0.11 0.441,-0.19 0.671,-0.28c0.063,-0.02 0.127,-0.04 0.192,-0.07c0.202,-0.07 0.404,-0.15 0.607,-0.22c0.137,-0.05 0.275,-0.1 0.412,-0.15c0.336,-0.13 0.672,-0.25 1.009,-0.37c0.025,-0.88 0.051,-1.76 0.078,-2.66c-0.206,0.08 -0.413,0.16 -0.625,0.24c-0.982,0.15 -2.21,-0.73 -2.995,-1.28c-0.515,-0.37 -0.994,-0.79 -1.458,-1.22c-0.068,-0.07 -0.137,-0.13 -0.207,-0.2c-0.852,-0.81 -2.3,-2.32 -2.382,-3.56c0,-0.06 -0.001,-0.12 -0.001,-0.18c-0.001,-0.11 -0.001,-0.11 -0.002,-0.22c0,-0.08 0,-0.15 0,-0.23c-0.001,-0.08 -0.001,-0.17 -0.002,-0.25c-0.001,-0.27 -0.002,-0.54 -0.003,-0.81c0,-0.1 -0.001,-0.19 -0.001,-0.28c-0.002,-0.49 -0.003,-0.98 -0.003,-1.47c-0.001,-0.5 -0.004,-1.01 -0.007,-1.52c-0.002,-0.38 -0.003,-0.77 -0.003,-1.16c0,-0.19 -0.001,-0.37 -0.003,-0.56c-0.002,-0.26 -0.002,-0.52 -0.001,-0.78c-0.002,-0.12 -0.002,-0.12 -0.003,-0.23c0.002,-0.34 0.008,-0.53 0.186,-0.83c0.201,-0.18 0.287,-0.19 0.552,-0.18c0.065,0.01 0.13,0.01 0.197,0.01c0.198,0.02 0.198,0.02 0.387,0.06c1.228,0.24 2.441,-0.12 3.459,-0.8c0.56,-0.43 0.965,-0.95 1.372,-1.51c0.305,-0.21 0.559,-0.22 0.923,-0.2zM20.468,2.42c0,1.55 0,3.1 0,4.69c1.109,0 2.218,0 3.36,0c0,-1.55 0,-3.09 0,-4.69c-1.109,0 -2.217,0 -3.36,0zM10.39,2.66c-0.03,0.03 -0.06,0.07 -0.092,0.11c-1.001,1.18 -2.186,1.93 -3.736,2.15c-0.287,0.03 -0.573,0.04 -0.861,0.05c-0.075,0 -0.15,0 -0.228,0.01c-0.184,0.01 -0.368,0.01 -0.551,0.02c-0.017,0.91 -0.029,1.81 -0.037,2.72c-0.003,0.42 -0.008,0.84 -0.016,1.26c-0.008,0.41 -0.012,0.82 -0.014,1.23c-0.001,0.15 -0.004,0.3 -0.008,0.46c-0.025,1.07 0.127,1.75 0.778,2.61c0.06,0.09 0.12,0.17 0.18,0.26c0.98,1.39 2.766,3.28 4.507,3.65c0.382,-0.03 0.684,-0.17 1.016,-0.35c0.051,-0.03 0.101,-0.05 0.154,-0.08c1.552,-0.87 2.958,-2.13 3.895,-3.65c0.091,-0.14 0.091,-0.14 0.209,-0.3c0.486,-0.73 0.411,-1.5 0.397,-2.34c-0.001,-0.16 -0.002,-0.32 -0.002,-0.47c-0.002,-0.42 -0.006,-0.83 -0.012,-1.25c-0.004,-0.42 -0.007,-0.84 -0.009,-1.26c-0.005,-0.83 -0.013,-1.66 -0.023,-2.49c-0.052,0 -0.105,0 -0.159,0c-0.07,0 -0.139,0 -0.211,0c-0.069,0 -0.138,0 -0.208,0c-2.078,-0.02 -3.54,-0.91 -4.969,-2.34zM17.187,8.36c-0.026,1.37 -0.051,2.73 -0.078,4.14c-0.694,1.3 -0.694,1.3 -1.013,1.75c-0.088,0.11 -0.088,0.11 -0.081,0.2c4.357,0 8.714,0 13.203,0c0,-2.01 0,-4.02 0,-6.09c-3.97,0 -7.94,0 -12.031,0zM14.062,16.48c-0.108,0.09 -0.218,0.18 -0.332,0.26c-0.049,0.04 -0.098,0.07 -0.148,0.11c-0.048,0.03 -0.096,0.07 -0.145,0.1c-0.05,0.04 -0.1,0.08 -0.151,0.11c-0.208,0.15 -0.417,0.3 -0.63,0.44c-0.021,0.22 -0.027,0.43 -0.023,0.65c0,0.06 0.001,0.13 0.001,0.19c0.001,0.21 0.004,0.41 0.007,0.62c0.001,0.13 0.003,0.27 0.004,0.41c0.002,0.34 0.006,0.68 0.011,1.02c0.488,-0.16 0.969,-0.33 1.449,-0.51c0.07,-0.03 0.141,-0.06 0.214,-0.09c0.232,-0.09 0.464,-0.17 0.695,-0.26c0.08,-0.03 0.16,-0.06 0.242,-0.1c1.392,-0.53 2.78,-1.07 4.167,-1.62c0.338,-0.13 0.676,-0.26 1.015,-0.39c0.183,-0.07 0.365,-0.15 0.547,-0.22c0.111,-0.04 0.222,-0.09 0.333,-0.13c0.095,-0.04 0.19,-0.08 0.288,-0.12c0.555,-0.16 0.956,-0.05 1.474,0.15c0.063,0.03 0.127,0.05 0.192,0.08c0.208,0.08 0.416,0.16 0.624,0.24c0.147,0.06 0.294,0.12 0.441,0.17c0.381,0.15 0.761,0.3 1.141,0.45c0.286,0.11 0.571,0.22 0.856,0.33c0.469,0.18 0.937,0.37 1.406,0.55c0.895,0.35 1.792,0.7 2.689,1.04c0.058,0.02 0.116,0.05 0.176,0.07c0.16,0.06 0.321,0.12 0.481,0.18c0.091,0.04 0.181,0.07 0.274,0.11c0.179,0.08 0.179,0.08 0.28,0.07c0,-1.55 0,-3.09 0,-4.69c-2.165,-0.01 -4.33,-0.03 -6.495,-0.04c-1.005,0 -2.01,-0.01 -3.016,-0.02c-0.876,0 -1.752,-0.01 -2.629,-0.01c-0.464,0 -0.927,0 -1.391,-0.01c-0.437,0 -0.874,-0.01 -1.311,-0.01c-0.16,0 -0.32,0 -0.48,0c-1.04,-0.02 -1.559,0.05 -2.256,0.87zM21.625,18.24c-0.064,0.03 -0.129,0.05 -0.196,0.08c-0.07,0.03 -0.14,0.06 -0.212,0.09c-0.073,0.03 -0.147,0.05 -0.223,0.09c-0.16,0.06 -0.32,0.12 -0.48,0.19c-0.427,0.17 -0.854,0.34 -1.282,0.51c-0.087,0.04 -0.174,0.07 -0.263,0.11c-0.811,0.32 -1.625,0.63 -2.441,0.94c-1.547,0.58 -3.089,1.18 -4.629,1.79c-0.233,0.09 -0.466,0.18 -0.698,0.27c-0.208,0.08 -0.416,0.16 -0.623,0.25c-0.14,0.05 -0.279,0.11 -0.419,0.16c-0.081,0.03 -0.163,0.06 -0.247,0.1c-0.106,0.04 -0.106,0.04 -0.213,0.08c-0.168,0.07 -0.168,0.07 -0.324,0.15c0.093,0.52 0.221,1.02 0.4,1.53c0.024,0.07 0.048,0.14 0.072,0.2c0.236,0.65 0.523,1.26 0.856,1.86c0.027,0.05 0.054,0.1 0.082,0.15c0.791,1.42 1.832,2.69 3.121,3.68c0.07,0.06 0.141,0.11 0.213,0.17c0.994,0.78 2.113,1.36 3.303,1.78c0.094,0.04 0.188,0.07 0.284,0.11c2.822,0.98 6.372,0.94 9.169,-0.11c0.053,-0.02 0.106,-0.04 0.161,-0.06c3.088,-1.15 5.533,-3.45 6.948,-6.42c0.414,-0.94 0.723,-1.89 0.938,-2.89c-1.663,-0.68 -3.338,-1.32 -5.012,-1.97c-0.669,-0.26 -1.338,-0.52 -2.006,-0.78c-0.635,-0.24 -1.27,-0.49 -1.905,-0.74c-0.457,-0.17 -0.914,-0.35 -1.371,-0.53c-0.286,-0.11 -0.572,-0.22 -0.858,-0.33c-0.133,-0.06 -0.265,-0.11 -0.398,-0.16c-0.181,-0.07 -0.363,-0.14 -0.544,-0.21c-0.053,-0.02 -0.106,-0.04 -0.16,-0.06c-0.386,-0.15 -0.659,-0.18 -1.043,-0.03z" fill="currentColor"/>
<path id="Vector_15" d="M34.843,34.92c0.439,0 0.877,0 1.329,0c-0.11,1.01 -0.259,1.79 -0.938,2.58c-0.043,0.05 -0.086,0.1 -0.131,0.16c-0.62,0.69 -1.555,1.12 -2.475,1.19c-1.143,0.04 -2.059,-0.3 -2.96,-0.99c-0.265,-0.25 -0.474,-0.53 -0.684,-0.83c-0.058,0.08 -0.058,0.08 -0.117,0.16c-0.732,0.88 -1.555,1.45 -2.695,1.64c-1.073,0.07 -2.091,-0.11 -2.946,-0.8c-0.305,-0.27 -0.595,-0.55 -0.883,-0.84c-0.033,0.04 -0.066,0.08 -0.1,0.12c-0.692,0.81 -1.462,1.39 -2.556,1.52c-1.208,0.09 -2.189,-0.24 -3.144,-0.97c-0.265,-0.25 -0.474,-0.53 -0.684,-0.83c-0.039,0.05 -0.077,0.1 -0.117,0.16c-0.692,0.83 -1.518,1.48 -2.617,1.64c-1.218,0.1 -2.263,-0.16 -3.232,-0.93c-0.653,-0.59 -1.171,-1.51 -1.237,-2.4c0.005,-0.17 0.01,-0.33 0.016,-0.5c0.412,0 0.825,0 1.25,0c0.029,0.14 0.058,0.28 0.087,0.42c0.18,0.71 0.47,1.26 1.083,1.68c0.601,0.35 1.227,0.5 1.918,0.36c0.775,-0.22 1.326,-0.65 1.745,-1.33c0.169,-0.36 0.239,-0.74 0.323,-1.13c0.515,0 1.031,0 1.562,0c0.018,0.13 0.036,0.25 0.054,0.39c0.151,0.8 0.537,1.32 1.196,1.8c0.564,0.32 1.226,0.41 1.855,0.26c0.71,-0.24 1.239,-0.59 1.641,-1.23c0.185,-0.39 0.252,-0.8 0.332,-1.22c0.439,0 0.877,0 1.329,0c0.029,0.14 0.058,0.28 0.087,0.42c0.18,0.71 0.47,1.26 1.083,1.68c0.601,0.35 1.227,0.5 1.918,0.36c0.775,-0.22 1.326,-0.65 1.745,-1.33c0.169,-0.36 0.239,-0.74 0.323,-1.13c0.515,0 1.031,0 1.562,0c0.018,0.11 0.036,0.23 0.054,0.34c0.155,0.76 0.47,1.33 1.118,1.77c0.657,0.36 1.284,0.5 2.022,0.3c0.669,-0.22 1.148,-0.57 1.537,-1.16c0.208,-0.43 0.27,-0.87 0.347,-1.33z" fill="currentColor"/>
<path id="Vector_16" d="M13.594,6.8c0.258,0.12 0.442,0.26 0.649,0.46c0.056,0.05 0.112,0.1 0.17,0.16c0.118,0.16 0.118,0.16 0.104,0.31c-0.079,0.2 -0.184,0.31 -0.34,0.46c-0.057,0.06 -0.114,0.12 -0.172,0.17c-0.06,0.06 -0.12,0.12 -0.182,0.18c-0.058,0.06 -0.115,0.11 -0.175,0.17c-0.262,0.26 -0.527,0.51 -0.806,0.75c-0.404,0.35 -0.778,0.73 -1.155,1.11c-0.076,0.08 -0.152,0.15 -0.229,0.23c-0.198,0.2 -0.396,0.4 -0.594,0.6c-0.203,0.2 -0.407,0.4 -0.61,0.61c-0.397,0.4 -0.795,0.79 -1.192,1.19c-0.297,-0.14 -0.544,-0.32 -0.8,-0.53c-0.047,-0.04 -0.094,-0.07 -0.142,-0.11c-0.575,-0.46 -1.145,-0.92 -1.714,-1.39c0.103,-0.29 0.228,-0.49 0.44,-0.73c0.049,-0.05 0.098,-0.1 0.149,-0.16c0.057,-0.06 0.057,-0.06 0.114,-0.12c0.373,0.11 0.616,0.32 0.904,0.58c0.088,0.07 0.176,0.15 0.264,0.23c0.041,0.03 0.082,0.07 0.124,0.1c0.138,0.12 0.28,0.23 0.427,0.34c0.314,-0.13 0.524,-0.35 0.757,-0.59c0.043,-0.04 0.087,-0.08 0.132,-0.13c0.143,-0.14 0.286,-0.29 0.428,-0.43c0.1,-0.1 0.199,-0.2 0.298,-0.3c0.262,-0.26 0.523,-0.52 0.783,-0.79c0.267,-0.26 0.533,-0.53 0.8,-0.8c0.523,-0.52 1.046,-1.05 1.568,-1.57z" fill="currentColor"/>
</g></svg>