<svg viewBox="0 0 40 40" fill="none" xmlns="http://www.w3.org/2000/svg" xmlns:xlink="http://www.w3.org/1999/xlink" x="0" y="0"><g id="Component 85_3">
<path id="Vector_21" d="M21.641,22.73c0.079,0.02 0.158,0.04 0.24,0.05c2.129,0.45 4.699,1.18 6.342,2.69c0.269,0.19 0.461,0.21 0.787,0.24c0.054,0.01 0.109,0.02 0.166,0.02c0.114,0.01 0.228,0.02 0.343,0.03c0.261,0.03 0.522,0.06 0.783,0.09c0.102,0.01 0.204,0.02 0.309,0.04c6.577,0.75 6.577,0.75 8.406,2.93c0.359,0.48 0.445,1 0.45,1.6c0.001,0.1 0.002,0.2 0.003,0.3c0.001,0.11 0.002,0.21 0.002,0.32c0,0.05 0.001,0.11 0.001,0.16c0.002,0.29 0.003,0.58 0.004,0.87c0,0.29 0.003,0.59 0.006,0.88c0.002,0.23 0.003,0.46 0.003,0.69c0.001,0.11 0.001,0.22 0.003,0.33c0.002,0.15 0.002,0.3 0.001,0.45c0.001,0.13 0.001,0.13 0.002,0.27c-0.047,0.29 -0.15,0.41 -0.351,0.62c-0.184,0.09 -0.299,0.09 -0.504,0.1c-0.072,0 -0.144,0 -0.218,0c-0.117,0 -0.117,0 -0.236,0.01c-0.119,0 -0.119,0 -0.241,0c-0.254,0.01 -0.509,0.01 -0.764,0.01c-0.172,0.01 -0.345,0.01 -0.517,0.01c-0.423,0.01 -0.847,0.02 -1.27,0.03c-0.03,0.09 -0.03,0.09 -0.061,0.19c-0.041,0.12 -0.041,0.12 -0.082,0.25c-0.027,0.08 -0.053,0.17 -0.081,0.25c-0.423,1.16 -1.271,1.91 -2.354,2.43c-1.094,0.47 -2.275,0.4 -3.376,-0.01c-1.075,-0.5 -1.842,-1.35 -2.332,-2.42c-0.093,-0.28 -0.117,-0.55 -0.151,-0.85c-0.076,0 -0.152,0 -0.23,0c-0.974,0.01 -1.947,0.01 -2.92,0.01c-0.078,0 -0.155,0 -0.235,0c-2.701,0 -5.4,-0.02 -8.1,-0.09c-0.004,0.05 -0.009,0.1 -0.013,0.15c-0.01,0.09 -0.01,0.09 -0.02,0.19c-0.006,0.06 -0.012,0.12 -0.018,0.19c-0.142,0.95 -0.912,1.76 -1.614,2.35c-0.904,0.67 -2.03,0.9 -3.134,0.77c-1.084,-0.18 -2.106,-0.73 -2.808,-1.58c-0.423,-0.63 -0.83,-1.38 -0.83,-2.14c-0.05,0 -0.099,0.01 -0.149,0.01c-3.87,0.35 -3.87,0.35 -4.901,-0.46c-0.203,-0.18 -0.387,-0.36 -0.566,-0.56c-0.042,-0.05 -0.085,-0.1 -0.128,-0.15c-0.719,-0.83 -0.771,-1.46 -0.694,-2.54c0.008,-0.12 0.017,-0.23 0.026,-0.34c0.008,-0.12 0.017,-0.24 0.025,-0.36c0.018,-0.25 0.036,-0.5 0.055,-0.74c0.023,-0.32 0.046,-0.63 0.068,-0.95c0.018,-0.24 0.035,-0.49 0.054,-0.73c0.008,-0.12 0.016,-0.24 0.025,-0.35c0.011,-0.17 0.024,-0.33 0.036,-0.49c0.007,-0.09 0.014,-0.19 0.021,-0.28c0.043,-0.34 0.1,-0.67 0.283,-0.96c0.221,-0.14 0.435,-0.14 0.693,-0.17c0.054,-0.01 0.109,-0.01 0.165,-0.02c0.174,-0.02 0.349,-0.04 0.524,-0.05c1.204,-0.13 2.245,-0.3 3.335,-0.87c2.198,-1.09 4.542,-1.73 6.946,-2.19c0.143,-0.03 0.143,-0.03 0.288,-0.06c0.126,-0.02 0.126,-0.02 0.255,-0.04c0.199,-0.04 0.199,-0.04 0.357,-0.13c2.511,-0.41 5.393,-0.5 7.891,0zM15.801,23.82c-0.07,0 -0.141,0.01 -0.214,0.02c-0.394,0.04 -0.394,0.04 -0.743,0.22c0.327,1.18 0.327,1.18 1.113,2.03c0.174,0.06 0.351,0.11 0.528,0.16c0.129,0.05 0.258,0.09 0.386,0.14c3.151,1.13 6.637,1.07 9.77,-0.14c0.052,-0.05 0.103,-0.1 0.156,-0.16c-2.614,-1.69 -5.656,-2.36 -8.74,-2.35c-0.052,0 -0.105,0 -0.158,0c-0.702,0 -1.399,0.02 -2.098,0.08zM12.173,24.41c-0.139,0.04 -0.139,0.04 -0.281,0.07c-1.86,0.43 -3.668,1 -5.392,1.82c-1.21,0.58 -2.294,0.89 -3.629,0.98c-0.321,0.03 -0.321,0.03 -0.605,0.17c-0.099,0.14 -0.099,0.14 -0.078,0.36c0.046,0.01 0.092,0.03 0.139,0.04c0.213,0.05 0.425,0.11 0.637,0.17c0.073,0.02 0.145,0.03 0.22,0.05c0.6,0.17 1.21,0.41 1.543,0.96c0.241,0.55 0.294,1.13 0.102,1.7c-0.201,0.47 -0.574,0.73 -1,0.99c-0.605,0.2 -1.274,0.08 -1.875,-0.08c-0.109,0.45 -0.125,0.78 0.109,1.18c0.395,0.53 0.836,1 1.502,1.13c1.145,0.13 2.321,0.04 3.467,-0.04c0.031,-0.09 0.061,-0.17 0.093,-0.26c0.042,-0.11 0.083,-0.23 0.125,-0.34c0.03,-0.08 0.03,-0.08 0.061,-0.17c0.414,-1.11 1.122,-1.92 2.21,-2.42c1.166,-0.45 2.348,-0.47 3.499,0.03c1.082,0.51 1.724,1.22 2.214,2.3c0.105,0.31 0.166,0.62 0.235,0.93c0.593,0 1.186,0 1.797,0c-0.553,-1.53 -1.126,-3.05 -1.704,-4.57c-0.019,-0.05 -0.037,-0.1 -0.057,-0.15c-0.167,-0.44 -0.335,-0.88 -0.502,-1.32c-0.324,-0.85 -0.647,-1.71 -0.969,-2.56c-0.046,-0.12 -0.092,-0.24 -0.138,-0.36c-0.101,-0.27 -0.201,-0.54 -0.302,-0.8c-0.496,-0.01 -0.939,0.09 -1.421,0.19zM27.002,27.4c-0.206,0.07 -0.413,0.14 -0.62,0.21c-0.077,0.03 -0.077,0.03 -0.155,0.06c-0.733,0.24 -1.481,0.4 -2.242,0.53c-0.054,0.01 -0.107,0.02 -0.163,0.03c-2.588,0.47 -5.173,0.02 -7.65,-0.73c0.546,1.51 1.108,3.01 1.681,4.5c0.026,0.07 0.052,0.14 0.079,0.21c0.049,0.12 0.097,0.25 0.146,0.38c0.177,0.46 0.346,0.93 0.516,1.39c2.759,0 5.517,0 8.36,0c0.077,-0.3 0.154,-0.61 0.234,-0.93c0.131,-0.31 0.131,-0.31 0.268,-0.55c0.045,-0.08 0.09,-0.16 0.137,-0.25c0.134,-0.21 0.279,-0.36 0.454,-0.53c0,-0.05 0,-0.1 0,-0.16c0.046,-0.02 0.092,-0.04 0.139,-0.06c0.17,-0.09 0.3,-0.19 0.447,-0.31c0.874,-0.67 1.933,-0.88 3.008,-0.8c1.121,0.16 2.061,0.63 2.812,1.49c0.507,0.68 0.7,1.35 0.938,2.18c0.902,0 1.805,0 2.734,0c0,-1.11 0,-2.21 0,-3.36c-0.448,-0.13 -0.448,-0.13 -0.894,-0.21c-0.06,0 -0.12,-0.01 -0.181,-0.02c-0.124,-0.02 -0.247,-0.03 -0.37,-0.05c-0.561,-0.08 -0.78,-0.34 -1.12,-0.78c-0.077,-0.1 -0.155,-0.21 -0.232,-0.31c-0.042,-0.06 -0.085,-0.11 -0.128,-0.17c-0.185,-0.24 -0.349,-0.47 -0.49,-0.75c-0.168,-0.31 -0.321,-0.53 -0.663,-0.67c-0.556,-0.16 -1.129,-0.24 -1.703,-0.32c-0.1,-0.01 -0.199,-0.03 -0.302,-0.04c-0.679,-0.1 -1.36,-0.19 -2.042,-0.27c-0.074,-0.01 -0.148,-0.02 -0.224,-0.03c-0.212,-0.02 -0.423,-0.03 -0.635,-0.05c-0.118,-0.01 -0.118,-0.01 -0.239,-0.02c-0.697,-0.02 -1.251,0.15 -1.9,0.39zM36.407,28.59c0.225,0.36 0.225,0.36 0.546,0.63c0.161,0.03 0.161,0.03 0.328,0.05c0.098,0.01 0.196,0.02 0.297,0.03c-0.296,-0.34 -0.599,-0.54 -1.015,-0.71c-0.052,0 -0.103,0 -0.156,0zM2.11,29.14c-0.039,0.58 -0.039,0.58 -0.078,1.17c0.684,0.28 0.684,0.28 1.386,0.23c0.226,-0.19 0.285,-0.32 0.332,-0.62c-0.056,-0.22 -0.056,-0.22 -0.234,-0.39c-0.454,-0.21 -0.914,-0.3 -1.406,-0.39zM8.965,32.69c-0.567,0.69 -0.77,1.5 -0.683,2.39c0.185,0.89 0.641,1.54 1.372,2.07c0.702,0.43 1.406,0.52 2.221,0.43c0.285,-0.07 0.525,-0.17 0.782,-0.31c0.06,-0.04 0.12,-0.07 0.182,-0.1c0.629,-0.37 1.125,-1 1.344,-1.7c0.195,-0.85 0.101,-1.63 -0.317,-2.4c-0.43,-0.68 -1.003,-1.16 -1.782,-1.39c-1.226,-0.23 -2.282,0.09 -3.119,1.01zM28.907,32.58c-0.643,0.84 -0.8,1.62 -0.703,2.65c0.151,0.76 0.568,1.38 1.196,1.83c0.12,0.07 0.242,0.14 0.366,0.21c0.059,0.03 0.117,0.06 0.177,0.09c0.697,0.34 1.507,0.33 2.235,0.1c0.77,-0.33 1.398,-0.9 1.754,-1.66c0.306,-0.82 0.3,-1.56 -0.005,-2.38c-0.348,-0.76 -0.965,-1.33 -1.733,-1.64c-1.19,-0.42 -2.418,-0.09 -3.287,0.8z" fill="currentColor"/>
<path id="Vector_22" d="M27.656,3.12c0.052,0.03 0.104,0.06 0.157,0.09c1.174,0.62 2.208,1.38 3.203,2.26c0.042,0.04 0.084,0.07 0.128,0.11c1.383,1.21 2.483,2.67 3.387,4.26c0.027,0.05 0.054,0.1 0.081,0.14c1.257,2.2 2.332,5.27 2.029,7.83c-0.161,0.26 -0.161,0.26 -0.391,0.39c-0.273,0.05 -0.273,0.05 -0.547,0c-0.321,-0.27 -0.482,-0.54 -0.654,-0.92c-0.487,-1.02 -1.225,-1.59 -2.283,-1.99c-1.573,-0.5 -3.312,-0.39 -4.797,0.33c-0.974,0.56 -1.489,1.32 -1.875,2.35c-0.056,0.13 -0.113,0.27 -0.171,0.4c-0.035,0.09 -0.035,0.09 -0.072,0.17c-0.07,0.13 -0.07,0.13 -0.226,0.21c-0.172,0.02 -0.172,0.02 -0.376,0.03c-0.1,0.01 -0.1,0.01 -0.202,0.01c-0.298,-0.06 -0.406,-0.2 -0.594,-0.43c-0.104,-0.25 -0.104,-0.25 -0.185,-0.52c-0.351,-1.05 -1.008,-1.78 -1.988,-2.28c-0.483,-0.23 -0.97,-0.39 -1.499,-0.48c-0.082,-0.02 -0.082,-0.02 -0.167,-0.03c-1.427,-0.22 -2.97,0.07 -4.166,0.89c-0.789,0.62 -1.168,1.38 -1.502,2.31c-0.096,0.25 -0.135,0.34 -0.336,0.5c-0.181,0.05 -0.181,0.05 -0.381,0.08c-0.066,0.01 -0.132,0.02 -0.2,0.03c-0.304,-0.05 -0.403,-0.18 -0.591,-0.42c-0.087,-0.21 -0.159,-0.4 -0.225,-0.61c-0.185,-0.53 -0.395,-0.94 -0.791,-1.35c-0.051,-0.05 -0.102,-0.1 -0.155,-0.16c-0.996,-0.97 -2.418,-1.26 -3.764,-1.26c-1.15,0.02 -2.319,0.26 -3.22,1.02c-0.127,0.09 -0.127,0.09 -0.361,0.17c-0.083,0.14 -0.083,0.14 -0.156,0.31c-0.072,0.11 -0.145,0.22 -0.22,0.32c-0.219,0.33 -0.392,0.66 -0.555,1.01c-0.085,0.16 -0.085,0.16 -0.241,0.23c-0.549,0.06 -0.549,0.06 -0.82,-0.13c-0.681,-1.48 0.314,-4.24 0.83,-5.68c0.553,-1.46 1.255,-2.84 2.178,-4.11c0.033,-0.04 0.067,-0.09 0.102,-0.14c0.457,-0.63 0.965,-1.21 1.505,-1.77c0.103,-0.11 0.204,-0.22 0.306,-0.33c0.479,-0.49 1.001,-0.92 1.551,-1.33c0.115,-0.09 0.229,-0.18 0.344,-0.26c5.07,-3.83 12.359,-4.26 17.91,-1.25zM17.891,3.59c-0.232,0.33 -0.432,0.67 -0.625,1.02c-0.045,0.08 -0.09,0.16 -0.136,0.24c-1.625,3.04 -2.456,7.31 -2.364,10.77c0.101,-0.09 0.101,-0.09 0.205,-0.19c1.654,-1.41 3.529,-1.78 5.654,-1.68c1.587,0.13 2.81,0.85 3.985,1.87c-0.091,-4.01 -0.672,-9.31 -3.472,-12.39c-0.525,-0.48 -0.913,-0.76 -1.637,-0.75c-0.701,0.07 -1.176,0.6 -1.61,1.11zM22.5,2.73c0.095,0.26 0.2,0.47 0.361,0.69c2.294,3.39 2.686,8 2.999,11.97c0.298,0 0.343,-0.08 0.561,-0.27c1.541,-1.27 3.547,-1.53 5.482,-1.35c1.082,0.14 2.047,0.54 2.941,1.15c0.051,0.03 0.103,0.05 0.156,0.08c-0.042,-0.49 -0.129,-0.94 -0.283,-1.41c-0.021,-0.06 -0.042,-0.12 -0.063,-0.19c-1.235,-3.73 -3.729,-6.91 -7.154,-8.87c-0.052,-0.03 -0.104,-0.06 -0.157,-0.09c-1.376,-0.79 -3.221,-1.71 -4.843,-1.71zM12.478,4.23c-0.118,0.06 -0.237,0.12 -0.356,0.18c-3.438,1.76 -6.071,5.12 -7.266,8.75c-0.185,0.59 -0.341,1.15 -0.403,1.76c0.28,-0.1 0.536,-0.23 0.798,-0.37c1.644,-0.88 3.772,-1.05 5.558,-0.51c1.058,0.37 1.854,0.87 2.707,1.58c0.005,-0.07 0.011,-0.14 0.016,-0.21c0.331,-4.25 0.803,-9.13 3.421,-12.68c-1.511,0 -3.165,0.8 -4.475,1.5z" fill="currentColor"/>
<path id="Vector_23" d="M32.539,32.79c0.52,0.43 0.844,0.92 0.917,1.6c0.02,0.64 -0.145,1.18 -0.536,1.69c-0.434,0.46 -1.009,0.69 -1.636,0.72c-0.634,-0.01 -1.111,-0.22 -1.596,-0.63c-0.5,-0.54 -0.583,-1.12 -0.572,-1.84c0.053,-0.57 0.31,-1.04 0.728,-1.44c0.85,-0.52 1.826,-0.69 2.695,-0.1zM30.547,34.06c-0.177,0.22 -0.156,0.34 -0.151,0.62c0.051,0.34 0.199,0.5 0.464,0.71c0.276,0.14 0.568,0.08 0.859,0c0.229,-0.19 0.357,-0.33 0.428,-0.62c0.023,-0.31 -0.028,-0.5 -0.223,-0.74c-0.237,-0.23 -0.289,-0.27 -0.615,-0.3c-0.346,0.02 -0.498,0.11 -0.762,0.33z" fill="currentColor"/>
<path id="Vector_24" d="M12.539,32.79c0.52,0.43 0.844,0.92 0.917,1.6c0.02,0.64 -0.145,1.18 -0.536,1.69c-0.434,0.46 -1.009,0.69 -1.636,0.72c-0.634,-0.01 -1.111,-0.22 -1.596,-0.63c-0.5,-0.54 -0.583,-1.12 -0.572,-1.84c0.053,-0.57 0.31,-1.04 0.728,-1.44c0.85,-0.52 1.826,-0.69 2.695,-0.1zM10.547,34.06c-0.177,0.22 -0.156,0.34 -0.151,0.62c0.051,0.34 0.199,0.5 0.464,0.71c0.276,0.14 0.568,0.08 0.859,0c0.229,-0.19 0.357,-0.33 0.428,-0.62c0.023,-0.31 -0.028,-0.5 -0.223,-0.74c-0.237,-0.23 -0.289,-0.27 -0.615,-0.3c-0.346,0.02 -0.498,0.11 -0.762,0.33z" fill="currentColor"/>
</g></svg>