<svg viewBox="0 0 16.5 16.5" fill="none" xmlns="http://www.w3.org/2000/svg" x="0" y="0"><path id="Vector_12" d="M2.515,0.75h2.401c0.681,0 1.294,0.415 1.547,1.048l0.887,2.216c0.264,0.662 0.01,1.417 -0.601,1.784c-0.648,0.388 -0.898,1.217 -0.474,1.842c0.69,1.017 1.568,1.895 2.585,2.585c0.626,0.424 1.454,0.174 1.842,-0.474c0.367,-0.611 1.122,-0.865 1.784,-0.601l2.216,0.887c0.633,0.253 1.048,0.866 1.048,1.547v2.401c0,0.468 -0.186,0.917 -0.517,1.248c-0.331,0.331 -0.78,0.517 -1.248,0.517c-3.442,-0.209 -6.688,-1.671 -9.126,-4.109c-2.438,-2.438 -3.9,-5.684 -4.109,-9.126c0,-0.468 0.186,-0.917 0.517,-1.248c0.331,-0.331 0.78,-0.517 1.248,-0.517z" stroke="#AF060D" stroke-width="1.5" stroke-linecap="round" stroke-linejoin="round"/></svg>