<svg viewBox="0 0 23 23" fill="none" xmlns="http://www.w3.org/2000/svg" xmlns:xlink="http://www.w3.org/1999/xlink" x="0" y="0"><path id="Vector_43" d="M5.421,22h16.579M14.263,4.32l4.421,4.42M16.617,1.92c0.293,-0.29 0.641,-0.52 1.023,-0.68c0.383,-0.16 0.793,-0.24 1.207,-0.24c0.414,0 0.824,0.08 1.206,0.24c0.383,0.16 0.731,0.39 1.023,0.68c0.293,0.3 0.526,0.64 0.684,1.03c0.158,0.38 0.24,0.79 0.24,1.2c0,0.42 -0.082,0.83 -0.24,1.21c-0.158,0.38 -0.391,0.73 -0.684,1.02l-15.602,15.62h-4.474v-4.47z" stroke="#AF060D" stroke-width="2" stroke-linecap="round" stroke-linejoin="round"/></svg>