<svg viewBox="0 0 20.6667 25.3333" fill="none" xmlns="http://www.w3.org/2000/svg" xmlns:xlink="http://www.w3.org/1999/xlink" x="0" y="0"><path id="Vector_42" d="M12.667,0.9967h-9.334c-0.619,0 -1.212,0.25 -1.65,0.69c-0.437,0.43 -0.683,1.03 -0.683,1.65v18.66c0,0.62 0.246,1.22 0.683,1.65c0.438,0.44 1.031,0.69 1.65,0.69h14c0.619,0 1.213,-0.25 1.65,-0.69c0.438,-0.43 0.684,-1.03 0.684,-1.65v-14M12.667,0.9967l7,7M12.667,0.9967v7h7M15,13.8367h-9.333M15,18.4967h-9.333M8,9.1667h-2.333" stroke="#AF060D" stroke-width="2" stroke-linecap="round" stroke-linejoin="round"/></svg>