<svg viewBox="0 0 20.6667 25.3333" fill="none" xmlns="http://www.w3.org/2000/svg" xmlns:xlink="http://www.w3.org/1999/xlink" x="0" y="0"><path id="Vector_45" d="M15.003,3.3367h2.33c0.62,0 1.21,0.24 1.65,0.68c0.44,0.44 0.68,1.03 0.68,1.65v16.33c0,0.62 -0.24,1.22 -0.68,1.65c-0.44,0.44 -1.03,0.69 -1.65,0.69h-14c-0.62,0 -1.21,-0.25 -1.65,-0.69c-0.44,-0.43 -0.68,-1.03 -0.68,-1.65v-16.33c0,-0.62 0.24,-1.21 0.68,-1.65c0.44,-0.44 1.03,-0.68 1.65,-0.68h2.33M6.833,14.9967l2.33,2.34l4.67,-4.67M6.833,0.9967h7c0.64,0 1.17,0.53 1.17,1.17v2.33c0,0.65 -0.53,1.17 -1.17,1.17h-7c-0.64,0 -1.17,-0.52 -1.17,-1.17v-2.33c0,-0.64 0.53,-1.17 1.17,-1.17z" stroke="#AF060D" stroke-width="2" stroke-linecap="round" stroke-linejoin="round"/></svg>