<svg viewBox="0 0 13.3333 14.6667" fill="none" xmlns="http://www.w3.org/2000/svg" xmlns:xlink="http://www.w3.org/1999/xlink" x="0" y="0"><path id="Vector_12" d="M6.6667,0.6664c1.559,1.531 3.595,2.328 5.675,2.223c0.303,1.143 0.395,2.341 0.272,3.525c-0.123,1.183 -0.459,2.327 -0.988,3.364c-0.53,1.036 -1.241,1.944 -2.093,2.669c-0.852,0.726 -1.827,1.254 -2.866,1.553c-1.039,-0.299 -2.014,-0.827 -2.866,-1.553c-0.852,-0.725 -1.5633,-1.633 -2.0927,-2.669c-0.5294,-1.037 -0.8655,-2.181 -0.9885,-3.364c-0.1231,-1.184 -0.0304,-2.382 0.2724,-3.525c2.0798,0.105 4.1158,-0.692 5.6748,-2.223z" stroke="#AF060D" stroke-width="1.33333" stroke-linecap="round" stroke-linejoin="round"/></svg>