<svg viewBox="0 0 14.72 12.4911" fill="none" xmlns="http://www.w3.org/2000/svg" xmlns:xlink="http://www.w3.org/1999/xlink" x="0" y="0"><path id="Vector_69" d="M0.902,5.4373c0,0 6.511,-2.74 8.769,-3.7c0.865,-0.39 3.8,-1.63 3.8,-1.63c0,0 1.355,-0.54 1.242,0.78c-0.037,0.54 -0.338,2.43 -0.639,4.48c-0.452,2.89 -0.941,6.06 -0.941,6.06c0,0 -0.075,0.89 -0.715,1.04c-0.64,0.16 -1.694,-0.54 -1.882,-0.69c-0.15,-0.12 -2.822,-1.86 -3.801,-2.71c-0.263,-0.23 -0.564,-0.69 0.038,-1.23c1.355,-1.28 2.973,-2.86 3.951,-3.86c0.452,-0.47 0.903,-1.55 -0.978,-0.24c-2.672,1.9 -5.306,3.67 -5.306,3.67c0,0 -0.602,0.39 -1.731,0.04c-1.129,-0.35 -2.446,-0.81 -2.446,-0.81c0,0 -0.903,-0.58 0.639,-1.2z" fill="currentColor"/></svg>