<svg viewBox="0 0 16.6667 18.3333" fill="none" xmlns="http://www.w3.org/2000/svg" xmlns:xlink="http://www.w3.org/1999/xlink" x="0" y="0"><path id="Vector_18" d="M0.8333,4.1666h1.67M2.5033,4.1666h13.33M2.5033,4.1666l0.83,11.67c0,0.44 0.18,0.86 0.49,1.18c0.31,0.31 0.73,0.48 1.18,0.48h6.66c0.45,0 0.87,-0.17 1.18,-0.48c0.31,-0.32 0.49,-0.74 0.49,-1.18l0.83,-11.67M5.0033,4.1666v-1.67c0,-0.44 0.17,-0.86 0.48,-1.18c0.32,-0.31 0.74,-0.48 1.18,-0.48h3.34c0.44,0 0.86,0.17 1.18,0.48c0.31,0.32 0.48,0.74 0.48,1.18v1.67M6.6633,8.3366v5M10.0033,8.3366v5" stroke="#374151" stroke-width="1.66667" stroke-linecap="round" stroke-linejoin="round"/></svg>