<svg viewBox="0 0 40 40" fill="none" xmlns="http://www.w3.org/2000/svg" xmlns:xlink="http://www.w3.org/1999/xlink" x="0" y="0"><defs><clipPath id="clip7_5086_2452">
<rect width="40" height="40" fill="white" transform="translate(0, 0)"/>
</clipPath></defs><g id="Component 85_2" clip-path="url(#clip7_5086_2452)">
<path id="Vector_17" d="M17.202,-0.04c0.264,0 0.527,0 0.791,0c3.605,-0.01 7.31,1.3 10.132,3.56c0.07,0.05 0.14,0.11 0.212,0.16c1.813,1.45 3.24,3.14 4.397,5.15c0.032,0.05 0.063,0.11 0.096,0.16c1.273,2.23 2.093,4.95 2.108,7.52c0,0.07 0.001,0.13 0.001,0.2c0.002,0.22 0.002,0.44 0.002,0.65c0,0.08 0,0.15 0,0.23c-0.001,1.05 -0.023,2.08 -0.254,3.11c-0.023,0.11 -0.023,0.11 -0.047,0.22c-0.106,0.48 -0.222,0.95 -0.343,1.42c-0.03,0.12 -0.06,0.24 -0.09,0.36c-0.022,0.09 -0.044,0.18 -0.067,0.27c1.637,0.91 3.261,1.64 5.168,1.55c0.419,-0.01 0.419,-0.01 0.591,0.09c0.152,0.23 0.134,0.46 0.132,0.73c0.001,0.09 0.001,0.09 0.002,0.18c0.001,0.19 0.001,0.39 0.001,0.58c0,0.14 0,0.27 0.001,0.41c0.001,0.29 0,0.57 0,0.86c-0.001,0.36 0,0.72 0.003,1.08c0.001,0.29 0.001,0.57 0.001,0.85c0,0.13 0,0.27 0.001,0.4c0.015,2.35 -0.709,4.68 -2.15,6.55c-0.054,0.07 -0.108,0.14 -0.164,0.22c-1.242,1.57 -2.853,2.85 -4.757,3.53c-0.463,0.04 -0.795,-0.03 -1.216,-0.23c-0.054,-0.02 -0.107,-0.05 -0.162,-0.07c-0.931,-0.44 -1.757,-0.97 -2.529,-1.65c-0.064,-0.06 -0.129,-0.11 -0.196,-0.17c-1.405,-1.21 -2.586,-2.96 -3.085,-4.75c0,-0.08 0,-0.16 0,-0.24c-0.071,0.04 -0.142,0.08 -0.216,0.12c-4.21,2.19 -9.088,2.54 -13.612,1.13c-3.293,-1.08 -6.353,-3.17 -8.424,-5.97c-0.085,-0.11 -0.172,-0.23 -0.259,-0.34c-0.434,-0.58 -0.802,-1.19 -1.161,-1.81c-0.026,-0.05 -0.053,-0.1 -0.08,-0.14c-1.444,-2.49 -2.09,-5.33 -2.07,-8.18c0.002,-0.28 0,-0.57 -0.002,-0.85c-0.001,-1.14 0.101,-2.22 0.355,-3.33c0.019,-0.09 0.039,-0.18 0.059,-0.27c0.046,-0.2 0.096,-0.4 0.151,-0.59c0.02,-0.07 0.039,-0.14 0.059,-0.22c0.737,-2.54 2.081,-4.84 3.86,-6.79c0.152,-0.16 0.3,-0.34 0.446,-0.51c0.222,-0.25 0.456,-0.47 0.713,-0.69c0.132,-0.11 0.261,-0.22 0.389,-0.34c3.055,-2.72 7.147,-4.18 11.213,-4.15zM7.187,4.53c-0.044,0.04 -0.089,0.07 -0.134,0.11c-0.932,0.77 -1.777,1.59 -2.522,2.55c-0.056,0.07 -0.112,0.14 -0.17,0.21c-2.677,3.45 -3.782,7.81 -3.299,12.12c0.528,4.15 2.684,8.16 5.974,10.77c3.565,2.73 7.94,4.17 12.443,3.59c1.605,-0.23 3.178,-0.64 4.661,-1.3c0.057,-0.03 0.113,-0.05 0.17,-0.08c0.176,-0.08 0.35,-0.16 0.524,-0.24c0.054,-0.02 0.109,-0.05 0.165,-0.07c0.291,-0.14 0.291,-0.14 0.45,-0.4c0.025,-0.29 -0.011,-0.55 -0.052,-0.83c-0.089,-0.68 -0.109,-1.35 -0.108,-2.03c-0.001,-0.11 -0.001,-0.23 -0.001,-0.35c-0.001,-0.25 -0.001,-0.49 0,-0.74c0,-0.31 -0.001,-0.62 -0.003,-0.94c-0.001,-0.24 -0.001,-0.48 -0.001,-0.73c0,-0.11 0,-0.23 -0.001,-0.34c-0.001,-0.16 -0.001,-0.33 0,-0.49c0,-0.09 0,-0.18 0,-0.27c0.029,-0.23 0.029,-0.23 0.131,-0.37c0.224,-0.15 0.476,-0.1 0.733,-0.09c2.155,0.05 4.219,-0.98 5.951,-2.2c0.233,-0.15 0.366,-0.22 0.651,-0.21c0.073,0.02 0.145,0.04 0.22,0.07c0.104,0.02 0.208,0.05 0.312,0.07c0.075,-0.3 0.15,-0.61 0.225,-0.91c0.021,-0.09 0.042,-0.17 0.063,-0.26c0.998,-4.11 0.29,-8.54 -1.867,-12.17c-0.632,-1.03 -1.374,-2 -2.212,-2.87c-0.08,-0.08 -0.159,-0.16 -0.238,-0.24c-1.045,-1.11 -2.232,-2 -3.549,-2.76c-0.056,-0.04 -0.112,-0.07 -0.169,-0.1c-5.679,-3.25 -13.291,-2.72 -18.347,1.5zM32.007,23.59c-1.468,1 -3.2,1.74 -4.973,1.89c-0.076,0 -0.151,0.01 -0.229,0.02c-0.185,0.01 -0.37,0.03 -0.555,0.05c-0.006,0.59 -0.01,1.19 -0.012,1.78c-0.002,0.28 -0.003,0.55 -0.006,0.83c-0.031,3.32 0.574,6.03 2.83,8.56c0.047,0.05 0.093,0.1 0.141,0.16c0.76,0.8 1.701,1.36 2.672,1.87c0.072,0.04 0.144,0.08 0.219,0.12c0.06,0.03 0.12,0.06 0.181,0.09c0.049,0.02 0.097,0.05 0.147,0.07c0.65,0.12 1.702,-0.65 2.22,-1c0.512,-0.38 0.988,-0.8 1.452,-1.23c0.069,-0.06 0.069,-0.06 0.139,-0.13c1.792,-1.66 2.682,-4.21 2.829,-6.59c0.01,-0.36 0.009,-0.72 0.008,-1.08c0,-0.1 0,-0.2 0,-0.31c-0.001,-0.26 -0.001,-0.52 -0.002,-0.78c-0.001,-0.26 -0.002,-0.53 -0.002,-0.8c-0.001,-0.52 -0.002,-1.04 -0.004,-1.56c-0.045,-0.01 -0.091,-0.01 -0.138,-0.01c-0.211,-0.02 -0.422,-0.04 -0.633,-0.06c-0.072,0 -0.143,-0.01 -0.217,-0.02c-1.695,-0.15 -3.317,-0.91 -4.729,-1.82c-0.54,-0.35 -0.791,-0.45 -1.338,-0.05z" fill="currentColor"/>
<path id="Vector_18" d="M24.383,9.72c0.437,0.36 0.804,0.73 0.886,1.3c0.022,0.63 -0.089,1.1 -0.504,1.58c-0.198,0.21 -0.399,0.41 -0.603,0.61c-0.075,0.07 -0.149,0.14 -0.224,0.22c-0.194,0.19 -0.39,0.38 -0.586,0.57c-0.314,0.31 -0.627,0.62 -0.94,0.93c-0.109,0.11 -0.218,0.21 -0.328,0.32c-0.066,0.06 -0.132,0.13 -0.201,0.2c-0.087,0.08 -0.087,0.08 -0.176,0.17c-0.236,0.26 -0.303,0.4 -0.293,0.76c0.074,0.53 0.227,1.05 0.368,1.57c0.053,0.19 0.105,0.39 0.156,0.58c0.147,0.56 0.295,1.11 0.445,1.66c0.092,0.34 0.183,0.68 0.273,1.02c0.034,0.13 0.068,0.26 0.104,0.39c0.559,2.03 0.559,2.03 0.079,2.93c-0.257,0.38 -0.525,0.76 -0.964,0.94c-0.493,0.05 -0.692,0 -1.094,-0.31c-0.117,-0.19 -0.21,-0.37 -0.301,-0.57c-0.053,-0.11 -0.107,-0.22 -0.16,-0.34c-0.041,-0.08 -0.041,-0.08 -0.082,-0.17c-0.13,-0.28 -0.268,-0.55 -0.406,-0.82c-0.055,-0.11 -0.109,-0.22 -0.164,-0.33c-0.027,-0.05 -0.054,-0.1 -0.082,-0.16c-0.526,-1.05 -1.043,-2.1 -1.539,-3.16c-0.256,0.04 -0.385,0.12 -0.568,0.3c-0.072,0.07 -0.072,0.07 -0.145,0.14c-0.051,0.05 -0.102,0.11 -0.155,0.16c-0.053,0.05 -0.106,0.1 -0.16,0.16c-0.112,0.11 -0.223,0.22 -0.335,0.33c-0.169,0.17 -0.341,0.34 -0.512,0.51c-0.109,0.11 -0.217,0.22 -0.326,0.33c-0.051,0.05 -0.102,0.1 -0.155,0.15c-0.274,0.28 -0.453,0.49 -0.535,0.89c0.014,0.2 0.014,0.2 0.068,0.4c0.108,0.51 0.23,1.12 -0.019,1.6c-0.172,0.25 -0.324,0.45 -0.596,0.58c-0.454,0.08 -0.799,0.07 -1.21,-0.15c-0.37,-0.28 -0.548,-0.69 -0.753,-1.1c-0.47,-0.92 -0.855,-1.37 -1.787,-1.84c-1.204,-0.6 -1.204,-0.6 -1.406,-1.21c-0.042,-0.37 -0.037,-0.63 0.132,-0.96c0.273,-0.32 0.471,-0.53 0.893,-0.59c0.359,-0.03 0.684,0.03 1.035,0.1c0.494,0.11 0.494,0.11 0.958,-0.04c0.495,-0.45 0.972,-0.92 1.446,-1.39c0.147,-0.15 0.294,-0.29 0.442,-0.44c0.093,-0.09 0.186,-0.19 0.279,-0.28c0.045,-0.04 0.089,-0.08 0.134,-0.13c0.253,-0.24 0.253,-0.24 0.306,-0.57c-0.063,-0.02 -0.127,-0.04 -0.192,-0.06c-0.333,-0.11 -0.643,-0.26 -0.96,-0.42c-0.066,-0.03 -0.131,-0.06 -0.199,-0.1c-0.212,-0.1 -0.424,-0.21 -0.636,-0.31c-0.29,-0.14 -0.58,-0.29 -0.87,-0.43c-0.071,-0.03 -0.142,-0.07 -0.215,-0.1c-0.397,-0.2 -0.796,-0.39 -1.197,-0.57c-0.083,-0.04 -0.166,-0.08 -0.251,-0.12c-0.145,-0.07 -0.292,-0.13 -0.438,-0.2c-0.407,-0.19 -0.652,-0.36 -0.901,-0.73c-0.107,-0.32 -0.116,-0.6 -0.005,-0.91c0.557,-0.64 1.1,-0.97 1.954,-1.04c0.401,-0.01 0.767,0.08 1.152,0.18c0.087,0.02 0.174,0.04 0.263,0.06c1.225,0.31 2.443,0.64 3.66,0.97c0.264,0.07 0.528,0.14 0.793,0.21c0.146,0.04 0.293,0.08 0.439,0.12c0.089,0.03 0.178,0.05 0.269,0.07c0.117,0.03 0.117,0.03 0.235,0.07c0.321,0.05 0.575,0.03 0.851,-0.15c0.047,-0.04 0.093,-0.09 0.141,-0.13c0.053,-0.05 0.107,-0.1 0.161,-0.15c0.082,-0.08 0.082,-0.08 0.165,-0.16c0.08,-0.08 0.08,-0.08 0.162,-0.16c0.172,-0.17 0.342,-0.35 0.512,-0.52c0.127,-0.13 0.254,-0.26 0.381,-0.38c0.198,-0.2 0.396,-0.4 0.593,-0.61c0.193,-0.19 0.385,-0.39 0.579,-0.58c0.058,-0.06 0.116,-0.12 0.177,-0.18c0.77,-0.78 1.693,-1.2 2.682,-0.51zM21.739,11.63c-0.13,0.13 -0.26,0.26 -0.389,0.4c-0.202,0.2 -0.404,0.41 -0.604,0.61c-0.195,0.21 -0.392,0.41 -0.589,0.61c-0.089,0.09 -0.089,0.09 -0.179,0.18c-0.478,0.48 -0.95,0.79 -1.642,0.81c-0.355,-0.01 -0.674,-0.08 -1.016,-0.17c-0.06,-0.02 -0.121,-0.03 -0.183,-0.05c-0.131,-0.03 -0.261,-0.07 -0.391,-0.11c-0.206,-0.05 -0.413,-0.11 -0.62,-0.16c-0.513,-0.14 -1.026,-0.27 -1.539,-0.41c-0.435,-0.12 -0.869,-0.23 -1.304,-0.35c-0.203,-0.05 -0.405,-0.11 -0.607,-0.16c-1.041,-0.3 -1.041,-0.3 -2.09,-0.15c-0.205,0.14 -0.253,0.22 -0.352,0.44c0.862,0.44 1.726,0.87 2.598,1.28c0.225,0.11 0.449,0.22 0.674,0.33c0.172,0.08 0.345,0.16 0.517,0.24c0.281,0.14 0.56,0.27 0.84,0.41c0.088,0.04 0.176,0.08 0.267,0.13c0.081,0.04 0.163,0.08 0.247,0.12c0.072,0.03 0.145,0.07 0.219,0.11c0.299,0.2 0.398,0.43 0.488,0.77c0.017,0.51 -0.157,0.86 -0.495,1.23c-0.11,0.11 -0.222,0.22 -0.334,0.33c-0.06,0.06 -0.119,0.12 -0.18,0.18c-0.125,0.13 -0.25,0.25 -0.376,0.37c-0.192,0.19 -0.382,0.38 -0.572,0.57c-0.122,0.13 -0.244,0.25 -0.367,0.37c-0.056,0.05 -0.113,0.11 -0.171,0.17c-0.356,0.35 -0.668,0.63 -1.182,0.69c-0.087,-0.01 -0.174,-0.01 -0.264,-0.01c-0.094,0 -0.189,0 -0.286,-0.01c-0.438,-0.02 -0.874,-0.05 -1.31,-0.09c-0.039,0.16 -0.039,0.16 -0.078,0.31c0.36,0.23 0.721,0.44 1.095,0.64c0.081,0.05 0.081,0.05 0.165,0.09c0.108,0.06 0.216,0.12 0.325,0.17c0.717,0.39 1.032,1 1.398,1.71c0.08,0.15 0.161,0.31 0.243,0.46c0.035,0.07 0.07,0.14 0.106,0.21c0.103,0.18 0.103,0.18 0.339,0.32c0.131,-0.09 0.131,-0.09 0.235,-0.24c-0.006,-0.22 -0.006,-0.22 -0.064,-0.47c-0.056,-0.32 -0.11,-0.63 -0.122,-0.96c-0.002,-0.05 -0.004,-0.11 -0.006,-0.17c0.115,-0.63 0.526,-1.04 0.966,-1.47c0.059,-0.06 0.119,-0.12 0.18,-0.18c0.125,-0.13 0.251,-0.25 0.377,-0.37c0.192,-0.19 0.384,-0.39 0.575,-0.58c0.122,-0.12 0.245,-0.24 0.367,-0.36c0.057,-0.06 0.114,-0.11 0.173,-0.17c0.054,-0.06 0.108,-0.11 0.163,-0.16c0.047,-0.05 0.094,-0.1 0.142,-0.14c0.265,-0.23 0.488,-0.3 0.833,-0.31c0.064,0 0.128,0 0.194,0c0.323,0.05 0.575,0.2 0.768,0.48c0.089,0.15 0.169,0.32 0.247,0.48c0.03,0.06 0.06,0.12 0.091,0.18c0.097,0.2 0.192,0.4 0.287,0.6c0.066,0.13 0.132,0.27 0.199,0.4c0.191,0.39 0.379,0.78 0.567,1.17c0.049,0.1 0.098,0.21 0.147,0.31c0.181,0.37 0.361,0.75 0.539,1.12c0.182,0.39 0.372,0.77 0.564,1.15c0.372,-0.34 0.537,-0.56 0.56,-1.07c-0.003,-0.34 -0.072,-0.64 -0.163,-0.97c-0.024,-0.09 -0.024,-0.09 -0.049,-0.18c-0.034,-0.13 -0.069,-0.26 -0.105,-0.39c-0.056,-0.21 -0.11,-0.41 -0.165,-0.62c-0.155,-0.59 -0.313,-1.17 -0.47,-1.76c-0.097,-0.36 -0.193,-0.72 -0.288,-1.08c-0.036,-0.13 -0.072,-0.27 -0.11,-0.4c-0.511,-1.87 -0.511,-1.87 -0.182,-2.62c0.2,-0.33 0.469,-0.6 0.749,-0.87c0.054,-0.05 0.108,-0.11 0.163,-0.16c0.171,-0.17 0.343,-0.34 0.514,-0.5c0.171,-0.17 0.342,-0.34 0.512,-0.51c0.106,-0.1 0.212,-0.2 0.318,-0.31c0.302,-0.29 0.587,-0.6 0.861,-0.92c0.121,-0.14 0.121,-0.14 0.346,-0.34c0.202,-0.23 0.244,-0.36 0.244,-0.66c-0.147,-0.35 -0.389,-0.57 -0.703,-0.78c-0.772,-0.17 -1.369,0.74 -1.855,1.24z" fill="currentColor"/>
<path id="Vector_19" d="M36.182,26.81c0.224,0.06 0.224,0.06 0.38,0.3c-0.014,0.44 -0.161,0.73 -0.41,1.08c-0.034,0.05 -0.069,0.1 -0.104,0.15c-0.114,0.17 -0.23,0.33 -0.345,0.5c-0.08,0.11 -0.16,0.23 -0.241,0.35c-0.126,0.18 -0.252,0.36 -0.379,0.55c-0.313,0.45 -0.623,0.91 -0.93,1.37c-0.044,0.06 -0.088,0.13 -0.132,0.19c-0.171,0.26 -0.342,0.51 -0.513,0.77c-0.735,1.09 -0.735,1.09 -1.079,1.56c-0.038,0.05 -0.076,0.11 -0.115,0.16c-0.169,0.15 -0.291,0.18 -0.517,0.19c-0.349,-0.23 -0.583,-0.51 -0.835,-0.85c-0.067,-0.09 -0.135,-0.18 -0.202,-0.27c-0.034,-0.04 -0.069,-0.09 -0.105,-0.14c-0.185,-0.24 -0.376,-0.49 -0.567,-0.73c-0.053,-0.07 -0.053,-0.07 -0.107,-0.13c-0.155,-0.2 -0.311,-0.4 -0.473,-0.59c-0.133,-0.18 -0.133,-0.18 -0.167,-0.42c0.034,-0.23 0.034,-0.23 0.117,-0.37c0.241,-0.14 0.425,-0.12 0.698,-0.09c0.197,0.17 0.197,0.17 0.376,0.41c0.032,0.04 0.065,0.08 0.098,0.12c0.068,0.09 0.136,0.18 0.203,0.27c0.106,0.14 0.215,0.28 0.325,0.42c0.547,0.69 0.547,0.69 0.639,0.97c0.208,-0.2 0.379,-0.4 0.537,-0.64c0.043,-0.06 0.087,-0.13 0.132,-0.2c0.073,-0.11 0.073,-0.11 0.146,-0.22c0.11,-0.17 0.221,-0.33 0.331,-0.5c0.031,-0.05 0.061,-0.09 0.093,-0.14c0.451,-0.68 0.905,-1.36 1.36,-2.04c0.103,-0.15 0.206,-0.31 0.308,-0.46c0.146,-0.22 0.292,-0.44 0.439,-0.66c0.044,-0.06 0.088,-0.13 0.133,-0.2c0.041,-0.06 0.083,-0.12 0.125,-0.18c0.054,-0.08 0.054,-0.08 0.109,-0.17c0.205,-0.25 0.338,-0.38 0.672,-0.36z" fill="currentColor"/>
<path id="Vector_20" d="M9.844,7.19c0.219,0.18 0.234,0.3 0.274,0.59c-0.013,0.09 -0.026,0.18 -0.039,0.27c-0.169,0.11 -0.169,0.11 -0.391,0.23c-1.169,0.67 -1.994,1.4 -2.656,2.58c-0.035,0.06 -0.069,0.12 -0.105,0.18c-0.318,0.64 -0.423,1.4 -0.481,2.1c-0.04,0.3 -0.048,0.36 -0.274,0.53c-0.318,0.04 -0.432,0.03 -0.703,-0.15c-0.026,-0.21 -0.037,-0.4 -0.034,-0.6c0.001,-0.06 0.001,-0.12 0.002,-0.19c0.042,-1.39 0.658,-2.73 1.595,-3.75c0.058,-0.06 0.117,-0.13 0.177,-0.19c0.49,-0.52 1.023,-0.91 1.62,-1.29c0.056,-0.04 0.112,-0.07 0.169,-0.11c0.287,-0.18 0.508,-0.26 0.846,-0.2z" fill="currentColor"/>
</g></svg>