<svg viewBox="0 0 16.3341 13.4766" fill="none" xmlns="http://www.w3.org/2000/svg" xmlns:xlink="http://www.w3.org/1999/xlink" x="0" y="0"><path id="Vector_68" d="M16.2613,1.6155c-0.528,0.23 -1.084,0.39 -1.653,0.47c0.266,-0.04 0.658,-0.52 0.813,-0.71c0.237,-0.3 0.417,-0.63 0.532,-0.99c0,-0.03 0.027,-0.06 0,-0.08c-0.013,-0.01 -0.028,-0.01 -0.043,-0.01c-0.016,0 -0.031,0 -0.044,0.01c-0.618,0.33 -1.275,0.59 -1.957,0.76c-0.023,0.01 -0.049,0.01 -0.073,0c-0.024,-0.01 -0.046,-0.02 -0.063,-0.04c-0.053,-0.06 -0.111,-0.12 -0.171,-0.17c-0.278,-0.25 -0.594,-0.46 -0.935,-0.61c-0.461,-0.19 -0.958,-0.27 -1.455,-0.24c-0.482,0.03 -0.953,0.16 -1.383,0.38c-0.424,0.23 -0.796,0.55 -1.094,0.93c-0.314,0.39 -0.541,0.84 -0.665,1.33c-0.103,0.46 -0.114,0.94 -0.034,1.41c0,0.08 0,0.09 -0.069,0.08c-2.709,-0.4 -4.931,-1.36 -6.747,-3.43c-0.08,-0.09 -0.122,-0.09 -0.186,0c-0.791,1.2 -0.407,3.1 0.581,4.04c0.133,0.13 0.27,0.25 0.414,0.36c-0.453,-0.03 -0.895,-0.15 -1.299,-0.36c-0.076,-0.05 -0.118,-0.02 -0.122,0.07c-0.011,0.13 -0.011,0.26 0,0.38c0.079,0.61 0.318,1.18 0.692,1.67c0.374,0.48 0.869,0.86 1.436,1.08c0.138,0.06 0.282,0.11 0.429,0.14c-0.419,0.08 -0.849,0.09 -1.273,0.04c-0.091,-0.02 -0.125,0.03 -0.091,0.11c0.558,1.52 1.77,1.99 2.659,2.25c0.122,0.02 0.244,0.02 0.38,0.05c0,0 0,0 -0.022,0.02c-0.263,0.48 -1.323,0.8 -1.809,0.97c-0.887,0.32 -1.834,0.44 -2.773,0.36c-0.149,-0.03 -0.183,-0.02 -0.221,0c-0.038,0.02 0,0.06 0.042,0.1c0.19,0.12 0.38,0.23 0.578,0.34c0.588,0.32 1.21,0.57 1.854,0.76c3.335,0.92 7.089,0.24 9.593,-2.25c1.968,-1.95 2.659,-4.65 2.659,-7.35c0,-0.1 0.126,-0.16 0.198,-0.22c0.498,-0.38 0.937,-0.84 1.303,-1.36c0.064,-0.07 0.096,-0.17 0.091,-0.27c0,-0.06 0,-0.05 -0.072,-0.02z" fill="currentColor"/></svg>