<svg width="40" height="40" viewBox="0 0 40 40" fill="none" xmlns="http://www.w3.org/2000/svg">
<path d="M15 5H6.66667C5.74619 5 5 5.74619 5 6.66667V13.3333C5 14.2538 5.74619 15 6.66667 15H15C15.9205 15 16.6667 14.2538 16.6667 13.3333V6.66667C16.6667 5.74619 15.9205 5 15 5Z" stroke="#161616" stroke-width="2" stroke-linecap="round" stroke-linejoin="round"/>
<path d="M33.3333 5H25C24.0795 5 23.3333 5.74619 23.3333 6.66667V16.6667C23.3333 17.5871 24.0795 18.3333 25 18.3333H33.3333C34.2538 18.3333 35 17.5871 35 16.6667V6.66667C35 5.74619 34.2538 5 33.3333 5Z" stroke="#161616" stroke-width="2" stroke-linecap="round" stroke-linejoin="round"/>
<path d="M33.3333 25H25C24.0795 25 23.3333 25.7462 23.3333 26.6667V33.3333C23.3333 34.2538 24.0795 35 25 35H33.3333C34.2538 35 35 34.2538 35 33.3333V26.6667C35 25.7462 34.2538 25 33.3333 25Z" stroke="#161616" stroke-width="2" stroke-linecap="round" stroke-linejoin="round"/>
<path d="M15 21.6667H6.66667C5.74619 21.6667 5 22.4129 5 23.3333V33.3333C5 34.2538 5.74619 35 6.66667 35H15C15.9205 35 16.6667 34.2538 16.6667 33.3333V23.3333C16.6667 22.4129 15.9205 21.6667 15 21.6667Z" stroke="#161616" stroke-width="2" stroke-linecap="round" stroke-linejoin="round"/>
</svg>
