<svg width="40" height="40" viewBox="0 0 40 40" fill="none" xmlns="http://www.w3.org/2000/svg">
<g clip-path="url(#clip0_5209_43099)">
<path d="M19.2966 0.390625C19.7349 0.390625 20.1732 0.390625 20.6248 0.390625C20.6248 0.880469 20.6248 1.37031 20.6248 1.875C20.8737 1.86775 20.8737 1.86775 21.1277 1.86035C25.6747 1.82719 30.524 3.67561 34.0623 6.48438C34.1045 6.51753 34.1467 6.55069 34.1901 6.58485C34.6013 6.90877 34.99 7.24203 35.3532 7.61902C35.4762 7.74684 35.4762 7.74684 35.6638 7.88574C35.9464 8.11888 36.1702 8.39247 36.406 8.67188C36.4658 8.74046 36.5257 8.80904 36.5873 8.8797C38.3408 10.9217 39.5803 13.4984 39.6336 16.2256C39.6365 16.3242 39.6394 16.4228 39.6424 16.5244C39.6036 16.8425 39.5242 16.9661 39.2966 17.1875C39.0128 17.2841 38.8871 17.2925 38.6131 17.168C38.352 16.9649 38.27 16.7904 38.2224 16.4746C38.0834 15.8209 37.6896 15.3565 37.1565 14.9707C35.1844 13.7407 32.6253 13.5852 30.3935 14.0625C29.2773 14.3247 27.9445 14.7645 27.2715 15.7605C27.1168 16.0857 27.0457 16.4381 26.9675 16.7883C26.8748 17.0312 26.8748 17.0312 26.6874 17.182C26.4072 17.2973 26.2274 17.2627 25.9373 17.1875C25.6836 17.0011 25.6514 16.7993 25.5906 16.499C25.421 15.7818 25.0478 15.3454 24.4529 14.9219C23.2367 14.2044 22.0222 14.0028 20.6248 13.8281C20.6506 14.8594 20.6763 15.8906 20.7029 16.9531C20.9607 17.082 21.2185 17.2109 21.4841 17.3438C21.6726 17.4983 21.8373 17.6441 22.0061 17.8166C22.0528 17.8627 22.0995 17.9089 22.1476 17.9564C22.3019 18.1094 22.4548 18.2637 22.6078 18.4181C22.7189 18.5288 22.8301 18.6394 22.9414 18.75C23.242 19.0492 23.5414 19.3496 23.8405 19.6503C24.1544 19.9654 24.4692 20.2795 24.7838 20.5937C25.3118 21.1214 25.8391 21.6498 26.3658 22.1788C26.9743 22.7897 27.5839 23.3994 28.1943 24.0084C28.7824 24.5952 29.3695 25.1829 29.9563 25.771C30.2056 26.0209 30.4553 26.2705 30.7052 26.5198C30.9995 26.8135 31.293 27.1079 31.5859 27.403C31.6933 27.511 31.801 27.6187 31.909 27.7261C32.0567 27.8731 32.2034 28.0211 32.3499 28.1693C32.3925 28.2113 32.4352 28.2533 32.4791 28.2965C33.0703 28.9006 33.2329 29.53 33.2246 30.3601C33.1726 30.9951 32.8935 31.5279 32.4216 31.9531C31.8026 32.4272 31.1632 32.5722 30.3904 32.5C30.2099 32.4484 30.0295 32.3969 29.8435 32.3438C29.8177 34.3031 29.792 36.2625 29.7654 38.2812C30.4099 38.2812 31.0545 38.2812 31.7185 38.2812C31.7185 38.7195 31.7185 39.1578 31.7185 39.6094C23.9841 39.6094 16.2498 39.6094 8.28102 39.6094C8.28102 39.1711 8.28102 38.7328 8.28102 38.2812C8.92556 38.2812 9.57009 38.2812 10.2341 38.2812C10.2084 36.3219 10.1826 34.3625 10.156 32.3438C10.0271 32.3953 9.89821 32.4469 9.7654 32.5C8.91548 32.5892 8.2258 32.4768 7.55348 31.9385C7.1093 31.5213 6.82832 31.0082 6.77803 30.3998C6.75931 29.5817 6.91791 28.9975 7.46077 28.3797C7.66043 28.1991 7.85914 28.0744 8.0899 27.9386C8.96977 27.4067 9.83657 26.7187 10.156 25.7031C10.4754 24.229 10.3477 22.6269 10.2991 21.1305C10.2967 21.0535 10.2942 20.9764 10.2917 20.8969C10.2793 20.5278 10.2638 20.1592 10.2418 19.7905C10.2369 19.6895 10.2369 19.6895 10.2318 19.5866C10.2257 19.4616 10.218 19.3368 10.2084 19.2121C10.195 18.9061 10.2212 18.7677 10.404 18.5176C10.6459 18.3442 10.7511 18.3104 11.0443 18.3101C11.1261 18.3091 11.208 18.3081 11.2923 18.3071C11.3799 18.3081 11.4675 18.3092 11.5577 18.3102C11.6936 18.31 11.6936 18.31 11.8323 18.3097C12.0236 18.3097 12.2149 18.3108 12.4061 18.3127C12.6992 18.3154 12.9921 18.3144 13.2851 18.3128C13.471 18.3134 13.657 18.3141 13.8429 18.3151C13.9306 18.3147 14.0183 18.3144 14.1087 18.3139C14.1903 18.3152 14.2719 18.3164 14.356 18.3177C14.4636 18.3184 14.4636 18.3184 14.5733 18.3192C14.8325 18.3734 14.9227 18.4589 15.0779 18.6719C15.1205 18.8938 15.1205 18.8938 15.1255 19.1467C15.128 19.2374 15.1305 19.328 15.1331 19.4214C15.1342 19.5156 15.1354 19.6099 15.1365 19.707C15.1388 19.8025 15.1411 19.898 15.1435 19.9963C15.149 20.2319 15.1532 20.4675 15.156 20.7031C15.198 20.6606 15.2401 20.618 15.2834 20.5742C15.6804 20.1724 16.0781 19.7712 16.4763 19.3707C16.681 19.1648 16.8855 18.9586 17.0895 18.752C17.2865 18.5524 17.4842 18.3534 17.6822 18.1547C17.7574 18.079 17.8325 18.0031 17.9074 17.927C18.0126 17.8201 18.1187 17.7139 18.2248 17.6078C18.3148 17.517 18.3148 17.517 18.4067 17.4243C18.6818 17.1907 18.9309 17.0312 19.2966 17.0312C19.2966 15.9742 19.2966 14.9172 19.2966 13.8281C16.6908 14.2094 16.6908 14.2094 14.6531 15.7669C14.4976 16.0134 14.4299 16.2565 14.3748 16.5381C14.3293 16.7681 14.2975 16.8738 14.1599 17.0703C13.9354 17.22 13.7854 17.2601 13.5154 17.2656C13.2433 17.1487 13.1449 17.0793 13.0293 16.8027C13.0076 16.7154 12.9859 16.628 12.9636 16.5381C12.7321 15.7141 12.2821 15.2246 11.5598 14.7742C10.3712 14.1354 9.06839 13.9134 7.73415 13.8281C7.66335 13.8234 7.59255 13.8187 7.51961 13.8138C5.78845 13.7628 3.89125 14.1733 2.49977 15.2344C2.12777 15.5856 1.8647 15.9139 1.76186 16.4218C1.74917 16.4844 1.73648 16.5469 1.72341 16.6113C1.71303 16.6703 1.70266 16.7294 1.69197 16.7902C1.63125 16.982 1.56288 17.0633 1.40602 17.1875C1.06837 17.2829 0.855213 17.2808 0.546649 17.1094C0.357305 16.8254 0.363397 16.6129 0.365985 16.2842C0.366426 16.2254 0.366866 16.1666 0.36732 16.1061C0.426444 13.2804 1.81024 10.6537 3.67165 8.59375C3.71076 8.54993 3.74987 8.50611 3.79017 8.46096C4.24473 7.95252 4.70305 7.46119 5.23415 7.03125C5.32001 6.96004 5.40586 6.88884 5.49172 6.81763C6.15874 6.26942 6.84657 5.77119 7.5779 5.3125C7.62798 5.28092 7.67805 5.24933 7.72965 5.21679C11.1228 3.09671 15.2796 1.79623 19.2966 1.875C19.2966 1.38516 19.2966 0.895312 19.2966 0.390625ZM17.4998 4.6875C15.5028 7.27289 14.7935 10.8181 14.4529 13.9844C14.7252 13.8818 14.9687 13.7602 15.2195 13.6133C17.6431 12.281 20.7122 12.2034 23.3329 12.9537C24.0009 13.1629 24.6976 13.4644 25.2592 13.8861C25.3839 14 25.3839 14 25.5466 13.9844C25.1933 10.5352 24.3662 6.11192 21.5623 3.75C19.9935 2.6588 18.6117 3.35052 17.4998 4.6875ZM4.7654 9.45312C4.46509 9.8071 4.18361 10.175 3.90602 10.5469C3.85627 10.6126 3.80652 10.6784 3.75527 10.7462C2.74551 12.112 2.74551 12.112 2.2654 13.6719C2.49199 13.5832 2.71518 13.4896 2.93801 13.3917C5.52585 12.2629 8.66878 12.1552 11.3133 13.1885C11.9614 13.4607 12.5646 13.7938 13.1248 14.2188C13.1361 14.1379 13.1474 14.0571 13.1591 13.9738C13.5521 11.1956 14.0788 8.48101 15.3123 5.9375C15.3373 5.88576 15.3624 5.83402 15.3882 5.78072C15.7612 5.02269 16.2154 4.3489 16.7185 3.67188C16.7701 3.59453 16.8216 3.51719 16.8748 3.4375C12.6192 3.24915 7.54823 6.4006 4.7654 9.45312ZM23.1248 3.4375C23.1538 3.47508 23.1828 3.51267 23.2127 3.55139C25.5688 6.64148 26.377 10.4432 26.8748 14.2188C26.9241 14.1856 26.9735 14.1525 27.0243 14.1183C29.4187 12.5485 32.3026 12.1655 35.0971 12.7344C35.8546 12.9048 36.5566 13.1491 37.2584 13.4802C37.4949 13.5972 37.4949 13.5972 37.7341 13.6719C37.3338 11.7989 35.8825 10.1802 34.6091 8.82812C34.5609 8.77656 34.5127 8.725 34.463 8.67188C34.0747 8.26961 33.64 7.92552 33.2029 7.57812C33.1283 7.51689 33.0536 7.45566 32.9768 7.39258C32.24 6.80245 31.4444 6.32527 30.6248 5.85938C30.5633 5.82429 30.5018 5.78921 30.4385 5.75306C28.6018 4.71595 26.5902 4.03534 24.531 3.59863C24.4142 3.57382 24.4142 3.57382 24.295 3.54851C23.8972 3.4686 23.5305 3.41891 23.1248 3.4375ZM18.8231 18.8813C18.7552 18.9486 18.7552 18.9486 18.6859 19.0173C18.535 19.1674 18.3848 19.3182 18.2347 19.4691C18.1264 19.5771 18.0181 19.685 17.9097 19.7929C17.6159 20.0856 17.3228 20.3791 17.0299 20.6728C16.7232 20.98 16.416 21.2867 16.1089 21.5934C15.5933 22.1086 15.0783 22.6242 14.5635 23.1401C13.9682 23.7367 13.3721 24.3324 12.7755 24.9277C12.2633 25.4388 11.7516 25.9504 11.2402 26.4623C10.9348 26.7681 10.6292 27.0737 10.3233 27.3789C10.0357 27.6658 9.74874 27.9533 9.4622 28.2411C9.3569 28.3468 9.2514 28.4522 9.14568 28.5574C9.00152 28.7009 8.85811 28.8451 8.71486 28.9895C8.67277 29.0311 8.63068 29.0727 8.58732 29.1155C8.27622 29.4315 8.14334 29.6736 8.09548 30.1123C8.14142 30.5488 8.32762 30.7668 8.657 31.0449C8.95759 31.1982 9.11923 31.2187 9.4529 31.1719C9.8389 30.9766 10.122 30.7662 10.4293 30.4575C10.4689 30.4181 10.5085 30.3786 10.5493 30.338C10.6806 30.2069 10.811 30.075 10.9415 29.943C11.0359 29.8484 11.1304 29.7538 11.225 29.6593C11.4807 29.4033 11.7356 29.1466 11.9905 28.8898C12.2574 28.6212 12.525 28.3532 12.7926 28.0851C13.2989 27.5777 13.8047 27.0697 14.3102 26.5614C15.2166 25.6502 16.1239 24.7399 17.0315 23.8299C17.35 23.5104 17.6683 23.1906 17.9865 22.8707C18.1839 22.6722 18.3814 22.4739 18.579 22.2756C18.6709 22.1833 18.7627 22.091 18.8544 21.9986C18.9791 21.8729 19.1042 21.7475 19.2292 21.6221C19.3342 21.5165 19.3342 21.5165 19.4414 21.4088C19.6296 21.2307 19.7176 21.181 19.9705 21.1328C20.6755 21.2373 21.2796 22.1302 21.7689 22.6234C21.8591 22.7139 21.9492 22.8044 22.0394 22.8949C22.2324 23.0887 22.4253 23.2827 22.6182 23.4767C22.9233 23.7836 23.2288 24.0901 23.5343 24.3965C24.4028 25.2676 25.2709 26.139 26.1382 27.0112C26.6181 27.4937 27.0983 27.9759 27.5791 28.4575C27.8828 28.7619 28.1861 29.0668 28.4889 29.3721C28.6774 29.5618 28.8663 29.751 29.0554 29.9401C29.1429 30.0277 29.2301 30.1156 29.3171 30.2036C29.4361 30.324 29.5558 30.4436 29.6758 30.563C29.7759 30.6636 29.7759 30.6636 29.878 30.7662C30.1338 30.9854 30.3899 31.1552 30.7298 31.1914C31.1788 31.1393 31.4048 31.0322 31.7185 30.7031C31.9175 30.4318 31.9031 30.1725 31.8748 29.8438C31.7173 29.4586 31.4888 29.19 31.1966 28.9015C31.1293 28.8336 31.1293 28.8336 31.0606 28.7643C30.9105 28.6133 30.7597 28.4632 30.6088 28.3131C30.5008 28.2048 30.3929 28.0964 30.285 27.988C29.9923 27.6942 29.6988 27.4012 29.4051 27.1082C29.0979 26.8016 28.7912 26.4944 28.4845 26.1873C27.9693 25.6717 27.4537 25.1566 26.9378 24.6418C26.3412 24.0465 25.7455 23.4504 25.1502 22.8538C24.6391 22.3416 24.1275 21.8299 23.6156 21.3186C23.3098 21.0132 23.0042 20.7076 22.699 20.4016C22.4121 20.1141 22.1246 19.8271 21.8367 19.5406C21.7311 19.4352 21.6257 19.3297 21.5205 19.224C21.377 19.0799 21.2328 18.9365 21.0884 18.7932C21.0468 18.7511 21.0052 18.709 20.9624 18.6657C20.6628 18.3707 20.4226 18.2232 20.0047 18.1787C19.495 18.2307 19.1703 18.5297 18.8231 18.8813ZM11.5623 19.6875C11.5623 21.2086 11.5623 22.7297 11.5623 24.2969C11.7427 24.1422 11.9232 23.9875 12.1091 23.8281C12.2464 23.7222 12.3838 23.6166 12.5214 23.5114C13.439 22.7649 13.439 22.7649 13.8451 21.6966C13.8899 21.0231 13.8286 20.3562 13.7498 19.6875C13.0279 19.6875 12.306 19.6875 11.5623 19.6875ZM19.5855 23.0034C19.515 23.0633 19.4444 23.1232 19.3717 23.185C19.2941 23.2519 19.2165 23.3188 19.1365 23.3877C19.0963 23.4223 19.056 23.4569 19.0146 23.4925C17.8954 24.4558 16.8071 25.4526 15.7322 26.4648C15.6826 26.5114 15.633 26.5581 15.5819 26.6061C12.2754 29.6244 12.2754 29.6244 10.9773 33.7567C10.9682 34.2441 10.9956 34.7248 11.0398 35.21C11.047 35.2888 11.0541 35.3675 11.0615 35.4487C11.1563 36.4184 11.3422 37.3238 11.5623 38.2812C13.1349 38.2812 14.7076 38.2812 16.3279 38.2812C16.3317 37.799 16.3356 37.3167 16.3395 36.8198C16.3423 36.5146 16.3451 36.2095 16.348 35.9044C16.3528 35.4198 16.3573 34.9353 16.3609 34.4507C16.3637 34.0602 16.3674 33.6696 16.3715 33.2791C16.3729 33.1299 16.3741 32.9807 16.375 32.8316C16.3763 32.623 16.3786 32.4144 16.3811 32.2059C16.3813 32.1439 16.3815 32.0819 16.3816 32.018C16.3862 31.7211 16.3936 31.5812 16.5623 31.3281C16.8474 31.2331 17.1095 31.2385 17.4064 31.2387C17.4994 31.2383 17.4994 31.2383 17.5943 31.2379C17.7995 31.2371 18.0047 31.237 18.2099 31.2369C18.3525 31.2366 18.495 31.2364 18.6376 31.2361C18.9364 31.2356 19.2353 31.2355 19.5342 31.2355C19.9173 31.2355 20.3004 31.2345 20.6836 31.2331C20.978 31.2323 21.2724 31.2321 21.5668 31.2321C21.7081 31.232 21.8494 31.2317 21.9906 31.2311C22.1881 31.2303 22.3856 31.2306 22.5831 31.231C22.6415 31.2306 22.6999 31.2301 22.7601 31.2297C23.048 31.2314 23.2757 31.2364 23.5154 31.4062C23.6397 31.6548 23.6076 31.9239 23.6096 32.197C23.6103 32.2626 23.6111 32.3281 23.6119 32.3956C23.6144 32.6129 23.6163 32.8302 23.6182 33.0475C23.6199 33.1979 23.6215 33.3483 23.6232 33.4987C23.6275 33.8951 23.6313 34.2914 23.6351 34.6878C23.6397 35.1631 23.6449 35.6384 23.65 36.1137C23.6576 36.8362 23.6646 37.5587 23.6716 38.2812C25.2443 38.2812 26.817 38.2812 28.4373 38.2812C28.676 37.2426 28.8642 36.263 28.9597 35.21C28.9704 35.0926 28.9704 35.0926 28.9813 34.973C29.1482 32.8895 28.7143 31.2347 27.3751 29.6386C26.4099 28.5129 25.347 27.4792 24.2674 26.4648C24.2176 26.418 24.1678 26.3711 24.1165 26.3228C23.0525 25.3214 21.9711 24.3401 20.863 23.3877C20.7854 23.3208 20.7078 23.2539 20.6278 23.185C20.5573 23.125 20.4867 23.0651 20.414 23.0034C20.3525 22.9511 20.291 22.8987 20.2277 22.8448C19.9403 22.6329 19.8283 22.7969 19.5855 23.0034ZM17.656 32.5C17.656 34.4078 17.656 36.3156 17.656 38.2812C19.2029 38.2812 20.7498 38.2812 22.3435 38.2812C22.3435 36.3734 22.3435 34.4656 22.3435 32.5C20.7966 32.5 19.2498 32.5 17.656 32.5Z" fill="#161616"/>
</g>
<defs>
<clipPath id="clip0_5209_43099">
<rect width="40" height="40" fill="white"/>
</clipPath>
</defs>
</svg>
