<svg width="40" height="40" viewBox="0 0 40 40" fill="none" xmlns="http://www.w3.org/2000/svg">
<path d="M10.708 1.11906C11.107 1.21097 11.2614 1.47308 11.4841 1.79685C12.3647 2.86628 13.3749 3.48781 14.7653 3.67185C15.1908 3.70981 15.5727 3.67181 15.9909 3.58885C16.3454 3.51916 16.6042 3.49203 16.9528 3.59373C17.1119 3.73377 17.1794 3.84715 17.2072 4.05823C17.2144 4.25175 17.2135 4.44381 17.2101 4.63743C17.2098 4.70808 17.2094 4.77874 17.2091 4.85153C17.2078 5.07682 17.2048 5.30205 17.2019 5.52732C17.2007 5.68021 17.1996 5.83311 17.1987 5.986C17.1963 6.36049 17.1917 6.73486 17.1872 7.10935C17.8575 7.10935 18.5278 7.10935 19.2185 7.10935C19.2164 6.94337 19.2144 6.77738 19.2123 6.60637C19.2058 6.05756 19.2015 5.50876 19.1982 4.95992C19.1962 4.6272 19.1934 4.29452 19.189 3.96183C19.1847 3.64067 19.1824 3.31955 19.1814 2.99836C19.1807 2.87591 19.1793 2.75347 19.1772 2.63104C19.1743 2.45932 19.1739 2.28775 19.1741 2.11601C19.1732 2.01834 19.1724 1.92067 19.1715 1.82003C19.2327 1.48453 19.3357 1.3718 19.6091 1.17185C19.8462 1.12225 19.8462 1.12225 20.1134 1.12131C20.264 1.11946 20.264 1.11946 20.4176 1.11758C20.5265 1.11828 20.6354 1.11908 20.7443 1.11997C20.8567 1.11971 20.9691 1.11933 21.0814 1.11884C21.3165 1.11827 21.5516 1.1191 21.7867 1.12093C22.0875 1.12315 22.3882 1.12187 22.689 1.11953C22.921 1.11812 23.1528 1.11857 23.3847 1.11958C23.4956 1.11984 23.6065 1.11952 23.7174 1.11861C23.8726 1.11762 24.0277 1.11941 24.1829 1.12131C24.2711 1.12162 24.3592 1.12193 24.4501 1.12225C24.771 1.18938 24.8849 1.29983 25.0778 1.56248C25.1248 1.82003 25.1248 1.82003 25.1222 2.11601C25.1222 2.17017 25.1223 2.22433 25.1224 2.28013C25.1221 2.45815 25.119 2.63601 25.116 2.814C25.1153 2.93781 25.1147 3.06161 25.1143 3.18542C25.1128 3.51052 25.109 3.83555 25.1047 4.16062C25.1007 4.49263 25.0989 4.82466 25.0969 5.15669C25.0927 5.80761 25.0861 6.45847 25.0778 7.10935C25.1408 7.10866 25.2037 7.10796 25.2685 7.10725C25.8617 7.10099 26.4548 7.09623 27.048 7.09316C27.3529 7.09153 27.6578 7.08932 27.9628 7.08578C28.2571 7.08238 28.5514 7.08051 28.8457 7.0797C28.958 7.07913 29.0702 7.078 29.1825 7.07631C29.3397 7.07404 29.497 7.07391 29.6543 7.07388C29.7438 7.07318 29.8334 7.07249 29.9256 7.07177C30.156 7.10935 30.156 7.10935 30.3413 7.22526C30.5248 7.50902 30.5096 7.77598 30.5039 8.10278C30.504 8.1714 30.504 8.24003 30.5041 8.31073C30.5039 8.53734 30.5014 8.76386 30.499 8.99046C30.4984 9.14765 30.4979 9.30485 30.4976 9.46204C30.4964 9.87562 30.4934 10.2892 30.4899 10.7027C30.4867 11.1248 30.4853 11.5469 30.4837 11.969C30.4804 12.797 30.475 13.6251 30.4685 14.4531C30.5284 14.4523 30.5883 14.4515 30.65 14.4506C30.9215 14.4474 31.193 14.4453 31.4646 14.4433C31.5588 14.442 31.6531 14.4407 31.7502 14.4394C31.8408 14.4389 31.9315 14.4384 32.0249 14.4378C32.1083 14.437 32.1918 14.4362 32.2778 14.4354C32.5044 14.4535 32.6276 14.4784 32.8122 14.6094C33.0151 14.881 32.9895 15.1846 32.9862 15.5095C32.9862 15.5683 32.9862 15.627 32.9863 15.6875C32.9862 15.8811 32.9849 16.0747 32.9837 16.2683C32.9834 16.4027 32.9832 16.5371 32.983 16.6716C32.9825 17.025 32.9809 17.3785 32.9792 17.7319C32.9776 18.0927 32.9769 18.4536 32.9761 18.8144C32.9744 19.5221 32.9717 20.2298 32.9685 20.9375C33.0186 20.9521 33.0687 20.9667 33.1203 20.9818C33.7148 21.1574 34.2901 21.3676 34.8679 21.5918C34.9664 21.6288 35.0649 21.6658 35.1634 21.7029C35.2573 21.7393 35.3513 21.7758 35.448 21.8133C35.5326 21.8458 35.6173 21.8783 35.7045 21.9117C35.9729 22.0496 36.1397 22.1858 36.3278 22.4219C36.3568 22.6174 36.3568 22.6174 36.3272 22.8216C36.311 22.9346 36.311 22.9346 36.2945 23.0498C36.2223 23.4229 36.1331 23.7861 36.0251 24.1504C36.0014 24.2305 35.9776 24.3107 35.9532 24.3933C35.2479 26.6786 34.0682 28.6667 32.4216 30.3906C32.3263 30.4921 32.3263 30.4921 32.229 30.5957C30.1096 32.7941 26.7936 34.3272 23.7272 34.3876C23.5714 34.3891 23.4157 34.3902 23.2599 34.3908C23.1759 34.3913 23.0918 34.3917 23.0053 34.3922C22.8276 34.3929 22.65 34.3934 22.4724 34.3937C22.2057 34.3945 21.939 34.3969 21.6722 34.3994C20.3641 34.4058 19.1096 34.3077 17.8513 33.9306C17.7839 33.9108 17.7165 33.891 17.6471 33.8706C15.5739 33.2399 13.6912 32.1758 12.1428 30.6563C12.0372 30.5529 11.9297 30.4514 11.8222 30.35C9.79306 28.3996 8.30148 25.384 7.93367 22.5985C7.98867 22.3192 8.14529 22.2146 8.35908 22.0312C8.57554 21.9183 8.79993 21.836 9.02956 21.7538C9.09316 21.7301 9.15677 21.7064 9.22231 21.6819C9.42412 21.6069 9.62644 21.5334 9.82881 21.4599C9.96633 21.4091 10.1038 21.3582 10.2413 21.3072C10.5769 21.1826 10.9133 21.0601 11.2497 20.9375C11.2755 20.0609 11.3013 19.1844 11.3278 18.2812C11.1216 18.3586 10.9153 18.4359 10.7028 18.5156C9.72108 18.6666 8.49296 17.7911 7.70784 17.2449C7.193 16.8663 6.71355 16.4547 6.24971 16.0156C6.18153 15.9525 6.11335 15.8893 6.04311 15.8243C5.19108 15.0088 3.7427 13.5038 3.6611 12.2623C3.66076 12.2008 3.66043 12.1393 3.66009 12.076C3.65925 11.9698 3.65925 11.9698 3.65839 11.8616C3.65818 11.7841 3.65797 11.7067 3.65776 11.6269C3.65724 11.5452 3.65673 11.4635 3.6562 11.3793C3.65466 11.1085 3.65375 10.8378 3.65297 10.567C3.65265 10.4746 3.65233 10.3822 3.652 10.287C3.65037 9.79827 3.64926 9.30951 3.64853 8.82074C3.64766 8.31536 3.64497 7.81 3.64187 7.30463C3.63983 6.91645 3.63917 6.52827 3.63889 6.14007C3.63851 5.95374 3.6376 5.76741 3.63616 5.58108C3.63426 5.32054 3.63432 5.06006 3.63487 4.79952C3.63337 4.68383 3.63337 4.68383 3.63184 4.56581C3.63442 4.22697 3.64049 4.03596 3.8184 3.74065C4.01913 3.56265 4.1054 3.54895 4.36983 3.56443C4.43499 3.56705 4.50014 3.56967 4.56728 3.57237C4.76533 3.59373 4.76533 3.59373 4.95363 3.6334C6.18216 3.86688 7.39533 3.51371 8.4131 2.82682C8.97253 2.40405 9.37761 1.88397 9.78487 1.31834C10.0898 1.11044 10.3439 1.10346 10.708 1.11906ZM20.4685 2.42185C20.4685 3.96873 20.4685 5.5156 20.4685 7.10935C21.5771 7.10935 22.6856 7.10935 23.8278 7.10935C23.8278 5.56248 23.8278 4.0156 23.8278 2.42185C22.7192 2.42185 21.6106 2.42185 20.4685 2.42185ZM10.3903 2.65623C10.3599 2.69319 10.3295 2.73015 10.2982 2.76823C9.29679 3.95189 8.11226 4.698 6.56221 4.92185C6.27548 4.94558 5.98879 4.95787 5.70131 4.96854C5.62599 4.97172 5.55067 4.9749 5.47307 4.97817C5.28925 4.98586 5.10543 4.99312 4.92158 4.99998C4.90521 5.90666 4.89276 6.8133 4.88515 7.7201C4.8815 8.14129 4.87656 8.56237 4.86854 8.98349C4.86084 9.39078 4.85668 9.79796 4.85487 10.2053C4.85359 10.3598 4.85107 10.5143 4.84724 10.6688C4.82168 11.7442 4.97424 12.4187 5.62471 13.2812C5.68518 13.3667 5.74535 13.4523 5.80516 13.5382C6.78506 14.9255 8.5714 16.8154 10.3122 17.1875C10.6945 17.1598 10.9964 17.0224 11.3278 16.8408C11.3786 16.8132 11.4294 16.7856 11.4817 16.7571C13.0342 15.8923 14.44 14.63 15.3773 13.1137C15.4685 12.9687 15.4685 12.9687 15.5862 12.8114C16.0722 12.0809 15.9967 11.3126 15.983 10.4703C15.9821 10.3121 15.9814 10.1539 15.981 9.99576C15.9792 9.58204 15.9746 9.1684 15.9694 8.75471C15.9646 8.33154 15.9625 7.90836 15.9601 7.48518C15.9551 6.65674 15.9471 5.82837 15.9372 4.99998C15.8846 5.00022 15.832 5.00045 15.7778 5.0007C15.7082 5.00088 15.6386 5.00107 15.5669 5.00126C15.4982 5.00149 15.4295 5.00173 15.3587 5.00197C13.2811 4.98151 11.8189 4.09262 10.3903 2.65623ZM17.1872 8.35935C17.1614 9.72576 17.1356 11.0922 17.1091 12.5C16.4146 13.8021 16.4146 13.8021 16.0959 14.2547C16.0081 14.3617 16.0081 14.3617 16.0153 14.4531C20.3724 14.4531 24.7294 14.4531 29.2185 14.4531C29.2185 12.4422 29.2185 10.4312 29.2185 8.35935C25.2481 8.35935 21.2778 8.35935 17.1872 8.35935ZM14.0622 16.4844C13.9541 16.5738 13.8439 16.6609 13.7302 16.7431C13.6811 16.7787 13.6321 16.8142 13.5816 16.8509C13.5339 16.8846 13.4863 16.9183 13.4372 16.9531C13.3872 16.9893 13.3371 17.0254 13.2855 17.0627C13.078 17.2122 12.8688 17.3581 12.656 17.5C12.6351 17.7216 12.6288 17.9261 12.6331 18.1476C12.6334 18.2115 12.6337 18.2754 12.6341 18.3413C12.6354 18.5459 12.6383 18.7505 12.6413 18.9551C12.6425 19.0936 12.6436 19.2322 12.6445 19.3707C12.6471 19.7107 12.6511 20.0506 12.656 20.3906C13.1444 20.2322 13.6254 20.0593 14.1046 19.8752C14.1754 19.8481 14.2462 19.821 14.3191 19.7931C14.5509 19.7044 14.7827 19.6154 15.0144 19.5263C15.0942 19.4957 15.174 19.4651 15.2562 19.4336C16.6477 18.9001 18.0363 18.3592 19.4231 17.8137C19.7611 17.6808 20.0994 17.5486 20.4378 17.4169C20.6207 17.3453 20.8031 17.2725 20.9855 17.1995C21.0964 17.156 21.2074 17.1125 21.3184 17.0691C21.4132 17.0314 21.508 16.9937 21.6057 16.9549C22.1613 16.7899 22.5625 16.8986 23.0802 17.1045C23.1435 17.1288 23.2068 17.1531 23.2721 17.1782C23.4804 17.2586 23.6883 17.3402 23.8962 17.4219C24.043 17.4787 24.1897 17.5355 24.3366 17.5922C24.7175 17.7397 25.0981 17.8882 25.4784 18.0372C25.7635 18.1487 26.0488 18.2599 26.3341 18.371C26.8028 18.5536 27.2713 18.7363 27.7397 18.9197C28.635 19.27 29.5315 19.6171 30.4294 19.9609C30.4872 19.9831 30.545 20.0053 30.6046 20.0282C30.7651 20.0897 30.9256 20.1511 31.0861 20.2124C31.1766 20.247 31.2671 20.2816 31.3603 20.3172C31.5386 20.3951 31.5386 20.3951 31.6403 20.3906C31.6403 18.8437 31.6403 17.2969 31.6403 15.7031C29.4753 15.6855 27.3104 15.6711 25.1453 15.6626C24.14 15.6586 23.1347 15.6531 22.1294 15.6442C21.2531 15.6364 20.3767 15.6313 19.5003 15.6296C19.0364 15.6286 18.5726 15.6262 18.1087 15.6205C17.6717 15.6152 17.2348 15.6136 16.7977 15.6147C16.6377 15.6145 16.4776 15.613 16.3176 15.61C15.2777 15.5914 14.7587 15.6596 14.0622 16.4844ZM21.6252 18.2414C21.5606 18.2671 21.496 18.2929 21.4295 18.3194C21.3595 18.3479 21.2895 18.3764 21.2174 18.4057C21.1435 18.4353 21.0697 18.4648 20.9936 18.4953C20.8338 18.5592 20.674 18.6234 20.5144 18.6878C20.0875 18.86 19.6598 19.0303 19.2322 19.2007C19.1452 19.2354 19.0583 19.2701 18.9687 19.3058C18.1582 19.6285 17.3439 19.9404 16.528 20.249C14.9808 20.8349 13.4391 21.4345 11.8989 22.0386C11.6662 22.1299 11.4334 22.2209 11.2006 22.312C10.993 22.3933 10.7853 22.4747 10.5777 22.5561C10.4383 22.6107 10.2988 22.6653 10.1594 22.72C10.0778 22.752 9.99618 22.784 9.91212 22.8171C9.80647 22.8585 9.80647 22.8585 9.69867 22.9008C9.53095 22.9662 9.53095 22.9662 9.37471 23.0469C9.46822 23.5746 9.59607 24.075 9.7751 24.5801C9.79898 24.6475 9.82286 24.715 9.84747 24.7846C10.0826 25.4312 10.3698 26.0392 10.7028 26.6406C10.73 26.69 10.7572 26.7394 10.7852 26.7903C11.5757 28.2096 12.6173 29.476 13.906 30.4687C13.9764 30.5256 14.0467 30.5825 14.1193 30.6412C15.1129 31.4237 16.2318 32.0008 17.4216 32.4219C17.5155 32.4562 17.6095 32.4905 17.7063 32.5259C20.5275 33.5139 24.0784 33.4688 26.8747 32.4219C26.9279 32.4022 26.9811 32.3826 27.0359 32.3624C30.1239 31.2055 32.5691 28.9128 33.9841 25.9375C34.3978 25.0022 34.7068 24.0459 34.9216 23.0469C33.2587 22.3712 31.5837 21.7266 29.9097 21.079C29.2409 20.8202 28.5723 20.5609 27.9037 20.3014C27.269 20.055 26.6342 19.8091 25.9993 19.5633C25.5419 19.3861 25.0847 19.2082 24.6278 19.0298C24.3421 18.9184 24.0563 18.8074 23.7704 18.6965C23.6375 18.6448 23.5046 18.5929 23.3718 18.5408C23.1906 18.4697 23.0092 18.3994 22.8278 18.3291C22.7749 18.3082 22.722 18.2873 22.6676 18.2658C22.2817 18.1176 22.0095 18.0864 21.6252 18.2414Z" fill="#161616"/>
<path d="M34.8434 34.9219C35.2817 34.9219 35.7199 34.9219 36.1715 34.9219C36.0618 35.9271 35.9131 36.7146 35.234 37.5C35.1909 37.5523 35.1478 37.6045 35.1034 37.6584C34.4828 38.3493 33.5483 38.7799 32.6278 38.8474C31.4846 38.8858 30.569 38.5531 29.6676 37.8613C29.4026 37.6083 29.1936 37.3308 28.984 37.0312C28.926 37.1086 28.926 37.1086 28.8668 37.1875C28.1354 38.0652 27.3124 38.6383 26.1715 38.8281C25.0987 38.897 24.0806 38.7221 23.2256 38.0325C22.9211 37.761 22.6309 37.4769 22.3434 37.1875C22.3103 37.2272 22.2771 37.2669 22.243 37.3077C21.5514 38.1194 20.7814 38.7031 19.6871 38.8281C18.4792 38.9235 17.4978 38.5944 16.5426 37.8613C16.2776 37.6083 16.0686 37.3308 15.859 37.0312C15.8203 37.0828 15.7817 37.1344 15.7418 37.1875C15.0498 38.0179 14.2241 38.6698 13.1246 38.8281C11.9068 38.9286 10.8621 38.6736 9.89252 37.8989C9.23954 37.3053 8.72183 36.3865 8.65625 35.4959C8.66134 35.3306 8.66642 35.1653 8.67151 35C9.08401 35 9.49651 35 9.92151 35C9.95051 35.1386 9.97952 35.2771 10.0094 35.4199C10.1885 36.1264 10.4795 36.6814 11.0922 37.0953C11.6926 37.4468 12.319 37.6037 13.0096 37.4585C13.7848 37.244 14.3362 36.8128 14.7546 36.1252C14.9243 35.7665 14.9943 35.3866 15.0778 35C15.5934 35 16.109 35 16.6403 35C16.658 35.1273 16.6757 35.2546 16.694 35.3857C16.8448 36.1916 17.231 36.7061 17.8903 37.1875C18.4536 37.5118 19.1159 37.6033 19.7454 37.4466C20.4549 37.2094 20.9842 36.8626 21.386 36.2231C21.5707 35.832 21.6382 35.4234 21.7184 35C22.1567 35 22.5949 35 23.0465 35C23.0755 35.1386 23.1045 35.2771 23.1344 35.4199C23.3135 36.1264 23.6045 36.6814 24.2172 37.0953C24.8176 37.4468 25.444 37.6037 26.1346 37.4585C26.9098 37.244 27.4612 36.8128 27.8796 36.1252C28.0493 35.7665 28.1193 35.3866 28.2028 35C28.7184 35 29.234 35 29.7653 35C29.783 35.1128 29.8007 35.2256 29.819 35.3418C29.9741 36.0981 30.2894 36.6737 30.9371 37.1094C31.594 37.4691 32.2209 37.6065 32.9586 37.4121C33.628 37.1917 34.1074 36.836 34.4964 36.2457C34.7036 35.8223 34.7662 35.3848 34.8434 34.9219Z" fill="#161616"/>
<path d="M13.5937 6.79688C13.8524 6.92 14.0365 7.0556 14.2432 7.25586C14.2993 7.30883 14.3554 7.3618 14.4131 7.41638C14.5312 7.57812 14.5312 7.57812 14.5168 7.72562C14.4376 7.93079 14.3334 8.03817 14.1769 8.19244C14.1201 8.24889 14.0632 8.30534 14.0047 8.36349C13.9448 8.42175 13.8849 8.48001 13.8232 8.54004C13.7655 8.59739 13.7077 8.65475 13.6482 8.71384C13.3861 8.97233 13.1209 9.22288 12.8415 9.46266C12.4384 9.81378 12.0638 10.1921 11.687 10.571C11.6109 10.6473 11.5347 10.7236 11.4585 10.7998C11.26 10.9986 11.0618 11.1976 10.8636 11.3967C10.6605 11.6006 10.4572 11.8042 10.2539 12.0079C9.85655 12.4061 9.45944 12.8045 9.0625 13.2031C8.76471 13.0614 8.51829 12.876 8.26172 12.6709C8.21498 12.6339 8.16824 12.5968 8.12008 12.5587C7.54479 12.1014 6.97537 11.6368 6.40625 11.1719C6.50914 10.8752 6.63411 10.6755 6.8457 10.4443C6.89505 10.3899 6.9444 10.3354 6.99524 10.2792C7.05174 10.2184 7.05174 10.2184 7.10937 10.1562C7.48226 10.274 7.7252 10.4836 8.0127 10.7373C8.10062 10.8138 8.18861 10.8902 8.27667 10.9665C8.31767 11.0021 8.35867 11.0378 8.40092 11.0745C8.53877 11.1915 8.68148 11.3005 8.82812 11.4062C9.14185 11.2806 9.35194 11.0597 9.58488 10.8235C9.62836 10.78 9.67184 10.7366 9.71664 10.6918C9.85989 10.5484 10.0026 10.4045 10.1453 10.2606C10.2446 10.161 10.344 10.0614 10.4434 9.96177C10.7048 9.69985 10.9656 9.43746 11.2264 9.17497C11.4927 8.9071 11.7594 8.63966 12.0261 8.37219C12.5491 7.84752 13.0716 7.32235 13.5937 6.79688Z" fill="#161616"/>
</svg>
