<svg width="40" height="40" viewBox="0 0 40 40" fill="none" xmlns="http://www.w3.org/2000/svg">
<path d="M21.641 22.7344C21.72 22.7503 21.7991 22.7663 21.8805 22.7827C24.0104 23.2276 26.5799 23.9611 28.2227 25.4741C28.4921 25.663 28.6835 25.6826 29.0098 25.7138C29.0645 25.7195 29.1192 25.7252 29.1756 25.731C29.2899 25.7429 29.4042 25.7542 29.5186 25.765C29.7804 25.7901 30.0413 25.8209 30.3025 25.8511C30.4044 25.8627 30.5062 25.8743 30.6112 25.8862C37.1879 26.642 37.1879 26.642 39.0168 28.815C39.3756 29.3043 39.462 29.8222 39.4673 30.419C39.4683 30.5178 39.4693 30.6166 39.4704 30.7184C39.471 30.8256 39.4716 30.9328 39.4721 31.04C39.4724 31.0944 39.4728 31.1487 39.4731 31.2046C39.4747 31.4918 39.4758 31.779 39.4766 32.0661C39.4774 32.3622 39.4801 32.6582 39.4832 32.9543C39.4853 33.1826 39.4859 33.4108 39.4862 33.6391C39.4866 33.7483 39.4875 33.8574 39.4889 33.9665C39.4908 34.1193 39.4906 34.272 39.4902 34.4247C39.4909 34.5549 39.4909 34.5549 39.4916 34.6877C39.4447 34.9757 39.3419 35.105 39.141 35.3125C38.9573 35.4043 38.842 35.4028 38.6371 35.4067C38.5652 35.4082 38.4932 35.4098 38.4191 35.4114C38.3024 35.4134 38.3024 35.4134 38.1834 35.4153C38.064 35.4178 38.064 35.4178 37.9423 35.4203C37.6876 35.4254 37.4328 35.43 37.1781 35.4346C37.0057 35.4379 36.8333 35.4414 36.6608 35.4448C36.2376 35.4532 35.8143 35.4611 35.391 35.4688C35.3608 35.5633 35.3608 35.5633 35.33 35.6598C35.2894 35.7849 35.2894 35.7849 35.2479 35.9125C35.2213 35.9948 35.1947 36.0772 35.1674 36.1621C34.7444 37.3243 33.8964 38.0715 32.8129 38.5938C31.719 39.0577 30.5376 38.9944 29.437 38.5767C28.3616 38.079 27.5953 37.2275 27.1055 36.1618C27.0121 35.8782 26.9877 35.6091 26.9535 35.3125C26.8776 35.3127 26.8017 35.3129 26.7235 35.313C25.7504 35.3152 24.7772 35.3166 23.8041 35.3174C23.7264 35.3175 23.6487 35.3175 23.5686 35.3176C20.8679 35.3196 18.1692 35.2966 15.4691 35.2344C15.4647 35.2819 15.4602 35.3294 15.4556 35.3783C15.4462 35.4724 15.4462 35.4724 15.4365 35.5684C15.4304 35.6304 15.4244 35.6924 15.4181 35.7563C15.2759 36.7072 14.5055 37.5193 13.8041 38.1104C12.9003 38.7768 11.7743 39.0108 10.6702 38.8846C9.58633 38.7031 8.56364 38.1509 7.86201 37.2971C7.43863 36.6727 7.03163 35.922 7.03163 35.1563C6.98248 35.1609 6.93333 35.1656 6.8827 35.1704C3.01312 35.5223 3.01312 35.5223 1.98249 34.7113C1.77905 34.5342 1.59549 34.347 1.41639 34.1455C1.37389 34.0981 1.33139 34.0506 1.2876 34.0017C0.568986 33.1694 0.516686 32.5363 0.593948 31.4562C0.60246 31.3425 0.611005 31.2288 0.619578 31.1151C0.628113 30.9966 0.636606 30.878 0.645063 30.7595C0.662851 30.5122 0.681094 30.2649 0.699668 30.0176C0.723356 29.7019 0.745945 29.386 0.768201 29.0702C0.785537 28.8258 0.803436 28.5814 0.821502 28.3371C0.830046 28.2206 0.838424 28.1042 0.846627 27.9878C0.8582 27.8248 0.870524 27.6618 0.88304 27.4989C0.889868 27.4065 0.896695 27.314 0.90373 27.2188C0.946835 26.8834 1.00374 26.5491 1.18663 26.2601C1.40834 26.1222 1.62153 26.1156 1.87965 26.0889C1.93413 26.0828 1.98862 26.0768 2.04475 26.0705C2.21932 26.0513 2.394 26.0333 2.56874 26.0156C3.77283 25.8906 4.81441 25.7169 5.9037 25.1514C8.10159 24.0557 10.4461 23.4157 12.8504 22.9581C12.9925 22.9311 12.9925 22.9311 13.1376 22.9034C13.2642 22.8798 13.2642 22.8798 13.3935 22.8557C13.592 22.8217 13.592 22.8217 13.7504 22.7344C16.2605 22.3177 19.1432 22.2295 21.641 22.7344ZM15.8012 23.8184C15.7306 23.8245 15.66 23.8306 15.5873 23.8369C15.1934 23.8759 15.1934 23.8759 14.8441 24.0625C15.1707 25.2426 15.1707 25.2426 15.9574 26.0889C16.1313 26.1485 16.3075 26.2013 16.4848 26.25C16.6138 26.2951 16.7426 26.3412 16.8711 26.3879C20.0215 27.5171 23.5078 27.4584 26.641 26.25C26.6926 26.1984 26.7441 26.1469 26.7973 26.0938C24.1835 24.404 21.1406 23.7334 18.057 23.7354C18.0047 23.7354 17.9524 23.7353 17.8985 23.7353C17.1973 23.7362 16.5 23.7563 15.8012 23.8184ZM12.1732 24.4141C12.0342 24.4454 12.0342 24.4454 11.8923 24.4773C10.0317 24.9067 8.22397 25.476 6.50003 26.2997C5.28966 26.8771 4.20589 27.1866 2.87117 27.2837C2.54979 27.31 2.54979 27.31 2.2657 27.4509C2.1675 27.5866 2.1675 27.5866 2.18788 27.8125C2.23389 27.8242 2.27991 27.836 2.32732 27.8481C2.54001 27.9032 2.7521 27.9604 2.96424 28.0176C3.0366 28.036 3.10896 28.0544 3.18351 28.0734C3.78357 28.2377 4.39424 28.4762 4.72694 29.0332C4.96831 29.5763 5.02122 30.1567 4.82948 30.7275C4.62775 31.196 4.25482 31.4593 3.8285 31.7188C3.22394 31.9203 2.55539 31.8011 1.9535 31.6406C1.84487 32.0855 1.82908 32.4188 2.06336 32.8229C2.45807 33.3494 2.89888 33.8165 3.56498 33.9462C4.70958 34.0826 5.88586 33.9947 7.03163 33.9063C7.06252 33.8214 7.09341 33.7365 7.12524 33.6491C7.16685 33.5362 7.20848 33.4232 7.25013 33.3102C7.28048 33.2266 7.28048 33.2266 7.31143 33.1414C7.72466 32.0254 8.43269 31.2213 9.52125 30.7202C10.6875 30.2665 11.8688 30.2499 13.0201 30.7486C14.1019 31.2606 14.7436 31.9674 15.2341 33.0548C15.3391 33.3567 15.3998 33.6724 15.4691 33.9844C16.0621 33.9844 16.6551 33.9844 17.266 33.9844C16.7134 32.4535 16.1399 30.9307 15.5619 29.4092C15.5433 29.3601 15.5246 29.3111 15.5055 29.2606C15.3379 28.8196 15.1704 28.3787 15.0027 27.9378C14.6788 27.0858 14.356 26.2334 14.0336 25.3809C13.9876 25.2593 13.9417 25.1378 13.8957 25.0163C13.7952 24.7505 13.6946 24.4846 13.5941 24.2188C13.0984 24.2067 12.6548 24.3055 12.1732 24.4141ZM27.0023 27.3975C26.796 27.4707 26.5891 27.5422 26.3819 27.6132C26.3053 27.6396 26.3053 27.6396 26.2271 27.6664C25.4943 27.9144 24.7456 28.0703 23.9848 28.2031C23.9312 28.2132 23.8776 28.2232 23.8224 28.2335C21.2344 28.7037 18.6495 28.2507 16.1723 27.5C16.7177 29.0062 17.2804 30.5053 17.8532 32.0013C17.8792 32.0694 17.9053 32.1375 17.9321 32.2077C17.9805 32.3342 18.029 32.4607 18.0776 32.5872C18.2552 33.0512 18.4243 33.5173 18.5941 33.9844C21.3527 33.9844 24.1113 33.9844 26.9535 33.9844C27.0308 33.675 27.1082 33.3656 27.1879 33.0469C27.3194 32.7441 27.3194 32.7441 27.4564 32.5C27.5014 32.4178 27.5465 32.3356 27.5928 32.251C27.7271 32.0431 27.8719 31.8914 28.0473 31.7188C28.0473 31.6672 28.0473 31.6156 28.0473 31.5625C28.0932 31.5413 28.1391 31.52 28.1864 31.4981C28.3561 31.4082 28.4859 31.3089 28.6332 31.1865C29.5072 30.5208 30.566 30.3127 31.641 30.3906C32.7621 30.5485 33.7021 31.0209 34.4535 31.875C34.9605 32.5554 35.1528 33.2289 35.391 34.0625C36.2933 34.0625 37.1957 34.0625 38.1254 34.0625C38.1254 32.9539 38.1254 31.8453 38.1254 30.7031C37.6769 30.5721 37.6769 30.5721 37.2312 30.4941C37.1713 30.4858 37.1114 30.4775 37.0496 30.4689C36.9265 30.4525 36.8032 30.437 36.6798 30.4225C36.1189 30.3417 35.9002 30.077 35.5604 29.6405C35.4826 29.5359 35.405 29.4311 35.3275 29.3262C35.2855 29.2712 35.2435 29.2161 35.2002 29.1595C35.0153 28.9155 34.8512 28.6855 34.7102 28.4128C34.5416 28.0975 34.3889 27.8802 34.0474 27.744C33.4907 27.5789 32.918 27.5014 32.3441 27.4219C32.2444 27.4073 32.1446 27.3927 32.0419 27.3777C31.3626 27.2786 30.6824 27.1877 30.0004 27.1094C29.9263 27.1009 29.8523 27.0924 29.776 27.0836C29.5644 27.0617 29.3533 27.0451 29.141 27.0313C29.0225 27.0226 29.0225 27.0226 28.9016 27.0137C28.2052 26.9854 27.6505 27.157 27.0023 27.3975ZM36.4066 28.5938C36.6316 28.9514 36.6316 28.9514 36.9535 29.2188C37.1136 29.254 37.1136 29.254 37.2806 29.2676C37.3789 29.2772 37.4772 29.2869 37.5785 29.2969C37.2822 28.9636 36.9791 28.7582 36.5629 28.5938C36.5113 28.5938 36.4598 28.5938 36.4066 28.5938ZM2.10975 29.1406C2.07108 29.7207 2.07108 29.7207 2.03163 30.3125C2.7164 30.5943 2.7164 30.5943 3.41835 30.542C3.64447 30.3473 3.70335 30.2158 3.75038 29.9219C3.69426 29.7001 3.69426 29.7001 3.516 29.5313C3.06242 29.3164 2.60209 29.2295 2.10975 29.1406ZM8.96522 32.6856C8.39828 33.385 8.19534 34.1869 8.28163 35.0781C8.4671 35.9666 8.92261 36.6181 9.65431 37.1478C10.3558 37.5832 11.0599 37.6653 11.8754 37.5781C12.1602 37.509 12.4003 37.4066 12.6566 37.2656C12.7166 37.2343 12.7767 37.203 12.8385 37.1707C13.468 36.8014 13.9641 36.1697 14.1831 35.47C14.3776 34.6193 14.2839 33.8447 13.8657 33.0743C13.4365 32.3907 12.8627 31.9142 12.0844 31.6803C10.8577 31.4475 9.80184 31.7696 8.96522 32.6856ZM28.9066 32.5781C28.2639 33.4172 28.1073 34.1997 28.2035 35.2344C28.3555 35.9888 28.7723 36.6122 29.3998 37.0557C29.5203 37.1284 29.6424 37.1984 29.766 37.2656C29.8245 37.298 29.883 37.3303 29.9433 37.3636C30.64 37.6952 31.4498 37.692 32.1781 37.4561C32.9483 37.1292 33.5756 36.5558 33.9316 35.7953C34.2376 34.9759 34.2319 34.2367 33.9268 33.4183C33.5791 32.6571 32.9623 32.0934 32.194 31.7755C31.0037 31.3594 29.7764 31.6891 28.9066 32.5781Z" fill="#161616"/>
<path d="M27.6564 3.125C27.7081 3.15248 27.7598 3.17996 27.8131 3.20827C28.987 3.83314 30.0206 4.58949 31.0158 5.46875C31.058 5.50559 31.1002 5.54244 31.1437 5.5804C32.5271 6.79341 33.6266 8.2466 34.5314 9.84375C34.5581 9.89001 34.5847 9.93627 34.6122 9.98394C35.8688 12.1755 36.9435 15.2513 36.6408 17.8125C36.4797 18.0713 36.4797 18.0713 36.2502 18.2031C35.9767 18.252 35.9767 18.252 35.7033 18.2031C35.382 17.9324 35.2207 17.6601 35.049 17.2803C34.5621 16.2619 33.8239 15.6859 32.766 15.2948C31.1928 14.7883 29.4542 14.9016 27.9689 15.625C26.9953 16.183 26.4798 16.9368 26.0939 17.9687C26.0382 18.1043 25.9813 18.2395 25.923 18.374C25.8875 18.4579 25.8875 18.4579 25.8513 18.5434C25.7814 18.6719 25.7814 18.6719 25.6252 18.75C25.4527 18.7714 25.4527 18.7714 25.2492 18.7793C25.1493 18.785 25.1493 18.785 25.0475 18.7909C24.7494 18.731 24.6414 18.5936 24.4533 18.3594C24.3489 18.1094 24.3489 18.1094 24.2677 17.8369C23.9165 16.7931 23.2598 16.0629 22.2804 15.5615C21.7968 15.3257 21.3101 15.1749 20.7814 15.0781C20.6988 15.0629 20.6988 15.0629 20.6145 15.0473C19.1865 14.8301 17.6444 15.1196 16.4479 15.9378C15.6587 16.5601 15.2799 17.3218 14.9465 18.252C14.8501 18.4998 14.8108 18.5921 14.6095 18.75C14.4295 18.8037 14.4295 18.8037 14.2287 18.8281C14.1628 18.8378 14.097 18.8475 14.0291 18.8574C13.7247 18.813 13.6258 18.6754 13.4377 18.4375C13.3514 18.2339 13.2795 18.0414 13.2131 17.832C13.0285 17.3019 12.8181 16.8919 12.422 16.4844C12.3708 16.4301 12.3195 16.3758 12.2667 16.3199C11.2714 15.3501 9.84916 15.0579 8.50307 15.0587C7.35338 15.0758 6.18375 15.3239 5.28306 16.0754C5.15642 16.1719 5.15642 16.1719 4.92204 16.25C4.83873 16.3938 4.83873 16.3938 4.76579 16.5625C4.69392 16.6708 4.62057 16.7782 4.54606 16.8848C4.32687 17.2074 4.15435 17.5395 3.99064 17.8931C3.90642 18.0469 3.90642 18.0469 3.75017 18.125C3.20108 18.1781 3.20108 18.1781 2.92985 17.9883C2.24857 16.5122 3.24369 13.7486 3.75993 12.3096C4.31305 10.8466 5.01451 9.46596 5.93767 8.20312C5.97128 8.15648 6.00489 8.10984 6.03952 8.06179C6.49749 7.42989 7.00545 6.85144 7.5448 6.28841C7.64756 6.18112 7.74939 6.07293 7.85112 5.96466C8.33008 5.46764 8.85212 5.04408 9.40179 4.62917C9.51704 4.54211 9.63141 4.4539 9.74565 4.36554C14.8156 0.536092 22.105 0.109706 27.6564 3.125ZM17.8908 3.59375C17.6587 3.92037 17.459 4.25859 17.2658 4.60937C17.2211 4.68833 17.1764 4.76728 17.1303 4.84863C15.5052 7.89003 14.6736 12.1591 14.7658 15.625C14.8673 15.5307 14.8673 15.5307 14.9709 15.4346C16.6251 14.0243 18.5004 13.6545 20.6252 13.75C22.2115 13.8817 23.4345 14.5977 24.6095 15.625C24.5192 11.6119 23.9377 6.31451 21.1379 3.22754C20.6133 2.75416 20.2251 2.46593 19.5012 2.47955C18.7998 2.5498 18.3255 3.08005 17.8908 3.59375ZM22.5002 2.73437C22.5952 2.9916 22.7002 3.20169 22.8615 3.42285C25.155 6.813 25.5474 11.4247 25.8595 15.3906C26.1576 15.3906 26.2026 15.3127 26.4211 15.1172C27.9623 13.8538 29.9682 13.5876 31.9027 13.767C32.9849 13.9129 33.9503 14.3062 34.8439 14.9219C34.8955 14.9477 34.947 14.9734 35.0002 15C34.958 14.5054 34.8715 14.0647 34.717 13.5937C34.6961 13.5295 34.6753 13.4653 34.6539 13.3992C33.4191 9.66752 30.9248 6.48737 27.5002 4.53125C27.4483 4.50116 27.3964 4.47107 27.343 4.44008C25.9667 3.64975 24.122 2.73437 22.5002 2.73437ZM12.4775 4.22626C12.3599 4.28841 12.2411 4.34822 12.1221 4.40765C8.68431 6.17046 6.051 9.53382 4.85551 13.1628C4.67121 13.7488 4.51475 14.3094 4.45329 14.9219C4.73316 14.8185 4.98937 14.6884 5.25093 14.5454C6.89458 13.6673 9.02285 13.5024 10.8086 14.0424C11.8672 14.4069 12.6633 14.9135 13.5158 15.625C13.5213 15.5536 13.5267 15.4822 13.5323 15.4087C13.8629 11.1601 14.3353 6.27821 16.9533 2.73437C15.4424 2.73437 13.7881 3.52925 12.4775 4.22626Z" fill="#161616"/>
<path d="M32.5394 32.789C33.0591 33.2241 33.3835 33.7113 33.4564 34.3927C33.4762 35.0332 33.3107 35.5666 32.9202 36.0791C32.4861 36.5404 31.9108 36.7704 31.2845 36.8017C30.6496 36.7854 30.1729 36.5835 29.6878 36.1718C29.1882 35.631 29.1048 35.0544 29.1162 34.3344C29.1687 33.7566 29.4256 33.2908 29.844 32.8906C30.6943 32.3729 31.6703 32.1983 32.5394 32.789ZM30.5472 34.0625C30.3698 34.2783 30.3913 34.3961 30.3958 34.6826C30.4472 35.0183 30.5946 35.1772 30.8597 35.3906C31.1364 35.529 31.4278 35.4709 31.719 35.3906C31.9478 35.1992 32.0758 35.0625 32.1466 34.7683C32.1697 34.4594 32.1192 34.2704 31.9241 34.0283C31.6868 33.7966 31.6351 33.7569 31.3089 33.7256C30.9627 33.7544 30.8114 33.8413 30.5472 34.0625Z" fill="#161616"/>
<path d="M12.5394 32.789C13.0591 33.2241 13.3835 33.7113 13.4564 34.3927C13.4762 35.0332 13.3107 35.5666 12.9202 36.0791C12.4861 36.5404 11.9108 36.7704 11.2845 36.8017C10.6496 36.7854 10.1729 36.5835 9.68779 36.1718C9.18825 35.631 9.10482 35.0544 9.1162 34.3344C9.16873 33.7566 9.42564 33.2908 9.84404 32.8906C10.6943 32.3729 11.6703 32.1983 12.5394 32.789ZM10.5472 34.0625C10.3698 34.2783 10.3913 34.3961 10.3958 34.6826C10.4472 35.0183 10.5946 35.1772 10.8597 35.3906C11.1364 35.529 11.4278 35.4709 11.719 35.3906C11.9478 35.1992 12.0758 35.0625 12.1466 34.7683C12.1697 34.4594 12.1192 34.2704 11.9241 34.0283C11.6868 33.7966 11.6351 33.7569 11.3089 33.7256C10.9627 33.7544 10.8114 33.8413 10.5472 34.0625Z" fill="#161616"/>
</svg>
