<svg width="40" height="40" viewBox="0 0 40 40" fill="none" xmlns="http://www.w3.org/2000/svg">
<g clip-path="url(#clip0_5209_43103)">
<path d="M17.2022 -0.0407286C17.4658 -0.0390489 17.7292 -0.0407271 17.9928 -0.0427122C21.5982 -0.0473642 25.3033 1.25847 28.1248 3.51564C28.195 3.57083 28.2652 3.62601 28.3375 3.68287C30.1504 5.13319 31.5774 6.8162 32.7341 8.82814C32.7657 8.8826 32.7972 8.93705 32.8297 8.99316C34.1029 11.2171 34.9235 13.9376 34.9375 16.51C34.9381 16.5774 34.9386 16.6449 34.9392 16.7143C34.9405 16.9307 34.941 17.147 34.9412 17.3633C34.9412 17.4371 34.9413 17.511 34.9413 17.587C34.9401 18.6424 34.9178 19.669 34.6873 20.7031C34.664 20.8092 34.664 20.8092 34.6404 20.9174C34.534 21.395 34.4178 21.8697 34.2966 22.3438C34.2666 22.4637 34.2365 22.5836 34.2066 22.7036C34.1848 22.7911 34.1629 22.8786 34.1404 22.9688C35.7769 23.8796 37.4007 24.6121 39.3084 24.5227C39.7273 24.5077 39.7273 24.5077 39.8985 24.6134C40.0515 24.8434 40.033 25.0741 40.0313 25.3412C40.0321 25.4289 40.0321 25.4289 40.033 25.5184C40.0344 25.7125 40.0341 25.9066 40.0336 26.1008C40.034 26.2368 40.0344 26.3729 40.0349 26.5089C40.0356 26.7952 40.0354 27.0815 40.0346 27.3678C40.0337 27.7301 40.0353 28.0924 40.0376 28.4548C40.039 28.7366 40.039 29.0185 40.0385 29.3004C40.0385 29.4336 40.039 29.5669 40.04 29.7001C40.0549 32.0522 39.3307 34.3766 37.8904 36.25C37.836 36.3217 37.7816 36.3934 37.7256 36.4673C36.4845 38.0436 34.8729 39.3168 32.9685 40C32.5059 40.0372 32.1745 39.9684 31.7527 39.7705C31.6992 39.7461 31.6457 39.7218 31.5906 39.6966C30.6603 39.2614 29.8345 38.7254 29.0623 38.0469C28.9975 37.9925 28.9328 37.9381 28.866 37.8821C27.461 36.6733 26.2802 34.9213 25.781 33.125C25.781 33.0477 25.781 32.9703 25.781 32.8906C25.7098 32.9285 25.6386 32.9664 25.5653 33.0054C21.3551 35.2017 16.4767 35.5486 11.9529 34.1406C8.66022 33.0618 5.60013 30.9655 3.52924 28.1709C3.44404 28.056 3.35725 27.9423 3.27034 27.8287C2.8364 27.2515 2.46828 26.6409 2.10914 26.0156C2.08256 25.9702 2.05597 25.9247 2.02858 25.8778C0.585072 23.394 -0.0610889 20.5505 -0.0409713 17.699C-0.0392924 17.4169 -0.0409682 17.135 -0.0429549 16.8529C-0.0443361 15.7074 0.0577462 14.6323 0.31227 13.5156C0.331492 13.4276 0.350715 13.3396 0.37052 13.2489C0.416568 13.0497 0.467127 12.8531 0.522231 12.6563C0.541705 12.5864 0.561179 12.5166 0.581244 12.4446C1.31847 9.90425 2.66218 7.60062 4.44069 5.65461C4.59322 5.48633 4.74061 5.31483 4.88747 5.14161C5.10877 4.88855 5.34307 4.66599 5.60005 4.44948C5.73156 4.33859 5.8609 4.2251 5.98884 4.11012C9.04408 1.38927 13.1359 -0.0714107 17.2022 -0.0407286ZM7.18727 4.53126C7.14281 4.56791 7.09834 4.60455 7.05253 4.64231C6.12073 5.4128 5.27595 6.23089 4.53102 7.18751C4.47503 7.25781 4.41903 7.3281 4.36134 7.40053C1.68366 10.8473 0.578882 15.2101 1.06243 19.5214C1.59034 23.6689 3.74607 27.6752 7.03621 30.2933C10.6009 33.0226 14.9762 34.4585 19.4785 33.8818C21.0841 33.6546 22.6574 33.2397 24.1404 32.5781C24.1965 32.5533 24.2526 32.5285 24.3105 32.5029C24.4859 32.4242 24.6599 32.343 24.8338 32.2608C24.8882 32.236 24.9427 32.2113 24.9988 32.1859C25.2904 32.0502 25.2904 32.0502 25.4489 31.7859C25.4739 31.5017 25.4375 31.2358 25.3967 30.9553C25.3083 30.2792 25.288 29.6149 25.2888 28.9337C25.2885 28.8153 25.2881 28.6969 25.2878 28.5785C25.2872 28.3337 25.2872 28.0888 25.2876 27.8439C25.2881 27.5302 25.2867 27.2165 25.2849 26.9028C25.2838 26.6597 25.2837 26.4167 25.2839 26.1737C25.2839 26.0579 25.2835 25.9421 25.2827 25.8263C25.2818 25.6655 25.2823 25.5049 25.2832 25.3441C25.2831 25.2529 25.2831 25.1617 25.283 25.0677C25.3123 24.8438 25.3123 24.8438 25.4144 24.6962C25.6383 24.5492 25.8897 24.5965 26.1472 24.6094C28.3021 24.6555 30.3661 23.6275 32.0976 22.4148C32.3314 22.2582 32.4641 22.1856 32.7491 22.2009C32.8215 22.2223 32.8939 22.2436 32.9685 22.2656C33.0726 22.292 33.1768 22.3181 33.281 22.3438C33.3565 22.0379 33.4311 21.7319 33.5056 21.4258C33.5267 21.3405 33.5477 21.2552 33.5694 21.1673C34.5666 17.057 33.859 12.6341 31.7017 9.00026C31.0703 7.97321 30.3284 7.00075 29.49 6.13485C29.4102 6.05231 29.331 5.96924 29.2522 5.88575C28.2071 4.77846 27.0204 3.88502 25.7029 3.12501C25.6472 3.09271 25.5915 3.06041 25.5341 3.02713C19.8555 -0.220279 12.2428 0.314665 7.18727 4.53126ZM32.0066 23.5889C30.5389 24.5864 28.807 25.325 27.0341 25.4773C26.9584 25.4841 26.8828 25.491 26.8048 25.498C26.6198 25.5147 26.4348 25.531 26.2498 25.5469C26.2443 26.1413 26.2401 26.7356 26.2376 27.33C26.2364 27.6062 26.2348 27.8824 26.2321 28.1585C26.2005 31.4767 26.8055 34.1855 29.0623 36.7188C29.1087 36.7709 29.1551 36.8231 29.203 36.8768C29.9626 37.6799 30.904 38.2425 31.8748 38.75C31.9471 38.7892 32.0194 38.8284 32.0939 38.8687C32.1537 38.8988 32.2135 38.9289 32.2752 38.96C32.3237 38.9844 32.3722 39.0089 32.4223 39.0341C33.0722 39.1527 34.1237 38.3821 34.6424 38.0252C35.1545 37.6473 35.6302 37.2326 36.0935 36.7969C36.1627 36.7353 36.1627 36.7353 36.2333 36.6724C38.0246 35.0084 38.9147 32.4628 39.0623 30.0781C39.0718 29.7171 39.0714 29.3565 39.0699 28.9954C39.0698 28.8961 39.0697 28.7969 39.0696 28.6946C39.0692 28.4342 39.0685 28.1737 39.0676 27.9132C39.0668 27.6461 39.0665 27.379 39.0661 27.1118C39.0652 26.5902 39.0639 26.0685 39.0623 25.5469C39.0167 25.5432 38.9711 25.5395 38.9241 25.5357C38.7131 25.5183 38.5021 25.4998 38.2911 25.4813C38.2194 25.4755 38.1478 25.4697 38.0739 25.4638C36.3791 25.3119 34.757 24.5546 33.3452 23.6361C32.8051 23.2876 32.5544 23.1941 32.0066 23.5889Z" fill="#161616"/>
<path d="M24.3833 9.72471C24.8196 10.0839 25.1871 10.4487 25.2687 11.0248C25.2912 11.6544 25.1801 12.1207 24.7646 12.605C24.5674 12.8097 24.3658 13.0088 24.1618 13.2068C24.0872 13.2804 24.0127 13.354 23.9383 13.4278C23.7435 13.6205 23.5479 13.8123 23.3521 14.0038C23.0379 14.3112 22.7248 14.6197 22.4121 14.9287C22.3032 15.0361 22.1937 15.1429 22.0842 15.2497C22.0179 15.3149 21.9517 15.3801 21.8835 15.4473C21.7959 15.5329 21.7959 15.5329 21.7065 15.6203C21.4705 15.8836 21.4042 16.0235 21.4135 16.3809C21.4881 16.9134 21.6409 17.4314 21.7818 17.9494C21.8346 18.1439 21.8866 18.3386 21.9384 18.5334C22.0855 19.0868 22.2335 19.6399 22.3834 20.1925C22.4754 20.5319 22.566 20.8716 22.6557 21.2116C22.6898 21.3399 22.7245 21.468 22.7597 21.596C23.3189 23.6293 23.3189 23.6293 22.8389 24.5312C22.5825 24.9139 22.3144 25.2947 21.8748 25.4687C21.3819 25.5164 21.1828 25.4697 20.7811 25.1562C20.6638 24.9664 20.5707 24.7946 20.4802 24.5932C20.4267 24.4804 20.3731 24.3676 20.3196 24.2549C20.2791 24.1681 20.2791 24.1681 20.2379 24.0797C20.1079 23.804 19.9697 23.5326 19.832 23.2608C19.7774 23.1521 19.7228 23.0435 19.6684 22.9348C19.6411 22.8804 19.6138 22.8261 19.5857 22.7701C19.0604 21.7221 18.5434 20.6712 18.0467 19.6094C17.7914 19.655 17.6623 19.7296 17.4789 19.9112C17.4069 19.9817 17.4069 19.9817 17.3335 20.0536C17.2827 20.1047 17.2318 20.1558 17.1794 20.2084C17.1264 20.2609 17.0735 20.3135 17.0189 20.3676C16.9071 20.4789 16.7957 20.5905 16.6845 20.7024C16.5145 20.873 16.3432 21.042 16.1717 21.2111C16.0632 21.3195 15.9547 21.428 15.8464 21.5365C15.7952 21.5868 15.744 21.6372 15.6912 21.689C15.4169 21.9675 15.2375 22.1832 15.1561 22.5781C15.1701 22.7804 15.1701 22.7804 15.2244 22.9785C15.3322 23.494 15.4535 24.0986 15.2055 24.584C15.0331 24.8294 14.8811 25.0261 14.6092 25.1562C14.1545 25.2352 13.8105 25.2299 13.3985 25.0113C13.0291 24.726 12.8514 24.3205 12.6463 23.9111C12.1759 22.9904 11.7913 22.5386 10.8592 22.0703C9.6549 21.4653 9.6549 21.4653 9.45293 20.8594C9.41057 20.4947 9.41622 20.2283 9.58477 19.8974C9.85789 19.58 10.0561 19.3721 10.4783 19.3066C10.837 19.2798 11.162 19.344 11.5129 19.4134C12.0067 19.5238 12.0067 19.5238 12.4709 19.3669C12.9663 18.9173 13.4432 18.4489 13.9169 17.9766C14.0636 17.8307 14.2111 17.6856 14.3586 17.5406C14.452 17.4477 14.5452 17.3549 14.6385 17.2619C14.6827 17.2187 14.7268 17.1755 14.7724 17.131C15.0253 16.8933 15.0253 16.8933 15.0779 16.5625C15.0147 16.5434 14.9514 16.5244 14.8863 16.5048C14.5527 16.3861 14.2429 16.2362 13.9259 16.0794C13.8602 16.0472 13.7946 16.0151 13.727 15.9819C13.5147 15.8779 13.3027 15.7734 13.0906 15.6689C12.8007 15.5263 12.5106 15.3838 12.2206 15.2414C12.1497 15.2065 12.0788 15.1717 12.0057 15.1358C11.6087 14.9413 11.2103 14.7508 10.8088 14.5657C10.7261 14.5274 10.6435 14.4892 10.5583 14.4497C10.4126 14.3828 10.2665 14.3168 10.1199 14.2519C9.71325 14.0642 9.46795 13.8921 9.21855 13.5156C9.11238 13.2047 9.10315 12.9169 9.21367 12.6074C9.77069 11.966 10.3143 11.6352 11.1685 11.5654C11.5686 11.5605 11.9346 11.6522 12.3204 11.7508C12.4072 11.7719 12.4939 11.793 12.5834 11.8147C13.8082 12.1161 15.026 12.4478 16.2431 12.7788C16.5071 12.8506 16.7713 12.9214 17.0357 12.9917C17.1825 13.0309 17.3289 13.0712 17.4753 13.1115C17.5641 13.135 17.653 13.1586 17.7445 13.1828C17.8607 13.2142 17.8607 13.2142 17.9793 13.2463C18.3004 13.2964 18.5544 13.2795 18.8305 13.0996C18.877 13.0558 18.9234 13.012 18.9713 12.967C19.0244 12.9175 19.0776 12.868 19.1323 12.817C19.2136 12.7374 19.2136 12.7374 19.2967 12.6562C19.3771 12.5777 19.3771 12.5777 19.4592 12.4976C19.6312 12.3269 19.8012 12.1545 19.9708 11.9815C20.098 11.8529 20.2252 11.7244 20.3524 11.5959C20.5503 11.3956 20.7481 11.1951 20.9454 10.9941C21.1376 10.7986 21.3305 10.6039 21.5235 10.4092C21.582 10.3493 21.6404 10.2894 21.7007 10.2277C22.4712 9.4534 23.3936 9.0319 24.3833 9.72471ZM21.7387 11.6293C21.6091 11.7615 21.4794 11.8935 21.3496 12.0256C21.1478 12.2313 20.9463 12.4373 20.7459 12.6443C20.5506 12.8458 20.3538 13.0458 20.1567 13.2455C20.0682 13.3379 20.0682 13.3379 19.978 13.4322C19.4996 13.9131 19.028 14.218 18.3362 14.2353C17.9806 14.2288 17.6618 14.1627 17.3202 14.0681C17.2597 14.0521 17.1991 14.0361 17.1367 14.0196C17.0064 13.9851 16.8762 13.9502 16.7461 13.9149C16.5397 13.8589 16.3329 13.8041 16.1261 13.7495C15.6126 13.6138 15.0996 13.4763 14.5866 13.3386C14.1523 13.2222 13.7178 13.1065 13.283 12.9918C13.0804 12.9381 12.8781 12.8832 12.6757 12.8282C11.6352 12.5325 11.6352 12.5325 10.5857 12.6758C10.3812 12.8189 10.3329 12.9038 10.2342 13.125C11.096 13.56 11.9597 13.9901 12.8318 14.4043C13.0566 14.5116 13.2813 14.6192 13.506 14.7268C13.6782 14.8094 13.8505 14.8918 14.0229 14.974C14.3037 15.1082 14.5834 15.2445 14.8631 15.3808C14.951 15.4227 15.039 15.4645 15.1296 15.5076C15.2112 15.5477 15.2929 15.5879 15.377 15.6292C15.4494 15.6643 15.5219 15.6993 15.5965 15.7354C15.8949 15.9358 15.9938 16.1679 16.0838 16.5088C16.1011 17.0196 15.9273 17.3724 15.589 17.7401C15.4786 17.852 15.3671 17.9629 15.2546 18.0728C15.1954 18.132 15.1361 18.1913 15.0751 18.2523C14.9502 18.3768 14.8248 18.5008 14.699 18.6244C14.507 18.8131 14.3167 19.0035 14.1265 19.1942C14.0046 19.3153 13.8826 19.4363 13.7605 19.5572C13.7038 19.6138 13.6472 19.6704 13.5888 19.7288C13.2328 20.0766 12.9213 20.3633 12.4067 20.4162C12.3198 20.4142 12.2329 20.4122 12.1434 20.4101C12.0488 20.4081 11.9542 20.4061 11.8568 20.404C11.4191 20.3841 10.983 20.3531 10.5467 20.3125C10.508 20.4672 10.508 20.4672 10.4686 20.625C10.8291 20.846 11.1902 21.0634 11.5635 21.2622C11.6454 21.3064 11.6454 21.3064 11.7289 21.3515C11.8367 21.4094 11.9449 21.4665 12.0536 21.5225C12.7711 21.9111 13.0858 22.5207 13.452 23.2275C13.5323 23.3821 13.6131 23.5364 13.6946 23.6905C13.7296 23.7582 13.7647 23.8259 13.8008 23.8956C13.9037 24.0839 13.9037 24.0839 14.1404 24.2187C14.2714 24.1328 14.2714 24.1328 14.3748 23.9844C14.3685 23.7588 14.3685 23.7588 14.3113 23.5107C14.2548 23.1907 14.2009 22.8787 14.1893 22.5537C14.187 22.4976 14.1848 22.4415 14.1825 22.3837C14.2983 21.7531 14.7086 21.3403 15.1487 20.9088C15.2082 20.8494 15.2677 20.7899 15.3291 20.7287C15.4542 20.604 15.5798 20.4796 15.7057 20.3557C15.8985 20.1658 16.0899 19.9746 16.2812 19.7833C16.4033 19.662 16.5255 19.5407 16.6478 19.4195C16.705 19.3625 16.7622 19.3054 16.8211 19.2467C16.8749 19.194 16.9286 19.1412 16.9839 19.0869C17.0308 19.0406 17.0778 18.9942 17.1261 18.9465C17.3907 18.7216 17.614 18.6479 17.9588 18.6426C18.023 18.6403 18.0873 18.6381 18.1535 18.6358C18.4762 18.6923 18.7284 18.8443 18.9207 19.115C19.0097 19.2745 19.09 19.4361 19.1682 19.6011C19.1982 19.6617 19.2282 19.7224 19.2591 19.7849C19.3558 19.9813 19.4508 20.1786 19.5457 20.376C19.6119 20.5113 19.6783 20.6466 19.7447 20.7819C19.9356 21.1715 20.1242 21.5622 20.3123 21.9531C20.3611 22.0541 20.4098 22.1551 20.4586 22.2561C20.6397 22.6317 20.8198 23.0078 20.9977 23.385C21.1798 23.7701 21.3703 24.1509 21.5623 24.5312C21.9339 24.189 22.0992 23.9733 22.1219 23.4641C22.1185 23.122 22.0496 22.8176 21.9586 22.4892C21.9346 22.399 21.9346 22.399 21.9101 22.3069C21.8755 22.1772 21.8406 22.0475 21.8053 21.918C21.7494 21.7121 21.6945 21.506 21.6399 21.2997C21.4846 20.7137 21.3274 20.1281 21.1695 19.5428C21.0727 19.1837 20.9771 18.8243 20.8823 18.4647C20.8461 18.3287 20.8095 18.1928 20.7724 18.0571C20.2614 16.1884 20.2614 16.1884 20.5899 15.4419C20.7903 15.1064 21.0594 14.8399 21.3392 14.5703C21.393 14.5172 21.4467 14.464 21.5021 14.4093C21.6728 14.2409 21.8445 14.0735 22.0164 13.9062C22.1872 13.7388 22.3578 13.5711 22.5282 13.4031C22.6338 13.2992 22.7397 13.1955 22.8459 13.0922C23.1485 12.7959 23.4326 12.4899 23.7071 12.1674C23.8279 12.0312 23.8279 12.0312 24.0525 11.8261C24.2548 11.6001 24.2967 11.474 24.2967 11.1718C24.1503 10.8187 23.9076 10.602 23.5936 10.3906C22.8221 10.2192 22.2253 11.1274 21.7387 11.6293Z" fill="#161616"/>
<path d="M36.1816 26.8066C36.4062 26.875 36.4062 26.875 36.5625 27.1094C36.5478 27.5489 36.4008 27.8388 36.1523 28.1891C36.1179 28.2394 36.0834 28.2898 36.0478 28.3417C35.9338 28.5077 35.8185 28.6728 35.7031 28.8379C35.6228 28.9543 35.5426 29.0708 35.4625 29.1874C35.3364 29.3709 35.2101 29.5544 35.0835 29.7375C34.7699 30.1913 34.4603 30.6477 34.1528 31.1056C34.1092 31.1706 34.0655 31.2356 34.0205 31.3026C33.8495 31.557 33.6786 31.8115 33.508 32.0662C32.7731 33.1618 32.7731 33.1618 32.4292 33.6325C32.3911 33.6849 32.353 33.7373 32.3137 33.7913C32.1452 33.9448 32.0226 33.9706 31.7969 33.9844C31.4485 33.7459 31.2141 33.4694 30.9619 33.1299C30.8947 33.0404 30.8275 32.951 30.7602 32.8616C30.7256 32.8154 30.691 32.7692 30.6553 32.7216C30.4695 32.4758 30.2787 32.2341 30.0879 31.9922C30.0349 31.9248 30.0349 31.9248 29.9809 31.8561C29.8259 31.6592 29.6702 31.4639 29.5084 31.2726C29.375 31.0937 29.375 31.0937 29.3408 30.8496C29.375 30.625 29.375 30.625 29.458 30.4785C29.6988 30.3387 29.8831 30.3613 30.1562 30.3906C30.3531 30.56 30.3531 30.56 30.5322 30.7959C30.5645 30.8375 30.5968 30.8791 30.63 30.9219C30.6984 31.0104 30.766 31.0995 30.833 31.189C30.9393 31.3306 31.0484 31.4696 31.1584 31.6083C31.7047 32.3016 31.7047 32.3016 31.7969 32.5781C32.0048 32.3792 32.1763 32.1837 32.3337 31.943C32.3775 31.8766 32.4212 31.8102 32.4664 31.7418C32.5386 31.6313 32.5386 31.6313 32.6123 31.5185C32.7224 31.3521 32.8326 31.1856 32.9428 31.0193C32.9736 30.9727 33.0044 30.9261 33.0362 30.8781C33.4872 30.1968 33.9411 29.5173 34.3964 28.8388C34.4992 28.6853 34.6019 28.5317 34.7043 28.3779C34.85 28.1593 34.9963 27.9411 35.1428 27.7231C35.1868 27.6567 35.2308 27.5904 35.2761 27.5221C35.3174 27.4608 35.3588 27.3996 35.4014 27.3365C35.4551 27.2562 35.4551 27.2562 35.5098 27.1743C35.7152 26.9192 35.8476 26.7933 36.1816 26.8066Z" fill="#161616"/>
<path d="M9.84422 7.18751C10.0633 7.37011 10.0779 7.49474 10.1177 7.77833C10.1048 7.86695 10.0919 7.95558 10.0786 8.04689C9.91045 8.16377 9.91045 8.16377 9.68797 8.28126C8.51866 8.94675 7.69432 9.67939 7.03172 10.8594C6.99728 10.9203 6.96284 10.9812 6.92735 11.044C6.60879 11.68 6.50427 12.4427 6.44579 13.1445C6.40577 13.4446 6.39789 13.4969 6.17235 13.6719C5.85376 13.7051 5.74026 13.6963 5.46922 13.5156C5.44258 13.3075 5.43213 13.1233 5.43504 12.915C5.43575 12.8555 5.43645 12.7959 5.43718 12.7346C5.4787 11.3447 6.09492 10.0008 7.03172 8.98439C7.09024 8.91963 7.14875 8.85487 7.20903 8.78816C7.69912 8.27115 8.2319 7.88349 8.8286 7.50001C8.88459 7.46265 8.94059 7.42529 8.99828 7.38679C9.28543 7.20573 9.50599 7.12601 9.84422 7.18751Z" fill="#161616"/>
</g>
<defs>
<clipPath id="clip0_5209_43103">
<rect width="40" height="40" fill="white"/>
</clipPath>
</defs>
</svg>
