<svg viewBox="0 0 80 16" fill="none" xmlns="http://www.w3.org/2000/svg" xmlns:xlink="http://www.w3.org/1999/xlink" x="0" y="0"><defs><clipPath id="clip3_5362_36720">
<rect width="16" height="16" fill="white" transform="translate(0, 0)"/>
</clipPath><clipPath id="clip4_5362_36720">
<rect width="16" height="16" fill="white" transform="translate(0, 0)"/>
</clipPath><clipPath id="clip5_5362_36720">
<rect width="16" height="16" fill="white" transform="translate(16, 0)"/>
</clipPath><clipPath id="clip6_5362_36720">
<rect width="16" height="16" fill="white" transform="translate(16, 0)"/>
</clipPath><clipPath id="clip7_5362_36720">
<rect width="16" height="16" fill="white" transform="translate(32, 0)"/>
</clipPath><clipPath id="clip8_5362_36720">
<rect width="16" height="16" fill="white" transform="translate(32, 0)"/>
</clipPath><clipPath id="clip9_5362_36720">
<rect width="16" height="16" fill="white" transform="translate(48, 0)"/>
</clipPath><clipPath id="clip10_5362_36720">
<rect width="16" height="16" fill="white" transform="translate(48, 0)"/>
</clipPath><clipPath id="clip11_5362_36720">
<rect width="16" height="16" fill="white" transform="translate(64, 0)"/>
</clipPath><clipPath id="clip12_5362_36720">
<rect width="16" height="16" fill="white" transform="translate(64, 0)"/>
</clipPath></defs><g id="Stars">
<g id="Star icon" clip-path="url(#clip3_5362_36720)">
<path id="Star background" d="M7.261,2.176c0.274,-0.657 1.204,-0.657 1.478,0l1.189,2.86c0.116,0.277 0.376,0.467 0.675,0.49l3.088,0.248c0.709,0.057 0.997,0.942 0.457,1.405l-2.353,2.015c-0.228,0.196 -0.327,0.502 -0.258,0.794l0.719,3.013c0.165,0.692 -0.588,1.239 -1.195,0.868l-2.644,-1.614c-0.256,-0.157 -0.578,-0.157 -0.834,0l-2.644,1.614c-0.607,0.371 -1.36,-0.176 -1.195,-0.868l0.719,-3.013c0.069,-0.292 -0.03,-0.598 -0.258,-0.794l-2.353,-2.015c-0.54,-0.463 -0.252,-1.348 0.457,-1.405l3.088,-0.248c0.299,-0.023 0.559,-0.213 0.675,-0.49z" fill="white"/>
<g id="Star" clip-path="url(#clip4_5362_36720)">
<path id="Star_2" d="M7.261,2.176c0.274,-0.657 1.204,-0.657 1.478,0l1.189,2.86c0.116,0.277 0.376,0.467 0.675,0.49l3.088,0.248c0.709,0.057 0.997,0.942 0.457,1.405l-2.353,2.015c-0.228,0.196 -0.327,0.502 -0.258,0.794l0.719,3.013c0.165,0.692 -0.588,1.239 -1.195,0.868l-2.644,-1.614c-0.256,-0.157 -0.578,-0.157 -0.834,0l-2.644,1.614c-0.607,0.371 -1.36,-0.176 -1.195,-0.868l0.719,-3.013c0.069,-0.292 -0.03,-0.598 -0.258,-0.794l-2.353,-2.015c-0.54,-0.463 -0.252,-1.348 0.457,-1.405l3.088,-0.248c0.299,-0.023 0.559,-0.213 0.675,-0.49z" fill="currentColor"/>
</g>
</g>
<g id="Star icon_2" clip-path="url(#clip5_5362_36720)">
<path id="Star background_2" d="M23.261,2.176c0.274,-0.657 1.204,-0.657 1.478,0l1.189,2.86c0.116,0.277 0.376,0.467 0.675,0.49l3.088,0.248c0.709,0.057 0.997,0.942 0.457,1.405l-2.353,2.015c-0.228,0.196 -0.327,0.502 -0.258,0.794l0.719,3.013c0.165,0.692 -0.588,1.239 -1.195,0.868l-2.644,-1.614c-0.256,-0.157 -0.578,-0.157 -0.834,0l-2.644,1.614c-0.607,0.371 -1.36,-0.176 -1.195,-0.868l0.719,-3.013c0.069,-0.292 -0.03,-0.598 -0.258,-0.794l-2.353,-2.015c-0.54,-0.463 -0.252,-1.348 0.457,-1.405l3.088,-0.248c0.299,-0.023 0.559,-0.213 0.675,-0.49z" fill="white"/>
<g id="Star_3" clip-path="url(#clip6_5362_36720)">
<path id="Star_4" d="M23.261,2.176c0.274,-0.657 1.204,-0.657 1.478,0l1.189,2.86c0.116,0.277 0.376,0.467 0.675,0.49l3.088,0.248c0.709,0.057 0.997,0.942 0.457,1.405l-2.353,2.015c-0.228,0.196 -0.327,0.502 -0.258,0.794l0.719,3.013c0.165,0.692 -0.588,1.239 -1.195,0.868l-2.644,-1.614c-0.256,-0.157 -0.578,-0.157 -0.834,0l-2.644,1.614c-0.607,0.371 -1.36,-0.176 -1.195,-0.868l0.719,-3.013c0.069,-0.292 -0.03,-0.598 -0.258,-0.794l-2.353,-2.015c-0.54,-0.463 -0.252,-1.348 0.457,-1.405l3.088,-0.248c0.299,-0.023 0.559,-0.213 0.675,-0.49z" fill="currentColor"/>
</g>
</g>
<g id="Star icon_3" clip-path="url(#clip7_5362_36720)">
<path id="Star background_3" d="M39.261,2.176c0.274,-0.657 1.204,-0.657 1.478,0l1.189,2.86c0.116,0.277 0.376,0.467 0.675,0.49l3.088,0.248c0.709,0.057 0.997,0.942 0.457,1.405l-2.353,2.015c-0.228,0.196 -0.327,0.502 -0.258,0.794l0.719,3.013c0.165,0.692 -0.588,1.239 -1.195,0.868l-2.644,-1.614c-0.256,-0.157 -0.578,-0.157 -0.834,0l-2.644,1.614c-0.607,0.371 -1.36,-0.176 -1.195,-0.868l0.719,-3.013c0.069,-0.292 -0.03,-0.598 -0.258,-0.794l-2.353,-2.015c-0.54,-0.463 -0.252,-1.348 0.457,-1.405l3.088,-0.248c0.299,-0.023 0.559,-0.213 0.675,-0.49z" fill="white"/>
<g id="Star_5" clip-path="url(#clip8_5362_36720)">
<path id="Star_6" d="M39.261,2.176c0.274,-0.657 1.204,-0.657 1.478,0l1.189,2.86c0.116,0.277 0.376,0.467 0.675,0.49l3.088,0.248c0.709,0.057 0.997,0.942 0.457,1.405l-2.353,2.015c-0.228,0.196 -0.327,0.502 -0.258,0.794l0.719,3.013c0.165,0.692 -0.588,1.239 -1.195,0.868l-2.644,-1.614c-0.256,-0.157 -0.578,-0.157 -0.834,0l-2.644,1.614c-0.607,0.371 -1.36,-0.176 -1.195,-0.868l0.719,-3.013c0.069,-0.292 -0.03,-0.598 -0.258,-0.794l-2.353,-2.015c-0.54,-0.463 -0.252,-1.348 0.457,-1.405l3.088,-0.248c0.299,-0.023 0.559,-0.213 0.675,-0.49z" fill="currentColor"/>
</g>
</g>
<g id="Star icon_4" clip-path="url(#clip9_5362_36720)">
<path id="Star background_4" d="M55.261,2.176c0.274,-0.657 1.204,-0.657 1.478,0l1.189,2.86c0.116,0.277 0.376,0.467 0.675,0.49l3.088,0.248c0.709,0.057 0.997,0.942 0.457,1.405l-2.353,2.015c-0.228,0.196 -0.327,0.502 -0.258,0.794l0.719,3.013c0.165,0.692 -0.588,1.239 -1.195,0.868l-2.644,-1.614c-0.256,-0.157 -0.578,-0.157 -0.834,0l-2.644,1.614c-0.607,0.371 -1.36,-0.176 -1.195,-0.868l0.719,-3.013c0.069,-0.292 -0.03,-0.598 -0.258,-0.794l-2.353,-2.015c-0.54,-0.463 -0.252,-1.348 0.457,-1.405l3.088,-0.248c0.299,-0.023 0.559,-0.213 0.675,-0.49z" fill="white"/>
<g id="Star_7" clip-path="url(#clip10_5362_36720)">
<path id="Star_8" d="M55.261,2.176c0.274,-0.657 1.204,-0.657 1.478,0l1.189,2.86c0.116,0.277 0.376,0.467 0.675,0.49l3.088,0.248c0.709,0.057 0.997,0.942 0.457,1.405l-2.353,2.015c-0.228,0.196 -0.327,0.502 -0.258,0.794l0.719,3.013c0.165,0.692 -0.588,1.239 -1.195,0.868l-2.644,-1.614c-0.256,-0.157 -0.578,-0.157 -0.834,0l-2.644,1.614c-0.607,0.371 -1.36,-0.176 -1.195,-0.868l0.719,-3.013c0.069,-0.292 -0.03,-0.598 -0.258,-0.794l-2.353,-2.015c-0.54,-0.463 -0.252,-1.348 0.457,-1.405l3.088,-0.248c0.299,-0.023 0.559,-0.213 0.675,-0.49z" fill="currentColor"/>
</g>
</g>
<g id="Star icon_5" clip-path="url(#clip11_5362_36720)">
<path id="Star background_5" d="M71.261,2.176c0.274,-0.657 1.204,-0.657 1.478,0l1.189,2.86c0.116,0.277 0.376,0.467 0.675,0.49l3.088,0.248c0.709,0.057 0.997,0.942 0.457,1.405l-2.353,2.015c-0.228,0.196 -0.327,0.502 -0.258,0.794l0.719,3.013c0.165,0.692 -0.588,1.239 -1.195,0.868l-2.644,-1.614c-0.256,-0.157 -0.578,-0.157 -0.834,0l-2.644,1.614c-0.607,0.371 -1.36,-0.176 -1.195,-0.868l0.719,-3.013c0.069,-0.292 -0.03,-0.598 -0.258,-0.794l-2.353,-2.015c-0.54,-0.463 -0.252,-1.348 0.457,-1.405l3.088,-0.248c0.299,-0.023 0.559,-0.213 0.675,-0.49z" fill="white"/>
<g id="Star_9" clip-path="url(#clip12_5362_36720)">
<path id="Star_10" d="M71.261,2.176c0.274,-0.657 1.204,-0.657 1.478,0l1.189,2.86c0.116,0.277 0.376,0.467 0.675,0.49l3.088,0.248c0.709,0.057 0.997,0.942 0.457,1.405l-2.353,2.015c-0.228,0.196 -0.327,0.502 -0.258,0.794l0.719,3.013c0.165,0.692 -0.588,1.239 -1.195,0.868l-2.644,-1.614c-0.256,-0.157 -0.578,-0.157 -0.834,0l-2.644,1.614c-0.607,0.371 -1.36,-0.176 -1.195,-0.868l0.719,-3.013c0.069,-0.292 -0.03,-0.598 -0.258,-0.794l-2.353,-2.015c-0.54,-0.463 -0.252,-1.348 0.457,-1.405l3.088,-0.248c0.299,-0.023 0.559,-0.213 0.675,-0.49z" fill="currentColor"/>
</g>
</g>
</g></svg>