<svg viewBox="0 0 16.5 18.1637" fill="none" xmlns="http://www.w3.org/2000/svg" xmlns:xlink="http://www.w3.org/1999/xlink" x="0" y="0"><path id="Vector" d="M9.69,16.5833c-0.15,0.2526 -0.36,0.4622 -0.61,0.608c-0.25,0.1457 -0.54,0.2224 -0.83,0.2224c-0.29,0 -0.58,-0.0767 -0.83,-0.2224c-0.26,-0.1458 -0.47,-0.3554 -0.61,-0.608M13.25,5.75c0,-1.3261 -0.53,-2.5978 -1.46,-3.5355c-0.94,-0.9377 -2.21,-1.4645 -3.54,-1.4645c-1.33,0 -2.6,0.5268 -3.54,1.4645c-0.93,0.9377 -1.46,2.2094 -1.46,3.5355c0,5.8333 -2.5,7.5 -2.5,7.5h15c0,0 -2.5,-1.6667 -2.5,-7.5z" stroke="#AF060D" stroke-width="1.5" stroke-linecap="round" stroke-linejoin="round"/></svg>