<svg viewBox="0 0 16.5 18.1667" fill="none" xmlns="http://www.w3.org/2000/svg" xmlns:xlink="http://www.w3.org/1999/xlink" x="0" y="0"><path id="Vector_16" d="M8.25,0.7505h-5.8333c-0.4421,0 -0.866,0.175 -1.1785,0.488c-0.3126,0.312 -0.4882,0.736 -0.4882,1.178v13.334c0,0.442 0.1756,0.865 0.4882,1.178c0.3125,0.313 0.7364,0.488 1.1785,0.488h5.8333M8.25,0.7505l5.8333,5.833M8.25,0.7505v5.833h5.8333M14.0833,7.4165v-0.833M15.75,11.5835c0,3.333 -2.0833,5 -2.9167,5c-0.8333,0 -2.9166,-1.667 -2.9166,-5c0.8333,0 2.0833,-0.417 2.9166,-1.25c0.8334,0.833 2.0834,1.25 2.9167,1.25z" stroke="white" stroke-width="1.5" stroke-linecap="round" stroke-linejoin="round"/></svg>