<svg viewBox="0 0 18.1667 18.1667" fill="none" xmlns="http://www.w3.org/2000/svg" xmlns:xlink="http://www.w3.org/1999/xlink" x="0" y="0"><path id="Vector_17" d="M5.8838,2.4265l0.1173,0.74v0zM6.6384,2.1135l0.4408,0.607v0zM2.7,4.1545l-0.7408,-0.118v0zM4.1541,2.6995l-0.1173,-0.74v0zM2.1135,6.6385l-0.6068,-0.441v0zM2.426,5.8835l0.7408,0.118zM1.0841,10.1115l-0.6067,0.441v0zM1.0841,8.0555l0.6068,0.44v0zM2.426,12.2825l0.7408,-0.117v0zM2.1135,11.5285l0.6067,-0.441v0zM4.1541,15.4665l0.1173,-0.741v0zM2.7,14.0125l-0.7408,0.117v0zM6.6384,16.0535l0.4408,-0.607v0zM5.8838,15.7405l-0.1173,0.741v0zM10.1116,17.0825l0.4408,0.607v0zM8.0551,17.0825l-0.4408,0.607v0zM12.2829,15.7405l0.1173,0.741v0zM11.5283,16.0535l-0.4408,-0.607v0zM15.4667,14.0125l-0.7407,-0.117v0zM14.0126,15.4665l-0.1173,-0.741v0zM16.0532,11.5285l-0.6067,-0.441v0zM15.7407,12.2825l0.7407,0.118v0zM17.0826,8.0555l0.6067,-0.441v0zM17.0826,10.1115l0.6067,0.441v0zM15.7407,5.8835l0.7407,-0.117v0zM16.0532,6.6385l-0.6067,0.441v0zM14.0126,2.6995l0.1173,-0.74v0zM15.4667,4.1545l-0.7407,0.117v0zM11.5283,2.1135l-0.4408,0.607v0zM12.2829,2.4265l-0.1173,0.74v0zM10.1116,1.0845l0.4408,-0.607v0zM8.0551,1.0845l-0.4408,-0.607v0zM7.1137,8.5535c-0.2929,-0.293 -0.7678,-0.293 -1.0607,0c-0.2929,0.292 -0.2929,0.767 0,1.06l0.5303,-0.53zM8.25,10.7505l-0.5303,0.53c0.2929,0.293 0.7678,0.293 1.0606,0zM12.1137,7.9475c0.2929,-0.293 0.2929,-0.768 0,-1.061c-0.2929,-0.293 -0.7678,-0.293 -1.0607,0l0.5303,0.53zM10.1116,1.0845l-0.4409,0.606l1.4168,1.03l0.4408,-0.607l0.4409,-0.607l-1.4168,-1.029zM12.2829,2.4265l-0.1173,0.74l1.7297,0.274l0.1173,-0.741l0.1173,-0.74l-1.7297,-0.274zM15.4667,4.1545l-0.7407,0.117l0.2739,1.73l0.7408,-0.118l0.7407,-0.117l-0.2739,-1.73zM16.0532,6.6385l-0.6067,0.441l1.0293,1.416l0.6068,-0.44l0.6067,-0.441l-1.0293,-1.417zM17.0826,10.1115l-0.6068,-0.441l-1.0293,1.417l0.6067,0.441l0.6068,0.441l1.0293,-1.417zM15.7407,12.2825l-0.7408,-0.117l-0.2739,1.73l0.7407,0.117l0.7408,0.117l0.2739,-1.729zM14.0126,15.4665l-0.1173,-0.741l-1.7297,0.274l0.1173,0.741l0.1173,0.741l1.7297,-0.274zM11.5283,16.0535l-0.4408,-0.607l-1.4168,1.029l0.4409,0.607l0.4408,0.607l1.4168,-1.03zM8.0551,17.0825l0.4409,-0.607l-1.4168,-1.029l-0.4408,0.607l-0.4409,0.606l1.4168,1.03zM5.8838,15.7405l0.1173,-0.741l-1.7297,-0.274l-0.1173,0.741l-0.1173,0.741l1.7297,0.274zM2.7,14.0125l0.7407,-0.117l-0.2739,-1.73l-0.7408,0.117l-0.7407,0.118l0.2739,1.729zM2.1135,11.5285l0.6067,-0.441l-1.0293,-1.417l-0.6068,0.441l-0.6067,0.441l1.0293,1.417zM1.0841,8.0555l0.6068,0.44l1.0293,-1.416l-0.6067,-0.441l-0.6068,-0.441l-1.0293,1.417zM2.426,5.8835l0.7408,0.118l0.2739,-1.73l-0.7407,-0.117l-0.7408,-0.118l-0.2739,1.73zM4.1541,2.6995l0.1173,0.741l1.7297,-0.274l-0.1173,-0.74l-0.1173,-0.741l-1.7297,0.274zM6.6384,2.1135l0.4408,0.607l1.4168,-1.03l-0.4409,-0.606l-0.4408,-0.607l-1.4168,1.029zM5.8838,2.4265l0.1173,0.74c0.3896,-0.061 0.759,-0.214 1.0781,-0.446l-0.4408,-0.607l-0.4409,-0.607c-0.1276,0.093 -0.2753,0.154 -0.431,0.179zM2.7,4.1545l0.7407,0.117c0.0678,-0.428 0.4031,-0.763 0.8307,-0.831l-0.1173,-0.741l-0.1173,-0.74c-1.0695,0.169 -1.9082,1.008 -2.0776,2.077zM2.1135,6.6385l0.6067,0.441c0.2319,-0.319 0.3849,-0.689 0.4466,-1.078l-0.7408,-0.118l-0.7407,-0.117c-0.0247,0.156 -0.0859,0.303 -0.1786,0.431zM1.0841,10.1115l0.6068,-0.441c-0.2545,-0.35 -0.2545,-0.824 0,-1.175l-0.6068,-0.44l-0.6067,-0.441c-0.6365,0.876 -0.6365,2.062 0,2.938zM2.426,12.2825l0.7408,-0.117c-0.0617,-0.389 -0.2147,-0.759 -0.4466,-1.078l-0.6067,0.441l-0.6068,0.441c0.0927,0.127 0.1539,0.275 0.1786,0.431zM4.1541,15.4665l0.1173,-0.741c-0.4276,-0.067 -0.7629,-0.403 -0.8307,-0.83l-0.7407,0.117l-0.7408,0.117c0.1694,1.07 1.0081,1.909 2.0776,2.078zM6.6384,16.0535l0.4408,-0.607c-0.3191,-0.232 -0.6885,-0.385 -1.0781,-0.447l-0.1173,0.741l-0.1173,0.741c0.1557,0.025 0.3034,0.086 0.431,0.178zM10.1116,17.0825l-0.4409,-0.607c-0.3502,0.255 -0.8245,0.255 -1.1747,0l-0.4409,0.607l-0.4408,0.607c0.876,0.636 2.0621,0.636 2.9381,0zM12.2829,15.7405l-0.1173,-0.741c-0.3896,0.062 -0.759,0.215 -1.0781,0.447l0.4408,0.607l0.4409,0.606c0.1276,-0.092 0.2753,-0.153 0.431,-0.178zM15.4667,14.0125l-0.7407,-0.117c-0.0678,0.427 -0.4031,0.763 -0.8307,0.83l0.1173,0.741l0.1173,0.741c1.0695,-0.169 1.9082,-1.008 2.0776,-2.078zM16.0532,11.5285l-0.6067,-0.441c-0.2319,0.319 -0.3849,0.689 -0.4466,1.078l0.7408,0.117l0.7407,0.118c0.0247,-0.156 0.0859,-0.304 0.1786,-0.431zM17.0826,8.0555l-0.6068,0.44c0.2545,0.351 0.2545,0.825 0,1.175l0.6068,0.441l0.6067,0.441c0.6365,-0.876 0.6365,-2.062 0,-2.938zM15.7407,5.8835l-0.7408,0.118c0.0617,0.389 0.2147,0.759 0.4466,1.078l0.6067,-0.441l0.6068,-0.441c-0.0927,-0.128 -0.1539,-0.275 -0.1786,-0.431zM14.0126,2.6995l-0.1173,0.741c0.4276,0.068 0.7629,0.403 0.8307,0.831l0.7407,-0.117l0.7408,-0.118c-0.1694,-1.069 -1.0081,-1.908 -2.0776,-2.077zM11.5283,2.1135l-0.4408,0.607c0.3191,0.232 0.6885,0.385 1.0781,0.446l0.1173,-0.74l0.1173,-0.741c-0.1557,-0.025 -0.3034,-0.086 -0.431,-0.179zM10.1116,1.0845l0.4408,-0.607c-0.876,-0.637 -2.0621,-0.637 -2.9381,0l0.4408,0.607l0.4409,0.606c0.3502,-0.254 0.8245,-0.254 1.1747,0zM6.5833,9.0835l-0.5303,0.53l1.6667,1.667l0.5303,-0.53l0.5303,-0.531l-1.6666,-1.666zM8.25,10.7505l0.5303,0.53l3.3334,-3.333l-0.5304,-0.531l-0.5303,-0.53l-3.3333,3.333z" fill="currentColor"/></svg>