<svg viewBox="0 0 18.1667 16.5" fill="none" xmlns="http://www.w3.org/2000/svg" xmlns:xlink="http://www.w3.org/1999/xlink" x="0" y="0"><path id="Vector_13" d="M13.25,15.75v-1.667c0,-0.884 -0.3512,-1.732 -0.9763,-2.357c-0.6251,-0.625 -1.473,-0.976 -2.357,-0.976h-5.8334c-0.884,0 -1.7319,0.351 -2.357,0.976c-0.6251,0.625 -0.9763,1.473 -0.9763,2.357v1.667M12.4375,1.001c1.2106,0.499 2.0626,1.691 2.0626,3.082c0,1.402 -0.8652,2.602 -2.0907,3.094M17.4167,15.75v-1.667c-0.0006,-0.738 -0.2464,-1.456 -0.6989,-2.04c-0.4525,-0.583 -1.086,-1 -1.8011,-1.185M10.3333,4.083c0,1.841 -1.4923,3.334 -3.3333,3.334c-1.8409,0 -3.3333,-1.493 -3.3333,-3.334c0,-1.841 1.4924,-3.333 3.3333,-3.333c1.841,0 3.3333,1.492 3.3333,3.333z" stroke="white" stroke-width="1.5" stroke-linecap="round" stroke-linejoin="round"/></svg>