<svg viewBox="0 0 16.5 16.5" fill="none" xmlns="http://www.w3.org/2000/svg" xmlns:xlink="http://www.w3.org/1999/xlink" x="0" y="0"><g id="Vector_12">
<path d="M5.75,0.75h-4.1667c-0.4602,0 -0.8333,0.3731 -0.8333,0.8333v3.3337c0,0.46 0.3731,0.833 0.8333,0.833h4.1667c0.4602,0 0.8333,-0.373 0.8333,-0.833v-3.3337c0,-0.4602 -0.3731,-0.8333 -0.8333,-0.8333z" stroke="white" stroke-width="1.5" stroke-linecap="round" stroke-linejoin="round"/>
<path d="M14.9167,0.75h-4.1667c-0.4602,0 -0.8333,0.3731 -0.8333,0.8333v4.9997c0,0.461 0.3731,0.834 0.8333,0.834h4.1667c0.4602,0 0.8333,-0.373 0.8333,-0.834v-4.9997c0,-0.4602 -0.3731,-0.8333 -0.8333,-0.8333z" stroke="white" stroke-width="1.5" stroke-linecap="round" stroke-linejoin="round"/>
<path d="M14.9167,10.75h-4.1667c-0.4602,0 -0.8333,0.373 -0.8333,0.833v3.334c0,0.46 0.3731,0.833 0.8333,0.833h4.1667c0.4602,0 0.8333,-0.373 0.8333,-0.833v-3.334c0,-0.46 -0.3731,-0.833 -0.8333,-0.833z" stroke="white" stroke-width="1.5" stroke-linecap="round" stroke-linejoin="round"/>
<path d="M5.75,9.083h-4.1667c-0.4602,0 -0.8333,0.373 -0.8333,0.834v5c0,0.46 0.3731,0.833 0.8333,0.833h4.1667c0.4602,0 0.8333,-0.373 0.8333,-0.833v-5c0,-0.461 -0.3731,-0.834 -0.8333,-0.834z" stroke="white" stroke-width="1.5" stroke-linecap="round" stroke-linejoin="round"/>
</g></svg>