<svg viewBox="0 0 4.88 14" fill="none" xmlns="http://www.w3.org/2000/svg" x="0" y="0"><path id="Vector_25" d="M2.2005,4h2l-2.2,10h-2zM3.8805,0c-0.198,0 -0.392,0.059 -0.556,0.169c-0.164,0.109 -0.293,0.266 -0.368,0.448c-0.076,0.183 -0.096,0.384 -0.057,0.578c0.038,0.194 0.134,0.372 0.273,0.512c0.14,0.14 0.318,0.235 0.512,0.274c0.194,0.038 0.396,0.019 0.578,-0.057c0.183,-0.076 0.339,-0.204 0.449,-0.368c0.11,-0.165 0.169,-0.358 0.169,-0.556c0,-0.265 -0.106,-0.52 -0.293,-0.707c-0.188,-0.188 -0.442,-0.293 -0.707,-0.293z" fill="currentColor"/></svg>