<svg viewBox="0 0 10.7002 14" fill="none" xmlns="http://www.w3.org/2000/svg" x="0" y="0"><path id="Vector_24" d="M8.5996,6.8c0.49,-0.3 0.903,-0.71 1.207,-1.19c0.304,-0.49 0.49,-1.039 0.543,-1.61c0.01,-0.516 -0.083,-1.029 -0.272,-1.509c-0.189,-0.481 -0.471,-0.919 -0.829,-1.291c-0.358,-0.371 -0.787,-0.668 -1.26,-0.874c-0.473,-0.206 -0.982,-0.317 -1.499,-0.326h-6.49v14h7c0.492,-0.01 0.977,-0.11 1.429,-0.3c0.451,-0.19 0.861,-0.47 1.204,-0.82c0.344,-0.35 0.615,-0.77 0.798,-1.23c0.183,-0.45 0.275,-0.94 0.269,-1.43v-0.12c0.001,-0.69 -0.197,-1.37 -0.569,-1.96c-0.372,-0.58 -0.903,-1.05 -1.531,-1.34zM1.9996,2h4.2c0.427,-0.013 0.847,0.104 1.204,0.337c0.358,0.232 0.635,0.568 0.796,0.963c0.163,0.528 0.111,1.099 -0.146,1.588c-0.257,0.492 -0.697,0.852 -1.224,1.022c-0.204,0.06 -0.416,0.09 -0.63,0.09h-4.2zM6.5996,12h-4.6v-4h4.6c0.427,-0.01 0.847,0.1 1.204,0.34c0.358,0.23 0.635,0.57 0.796,0.96c0.163,0.53 0.111,1.1 -0.146,1.59c-0.257,0.49 -0.697,0.85 -1.224,1.02c-0.204,0.06 -0.416,0.09 -0.63,0.09z" fill="currentColor"/></svg>