<svg viewBox="0 0 14 17" fill="none" xmlns="http://www.w3.org/2000/svg" x="0" y="0"><path id="Vector_26" d="M14,15v2h-14v-2zM11,8.22c-0.033,0.65 -0.229,1.3 -0.57,1.86c-0.342,0.57 -0.818,1.04 -1.386,1.38c-0.569,0.33 -1.212,0.52 -1.872,0.55c-0.661,0.03 -1.317,-0.11 -1.912,-0.4c-0.685,-0.29 -1.267,-0.79 -1.669,-1.41c-0.403,-0.63 -0.609,-1.37 -0.591,-2.11v-8.085h-2v8.215c0.034,0.94 0.289,1.86 0.744,2.68c0.456,0.83 1.099,1.53 1.878,2.06c0.779,0.53 1.672,0.87 2.606,0.99c0.935,0.12 1.884,0.02 2.772,-0.29c1.181,-0.4 2.206,-1.16 2.925,-2.17c0.72,-1.02 1.096,-2.24 1.075,-3.48v-8.005h-2zM11,0h2zM3,0h-2z" fill="currentColor"/></svg>