<svg viewBox="0 0 18.1667 18.1667" fill="none" xmlns="http://www.w3.org/2000/svg" xmlns:xlink="http://www.w3.org/1999/xlink" x="0" y="0"><path id="Vector_19" d="M6.6542,6.5855c0.1959,-0.557 0.5826,-1.027 1.0916,-1.326c0.509,-0.299 1.1075,-0.409 1.6894,-0.309c0.5819,0.1 1.1097,0.403 1.4899,0.854c0.3802,0.452 0.5883,1.024 0.5874,1.614c0,1.667 -2.5,2.5 -2.5,2.5M9.0792,13.2515h0.0084M17.4167,9.0835c0,4.602 -3.731,8.333 -8.3334,8.333c-4.6023,0 -8.3333,-3.731 -8.3333,-8.333c0,-4.603 3.731,-8.333 8.3333,-8.333c4.6024,0 8.3334,3.73 8.3334,8.333z" stroke="white" stroke-width="1.5" stroke-linecap="round" stroke-linejoin="round"/></svg>