<svg viewBox="0 0 88.6736 36" fill="none" xmlns="http://www.w3.org/2000/svg" xmlns:xlink="http://www.w3.org/1999/xlink" x="0" y="0"><g id="_1986261487648">
<g id="Group">
<path id="Vector_2" d="M34.4277,23.1018v-11.4086h2.0825v5.9418l-0.5665,-0.1991l4.8543,-5.7427h2.6186l-4.548,5.3904l0.1223,-1.4698l4.5635,7.4881h-2.45l-3.0627,-5.0227l-1.5315,1.8221v3.2006h-2.0825zM48.1206,23.2856c-0.8166,0 -1.562,-0.189 -2.2357,-0.5668c-0.6637,-0.3778 -1.1945,-0.8933 -1.5926,-1.5467c-0.388,-0.6533 -0.5819,-1.3986 -0.5819,-2.2358c0,-0.8371 0.1939,-1.5821 0.5819,-2.2356c0.3981,-0.6534 0.9289,-1.1691 1.5926,-1.5466c0.6635,-0.3778 1.4089,-0.5668 2.2357,-0.5668c0.8166,0 1.5569,0.189 2.2205,0.5668c0.6635,0.3774 1.1893,0.893 1.5772,1.5466c0.3981,0.6429 0.597,1.3883 0.597,2.2356c0,0.8372 -0.1991,1.5825 -0.597,2.2358c-0.3982,0.6534 -0.929,1.1689 -1.5928,1.5467c-0.6635,0.3778 -1.3984,0.5668 -2.2049,0.5668zM48.1206,21.4478c0.4492,0 0.8422,-0.1071 1.1792,-0.3217c0.3469,-0.2142 0.6174,-0.5104 0.8116,-0.888c0.2042,-0.3879 0.3061,-0.8219 0.3061,-1.3018c0,-0.49 -0.102,-0.9187 -0.3061,-1.286c-0.1942,-0.3778 -0.4645,-0.6737 -0.8116,-0.8883c-0.337,-0.2248 -0.73,-0.337 -1.1792,-0.337c-0.4594,0 -0.8626,0.1122 -1.2097,0.337c-0.3472,0.2146 -0.6228,0.5105 -0.827,0.8883c-0.1939,0.3673 -0.2911,0.7961 -0.2911,1.286c0,0.4799 0.0972,0.9139 0.2911,1.3018c0.2042,0.3777 0.4798,0.6738 0.827,0.888c0.3471,0.2145 0.7503,0.3217 1.2097,0.3217zM53.7306,23.1018v-11.592h2.0059v11.592zM59.8092,23.2856c-0.5819,0 -1.0874,-0.0973 -1.516,-0.2908c-0.4287,-0.1943 -0.7604,-0.47 -0.9954,-0.8271c-0.2347,-0.3676 -0.3522,-0.7915 -0.3522,-1.2709c0,-0.4594 0.1022,-0.868 0.3064,-1.2251c0.2042,-0.3676 0.5207,-0.674 0.9494,-0.9192c0.4287,-0.245 0.9699,-0.4185 1.6232,-0.5204l2.7257,-0.4441v1.5312l-2.3428,0.398c-0.3981,0.0715 -0.6943,0.1991 -0.8883,0.383c-0.194,0.1838 -0.2908,0.4236 -0.2908,0.7197c0,0.2858 0.1073,0.5155 0.3215,0.6891c0.2248,0.1631 0.5003,0.2449 0.8269,0.2449c0.4188,0 0.7861,-0.0866 1.1027,-0.2603c0.3267,-0.1838 0.5768,-0.4338 0.7505,-0.7502c0.1835,-0.3165 0.2755,-0.6637 0.2755,-1.0415v-2.1438c0,-0.3571 -0.1431,-0.6533 -0.4288,-0.888c-0.2757,-0.2452 -0.6432,-0.3678 -1.1027,-0.3678c-0.4286,0 -0.8115,0.1176 -1.1483,0.3525c-0.3267,0.2246 -0.5667,0.5257 -0.7198,0.9033l-1.6385,-0.7963c0.1633,-0.4387 0.4185,-0.8165 0.7657,-1.1332c0.3572,-0.3266 0.776,-0.5819 1.2557,-0.7657c0.4797,-0.1838 1.0004,-0.2756 1.562,-0.2756c0.684,0 1.2863,0.1277 1.807,0.383c0.5206,0.2448 0.9239,0.592 1.2099,1.0411c0.2959,0.4391 0.4441,0.9547 0.4441,1.5467v5.5436h-1.899v-1.4242l0.429,-0.0308c-0.2144,0.3575 -0.4696,0.6586 -0.7658,0.9033c-0.2962,0.2348 -0.6328,0.4186 -1.0106,0.5515c-0.3778,0.1225 -0.7963,0.1838 -1.2556,0.1838zM65.8592,23.1018v-8.3304h1.8835v1.6384l-0.153,-0.2911c0.194,-0.5001 0.5104,-0.878 0.9496,-1.133c0.4491,-0.2654 0.9696,-0.3982 1.5618,-0.3982c0.6125,0 1.1538,0.133 1.6233,0.3982c0.48,0.2654 0.8524,0.6381 1.1179,1.1177c0.2654,0.4699 0.3982,1.016 0.3982,1.6388v5.3597h-2.0061v-4.8848c0,-0.3678 -0.0714,-0.6842 -0.2144,-0.9496c-0.1429,-0.2655 -0.342,-0.4695 -0.5972,-0.6124c-0.245,-0.1533 -0.536,-0.2299 -0.873,-0.2299c-0.3266,0 -0.6178,0.0766 -0.8728,0.2299c-0.2552,0.1429 -0.4543,0.3469 -0.5972,0.6124c-0.1428,0.2654 -0.2144,0.5818 -0.2144,0.9496v4.8848h-2.0061zM77.6013,23.2856c-0.6433,0 -1.2049,-0.1431 -1.6846,-0.4289c-0.4696,-0.2858 -0.8319,-0.6842 -1.0872,-1.1943c-0.245,-0.5107 -0.3676,-1.1081 -0.3676,-1.7919v-5.0991h2.0062v4.9307c0,0.3473 0.0663,0.6534 0.199,0.919c0.1431,0.255 0.3419,0.4593 0.5972,0.6126c0.2654,0.1425 0.5615,0.2142 0.8881,0.2142c0.3267,0 0.6177,-0.0715 0.873,-0.2142c0.2552,-0.1533 0.4543,-0.3625 0.5972,-0.6279c0.1428,-0.2655 0.2143,-0.5821 0.2143,-0.9495v-4.8849h2.0061v8.3304h-1.8988v-1.6386l0.1685,0.2908c-0.194,0.5107 -0.5156,0.8934 -0.9648,1.1485c-0.4389,0.2553 -0.9544,0.383 -1.5465,0.383zM87.199,23.1936c-0.939,0 -1.669,-0.2554 -2.19,-0.7658c-0.51,-0.5207 -0.765,-1.2505 -0.765,-2.1897v-3.6751h-1.4398v-1.7916h0.1531c0.4083,0 0.7249,-0.1073 0.9495,-0.3217c0.2242,-0.2144 0.3372,-0.5255 0.3372,-0.9341v-0.6432h2.006v1.899h1.914v1.7916h-1.914v3.5679c0,0.2756 0.046,0.5104 0.137,0.7044c0.103,0.1939 0.256,0.342 0.46,0.4441c0.214,0.102 0.485,0.1532 0.811,0.1532c0.072,0 0.153,-0.0049 0.245,-0.0151c0.103,-0.0103 0.2,-0.0205 0.291,-0.0306v1.715c-0.143,0.0203 -0.306,0.0408 -0.49,0.0611c-0.183,0.0207 -0.352,0.0308 -0.505,0.0308z" fill="currentColor"/>
</g>
<path id="Vector_3" fill-rule="evenodd" clip-rule="evenodd" d="M18.4885,18.4963l0.0212,-1.5212c-0.0017,-0.2534 -0.0151,-0.3757 -0.0229,-0.4269c-0.0183,-0.011 -0.0459,-0.0267 -0.0849,-0.0472c-0.6893,-0.3611 -2.2876,-0.9097 -3.0718,-1.1377v3.1331h3.1584z" fill="currentColor"/>
<path id="Vector_4" fill-rule="evenodd" clip-rule="evenodd" d="M13.7986,18.4966v-3.1323c-0.785,0.2284 -2.382,0.7776 -3.0729,1.1385c-0.0386,0.0202 -0.0662,0.0359 -0.0845,0.0465c-0.0446,0.2812 -0.0091,1.4445 -0.0008,1.9474h3.1581z" fill="currentColor"/>
<path id="Vector_5" fill-rule="evenodd" clip-rule="evenodd" d="M13.7986,20.028h-3.1424c0.0009,0.1757 0.0011,0.3602 0.0011,0.5532c0,2.0559 1.5827,3.3986 3.1413,4.1713v-4.7247z" fill="currentColor"/>
<path id="Vector_6" fill-rule="evenodd" clip-rule="evenodd" d="M15.3301,20.0278v4.7247c1.5588,-0.7725 3.1417,-2.1157 3.1417,-4.1713c0,-0.193 0.0005,-0.3775 0.0012,-0.5532h-3.1429z" fill="currentColor"/>
<path id="Vector_7" d="M69.459,27.3822l0.7961,-2.308h0.5453l0.7961,2.308h-0.4584l-0.1641,-0.4957h-0.8922l-0.1673,0.4957h-0.4554zM70.2025,26.5147h0.6505l-0.3841,-1.1492h0.1177z" fill="currentColor"/>
<path id="_1" d="M73.2402,27.3825v-2.3078h1.5397v0.3718h-1.1183v0.638h0.9788v0.3718h-0.9788v0.9262z" fill="currentColor"/>
<path id="_2" d="M76.4414,27.3822v-2.308h0.858c0.1569,0 0.2958,0.0284 0.4167,0.0852c0.1208,0.0568 0.2153,0.1393 0.2834,0.2479c0.0682,0.1083 0.1023,0.24 0.1023,0.3949c0,0.159 -0.0377,0.2943 -0.1131,0.4058c-0.0754,0.1115 -0.1771,0.1941 -0.3052,0.2478l0.5298,0.9262h-0.477l-0.5669,-1.013l0.2726,0.1611h-0.5793v0.8519h-0.4213zM76.8627,26.1585h0.443c0.0764,0 0.1426,-0.015 0.1983,-0.0449c0.0557,-0.03 0.0991,-0.0718 0.1301,-0.1255c0.0309,-0.0537 0.0465,-0.1156 0.0465,-0.1858c0,-0.0723 -0.0156,-0.1348 -0.0465,-0.1874c-0.031,-0.0527 -0.0744,-0.0939 -0.1301,-0.1239c-0.0557,-0.0299 -0.1218,-0.045 -0.1983,-0.045h-0.443z" fill="currentColor"/>
<path id="_3" d="M79.875,27.3825v-2.3078h0.4213v2.3078z" fill="currentColor"/>
<path id="_4" d="M83.2089,27.4196c-0.1652,0 -0.3175,-0.0299 -0.457,-0.0897c-0.1393,-0.0599 -0.2612,-0.1437 -0.3654,-0.251c-0.1043,-0.1074 -0.1853,-0.2333 -0.2432,-0.3779c-0.0579,-0.1445 -0.0867,-0.3025 -0.0867,-0.4739c0,-0.1715 0.0284,-0.3299 0.0852,-0.4755c0.0568,-0.1456 0.1374,-0.2715 0.2417,-0.3779c0.1042,-0.1064 0.2267,-0.189 0.3671,-0.2478c0.1404,-0.0588 0.2932,-0.0883 0.4584,-0.0883c0.1652,0 0.3133,0.0279 0.4445,0.0836c0.1311,0.0557 0.2422,0.1295 0.333,0.2214c0.0905,0.0919 0.1555,0.1927 0.1955,0.3021l-0.3782,0.1766c-0.0434,-0.1156 -0.1167,-0.2111 -0.22,-0.2866c-0.1033,-0.0754 -0.2281,-0.113 -0.3748,-0.113c-0.1445,0 -0.2721,0.0341 -0.3826,0.1022c-0.1104,0.0682 -0.1963,0.1621 -0.2571,0.2818c-0.0609,0.1198 -0.0913,0.2602 -0.0913,0.4214c0,0.1611 0.0304,0.3021 0.0913,0.4228c0.061,0.1208 0.1467,0.2152 0.2571,0.2834c0.1105,0.0682 0.2381,0.1022 0.3826,0.1022c0.1467,0 0.2715,-0.0376 0.3748,-0.113c0.1033,-0.0754 0.1766,-0.171 0.22,-0.2866l0.3782,0.1766c-0.04,0.1094 -0.105,0.21 -0.1955,0.3019c-0.0908,0.0919 -0.2019,0.1658 -0.333,0.2215c-0.1312,0.0557 -0.2793,0.0836 -0.4445,0.0836z" fill="currentColor"/>
<path id="_5" d="M85.719,27.3822l0.796,-2.308h0.545l0.796,2.308h-0.458l-0.164,-0.4957h-0.892l-0.168,0.4957h-0.455zM86.462,26.5147h0.651l-0.384,-1.1492h0.117z" fill="currentColor"/>
<path id="Vector_8" d="M33.793,34.8642l0.1029,-0.7197h0.6836l-0.108,0.7197z" fill="currentColor"/>
<path id="_1_5" d="M36.0859,34.8642l0.1029,-0.7197h0.6836l-0.1079,0.7197z" fill="currentColor"/>
<path id="_2_6" d="M38.377,34.8642l0.1028,-0.7197h0.6837l-0.108,0.7197z" fill="currentColor"/>
<path id="_3_7" d="M41.9757,34.9259c-0.2193,0 -0.4171,-0.0419 -0.5937,-0.1259c-0.1764,-0.084 -0.3109,-0.2014 -0.4035,-0.3521l0.0875,-0.1234l-0.0719,0.5398h-0.6425l0.5448,-3.8912h0.6785l-0.2261,1.6501l-0.185,-0.1491c0.1097,-0.1507 0.2493,-0.2663 0.4189,-0.347c0.1696,-0.0805 0.3573,-0.1208 0.5628,-0.1208c0.2604,0 0.49,0.0608 0.6888,0.1824c0.1987,0.1217 0.3556,0.2852 0.4704,0.4909c0.1148,0.2056 0.1721,0.4368 0.1721,0.6939c0,0.2125 -0.0386,0.4129 -0.1156,0.6014c-0.077,0.1885 -0.1842,0.3538 -0.3212,0.496c-0.1371,0.1423 -0.2964,0.2536 -0.478,0.3342c-0.1817,0.0805 -0.377,0.1208 -0.586,0.1208zM41.9089,34.3091c0.168,0 0.317,-0.042 0.4472,-0.1259c0.1302,-0.084 0.2321,-0.1963 0.3058,-0.3367c0.0737,-0.1405 0.1105,-0.2964 0.1105,-0.4678c0,-0.1473 -0.03,-0.2775 -0.0899,-0.3906c-0.06,-0.1131 -0.143,-0.2022 -0.2493,-0.2674c-0.1062,-0.0651 -0.2329,-0.0977 -0.3803,-0.0977c-0.1645,0 -0.3111,0.0421 -0.4395,0.126c-0.1285,0.084 -0.2288,0.1962 -0.3008,0.3366c-0.0719,0.1406 -0.108,0.2965 -0.108,0.4678c0,0.1474 0.0301,0.2785 0.0899,0.3932c0.06,0.1148 0.1431,0.2039 0.2493,0.2673c0.1063,0.0633 0.2279,0.0951 0.365,0.0951z" fill="currentColor"/>
<path id="_4_8" d="M45.5934,34.9256c-0.2741,0 -0.5131,-0.0599 -0.7171,-0.1799c-0.2039,-0.1199 -0.3616,-0.2836 -0.4729,-0.491c-0.1115,-0.2074 -0.1671,-0.4394 -0.1671,-0.6965c0,-0.2124 0.0369,-0.412 0.1105,-0.5988c0.0737,-0.1867 0.1782,-0.352 0.3137,-0.4961c0.1353,-0.1438 0.292,-0.2561 0.4703,-0.3366c0.1782,-0.0805 0.3735,-0.1208 0.586,-0.1208c0.2742,0 0.5072,0.0565 0.699,0.1696c0.192,0.113 0.3376,0.2647 0.4368,0.4549c0.0994,0.1902 0.1491,0.4035 0.1491,0.6399c0,0.0618 -0.0052,0.1252 -0.0154,0.1903c-0.0103,0.0651 -0.0239,0.1302 -0.0411,0.1953h-2.1588l0.0359,-0.514h1.7734l-0.3341,0.2312c0.0445,-0.1542 0.0488,-0.292 0.0129,-0.4138c-0.0361,-0.1217 -0.1028,-0.2185 -0.2005,-0.2905c-0.0976,-0.0719 -0.2185,-0.1079 -0.3623,-0.1079c-0.1885,0 -0.3402,0.0462 -0.455,0.1388c-0.1148,0.0925 -0.1988,0.2185 -0.2518,0.3777c-0.0532,0.1593 -0.0797,0.3367 -0.0797,0.532c0,0.1507 0.0282,0.2809 0.0848,0.3906c0.0565,0.1098 0.1361,0.1928 0.239,0.2494c0.1027,0.0565 0.2227,0.0848 0.3598,0.0848c0.1542,0 0.2896,-0.0343 0.406,-0.1028c0.1166,-0.0684 0.209,-0.1559 0.2776,-0.2622l0.5345,0.2776c-0.0651,0.1337 -0.1585,0.2519 -0.2801,0.3546c-0.1216,0.1028 -0.2639,0.1825 -0.4267,0.239c-0.1627,0.0565 -0.3384,0.0848 -0.5269,0.0848z" fill="currentColor"/>
<path id="_5_9" d="M47.7672,35.9998c-0.0858,0 -0.1636,-0.0078 -0.2339,-0.0232c-0.0702,-0.0154 -0.1328,-0.0369 -0.1876,-0.0643l0.0411,-0.5501c0.0445,0.0103 0.0969,0.0197 0.1568,0.0283c0.06,0.0086 0.1122,0.0129 0.1567,0.0129c0.1028,0 0.1893,-0.0181 0.2596,-0.054c0.0702,-0.0361 0.132,-0.0858 0.185,-0.1491c0.0532,-0.0634 0.102,-0.1328 0.1466,-0.2082l0.2518,-0.4113l-0.0668,0.5655l-0.7813,-3.0789h0.6939l0.5346,2.2719h-0.2673l1.1771,-2.2719h0.7608l-1.6551,3.0995c-0.0959,0.1782 -0.203,0.3298 -0.3212,0.455c-0.1182,0.1251 -0.2476,0.2192 -0.3881,0.2826c-0.1406,0.0634 -0.2948,0.0951 -0.4626,0.0951z" fill="currentColor"/>
<path id="_6" d="M52.3621,34.9255c-0.2639,0 -0.5019,-0.0591 -0.7144,-0.1774c-0.2125,-0.1181 -0.3803,-0.2809 -0.5037,-0.4883c-0.1234,-0.2074 -0.185,-0.4446 -0.185,-0.7119c0,-0.2159 0.0403,-0.4173 0.1208,-0.604c0.0805,-0.1868 0.1928,-0.3505 0.3367,-0.4909c0.1439,-0.1405 0.3101,-0.2501 0.4986,-0.3288c0.1885,-0.0788 0.3906,-0.1183 0.6066,-0.1183c0.2639,0 0.5021,0.059 0.7144,0.1773c0.2125,0.1183 0.3803,0.2801 0.5037,0.4858c0.1234,0.2056 0.1851,0.4438 0.1851,0.7144c0,0.2125 -0.0411,0.4121 -0.1233,0.5988c-0.0823,0.1868 -0.1954,0.3513 -0.3392,0.4934c-0.1439,0.1422 -0.3102,0.2527 -0.4986,0.3316c-0.1885,0.0788 -0.3889,0.1181 -0.6015,0.1181zM52.3673,34.3087c0.1646,0 0.311,-0.0421 0.4396,-0.1259c0.1285,-0.084 0.2296,-0.1971 0.3033,-0.3392c0.0737,-0.1423 0.1105,-0.299 0.1105,-0.4704c0,-0.1473 -0.0292,-0.2767 -0.0875,-0.3881c-0.0583,-0.1114 -0.1405,-0.1996 -0.2466,-0.2647c-0.1062,-0.0651 -0.2296,-0.0976 -0.3701,-0.0976c-0.1646,0 -0.3119,0.042 -0.4421,0.1259c-0.1302,0.084 -0.2313,0.1962 -0.3033,0.3366c-0.072,0.1406 -0.108,0.2981 -0.108,0.4729c0,0.1474 0.0291,0.2768 0.0873,0.3881c0.0583,0.1114 0.1406,0.1996 0.2468,0.2647c0.1062,0.0651 0.2296,0.0977 0.3701,0.0977z" fill="currentColor"/>
<path id="_7" d="M54.5918,34.8642l0.3906,-2.7962h0.6322l-0.0719,0.55l-0.0412,-0.113c0.0891,-0.1714 0.2108,-0.2973 0.365,-0.3778c0.1542,-0.0805 0.3255,-0.1209 0.514,-0.1209c0.2125,0 0.3932,0.0498 0.5423,0.1492c0.1491,0.0994 0.2587,0.2339 0.329,0.4034c0.0702,0.1696 0.0899,0.3607 0.0591,0.5731l-0.2417,1.7322h-0.6733l0.2313,-1.6551c0.024,-0.1782 -0.0085,-0.3205 -0.0976,-0.4267c-0.0891,-0.1062 -0.2158,-0.1594 -0.3803,-0.1594c-0.1098,0 -0.2116,0.0249 -0.3059,0.0745c-0.0943,0.0497 -0.1713,0.1191 -0.2313,0.2081c-0.06,0.0891 -0.1002,0.1954 -0.1209,0.3188l-0.2261,1.6397h-0.6733z" fill="currentColor"/>
<path id="_8" d="M59.3985,34.9255c-0.2639,0 -0.4951,-0.0565 -0.6939,-0.1696c-0.1988,-0.113 -0.3538,-0.2698 -0.4653,-0.4703c-0.1113,-0.2004 -0.167,-0.431 -0.167,-0.6914c0,-0.2364 0.0403,-0.4515 0.1208,-0.645c0.0805,-0.1936 0.192,-0.3607 0.3341,-0.5012c0.1423,-0.1405 0.3067,-0.2493 0.4934,-0.3265c0.1867,-0.077 0.3847,-0.1156 0.5937,-0.1156c0.2228,0 0.4172,0.0437 0.5834,0.131c0.1663,0.0875 0.2938,0.2065 0.383,0.3573l-0.1438,0.1285l0.2261,-1.65h0.6836l-0.5397,3.8911h-0.6425l0.0719,-0.5398l0.1491,0.1028c-0.1027,0.1645 -0.2425,0.2887 -0.4189,0.3727c-0.1764,0.084 -0.3658,0.1259 -0.568,0.1259zM59.4909,34.3088c0.168,0 0.3162,-0.0421 0.4447,-0.126c0.1284,-0.084 0.2286,-0.197 0.3007,-0.3392c0.072,-0.1422 0.108,-0.299 0.108,-0.4703c0,-0.1439 -0.03,-0.2725 -0.0899,-0.3854c-0.06,-0.1131 -0.1421,-0.2022 -0.2468,-0.2674c-0.1044,-0.0651 -0.227,-0.0977 -0.3674,-0.0977c-0.1679,0 -0.317,0.0421 -0.4472,0.126c-0.1302,0.0839 -0.2321,0.1962 -0.3058,0.3366c-0.0737,0.1405 -0.1106,0.2981 -0.1106,0.4729c0,0.1474 0.0301,0.2768 0.0899,0.3881c0.0601,0.1113 0.1439,0.1996 0.2519,0.2647c0.108,0.0651 0.2322,0.0977 0.3727,0.0977z" fill="currentColor"/>
<path id="_9" d="M64.1516,34.9255c-0.2639,0 -0.5003,-0.0599 -0.7093,-0.1799c-0.209,-0.1199 -0.3718,-0.2836 -0.4883,-0.491c-0.1166,-0.2074 -0.1747,-0.4412 -0.1747,-0.7016c0,-0.2159 0.0394,-0.4181 0.1182,-0.6066c0.0787,-0.1885 0.1892,-0.353 0.3315,-0.4934c0.1423,-0.1405 0.3067,-0.2501 0.4934,-0.3288c0.1867,-0.0788 0.3864,-0.1183 0.5988,-0.1183c0.2057,0 0.3924,0.0351 0.5603,0.1054c0.1678,0.0702 0.3109,0.1678 0.4292,0.293c0.1181,0.125 0.1996,0.2698 0.2441,0.4343l-0.6015,0.2467c-0.0412,-0.1438 -0.1182,-0.2569 -0.2313,-0.3392c-0.113,-0.0822 -0.2483,-0.1233 -0.406,-0.1233c-0.1645,0 -0.3101,0.0436 -0.4369,0.131c-0.1267,0.0875 -0.2243,0.2013 -0.2929,0.3419c-0.0686,0.1405 -0.1028,0.2929 -0.1028,0.4574c0,0.1474 0.0283,0.2776 0.0848,0.3907c0.0565,0.1131 0.1371,0.2021 0.2417,0.2672c0.1045,0.0651 0.2236,0.0977 0.3573,0.0977c0.1678,0 0.3152,-0.0437 0.442,-0.1311c0.1268,-0.0874 0.2228,-0.2031 0.2879,-0.347l0.5706,0.2826c-0.0651,0.1577 -0.1628,0.2981 -0.293,0.4215c-0.1302,0.1234 -0.2827,0.2193 -0.4575,0.2879c-0.1748,0.0684 -0.3632,0.1027 -0.5654,0.1027z" fill="currentColor"/>
<path id="_10" d="M67.7195,34.9255c-0.2639,0 -0.5019,-0.0591 -0.7144,-0.1774c-0.2124,-0.1181 -0.3803,-0.2809 -0.5037,-0.4883c-0.1234,-0.2074 -0.185,-0.4446 -0.185,-0.7119c0,-0.2159 0.0403,-0.4173 0.1208,-0.604c0.0806,-0.1868 0.1928,-0.3505 0.3367,-0.4909c0.1439,-0.1405 0.3101,-0.2501 0.4986,-0.3288c0.1885,-0.0788 0.3906,-0.1183 0.6066,-0.1183c0.2639,0 0.5021,0.059 0.7144,0.1773c0.2125,0.1183 0.3804,0.2801 0.5037,0.4858c0.1234,0.2056 0.1852,0.4438 0.1852,0.7144c0,0.2125 -0.0412,0.4121 -0.1234,0.5988c-0.0823,0.1868 -0.1953,0.3513 -0.3392,0.4934c-0.1439,0.1422 -0.3101,0.2527 -0.4986,0.3316c-0.1885,0.0788 -0.3889,0.1181 -0.6015,0.1181zM67.7248,34.3087c0.1645,0 0.3109,-0.0421 0.4395,-0.1259c0.1285,-0.084 0.2296,-0.1971 0.3033,-0.3392c0.0737,-0.1423 0.1105,-0.299 0.1105,-0.4704c0,-0.1473 -0.0292,-0.2767 -0.0875,-0.3881c-0.0582,-0.1114 -0.1405,-0.1996 -0.2466,-0.2647c-0.1062,-0.0651 -0.2296,-0.0976 -0.3701,-0.0976c-0.1645,0 -0.3119,0.042 -0.4421,0.1259c-0.1302,0.084 -0.2312,0.1962 -0.3033,0.3366c-0.0719,0.1406 -0.108,0.2981 -0.108,0.4729c0,0.1474 0.0291,0.2768 0.0874,0.3881c0.0582,0.1114 0.1405,0.1996 0.2467,0.2647c0.1063,0.0651 0.2296,0.0977 0.3702,0.0977z" fill="currentColor"/>
<path id="_11" d="M70.6339,34.8641l-0.7042,-2.7962h0.7042l0.4934,2.1999h-0.2826l1.1103,-2.1999h0.7709l-1.4958,2.7962z" fill="currentColor"/>
<path id="_12" d="M74.4469,34.9256c-0.2741,0 -0.5131,-0.0599 -0.7171,-0.1799c-0.2039,-0.1199 -0.3616,-0.2836 -0.4729,-0.491c-0.1115,-0.2074 -0.1671,-0.4394 -0.1671,-0.6965c0,-0.2124 0.0369,-0.412 0.1106,-0.5988c0.0736,-0.1867 0.1781,-0.352 0.3136,-0.4961c0.1353,-0.1438 0.292,-0.2561 0.4703,-0.3366c0.1782,-0.0805 0.3735,-0.1208 0.586,-0.1208c0.2742,0 0.5072,0.0565 0.699,0.1696c0.192,0.113 0.3376,0.2647 0.4369,0.4549c0.0994,0.1902 0.1491,0.4035 0.1491,0.6399c0,0.0618 -0.0053,0.1252 -0.0154,0.1903c-0.0104,0.0651 -0.024,0.1302 -0.0412,0.1953h-2.1588l0.0359,-0.514h1.7734l-0.3341,0.2312c0.0445,-0.1542 0.0488,-0.292 0.0129,-0.4138c-0.0361,-0.1217 -0.1028,-0.2185 -0.2004,-0.2905c-0.0977,-0.0719 -0.2185,-0.1079 -0.3624,-0.1079c-0.1885,0 -0.3401,0.0462 -0.455,0.1388c-0.1148,0.0925 -0.1988,0.2185 -0.2518,0.3777c-0.0532,0.1593 -0.0797,0.3367 -0.0797,0.532c0,0.1507 0.0283,0.2809 0.0848,0.3906c0.0565,0.1098 0.1361,0.1928 0.239,0.2494c0.1027,0.0565 0.2228,0.0848 0.3598,0.0848c0.1542,0 0.2896,-0.0343 0.406,-0.1028c0.1166,-0.0684 0.209,-0.1559 0.2776,-0.2622l0.5345,0.2776c-0.0651,0.1337 -0.1584,0.2519 -0.2801,0.3546c-0.1216,0.1028 -0.2639,0.1825 -0.4267,0.239c-0.1627,0.0565 -0.3384,0.0848 -0.5268,0.0848z" fill="currentColor"/>
<path id="_13" d="M76.5022,34.8642l0.3907,-2.7963h0.6374l-0.0823,0.622l-0.0462,-0.0926c0.0959,-0.2089 0.2185,-0.3546 0.3674,-0.4368c0.1491,-0.0823 0.3213,-0.1234 0.5166,-0.1234h0.1645l-0.0822,0.5963h-0.2417c-0.1918,0 -0.3538,0.0608 -0.4858,0.1824c-0.1319,0.1217 -0.2167,0.3025 -0.2545,0.5423l-0.2056,1.5061h-0.6785z" fill="currentColor"/>
<path id="_14" d="M79.6896,34.9258c-0.1782,0 -0.3367,-0.029 -0.4754,-0.0873c-0.1388,-0.0583 -0.2476,-0.1439 -0.3265,-0.257c-0.0788,-0.113 -0.1182,-0.2518 -0.1182,-0.4163c0,-0.1782 0.0445,-0.3306 0.1337,-0.4575c0.0891,-0.1267 0.2125,-0.2304 0.3702,-0.3109c0.1576,-0.0806 0.3392,-0.1363 0.5448,-0.1671l0.9407,-0.1491l-0.0514,0.514l-0.7916,0.1388c-0.1268,0.024 -0.233,0.0677 -0.3187,0.131c-0.0858,0.0634 -0.1285,0.1499 -0.1285,0.2597c0,0.0959 0.0351,0.1678 0.1054,0.2159c0.0702,0.048 0.1602,0.0719 0.2698,0.0719c0.1371,0 0.2604,-0.0316 0.3702,-0.0951c0.1097,-0.0633 0.2004,-0.1483 0.2724,-0.2544c0.072,-0.1062 0.1149,-0.2228 0.1285,-0.3495l0.0977,-0.699c0.0138,-0.0924 -0.0008,-0.1705 -0.0437,-0.2339c-0.0429,-0.0634 -0.1019,-0.1123 -0.1774,-0.1466c-0.0754,-0.0343 -0.1576,-0.0514 -0.2467,-0.0514c-0.1542,0 -0.2921,0.0411 -0.4138,0.1234c-0.1217,0.0822 -0.215,0.1867 -0.2802,0.3136l-0.5294,-0.2982c0.072,-0.1474 0.1705,-0.2733 0.2955,-0.3778c0.1252,-0.1045 0.2708,-0.1867 0.4369,-0.2468c0.1662,-0.06 0.3435,-0.0899 0.532,-0.0899c0.2261,0 0.4274,0.0447 0.604,0.1337c0.1764,0.0891 0.3109,0.2108 0.4035,0.365c0.0924,0.1542 0.1234,0.3341 0.0924,0.5396l-0.2518,1.8196h-0.6425l0.0669,-0.478l0.1696,0.0051c-0.0858,0.1199 -0.1817,0.2193 -0.2879,0.2982c-0.1063,0.0788 -0.2219,0.1379 -0.347,0.1774c-0.1251,0.0394 -0.2596,0.0591 -0.4035,0.0591z" fill="currentColor"/>
<path id="_15" d="M83.3599,35.995c-0.2125,0 -0.4061,-0.036 -0.5809,-0.108c-0.1748,-0.0719 -0.3195,-0.1705 -0.4343,-0.2955c-0.1148,-0.125 -0.1893,-0.2698 -0.2236,-0.4343l0.6374,-0.1953c0.024,0.1302 0.0924,0.2321 0.2056,0.3058c0.1131,0.0737 0.2622,0.1105 0.4472,0.1105c0.1337,0 0.2553,-0.0257 0.3649,-0.077c0.1097,-0.0514 0.2004,-0.1234 0.2728,-0.216c0.072,-0.0924 0.114,-0.2004 0.128,-0.3237l0.098,-0.6733l0.169,0.1645c-0.106,0.1678 -0.24,0.2929 -0.403,0.3752c-0.163,0.0822 -0.3472,0.1234 -0.5528,0.1234c-0.2468,0 -0.4669,-0.0548 -0.6604,-0.1645c-0.1936,-0.1098 -0.3453,-0.2614 -0.455,-0.455c-0.1097,-0.1936 -0.1645,-0.4154 -0.1645,-0.6656c0,-0.209 0.0368,-0.4027 0.1105,-0.5809c0.0737,-0.1782 0.1757,-0.3324 0.3059,-0.4626c0.1302,-0.1302 0.2826,-0.2322 0.4575,-0.3058c0.1746,-0.0737 0.3631,-0.1106 0.5653,-0.1106c0.2193,0 0.4165,0.0447 0.5915,0.1337c0.174,0.0891 0.31,0.2177 0.406,0.3856l-0.134,0.1594l0.082,-0.6168h0.643l-0.376,2.714c-0.03,0.2365 -0.115,0.4456 -0.254,0.6271c-0.139,0.1817 -0.315,0.3247 -0.529,0.4292c-0.2146,0.1045 -0.4536,0.1568 -0.7175,0.1568zM83.5809,34.1291c0.1542,0 0.2922,-0.0377 0.4138,-0.113c0.1213,-0.0754 0.2163,-0.1748 0.2823,-0.2982c0.067,-0.1234 0.101,-0.2587 0.101,-0.4061c0,-0.1337 -0.028,-0.2518 -0.083,-0.3547c-0.054,-0.1028 -0.131,-0.1842 -0.228,-0.2441c-0.098,-0.06 -0.2154,-0.0899 -0.3524,-0.0899c-0.1507,0 -0.287,0.0369 -0.4086,0.1105c-0.1216,0.0737 -0.2185,0.1723 -0.2904,0.2956c-0.072,0.1233 -0.108,0.2639 -0.108,0.4214c0,0.1302 0.0283,0.2468 0.0848,0.3495c0.0565,0.1028 0.1353,0.1834 0.2364,0.2416c0.1011,0.0582 0.2185,0.0874 0.3521,0.0874z" fill="currentColor"/>
<path id="_16" d="M87.265,34.9256c-0.274,0 -0.513,-0.0599 -0.717,-0.1799c-0.204,-0.1199 -0.361,-0.2836 -0.473,-0.491c-0.111,-0.2074 -0.167,-0.4394 -0.167,-0.6965c0,-0.2124 0.037,-0.412 0.111,-0.5988c0.073,-0.1867 0.178,-0.352 0.313,-0.4961c0.136,-0.1438 0.292,-0.2561 0.471,-0.3366c0.178,-0.0805 0.373,-0.1208 0.586,-0.1208c0.274,0 0.507,0.0565 0.699,0.1696c0.192,0.113 0.337,0.2647 0.437,0.4549c0.099,0.1902 0.149,0.4035 0.149,0.6399c0,0.0618 -0.006,0.1252 -0.016,0.1903c-0.01,0.0651 -0.024,0.1302 -0.041,0.1953h-2.159l0.036,-0.514h1.774l-0.335,0.2312c0.045,-0.1542 0.049,-0.292 0.013,-0.4138c-0.036,-0.1217 -0.102,-0.2185 -0.2,-0.2905c-0.098,-0.0719 -0.219,-0.1079 -0.362,-0.1079c-0.189,0 -0.341,0.0462 -0.455,0.1388c-0.115,0.0925 -0.199,0.2185 -0.252,0.3777c-0.053,0.1593 -0.08,0.3367 -0.08,0.532c0,0.1507 0.028,0.2809 0.085,0.3906c0.056,0.1098 0.136,0.1928 0.239,0.2494c0.103,0.0565 0.223,0.0848 0.36,0.0848c0.154,0 0.289,-0.0343 0.406,-0.1028c0.116,-0.0684 0.209,-0.1559 0.277,-0.2622l0.535,0.2776c-0.065,0.1337 -0.159,0.2519 -0.28,0.3546c-0.122,0.1028 -0.264,0.1825 -0.427,0.239c-0.163,0.0565 -0.338,0.0848 -0.527,0.0848z" fill="currentColor"/>
<path id="Vector_9" fill-rule="evenodd" clip-rule="evenodd" d="M18.3165,14.7814c0.5822,0.2403 1.0631,0.4817 1.259,0.6792c0.4214,0.4248 0.4608,0.8824 0.4655,1.5031c0.0021,0.3177 -0.0075,0.7487 -0.0176,1.3219c-0.0099,0.5802 -0.0203,1.326 -0.0203,2.2954c0,3.1426 -2.6463,5.1215 -4.9769,5.9667c-0.2512,0.0911 -0.4412,0.1639 -0.7095,0.0734l-0.7917,-0.3065c-2.0884,-0.9225 -4.399,-2.7688 -4.399,-5.7336c0,-0.9695 -0.0106,-1.7152 -0.0206,-2.2957c-0.0101,-0.5737 -0.0199,-1.0048 -0.0177,-1.3228c0.0063,-0.9123 0.1439,-1.4071 0.9289,-1.8174c0.8733,-0.4562 3.0577,-1.2152 4.0312,-1.4289c0.4262,-0.0933 0.6065,-0.0933 1.0328,-0.0001c0.5105,0.1117 2.0747,0.5862 3.2357,1.0654zM19.477,28.1874c2.7406,-2.044 5.3291,-5.1534 5.3291,-9.6553c0,-0.3096 0.0004,-0.6107 0.0011,-0.9034l-9.5874,-9.2042c-0.5106,-0.4904 -1.1829,-0.4904 -1.6932,-0.0004l-9.5871,9.2038c0.0008,0.2928 0.0012,0.5942 0.0012,0.9041c0,6.0166 4.6891,9.8561 9.1001,11.8749c0.5123,0.2345 0.9395,0.4098 1.3286,0.5518l0.0972,-0.0348c1.5118,-0.5673 3.3669,-1.5114 5.0103,-2.7366z" fill="currentColor"/>
<path id="Vector_10" fill-rule="evenodd" clip-rule="evenodd" d="M3.9167,14.4663l8.0189,-7.6987c1.3993,-1.3438 3.476,-1.3438 4.8751,0l8.0195,7.699l0.0701,-5.1954c-0.0057,-0.7827 -0.0426,-1.1604 -0.0973,-1.3796c-0.0351,-0.1406 -0.0687,-0.1992 -0.1866,-0.322c0.0202,0.0212 -0.0694,-0.0604 -0.3998,-0.2399c-1.1035,-0.5991 -3.0896,-1.3722 -4.4805,-1.8797c-1.0854,-0.3958 -4.416,-1.551 -5.3635,-1.6043c-0.2629,-0.0149 -1.5414,0.3438 -1.9134,0.454c-2.0501,0.607 -6.1328,2.0595 -7.9319,3.033c-0.3327,0.18 -0.4224,0.2614 -0.4015,0.2397c-0.116,0.12 -0.1486,0.1763 -0.1834,0.3155c-0.1664,0.6665 -0.0773,3.273 -0.0533,4.6991c0.0095,0.563 0.0191,1.1866 0.0274,1.8791z" fill="currentColor"/>
<path id="Vector_11" fill-rule="evenodd" clip-rule="evenodd" d="M14.1377,34.641l0.0085,0.0225c0.1479,0.0446 0.3058,0.0446 0.4537,0l0.0003,-0.0011l0.0004,0.0009l0.6184,-0.2103c1.913,-0.6938 4.254,-1.8401 6.3519,-3.3506c3.4722,-2.5003 7.0658,-6.5398 7.0658,-12.5217c0,-2.807 0.0307,-4.9665 0.0596,-6.645c0.0288,-1.6714 0.0565,-2.8855 0.05,-3.7785c-0.0065,-0.8809 -0.0451,-1.5308 -0.1779,-2.0447c-0.147,-0.5689 -0.4018,-0.9458 -0.7513,-1.2982c-0.8891,-0.8963 -5.2056,-2.4383 -6.4829,-2.8882c-1.3532,-0.4766 -5.6146,-1.9261 -6.9609,-1.9261c-1.3458,0 -5.6074,1.4526 -6.9604,1.9296c-1.2731,0.4488 -5.5926,1.9943 -6.4812,2.8825c-0.351,0.351 -0.6063,0.7273 -0.7535,1.2965c-0.1328,0.5135 -0.171,1.1635 -0.1773,2.0447c-0.0064,0.8934 0.0217,2.1082 0.0507,3.7809c0.0292,1.6791 0.0597,3.8393 0.0597,6.6466c0,7.8399 6.2054,12.7474 11.8395,15.2363l2.1813,0.8422l0.0059,-0.0182zM2.21,5.796c1.0902,-0.6976 4.3186,-1.8943 5.7233,-2.3894c1.722,-0.607 4.0214,-1.362 5.5909,-1.7061c0.4426,-0.0971 0.7202,-0.1343 0.8488,-0.1343c0.4488,0 1.7536,0.3502 2.3927,0.5323c2.376,0.6776 7.211,2.3346 9.3393,3.4507l0.5889,0.3582c0.0082,0.0071 0.0114,0.0106 0.0113,0.0103c0.1914,0.1929 0.2814,0.3339 0.3469,0.5871c0.0796,0.3078 0.1217,0.7836 0.1281,1.6638c0.0064,0.8678 -0.0207,2.0498 -0.05,3.7404c-0.0289,1.6837 -0.0597,3.8529 -0.0597,6.6718c0,7.0556 -5.7065,11.5058 -10.9076,13.8037l-1.7899,0.706l-1.7895,-0.7058c-5.2013,-2.2977 -10.9061,-6.7471 -10.9061,-13.8038c0,-2.8196 -0.0309,-4.9893 -0.0599,-6.6738c-0.0294,-1.6917 -0.0567,-2.8744 -0.0507,-3.7428c0.0062,-0.8804 0.0481,-1.3564 0.1276,-1.6634c0.0652,-0.2521 0.1543,-0.3911 0.3444,-0.5809l0.1713,-0.1239z" fill="currentColor"/>
</g></svg>