<svg viewBox="0 0 16.5 18.1667" fill="none" xmlns="http://www.w3.org/2000/svg" xmlns:xlink="http://www.w3.org/1999/xlink" x="0" y="0"><path id="Vector_14" d="M8.25,0.7505c1.9493,1.913 4.4935,2.909 7.0935,2.777c0.3785,1.429 0.4943,2.928 0.3406,4.407c-0.1538,1.479 -0.574,2.909 -1.2357,4.205c-0.6617,1.295 -1.5514,2.43 -2.6162,3.337c-1.0648,0.906 -2.283,1.566 -3.5822,1.94c-1.2992,-0.374 -2.5174,-1.034 -3.5822,-1.94c-1.0648,-0.907 -1.9545,-2.042 -2.6162,-3.337c-0.6617,-1.296 -1.0819,-2.726 -1.2357,-4.205c-0.1537,-1.479 -0.0379,-2.978 0.3406,-4.407c2.6,0.132 5.1442,-0.864 7.0935,-2.777z" stroke="white" stroke-width="1.5" stroke-linecap="round" stroke-linejoin="round"/></svg>