<svg viewBox="0 0 18.1667 16.5" fill="none" xmlns="http://www.w3.org/2000/svg" xmlns:xlink="http://www.w3.org/1999/xlink" x="0" y="0"><path id="Vector_18" d="M9.0833,4.083c0,-0.884 -0.3511,-1.732 -0.9763,-2.357c-0.6251,-0.625 -1.4729,-0.976 -2.357,-0.976h-5v12.5h5.8333c0.6631,0 1.299,0.263 1.7678,0.732c0.4689,0.469 0.7322,1.105 0.7322,1.768M9.0833,4.083v11.667M9.0833,4.083c0,-0.884 0.3512,-1.732 0.9764,-2.357c0.6251,-0.625 1.4729,-0.976 2.357,-0.976h5v12.5h-5.8334c-0.663,0 -1.2989,0.263 -1.7677,0.732c-0.4689,0.469 -0.7323,1.105 -0.7323,1.768" stroke="#AF060D" stroke-width="1.5" stroke-linecap="round" stroke-linejoin="round"/></svg>