<svg viewBox="0 0 18.1667 18.1667" fill="none" xmlns="http://www.w3.org/2000/svg" xmlns:xlink="http://www.w3.org/1999/xlink" x="0" y="0"><path id="Vector_20" d="M5.4998,2.7235l0.0694,-0.747v0zM7.1201,2.0525l-0.5771,-0.479v0zM2.6484,4.6935l-0.7468,0.07v0zM4.6938,2.6485l-0.0695,0.747v0zM2.0522,7.1205l-0.4789,-0.578v0zM2.7234,5.4995l0.7467,-0.069v0zM1.4292,10.5295l-0.4789,0.577v0zM1.4292,7.6375l0.479,0.577v0zM2.7234,12.6665l-0.7468,-0.069v0zM2.0522,11.0465l0.479,-0.577v0zM4.6938,15.5185l-0.0695,-0.747v0zM2.6484,13.4725l0.7468,0.07v0zM7.1201,16.1145l0.5772,-0.479v0zM5.4998,15.4435l0.0694,0.747v0zM10.5296,16.7375l0.5772,0.479v0zM7.6371,16.7375l-0.5772,0.479v0zM12.6669,15.4435l-0.0695,0.747v0zM11.0466,16.1145l-0.5772,-0.479v0zM15.5183,13.4725l-0.7468,0.07v0zM13.4729,15.5185l0.0695,-0.747v0zM16.1145,11.0465l-0.479,-0.577v0zM15.4433,12.6665l0.7468,-0.069v0zM16.7374,7.6375l0.479,-0.578v0zM16.7374,10.5295l0.479,0.577v0zM15.4433,5.4995l0.7468,0.07v0zM16.1145,7.1205l-0.479,0.577v0zM13.4729,2.6485l-0.0694,-0.747zM15.5183,4.6935l-0.7468,-0.069v0zM11.0466,2.0525l0.5771,-0.479v0zM12.6669,2.7235l0.0695,0.747v0zM10.5296,1.4295l-0.5771,0.479v0zM7.6371,1.4295l0.5771,0.479v0zM10.5296,1.4295l-0.5771,0.479l0.5169,0.623l0.5772,-0.479l0.5771,-0.479l-0.5169,-0.623zM12.6669,2.7235l0.0695,0.747l0.806,-0.075l-0.0695,-0.747l-0.0694,-0.747l-0.8061,0.075zM15.5183,4.6935l-0.7468,-0.069l-0.0749,0.806l0.7467,0.069l0.7468,0.07l0.075,-0.806zM16.1145,7.1205l-0.479,0.577l0.623,0.517l0.4789,-0.577l0.479,-0.578l-0.623,-0.517zM16.7374,10.5295l-0.4789,-0.577l-0.623,0.517l0.479,0.577l0.4789,0.577l0.623,-0.517zM15.4433,12.6665l-0.7467,0.07l0.0749,0.806l0.7468,-0.07l0.7468,-0.069l-0.075,-0.806zM13.4729,15.5185l0.0695,-0.747l-0.806,-0.075l-0.0695,0.747l-0.0695,0.747l0.8061,0.075zM11.0466,16.1145l-0.5772,-0.479l-0.5169,0.623l0.5771,0.479l0.5772,0.479l0.5169,-0.623zM7.6371,16.7375l0.5771,-0.479l-0.5169,-0.623l-0.5772,0.479l-0.5771,0.479l0.5169,0.623zM5.4998,15.4435l-0.0695,-0.747l-0.806,0.075l0.0695,0.747l0.0694,0.747l0.806,-0.075zM2.6484,13.4725l0.7468,0.07l0.0749,-0.806l-0.7467,-0.07l-0.7468,-0.069l-0.075,0.806zM2.0522,11.0465l0.479,-0.577l-0.623,-0.517l-0.479,0.577l-0.4789,0.577l0.623,0.517zM1.4292,7.6375l0.479,0.577l0.623,-0.517l-0.479,-0.577l-0.4789,-0.578l-0.623,0.517zM2.7234,5.4995l0.7467,-0.069l-0.0749,-0.806l-0.7468,0.069l-0.7468,0.07l0.075,0.806zM4.6938,2.6485l-0.0695,0.747l0.806,0.075l0.0695,-0.747l0.0694,-0.747l-0.806,-0.075zM7.1201,2.0525l0.5772,0.479l0.5169,-0.623l-0.5771,-0.479l-0.5772,-0.479l-0.5169,0.623zM5.4998,2.7235l-0.0695,0.747c0.8644,0.08 1.7127,-0.271 2.267,-0.939l-0.5772,-0.479l-0.5771,-0.479c-0.2381,0.287 -0.6025,0.438 -0.9738,0.403zM2.6484,4.6935l0.7468,-0.069c-0.0655,-0.704 0.5249,-1.295 1.2291,-1.229l0.0695,-0.747l0.0694,-0.747c-1.6394,-0.152 -3.014,1.222 -2.8616,2.862zM2.0522,7.1205l0.479,0.577c0.668,-0.555 1.0193,-1.403 0.9389,-2.267l-0.7467,0.069l-0.7468,0.07c0.0345,0.371 -0.1164,0.735 -0.4033,0.973zM1.4292,10.5295l0.479,-0.577c-0.5442,-0.452 -0.5442,-1.287 0,-1.738l-0.479,-0.577l-0.4789,-0.578c-1.267,1.052 -1.267,2.996 0,4.047zM2.7234,12.6665l0.7467,0.07c0.0804,-0.864 -0.2709,-1.713 -0.9389,-2.267l-0.479,0.577l-0.4789,0.577c0.2869,0.238 0.4378,0.603 0.4033,0.974zM4.6938,15.5185l-0.0695,-0.747c-0.7042,0.065 -1.2946,-0.525 -1.2291,-1.229l-0.7468,-0.07l-0.7468,-0.069c-0.1524,1.639 1.2222,3.014 2.8616,2.862zM7.1201,16.1145l0.5772,-0.479c-0.5543,-0.668 -1.4026,-1.019 -2.267,-0.939l0.0695,0.747l0.0694,0.747c0.3713,-0.035 0.7357,0.116 0.9738,0.403zM10.5296,16.7375l-0.5771,-0.479c-0.4516,0.544 -1.2867,0.544 -1.7383,0l-0.5771,0.479l-0.5772,0.479c1.0514,1.267 2.9955,1.267 4.0469,0zM12.6669,15.4435l0.0695,-0.747c-0.8644,-0.08 -1.7127,0.271 -2.267,0.939l0.5772,0.479l0.5771,0.479c0.2381,-0.287 0.6025,-0.438 0.9737,-0.403zM15.5183,13.4725l-0.7468,0.07c0.0655,0.704 -0.5249,1.294 -1.2291,1.229l-0.0695,0.747l-0.0694,0.747c1.6394,0.152 3.014,-1.223 2.8616,-2.862zM16.1145,11.0465l-0.479,-0.577c-0.668,0.554 -1.0193,1.403 -0.9389,2.267l0.7467,-0.07l0.7468,-0.069c-0.0345,-0.371 0.1164,-0.736 0.4033,-0.974zM16.7374,7.6375l-0.4789,0.577c0.5442,0.451 0.5442,1.286 0,1.738l0.4789,0.577l0.479,0.577c1.267,-1.051 1.267,-2.995 0,-4.047zM15.4433,5.4995l-0.7467,-0.069c-0.0804,0.864 0.2709,1.712 0.9389,2.267l0.479,-0.577l0.4789,-0.578c-0.2869,-0.238 -0.4378,-0.602 -0.4033,-0.973zM13.4729,2.6485l0.0695,0.747c0.7042,-0.066 1.2946,0.525 1.2291,1.229l0.7468,0.069l0.7468,0.07c0.1524,-1.64 -1.2222,-3.014 -2.8616,-2.862zM11.0466,2.0525l-0.5772,0.479c0.5543,0.668 1.4026,1.019 2.267,0.939l-0.0695,-0.747l-0.0695,-0.747c-0.3712,0.035 -0.7356,-0.116 -0.9737,-0.403zM10.5296,1.4295l0.5772,-0.479c-1.0514,-1.267 -2.9955,-1.267 -4.0469,0l0.5772,0.479l0.5771,0.479c0.4516,-0.545 1.2867,-0.545 1.7383,0zM11.5833,9.0835h-0.75c0,0.966 -0.7835,1.75 -1.75,1.75v0.75v0.75c1.795,0 3.25,-1.455 3.25,-3.25zM9.0833,11.5835v-0.75c-0.9664,0 -1.75,-0.784 -1.75,-1.75h-0.75h-0.75c0,1.795 1.4551,3.25 3.25,3.25zM6.5833,9.0835h0.75c0,-0.967 0.7836,-1.75 1.75,-1.75v-0.75v-0.75c-1.7949,0 -3.25,1.455 -3.25,3.25zM9.0833,6.5835v0.75c0.9665,0 1.75,0.783 1.75,1.75h0.75h0.75c0,-1.795 -1.455,-3.25 -3.25,-3.25z" fill="currentColor"/></svg>