<svg viewBox="0 0 18.1667 13.1667" fill="none" xmlns="http://www.w3.org/2000/svg" xmlns:xlink="http://www.w3.org/1999/xlink" x="0" y="0"><path id="Vector_15" d="M14.0833,0.7505h-11.6666c-0.9205,0 -1.6667,0.746 -1.6667,1.666v6.667M5.75,12.4165h10c0.9205,0 1.6667,-0.746 1.6667,-1.666v-5c0,-0.921 -0.7462,-1.667 -1.6667,-1.667h-10c-0.9205,0 -1.6667,0.746 -1.6667,1.667v5c0,0.92 0.7462,1.666 1.6667,1.666zM12.4167,8.2505c0,0.92 -0.7462,1.666 -1.6667,1.666c-0.9205,0 -1.6667,-0.746 -1.6667,-1.666c0,-0.921 0.7462,-1.667 1.6667,-1.667c0.9205,0 1.6667,0.746 1.6667,1.667z" stroke="white" stroke-width="1.5" stroke-linecap="round" stroke-linejoin="round"/></svg>